v 0.02137365 0.00000000 -0.04865437
v 0.02129232 0.00186284 -0.04865437
v 0.02104894 0.00371150 -0.04865437
v 0.02064536 0.00553191 -0.04865437
v 0.02008466 0.00731022 -0.04865437
v 0.01937111 0.00903290 -0.04865437
v 0.01851013 0.01068683 -0.04865437
v 0.01750827 0.01225942 -0.04865437
v 0.01637317 0.01373872 -0.04865437
v 0.01511345 0.01511345 -0.04865437
v 0.01373872 0.01637317 -0.04865437
v 0.01225942 0.01750827 -0.04865437
v 0.01068683 0.01851013 -0.04865437
v 0.00903290 0.01937111 -0.04865437
v 0.00731022 0.02008466 -0.04865437
v 0.00553191 0.02064536 -0.04865437
v 0.00371150 0.02104894 -0.04865437
v 0.00186284 0.02129232 -0.04865437
v 0.00000000 0.02137365 -0.04865437
v -0.00186284 0.02129232 -0.04865437
v -0.00371150 0.02104894 -0.04865437
v -0.00553191 0.02064536 -0.04865437
v -0.00731022 0.02008466 -0.04865437
v -0.00903290 0.01937111 -0.04865437
v -0.01068683 0.01851013 -0.04865437
v -0.01225942 0.01750827 -0.04865437
v -0.01373872 0.01637317 -0.04865437
v -0.01511345 0.01511345 -0.04865437
v -0.01637317 0.01373872 -0.04865437
v -0.01750827 0.01225942 -0.04865437
v -0.01851013 0.01068683 -0.04865437
v -0.01937111 0.00903290 -0.04865437
v -0.02008466 0.00731022 -0.04865437
v -0.02064536 0.00553191 -0.04865437
v -0.02104894 0.00371150 -0.04865437
v -0.02129232 0.00186284 -0.04865437
v -0.02137365 0.00000000 -0.04865437
v -0.02129232 -0.00186284 -0.04865437
v -0.02104894 -0.00371150 -0.04865437
v -0.02064536 -0.00553191 -0.04865437
v -0.02008466 -0.00731022 -0.04865437
v -0.01937111 -0.00903290 -0.04865437
v -0.01851013 -0.01068683 -0.04865437
v -0.01750827 -0.01225942 -0.04865437
v -0.01637317 -0.01373872 -0.04865437
v -0.01511345 -0.01511345 -0.04865437
v -0.01373872 -0.01637317 -0.04865437
v -0.01225942 -0.01750827 -0.04865437
v -0.01068683 -0.01851013 -0.04865437
v -0.00903290 -0.01937111 -0.04865437
v -0.00731022 -0.02008466 -0.04865437
v -0.00553191 -0.02064536 -0.04865437
v -0.00371150 -0.02104894 -0.04865437
v -0.00186284 -0.02129232 -0.04865437
v -0.00000000 -0.02137365 -0.04865437
v 0.00186284 -0.02129232 -0.04865437
v 0.00371150 -0.02104894 -0.04865437
v 0.00553191 -0.02064536 -0.04865437
v 0.00731022 -0.02008466 -0.04865437
v 0.00903290 -0.01937111 -0.04865437
v 0.01068683 -0.01851013 -0.04865437
v 0.01225942 -0.01750827 -0.04865437
v 0.01373872 -0.01637317 -0.04865437
v 0.01511345 -0.01511345 -0.04865437
v 0.01637317 -0.01373872 -0.04865437
v 0.01750827 -0.01225942 -0.04865437
v 0.01851013 -0.01068683 -0.04865437
v 0.01937111 -0.00903290 -0.04865437
v 0.02008466 -0.00731022 -0.04865437
v 0.02064536 -0.00553191 -0.04865437
v 0.02104894 -0.00371150 -0.04865437
v 0.02129232 -0.00186284 -0.04865437
v 0.02281182 0.00000000 -0.03475312
v 0.02272502 0.00198818 -0.03475312
v 0.02246526 0.00396123 -0.03475312
v 0.02203453 0.00590413 -0.03475312
v 0.02143610 0.00780210 -0.03475312
v 0.02067453 0.00964069 -0.03475312
v 0.01975562 0.01140591 -0.03475312
v 0.01868635 0.01308432 -0.03475312
v 0.01747487 0.01466316 -0.03475312
v 0.01613039 0.01613039 -0.03475312
v 0.01466316 0.01747487 -0.03475312
v 0.01308432 0.01868635 -0.03475312
v 0.01140591 0.01975562 -0.03475312
v 0.00964069 0.02067453 -0.03475312
v 0.00780210 0.02143610 -0.03475312
v 0.00590413 0.02203453 -0.03475312
v 0.00396123 0.02246526 -0.03475312
v 0.00198818 0.02272502 -0.03475312
v 0.00000000 0.02281182 -0.03475312
v -0.00198818 0.02272502 -0.03475312
v -0.00396123 0.02246526 -0.03475312
v -0.00590413 0.02203453 -0.03475312
v -0.00780210 0.02143610 -0.03475312
v -0.00964069 0.02067453 -0.03475312
v -0.01140591 0.01975562 -0.03475312
v -0.01308432 0.01868635 -0.03475312
v -0.01466316 0.01747487 -0.03475312
v -0.01613039 0.01613039 -0.03475312
v -0.01747487 0.01466316 -0.03475312
v -0.01868635 0.01308432 -0.03475312
v -0.01975562 0.01140591 -0.03475312
v -0.02067453 0.00964069 -0.03475312
v -0.02143610 0.00780210 -0.03475312
v -0.02203453 0.00590413 -0.03475312
v -0.02246526 0.00396123 -0.03475312
v -0.02272502 0.00198818 -0.03475312
v -0.02281182 0.00000000 -0.03475312
v -0.02272502 -0.00198818 -0.03475312
v -0.02246526 -0.00396123 -0.03475312
v -0.02203453 -0.00590413 -0.03475312
v -0.02143610 -0.00780210 -0.03475312
v -0.02067453 -0.00964069 -0.03475312
v -0.01975562 -0.01140591 -0.03475312
v -0.01868635 -0.01308432 -0.03475312
v -0.01747487 -0.01466316 -0.03475312
v -0.01613039 -0.01613039 -0.03475312
v -0.01466316 -0.01747487 -0.03475312
v -0.01308432 -0.01868635 -0.03475312
v -0.01140591 -0.01975562 -0.03475312
v -0.00964069 -0.02067453 -0.03475312
v -0.00780210 -0.02143610 -0.03475312
v -0.00590413 -0.02203453 -0.03475312
v -0.00396123 -0.02246526 -0.03475312
v -0.00198818 -0.02272502 -0.03475312
v -0.00000000 -0.02281182 -0.03475312
v 0.00198818 -0.02272502 -0.03475312
v 0.00396123 -0.02246526 -0.03475312
v 0.00590413 -0.02203453 -0.03475312
v 0.00780210 -0.02143610 -0.03475312
v 0.00964069 -0.02067453 -0.03475312
v 0.01140591 -0.01975562 -0.03475312
v 0.01308432 -0.01868635 -0.03475312
v 0.01466316 -0.01747487 -0.03475312
v 0.01613039 -0.01613039 -0.03475312
v 0.01747487 -0.01466316 -0.03475312
v 0.01868635 -0.01308432 -0.03475312
v 0.01975562 -0.01140591 -0.03475312
v 0.02067453 -0.00964069 -0.03475312
v 0.02143610 -0.00780210 -0.03475312
v 0.02203453 -0.00590413 -0.03475312
v 0.02246526 -0.00396123 -0.03475312
v 0.02272502 -0.00198818 -0.03475312
v 0.02442567 0.00000000 -0.02085188
v 0.02433273 0.00212884 -0.02085188
v 0.02405459 0.00424147 -0.02085188
v 0.02359339 0.00632183 -0.02085188
v 0.02295263 0.00835407 -0.02085188
v 0.02213718 0.01032274 -0.02085188
v 0.02115325 0.01221284 -0.02085188
v 0.02000834 0.01400999 -0.02085188
v 0.01871115 0.01570052 -0.02085188
v 0.01727156 0.01727156 -0.02085188
v 0.01570052 0.01871115 -0.02085188
v 0.01400999 0.02000834 -0.02085188
v 0.01221284 0.02115325 -0.02085188
v 0.01032274 0.02213718 -0.02085188
v 0.00835407 0.02295263 -0.02085188
v 0.00632183 0.02359339 -0.02085188
v 0.00424147 0.02405459 -0.02085188
v 0.00212884 0.02433273 -0.02085188
v 0.00000000 0.02442567 -0.02085188
v -0.00212884 0.02433273 -0.02085188
v -0.00424147 0.02405459 -0.02085188
v -0.00632183 0.02359339 -0.02085188
v -0.00835407 0.02295263 -0.02085188
v -0.01032274 0.02213718 -0.02085188
v -0.01221284 0.02115325 -0.02085188
v -0.01400999 0.02000834 -0.02085188
v -0.01570052 0.01871115 -0.02085188
v -0.01727156 0.01727156 -0.02085188
v -0.01871115 0.01570052 -0.02085188
v -0.02000834 0.01400999 -0.02085188
v -0.02115325 0.01221284 -0.02085188
v -0.02213718 0.01032274 -0.02085188
v -0.02295263 0.00835407 -0.02085188
v -0.02359339 0.00632183 -0.02085188
v -0.02405459 0.00424147 -0.02085188
v -0.02433273 0.00212884 -0.02085188
v -0.02442567 0.00000000 -0.02085188
v -0.02433273 -0.00212884 -0.02085188
v -0.02405459 -0.00424147 -0.02085188
v -0.02359339 -0.00632183 -0.02085188
v -0.02295263 -0.00835407 -0.02085188
v -0.02213718 -0.01032274 -0.02085188
v -0.02115325 -0.01221284 -0.02085188
v -0.02000834 -0.01400999 -0.02085188
v -0.01871115 -0.01570052 -0.02085188
v -0.01727156 -0.01727156 -0.02085188
v -0.01570052 -0.01871115 -0.02085188
v -0.01400999 -0.02000834 -0.02085188
v -0.01221284 -0.02115325 -0.02085188
v -0.01032274 -0.02213718 -0.02085188
v -0.00835407 -0.02295263 -0.02085188
v -0.00632183 -0.02359339 -0.02085188
v -0.00424147 -0.02405459 -0.02085188
v -0.00212884 -0.02433273 -0.02085188
v -0.00000000 -0.02442567 -0.02085188
v 0.00212884 -0.02433273 -0.02085188
v 0.00424147 -0.02405459 -0.02085188
v 0.00632183 -0.02359339 -0.02085188
v 0.00835407 -0.02295263 -0.02085188
v 0.01032274 -0.02213718 -0.02085188
v 0.01221284 -0.02115325 -0.02085188
v 0.01400999 -0.02000834 -0.02085188
v 0.01570052 -0.01871115 -0.02085188
v 0.01727156 -0.01727156 -0.02085188
v 0.01871115 -0.01570052 -0.02085188
v 0.02000834 -0.01400999 -0.02085188
v 0.02115325 -0.01221284 -0.02085188
v 0.02213718 -0.01032274 -0.02085188
v 0.02295263 -0.00835407 -0.02085188
v 0.02359339 -0.00632183 -0.02085188
v 0.02405459 -0.00424147 -0.02085188
v 0.02433273 -0.00212884 -0.02085188
v 0.02566832 0.00000000 -0.00695063
v 0.02557065 0.00223714 -0.00695063
v 0.02527837 0.00445726 -0.00695063
v 0.02479370 0.00664345 -0.00695063
v 0.02412034 0.00877908 -0.00695063
v 0.02326340 0.01084790 -0.00695063
v 0.02222942 0.01283416 -0.00695063
v 0.02102626 0.01472275 -0.00695063
v 0.01966308 0.01649928 -0.00695063
v 0.01815025 0.01815025 -0.00695063
v 0.01649928 0.01966308 -0.00695063
v 0.01472275 0.02102626 -0.00695063
v 0.01283416 0.02222942 -0.00695063
v 0.01084790 0.02326340 -0.00695063
v 0.00877908 0.02412034 -0.00695063
v 0.00664345 0.02479370 -0.00695063
v 0.00445726 0.02527837 -0.00695063
v 0.00223714 0.02557065 -0.00695063
v 0.00000000 0.02566832 -0.00695063
v -0.00223714 0.02557065 -0.00695063
v -0.00445726 0.02527837 -0.00695063
v -0.00664345 0.02479370 -0.00695063
v -0.00877908 0.02412034 -0.00695063
v -0.01084790 0.02326340 -0.00695063
v -0.01283416 0.02222942 -0.00695063
v -0.01472275 0.02102626 -0.00695063
v -0.01649928 0.01966308 -0.00695063
v -0.01815025 0.01815025 -0.00695063
v -0.01966308 0.01649928 -0.00695063
v -0.02102626 0.01472275 -0.00695063
v -0.02222942 0.01283416 -0.00695063
v -0.02326340 0.01084790 -0.00695063
v -0.02412034 0.00877908 -0.00695063
v -0.02479370 0.00664345 -0.00695063
v -0.02527837 0.00445726 -0.00695063
v -0.02557065 0.00223714 -0.00695063
v -0.02566832 0.00000000 -0.00695063
v -0.02557065 -0.00223714 -0.00695063
v -0.02527837 -0.00445726 -0.00695063
v -0.02479370 -0.00664345 -0.00695063
v -0.02412034 -0.00877908 -0.00695063
v -0.02326340 -0.01084790 -0.00695063
v -0.02222942 -0.01283416 -0.00695063
v -0.02102626 -0.01472275 -0.00695063
v -0.01966308 -0.01649928 -0.00695063
v -0.01815025 -0.01815025 -0.00695063
v -0.01649928 -0.01966308 -0.00695063
v -0.01472275 -0.02102626 -0.00695063
v -0.01283416 -0.02222942 -0.00695063
v -0.01084790 -0.02326340 -0.00695063
v -0.00877908 -0.02412034 -0.00695063
v -0.00664345 -0.02479370 -0.00695063
v -0.00445726 -0.02527837 -0.00695063
v -0.00223714 -0.02557065 -0.00695063
v -0.00000000 -0.02566832 -0.00695063
v 0.00223714 -0.02557065 -0.00695063
v 0.00445726 -0.02527837 -0.00695063
v 0.00664345 -0.02479370 -0.00695063
v 0.00877908 -0.02412034 -0.00695063
v 0.01084790 -0.02326340 -0.00695063
v 0.01283416 -0.02222942 -0.00695063
v 0.01472275 -0.02102626 -0.00695063
v 0.01649928 -0.01966308 -0.00695063
v 0.01815025 -0.01815025 -0.00695063
v 0.01966308 -0.01649928 -0.00695063
v 0.02102626 -0.01472275 -0.00695063
v 0.02222942 -0.01283416 -0.00695063
v 0.02326340 -0.01084790 -0.00695063
v 0.02412034 -0.00877908 -0.00695063
v 0.02479370 -0.00664345 -0.00695063
v 0.02527837 -0.00445726 -0.00695063
v 0.02557065 -0.00223714 -0.00695063
v 0.02704143 0.00000000 0.00695063
v 0.02693853 0.00235682 0.00695063
v 0.02663061 0.00469569 0.00695063
v 0.02612001 0.00699884 0.00695063
v 0.02541063 0.00924871 0.00695063
v 0.02450786 0.01142820 0.00695063
v 0.02341856 0.01352071 0.00695063
v 0.02215104 0.01551033 0.00695063
v 0.02071493 0.01738189 0.00695063
v 0.01912118 0.01912118 0.00695063
v 0.01738189 0.02071493 0.00695063
v 0.01551033 0.02215104 0.00695063
v 0.01352071 0.02341856 0.00695063
v 0.01142820 0.02450786 0.00695063
v 0.00924871 0.02541063 0.00695063
v 0.00699884 0.02612001 0.00695063
v 0.00469569 0.02663061 0.00695063
v 0.00235682 0.02693853 0.00695063
v 0.00000000 0.02704143 0.00695063
v -0.00235682 0.02693853 0.00695063
v -0.00469569 0.02663061 0.00695063
v -0.00699884 0.02612001 0.00695063
v -0.00924871 0.02541063 0.00695063
v -0.01142820 0.02450786 0.00695063
v -0.01352071 0.02341856 0.00695063
v -0.01551033 0.02215104 0.00695063
v -0.01738189 0.02071493 0.00695063
v -0.01912118 0.01912118 0.00695063
v -0.02071493 0.01738189 0.00695063
v -0.02215104 0.01551033 0.00695063
v -0.02341856 0.01352071 0.00695063
v -0.02450786 0.01142820 0.00695063
v -0.02541063 0.00924871 0.00695063
v -0.02612001 0.00699884 0.00695063
v -0.02663061 0.00469569 0.00695063
v -0.02693853 0.00235682 0.00695063
v -0.02704143 0.00000000 0.00695063
v -0.02693853 -0.00235682 0.00695063
v -0.02663061 -0.00469569 0.00695063
v -0.02612001 -0.00699884 0.00695063
v -0.02541063 -0.00924871 0.00695063
v -0.02450786 -0.01142820 0.00695063
v -0.02341856 -0.01352071 0.00695063
v -0.02215104 -0.01551033 0.00695063
v -0.02071493 -0.01738189 0.00695063
v -0.01912118 -0.01912118 0.00695063
v -0.01738189 -0.02071493 0.00695063
v -0.01551033 -0.02215104 0.00695063
v -0.01352071 -0.02341856 0.00695063
v -0.01142820 -0.02450786 0.00695063
v -0.00924871 -0.02541063 0.00695063
v -0.00699884 -0.02612001 0.00695063
v -0.00469569 -0.02663061 0.00695063
v -0.00235682 -0.02693853 0.00695063
v -0.00000000 -0.02704143 0.00695063
v 0.00235682 -0.02693853 0.00695063
v 0.00469569 -0.02663061 0.00695063
v 0.00699884 -0.02612001 0.00695063
v 0.00924871 -0.02541063 0.00695063
v 0.01142820 -0.02450786 0.00695063
v 0.01352071 -0.02341856 0.00695063
v 0.01551033 -0.02215104 0.00695063
v 0.01738189 -0.02071493 0.00695063
v 0.01912118 -0.01912118 0.00695063
v 0.02071493 -0.01738189 0.00695063
v 0.02215104 -0.01551033 0.00695063
v 0.02341856 -0.01352071 0.00695063
v 0.02450786 -0.01142820 0.00695063
v 0.02541063 -0.00924871 0.00695063
v 0.02612001 -0.00699884 0.00695063
v 0.02663061 -0.00469569 0.00695063
v 0.02693853 -0.00235682 0.00695063
v 0.02775586 0.00000000 0.02085187
v 0.02765024 0.00241908 0.02085187
v 0.02733419 0.00481975 0.02085187
v 0.02681010 0.00718374 0.02085187
v 0.02608198 0.00949306 0.02085187
v 0.02515535 0.01173013 0.02085187
v 0.02403728 0.01387793 0.02085187
v 0.02273627 0.01592011 0.02085187
v 0.02126222 0.01784112 0.02085187
v 0.01962636 0.01962636 0.02085187
v 0.01784112 0.02126222 0.02085187
v 0.01592011 0.02273627 0.02085187
v 0.01387793 0.02403728 0.02085187
v 0.01173013 0.02515535 0.02085187
v 0.00949306 0.02608198 0.02085187
v 0.00718374 0.02681010 0.02085187
v 0.00481975 0.02733419 0.02085187
v 0.00241908 0.02765024 0.02085187
v 0.00000000 0.02775586 0.02085187
v -0.00241908 0.02765024 0.02085187
v -0.00481975 0.02733419 0.02085187
v -0.00718374 0.02681010 0.02085187
v -0.00949306 0.02608198 0.02085187
v -0.01173013 0.02515535 0.02085187
v -0.01387793 0.02403728 0.02085187
v -0.01592011 0.02273627 0.02085187
v -0.01784112 0.02126222 0.02085187
v -0.01962636 0.01962636 0.02085187
v -0.02126222 0.01784112 0.02085187
v -0.02273627 0.01592011 0.02085187
v -0.02403728 0.01387793 0.02085187
v -0.02515535 0.01173013 0.02085187
v -0.02608198 0.00949306 0.02085187
v -0.02681010 0.00718374 0.02085187
v -0.02733419 0.00481975 0.02085187
v -0.02765024 0.00241908 0.02085187
v -0.02775586 0.00000000 0.02085187
v -0.02765024 -0.00241908 0.02085187
v -0.02733419 -0.00481975 0.02085187
v -0.02681010 -0.00718374 0.02085187
v -0.02608198 -0.00949306 0.02085187
v -0.02515535 -0.01173013 0.02085187
v -0.02403728 -0.01387793 0.02085187
v -0.02273627 -0.01592011 0.02085187
v -0.02126222 -0.01784112 0.02085187
v -0.01962636 -0.01962636 0.02085187
v -0.01784112 -0.02126222 0.02085187
v -0.01592011 -0.02273627 0.02085187
v -0.01387793 -0.02403728 0.02085187
v -0.01173013 -0.02515535 0.02085187
v -0.00949306 -0.02608198 0.02085187
v -0.00718374 -0.02681010 0.02085187
v -0.00481975 -0.02733419 0.02085187
v -0.00241908 -0.02765024 0.02085187
v -0.00000000 -0.02775586 0.02085187
v 0.00241908 -0.02765024 0.02085187
v 0.00481975 -0.02733419 0.02085187
v 0.00718374 -0.02681010 0.02085187
v 0.00949306 -0.02608198 0.02085187
v 0.01173013 -0.02515535 0.02085187
v 0.01387793 -0.02403728 0.02085187
v 0.01592011 -0.02273627 0.02085187
v 0.01784112 -0.02126222 0.02085187
v 0.01962636 -0.01962636 0.02085187
v 0.02126222 -0.01784112 0.02085187
v 0.02273627 -0.01592011 0.02085187
v 0.02403728 -0.01387793 0.02085187
v 0.02515535 -0.01173013 0.02085187
v 0.02608198 -0.00949306 0.02085187
v 0.02681010 -0.00718374 0.02085187
v 0.02733419 -0.00481975 0.02085187
v 0.02765024 -0.00241908 0.02085187
v 0.03007674 0.00000000 0.03475312
v 0.02996229 0.00262136 0.03475312
v 0.02961981 0.00522277 0.03475312
v 0.02905190 0.00778443 0.03475312
v 0.02826289 0.01028685 0.03475312
v 0.02725879 0.01271098 0.03475312
v 0.02604722 0.01503837 0.03475312
v 0.02463743 0.01725131 0.03475312
v 0.02304012 0.01933296 0.03475312
v 0.02126747 0.02126747 0.03475312
v 0.01933296 0.02304012 0.03475312
v 0.01725131 0.02463743 0.03475312
v 0.01503837 0.02604722 0.03475312
v 0.01271098 0.02725879 0.03475312
v 0.01028685 0.02826289 0.03475312
v 0.00778443 0.02905190 0.03475312
v 0.00522277 0.02961981 0.03475312
v 0.00262136 0.02996229 0.03475312
v 0.00000000 0.03007674 0.03475312
v -0.00262136 0.02996229 0.03475312
v -0.00522277 0.02961981 0.03475312
v -0.00778443 0.02905190 0.03475312
v -0.01028685 0.02826289 0.03475312
v -0.01271098 0.02725879 0.03475312
v -0.01503837 0.02604722 0.03475312
v -0.01725131 0.02463743 0.03475312
v -0.01933296 0.02304012 0.03475312
v -0.02126747 0.02126747 0.03475312
v -0.02304012 0.01933296 0.03475312
v -0.02463743 0.01725131 0.03475312
v -0.02604722 0.01503837 0.03475312
v -0.02725879 0.01271098 0.03475312
v -0.02826289 0.01028685 0.03475312
v -0.02905190 0.00778443 0.03475312
v -0.02961981 0.00522277 0.03475312
v -0.02996229 0.00262136 0.03475312
v -0.03007674 0.00000000 0.03475312
v -0.02996229 -0.00262136 0.03475312
v -0.02961981 -0.00522277 0.03475312
v -0.02905190 -0.00778443 0.03475312
v -0.02826289 -0.01028685 0.03475312
v -0.02725879 -0.01271098 0.03475312
v -0.02604722 -0.01503837 0.03475312
v -0.02463743 -0.01725131 0.03475312
v -0.02304012 -0.01933296 0.03475312
v -0.02126747 -0.02126747 0.03475312
v -0.01933296 -0.02304012 0.03475312
v -0.01725131 -0.02463743 0.03475312
v -0.01503837 -0.02604722 0.03475312
v -0.01271098 -0.02725879 0.03475312
v -0.01028685 -0.02826289 0.03475312
v -0.00778443 -0.02905190 0.03475312
v -0.00522277 -0.02961981 0.03475312
v -0.00262136 -0.02996229 0.03475312
v -0.00000000 -0.03007674 0.03475312
v 0.00262136 -0.02996229 0.03475312
v 0.00522277 -0.02961981 0.03475312
v 0.00778443 -0.02905190 0.03475312
v 0.01028685 -0.02826289 0.03475312
v 0.01271098 -0.02725879 0.03475312
v 0.01503837 -0.02604722 0.03475312
v 0.01725131 -0.02463743 0.03475312
v 0.01933296 -0.02304012 0.03475312
v 0.02126747 -0.02126747 0.03475312
v 0.02304012 -0.01933296 0.03475312
v 0.02463743 -0.01725131 0.03475312
v 0.02604722 -0.01503837 0.03475312
v 0.02725879 -0.01271098 0.03475312
v 0.02826289 -0.01028685 0.03475312
v 0.02905190 -0.00778443 0.03475312
v 0.02961981 -0.00522277 0.03475312
v 0.02996229 -0.00262136 0.03475312
v 0.03175549 0.00000000 0.04865437
v 0.03163465 0.00276767 0.04865437
v 0.03127305 0.00551428 0.04865437
v 0.03067345 0.00821892 0.04865437
v 0.02984040 0.01086102 0.04865437
v 0.02878025 0.01342045 0.04865437
v 0.02750106 0.01587774 0.04865437
v 0.02601257 0.01821420 0.04865437
v 0.02432611 0.02041203 0.04865437
v 0.02245452 0.02245452 0.04865437
v 0.02041203 0.02432611 0.04865437
v 0.01821420 0.02601257 0.04865437
v 0.01587774 0.02750106 0.04865437
v 0.01342045 0.02878025 0.04865437
v 0.01086102 0.02984040 0.04865437
v 0.00821892 0.03067345 0.04865437
v 0.00551428 0.03127305 0.04865437
v 0.00276767 0.03163465 0.04865437
v 0.00000000 0.03175549 0.04865437
v -0.00276767 0.03163465 0.04865437
v -0.00551428 0.03127305 0.04865437
v -0.00821892 0.03067345 0.04865437
v -0.01086102 0.02984040 0.04865437
v -0.01342045 0.02878025 0.04865437
v -0.01587774 0.02750106 0.04865437
v -0.01821420 0.02601257 0.04865437
v -0.02041203 0.02432611 0.04865437
v -0.02245452 0.02245452 0.04865437
v -0.02432611 0.02041203 0.04865437
v -0.02601257 0.01821420 0.04865437
v -0.02750106 0.01587774 0.04865437
v -0.02878025 0.01342045 0.04865437
v -0.02984040 0.01086102 0.04865437
v -0.03067345 0.00821892 0.04865437
v -0.03127305 0.00551428 0.04865437
v -0.03163465 0.00276767 0.04865437
v -0.03175549 0.00000000 0.04865437
v -0.03163465 -0.00276767 0.04865437
v -0.03127305 -0.00551428 0.04865437
v -0.03067345 -0.00821892 0.04865437
v -0.02984040 -0.01086102 0.04865437
v -0.02878025 -0.01342045 0.04865437
v -0.02750106 -0.01587774 0.04865437
v -0.02601257 -0.01821420 0.04865437
v -0.02432611 -0.02041203 0.04865437
v -0.02245452 -0.02245452 0.04865437
v -0.02041203 -0.02432611 0.04865437
v -0.01821420 -0.02601257 0.04865437
v -0.01587774 -0.02750106 0.04865437
v -0.01342045 -0.02878025 0.04865437
v -0.01086102 -0.02984040 0.04865437
v -0.00821892 -0.03067345 0.04865437
v -0.00551428 -0.03127305 0.04865437
v -0.00276767 -0.03163465 0.04865437
v -0.00000000 -0.03175549 0.04865437
v 0.00276767 -0.03163465 0.04865437
v 0.00551428 -0.03127305 0.04865437
v 0.00821892 -0.03067345 0.04865437
v 0.01086102 -0.02984040 0.04865437
v 0.01342045 -0.02878025 0.04865437
v 0.01587774 -0.02750106 0.04865437
v 0.01821420 -0.02601257 0.04865437
v 0.02041203 -0.02432611 0.04865437
v 0.02245452 -0.02245452 0.04865437
v 0.02432611 -0.02041203 0.04865437
v 0.02601257 -0.01821420 0.04865437
v 0.02750106 -0.01587774 0.04865437
v 0.02878025 -0.01342045 0.04865437
v 0.02984040 -0.01086102 0.04865437
v 0.03067345 -0.00821892 0.04865437
v 0.03127305 -0.00551428 0.04865437
v 0.03163465 -0.00276767 0.04865437
v 0.00000000 0.00000000 -0.04865437
f 1 2 74
f 1 74 73
f 2 3 75
f 2 75 74
f 3 4 76
f 3 76 75
f 4 5 77
f 4 77 76
f 5 6 78
f 5 78 77
f 6 7 79
f 6 79 78
f 7 8 80
f 7 80 79
f 8 9 81
f 8 81 80
f 9 10 82
f 9 82 81
f 10 11 83
f 10 83 82
f 11 12 84
f 11 84 83
f 12 13 85
f 12 85 84
f 13 14 86
f 13 86 85
f 14 15 87
f 14 87 86
f 15 16 88
f 15 88 87
f 16 17 89
f 16 89 88
f 17 18 90
f 17 90 89
f 18 19 91
f 18 91 90
f 19 20 92
f 19 92 91
f 20 21 93
f 20 93 92
f 21 22 94
f 21 94 93
f 22 23 95
f 22 95 94
f 23 24 96
f 23 96 95
f 24 25 97
f 24 97 96
f 25 26 98
f 25 98 97
f 26 27 99
f 26 99 98
f 27 28 100
f 27 100 99
f 28 29 101
f 28 101 100
f 29 30 102
f 29 102 101
f 30 31 103
f 30 103 102
f 31 32 104
f 31 104 103
f 32 33 105
f 32 105 104
f 33 34 106
f 33 106 105
f 34 35 107
f 34 107 106
f 35 36 108
f 35 108 107
f 36 37 109
f 36 109 108
f 37 38 110
f 37 110 109
f 38 39 111
f 38 111 110
f 39 40 112
f 39 112 111
f 40 41 113
f 40 113 112
f 41 42 114
f 41 114 113
f 42 43 115
f 42 115 114
f 43 44 116
f 43 116 115
f 44 45 117
f 44 117 116
f 45 46 118
f 45 118 117
f 46 47 119
f 46 119 118
f 47 48 120
f 47 120 119
f 48 49 121
f 48 121 120
f 49 50 122
f 49 122 121
f 50 51 123
f 50 123 122
f 51 52 124
f 51 124 123
f 52 53 125
f 52 125 124
f 53 54 126
f 53 126 125
f 54 55 127
f 54 127 126
f 55 56 128
f 55 128 127
f 56 57 129
f 56 129 128
f 57 58 130
f 57 130 129
f 58 59 131
f 58 131 130
f 59 60 132
f 59 132 131
f 60 61 133
f 60 133 132
f 61 62 134
f 61 134 133
f 62 63 135
f 62 135 134
f 63 64 136
f 63 136 135
f 64 65 137
f 64 137 136
f 65 66 138
f 65 138 137
f 66 67 139
f 66 139 138
f 67 68 140
f 67 140 139
f 68 69 141
f 68 141 140
f 69 70 142
f 69 142 141
f 70 71 143
f 70 143 142
f 71 72 144
f 71 144 143
f 72 1 73
f 72 73 144
f 73 74 146
f 73 146 145
f 74 75 147
f 74 147 146
f 75 76 148
f 75 148 147
f 76 77 149
f 76 149 148
f 77 78 150
f 77 150 149
f 78 79 151
f 78 151 150
f 79 80 152
f 79 152 151
f 80 81 153
f 80 153 152
f 81 82 154
f 81 154 153
f 82 83 155
f 82 155 154
f 83 84 156
f 83 156 155
f 84 85 157
f 84 157 156
f 85 86 158
f 85 158 157
f 86 87 159
f 86 159 158
f 87 88 160
f 87 160 159
f 88 89 161
f 88 161 160
f 89 90 162
f 89 162 161
f 90 91 163
f 90 163 162
f 91 92 164
f 91 164 163
f 92 93 165
f 92 165 164
f 93 94 166
f 93 166 165
f 94 95 167
f 94 167 166
f 95 96 168
f 95 168 167
f 96 97 169
f 96 169 168
f 97 98 170
f 97 170 169
f 98 99 171
f 98 171 170
f 99 100 172
f 99 172 171
f 100 101 173
f 100 173 172
f 101 102 174
f 101 174 173
f 102 103 175
f 102 175 174
f 103 104 176
f 103 176 175
f 104 105 177
f 104 177 176
f 105 106 178
f 105 178 177
f 106 107 179
f 106 179 178
f 107 108 180
f 107 180 179
f 108 109 181
f 108 181 180
f 109 110 182
f 109 182 181
f 110 111 183
f 110 183 182
f 111 112 184
f 111 184 183
f 112 113 185
f 112 185 184
f 113 114 186
f 113 186 185
f 114 115 187
f 114 187 186
f 115 116 188
f 115 188 187
f 116 117 189
f 116 189 188
f 117 118 190
f 117 190 189
f 118 119 191
f 118 191 190
f 119 120 192
f 119 192 191
f 120 121 193
f 120 193 192
f 121 122 194
f 121 194 193
f 122 123 195
f 122 195 194
f 123 124 196
f 123 196 195
f 124 125 197
f 124 197 196
f 125 126 198
f 125 198 197
f 126 127 199
f 126 199 198
f 127 128 200
f 127 200 199
f 128 129 201
f 128 201 200
f 129 130 202
f 129 202 201
f 130 131 203
f 130 203 202
f 131 132 204
f 131 204 203
f 132 133 205
f 132 205 204
f 133 134 206
f 133 206 205
f 134 135 207
f 134 207 206
f 135 136 208
f 135 208 207
f 136 137 209
f 136 209 208
f 137 138 210
f 137 210 209
f 138 139 211
f 138 211 210
f 139 140 212
f 139 212 211
f 140 141 213
f 140 213 212
f 141 142 214
f 141 214 213
f 142 143 215
f 142 215 214
f 143 144 216
f 143 216 215
f 144 73 145
f 144 145 216
f 145 146 218
f 145 218 217
f 146 147 219
f 146 219 218
f 147 148 220
f 147 220 219
f 148 149 221
f 148 221 220
f 149 150 222
f 149 222 221
f 150 151 223
f 150 223 222
f 151 152 224
f 151 224 223
f 152 153 225
f 152 225 224
f 153 154 226
f 153 226 225
f 154 155 227
f 154 227 226
f 155 156 228
f 155 228 227
f 156 157 229
f 156 229 228
f 157 158 230
f 157 230 229
f 158 159 231
f 158 231 230
f 159 160 232
f 159 232 231
f 160 161 233
f 160 233 232
f 161 162 234
f 161 234 233
f 162 163 235
f 162 235 234
f 163 164 236
f 163 236 235
f 164 165 237
f 164 237 236
f 165 166 238
f 165 238 237
f 166 167 239
f 166 239 238
f 167 168 240
f 167 240 239
f 168 169 241
f 168 241 240
f 169 170 242
f 169 242 241
f 170 171 243
f 170 243 242
f 171 172 244
f 171 244 243
f 172 173 245
f 172 245 244
f 173 174 246
f 173 246 245
f 174 175 247
f 174 247 246
f 175 176 248
f 175 248 247
f 176 177 249
f 176 249 248
f 177 178 250
f 177 250 249
f 178 179 251
f 178 251 250
f 179 180 252
f 179 252 251
f 180 181 253
f 180 253 252
f 181 182 254
f 181 254 253
f 182 183 255
f 182 255 254
f 183 184 256
f 183 256 255
f 184 185 257
f 184 257 256
f 185 186 258
f 185 258 257
f 186 187 259
f 186 259 258
f 187 188 260
f 187 260 259
f 188 189 261
f 188 261 260
f 189 190 262
f 189 262 261
f 190 191 263
f 190 263 262
f 191 192 264
f 191 264 263
f 192 193 265
f 192 265 264
f 193 194 266
f 193 266 265
f 194 195 267
f 194 267 266
f 195 196 268
f 195 268 267
f 196 197 269
f 196 269 268
f 197 198 270
f 197 270 269
f 198 199 271
f 198 271 270
f 199 200 272
f 199 272 271
f 200 201 273
f 200 273 272
f 201 202 274
f 201 274 273
f 202 203 275
f 202 275 274
f 203 204 276
f 203 276 275
f 204 205 277
f 204 277 276
f 205 206 278
f 205 278 277
f 206 207 279
f 206 279 278
f 207 208 280
f 207 280 279
f 208 209 281
f 208 281 280
f 209 210 282
f 209 282 281
f 210 211 283
f 210 283 282
f 211 212 284
f 211 284 283
f 212 213 285
f 212 285 284
f 213 214 286
f 213 286 285
f 214 215 287
f 214 287 286
f 215 216 288
f 215 288 287
f 216 145 217
f 216 217 288
f 217 218 290
f 217 290 289
f 218 219 291
f 218 291 290
f 219 220 292
f 219 292 291
f 220 221 293
f 220 293 292
f 221 222 294
f 221 294 293
f 222 223 295
f 222 295 294
f 223 224 296
f 223 296 295
f 224 225 297
f 224 297 296
f 225 226 298
f 225 298 297
f 226 227 299
f 226 299 298
f 227 228 300
f 227 300 299
f 228 229 301
f 228 301 300
f 229 230 302
f 229 302 301
f 230 231 303
f 230 303 302
f 231 232 304
f 231 304 303
f 232 233 305
f 232 305 304
f 233 234 306
f 233 306 305
f 234 235 307
f 234 307 306
f 235 236 308
f 235 308 307
f 236 237 309
f 236 309 308
f 237 238 310
f 237 310 309
f 238 239 311
f 238 311 310
f 239 240 312
f 239 312 311
f 240 241 313
f 240 313 312
f 241 242 314
f 241 314 313
f 242 243 315
f 242 315 314
f 243 244 316
f 243 316 315
f 244 245 317
f 244 317 316
f 245 246 318
f 245 318 317
f 246 247 319
f 246 319 318
f 247 248 320
f 247 320 319
f 248 249 321
f 248 321 320
f 249 250 322
f 249 322 321
f 250 251 323
f 250 323 322
f 251 252 324
f 251 324 323
f 252 253 325
f 252 325 324
f 253 254 326
f 253 326 325
f 254 255 327
f 254 327 326
f 255 256 328
f 255 328 327
f 256 257 329
f 256 329 328
f 257 258 330
f 257 330 329
f 258 259 331
f 258 331 330
f 259 260 332
f 259 332 331
f 260 261 333
f 260 333 332
f 261 262 334
f 261 334 333
f 262 263 335
f 262 335 334
f 263 264 336
f 263 336 335
f 264 265 337
f 264 337 336
f 265 266 338
f 265 338 337
f 266 267 339
f 266 339 338
f 267 268 340
f 267 340 339
f 268 269 341
f 268 341 340
f 269 270 342
f 269 342 341
f 270 271 343
f 270 343 342
f 271 272 344
f 271 344 343
f 272 273 345
f 272 345 344
f 273 274 346
f 273 346 345
f 274 275 347
f 274 347 346
f 275 276 348
f 275 348 347
f 276 277 349
f 276 349 348
f 277 278 350
f 277 350 349
f 278 279 351
f 278 351 350
f 279 280 352
f 279 352 351
f 280 281 353
f 280 353 352
f 281 282 354
f 281 354 353
f 282 283 355
f 282 355 354
f 283 284 356
f 283 356 355
f 284 285 357
f 284 357 356
f 285 286 358
f 285 358 357
f 286 287 359
f 286 359 358
f 287 288 360
f 287 360 359
f 288 217 289
f 288 289 360
f 289 290 362
f 289 362 361
f 290 291 363
f 290 363 362
f 291 292 364
f 291 364 363
f 292 293 365
f 292 365 364
f 293 294 366
f 293 366 365
f 294 295 367
f 294 367 366
f 295 296 368
f 295 368 367
f 296 297 369
f 296 369 368
f 297 298 370
f 297 370 369
f 298 299 371
f 298 371 370
f 299 300 372
f 299 372 371
f 300 301 373
f 300 373 372
f 301 302 374
f 301 374 373
f 302 303 375
f 302 375 374
f 303 304 376
f 303 376 375
f 304 305 377
f 304 377 376
f 305 306 378
f 305 378 377
f 306 307 379
f 306 379 378
f 307 308 380
f 307 380 379
f 308 309 381
f 308 381 380
f 309 310 382
f 309 382 381
f 310 311 383
f 310 383 382
f 311 312 384
f 311 384 383
f 312 313 385
f 312 385 384
f 313 314 386
f 313 386 385
f 314 315 387
f 314 387 386
f 315 316 388
f 315 388 387
f 316 317 389
f 316 389 388
f 317 318 390
f 317 390 389
f 318 319 391
f 318 391 390
f 319 320 392
f 319 392 391
f 320 321 393
f 320 393 392
f 321 322 394
f 321 394 393
f 322 323 395
f 322 395 394
f 323 324 396
f 323 396 395
f 324 325 397
f 324 397 396
f 325 326 398
f 325 398 397
f 326 327 399
f 326 399 398
f 327 328 400
f 327 400 399
f 328 329 401
f 328 401 400
f 329 330 402
f 329 402 401
f 330 331 403
f 330 403 402
f 331 332 404
f 331 404 403
f 332 333 405
f 332 405 404
f 333 334 406
f 333 406 405
f 334 335 407
f 334 407 406
f 335 336 408
f 335 408 407
f 336 337 409
f 336 409 408
f 337 338 410
f 337 410 409
f 338 339 411
f 338 411 410
f 339 340 412
f 339 412 411
f 340 341 413
f 340 413 412
f 341 342 414
f 341 414 413
f 342 343 415
f 342 415 414
f 343 344 416
f 343 416 415
f 344 345 417
f 344 417 416
f 345 346 418
f 345 418 417
f 346 347 419
f 346 419 418
f 347 348 420
f 347 420 419
f 348 349 421
f 348 421 420
f 349 350 422
f 349 422 421
f 350 351 423
f 350 423 422
f 351 352 424
f 351 424 423
f 352 353 425
f 352 425 424
f 353 354 426
f 353 426 425
f 354 355 427
f 354 427 426
f 355 356 428
f 355 428 427
f 356 357 429
f 356 429 428
f 357 358 430
f 357 430 429
f 358 359 431
f 358 431 430
f 359 360 432
f 359 432 431
f 360 289 361
f 360 361 432
f 361 362 434
f 361 434 433
f 362 363 435
f 362 435 434
f 363 364 436
f 363 436 435
f 364 365 437
f 364 437 436
f 365 366 438
f 365 438 437
f 366 367 439
f 366 439 438
f 367 368 440
f 367 440 439
f 368 369 441
f 368 441 440
f 369 370 442
f 369 442 441
f 370 371 443
f 370 443 442
f 371 372 444
f 371 444 443
f 372 373 445
f 372 445 444
f 373 374 446
f 373 446 445
f 374 375 447
f 374 447 446
f 375 376 448
f 375 448 447
f 376 377 449
f 376 449 448
f 377 378 450
f 377 450 449
f 378 379 451
f 378 451 450
f 379 380 452
f 379 452 451
f 380 381 453
f 380 453 452
f 381 382 454
f 381 454 453
f 382 383 455
f 382 455 454
f 383 384 456
f 383 456 455
f 384 385 457
f 384 457 456
f 385 386 458
f 385 458 457
f 386 387 459
f 386 459 458
f 387 388 460
f 387 460 459
f 388 389 461
f 388 461 460
f 389 390 462
f 389 462 461
f 390 391 463
f 390 463 462
f 391 392 464
f 391 464 463
f 392 393 465
f 392 465 464
f 393 394 466
f 393 466 465
f 394 395 467
f 394 467 466
f 395 396 468
f 395 468 467
f 396 397 469
f 396 469 468
f 397 398 470
f 397 470 469
f 398 399 471
f 398 471 470
f 399 400 472
f 399 472 471
f 400 401 473
f 400 473 472
f 401 402 474
f 401 474 473
f 402 403 475
f 402 475 474
f 403 404 476
f 403 476 475
f 404 405 477
f 404 477 476
f 405 406 478
f 405 478 477
f 406 407 479
f 406 479 478
f 407 408 480
f 407 480 479
f 408 409 481
f 408 481 480
f 409 410 482
f 409 482 481
f 410 411 483
f 410 483 482
f 411 412 484
f 411 484 483
f 412 413 485
f 412 485 484
f 413 414 486
f 413 486 485
f 414 415 487
f 414 487 486
f 415 416 488
f 415 488 487
f 416 417 489
f 416 489 488
f 417 418 490
f 417 490 489
f 418 419 491
f 418 491 490
f 419 420 492
f 419 492 491
f 420 421 493
f 420 493 492
f 421 422 494
f 421 494 493
f 422 423 495
f 422 495 494
f 423 424 496
f 423 496 495
f 424 425 497
f 424 497 496
f 425 426 498
f 425 498 497
f 426 427 499
f 426 499 498
f 427 428 500
f 427 500 499
f 428 429 501
f 428 501 500
f 429 430 502
f 429 502 501
f 430 431 503
f 430 503 502
f 431 432 504
f 431 504 503
f 432 361 433
f 432 433 504
f 433 434 506
f 433 506 505
f 434 435 507
f 434 507 506
f 435 436 508
f 435 508 507
f 436 437 509
f 436 509 508
f 437 438 510
f 437 510 509
f 438 439 511
f 438 511 510
f 439 440 512
f 439 512 511
f 440 441 513
f 440 513 512
f 441 442 514
f 441 514 513
f 442 443 515
f 442 515 514
f 443 444 516
f 443 516 515
f 444 445 517
f 444 517 516
f 445 446 518
f 445 518 517
f 446 447 519
f 446 519 518
f 447 448 520
f 447 520 519
f 448 449 521
f 448 521 520
f 449 450 522
f 449 522 521
f 450 451 523
f 450 523 522
f 451 452 524
f 451 524 523
f 452 453 525
f 452 525 524
f 453 454 526
f 453 526 525
f 454 455 527
f 454 527 526
f 455 456 528
f 455 528 527
f 456 457 529
f 456 529 528
f 457 458 530
f 457 530 529
f 458 459 531
f 458 531 530
f 459 460 532
f 459 532 531
f 460 461 533
f 460 533 532
f 461 462 534
f 461 534 533
f 462 463 535
f 462 535 534
f 463 464 536
f 463 536 535
f 464 465 537
f 464 537 536
f 465 466 538
f 465 538 537
f 466 467 539
f 466 539 538
f 467 468 540
f 467 540 539
f 468 469 541
f 468 541 540
f 469 470 542
f 469 542 541
f 470 471 543
f 470 543 542
f 471 472 544
f 471 544 543
f 472 473 545
f 472 545 544
f 473 474 546
f 473 546 545
f 474 475 547
f 474 547 546
f 475 476 548
f 475 548 547
f 476 477 549
f 476 549 548
f 477 478 550
f 477 550 549
f 478 479 551
f 478 551 550
f 479 480 552
f 479 552 551
f 480 481 553
f 480 553 552
f 481 482 554
f 481 554 553
f 482 483 555
f 482 555 554
f 483 484 556
f 483 556 555
f 484 485 557
f 484 557 556
f 485 486 558
f 485 558 557
f 486 487 559
f 486 559 558
f 487 488 560
f 487 560 559
f 488 489 561
f 488 561 560
f 489 490 562
f 489 562 561
f 490 491 563
f 490 563 562
f 491 492 564
f 491 564 563
f 492 493 565
f 492 565 564
f 493 494 566
f 493 566 565
f 494 495 567
f 494 567 566
f 495 496 568
f 495 568 567
f 496 497 569
f 496 569 568
f 497 498 570
f 497 570 569
f 498 499 571
f 498 571 570
f 499 500 572
f 499 572 571
f 500 501 573
f 500 573 572
f 501 502 574
f 501 574 573
f 502 503 575
f 502 575 574
f 503 504 576
f 503 576 575
f 504 433 505
f 504 505 576
f 577 2 1
f 577 3 2
f 577 4 3
f 577 5 4
f 577 6 5
f 577 7 6
f 577 8 7
f 577 9 8
f 577 10 9
f 577 11 10
f 577 12 11
f 577 13 12
f 577 14 13
f 577 15 14
f 577 16 15
f 577 17 16
f 577 18 17
f 577 19 18
f 577 20 19
f 577 21 20
f 577 22 21
f 577 23 22
f 577 24 23
f 577 25 24
f 577 26 25
f 577 27 26
f 577 28 27
f 577 29 28
f 577 30 29
f 577 31 30
f 577 32 31
f 577 33 32
f 577 34 33
f 577 35 34
f 577 36 35
f 577 37 36
f 577 38 37
f 577 39 38
f 577 40 39
f 577 41 40
f 577 42 41
f 577 43 42
f 577 44 43
f 577 45 44
f 577 46 45
f 577 47 46
f 577 48 47
f 577 49 48
f 577 50 49
f 577 51 50
f 577 52 51
f 577 53 52
f 577 54 53
f 577 55 54
f 577 56 55
f 577 57 56
f 577 58 57
f 577 59 58
f 577 60 59
f 577 61 60
f 577 62 61
f 577 63 62
f 577 64 63
f 577 65 64
f 577 66 65
f 577 67 66
f 577 68 67
f 577 69 68
f 577 70 69
f 577 71 70
f 577 72 71
f 577 1 72

