
o part_0
v 0.00419416 -0.00300582 0.01958280
v 0.00409230 -0.00304800 0.01964040
v 0.00399488 -0.00312230 0.01966189
v 0.00391674 -0.00321742 0.01964400
v 0.00711931 0.00768112 0.01514494
v 0.00736474 0.00773100 0.01509714
v 0.00936579 0.00763601 0.01479639
v 0.00934308 0.00765907 0.01480273
v 0.00934742 0.00762096 0.01481076
v 0.00932433 0.00764869 0.01481774
v 0.00928588 0.00767728 0.01482230
v 0.00922286 0.00770579 0.01482638
v 0.00930301 0.00768461 0.01480849
v 0.00923593 0.00771291 0.01481377
v 0.00913221 0.00774424 0.01481864
v 0.00912605 0.00773328 0.01483193
v 0.00899309 0.00775938 0.01484031
v 0.00899281 0.00777571 0.01482604
v 0.00881872 0.00780444 0.01483891
v 0.00861646 0.00782580 0.01486000
v 0.00764247 0.00778268 0.01503749
v 0.00739567 0.00775559 0.01508004
v 0.00764430 0.00780055 0.01502305
v 0.00940943 0.00757087 0.01476846
v 0.00939720 0.00759719 0.01478224
v 0.00839258 0.00783516 0.01489205
v 0.00815180 0.00783352 0.01493216
v 0.00790128 0.00780067 0.01498973
v 0.00789883 0.00782190 0.01497741
v -0.00858291 -0.00320561 0.01795015
v -0.00857354 -0.00324035 0.01795305
v -0.00854948 -0.00320094 0.01795510
v -0.00854252 -0.00324047 0.01795930
v -0.00852209 -0.00328899 0.01795566
v -0.00847768 -0.00335059 0.01794218
v -0.00854902 -0.00328669 0.01794942
v -0.00850000 -0.00335024 0.01793559
v -0.00841711 -0.00343665 0.01790788
v -0.00839876 -0.00342934 0.01791690
v -0.00829832 -0.00353433 0.01786670
v -0.00814162 -0.00363171 0.01781245
v -0.00794935 -0.00371242 0.01774709
v -0.00859428 -0.00311545 0.01792763
v -0.00856082 -0.00313388 0.01794132
v -0.00859354 -0.00314925 0.01794011
v -0.00497867 0.01028776 0.01442054
v -0.00500983 0.01027211 0.01442711
v -0.00496781 0.01025903 0.01443391
v -0.00500387 0.01024498 0.01444126
v -0.00504568 0.01021420 0.01444527
v -0.00509511 0.01015552 0.01444683
v -0.00509930 0.01017427 0.01443465
v -0.00504884 0.01023793 0.01443212
v -0.00516479 0.01007017 0.01443374
v -0.00523225 0.00992643 0.01443202
v -0.00489324 0.01031168 0.01439492
v -0.00492638 0.01030716 0.01440714
v 0.00685079 -0.00797713 0.01511621
v 0.00687378 -0.00795553 0.01512017
v 0.00689714 -0.00791623 0.01512030
v 0.00691990 -0.00784921 0.01511486
v 0.00678382 -0.00801797 0.01509160
v 0.00681067 -0.00800687 0.01510441
v 0.00434068 -0.00284739 0.01951841
v 0.00415855 -0.00268665 0.01963586
v 0.00420417 -0.00285253 0.01964550
v 0.00396752 -0.00276439 0.01974235
v 0.00405117 -0.00291559 0.01973169
v 0.00378542 -0.00290273 0.01978213
v 0.00390498 -0.00302698 0.01976386
v 0.00363999 -0.00308059 0.01974914
v 0.00378785 -0.00316973 0.01973711
v 0.00371762 -0.00332212 0.01965551
v 0.00370497 -0.00346095 0.01953149
v 0.00425873 -0.00043827 -0.01717719
v 0.00418036 -0.00097941 -0.01716037
v 0.00316155 -0.00083921 -0.01763723
v 0.00413403 0.00044257 -0.01724691
v 0.00392315 0.00073009 -0.01730007
v -0.00566177 0.00276786 -0.01872193
v -0.00533649 0.00295460 -0.01893202
v -0.00568463 0.00117596 -0.01867015
v -0.00624179 0.00189471 -0.01823997
v -0.00666537 -0.00117016 -0.01738074
v -0.00581027 -0.00004647 -0.01829314
v -0.00606123 -0.00232502 -0.01725251
v -0.00579018 -0.00235282 -0.01731692
v 0.00322297 -0.00361217 -0.01698548
v 0.00289046 -0.00370676 -0.01700838
v 0.00295503 -0.00198228 -0.01756440
v 0.00351190 -0.00340096 -0.01699364
v 0.00389963 -0.00263578 -0.01706221
v 0.00399404 -0.00209122 -0.01710654
v 0.00304149 -0.00139866 -0.01761552
v 0.00486627 -0.00202979 -0.01624773
v 0.00878426 -0.00262192 -0.00916867
v 0.00991212 -0.00247195 -0.00659187
v 0.01094051 -0.00224742 -0.00396162
v 0.01181923 -0.00217200 -0.00147094
v 0.01255038 -0.00229431 0.00083946
v 0.01303894 -0.00250931 0.00300166
v 0.01335850 -0.00265667 0.00515727
v 0.01321053 -0.00262148 0.00698544
v 0.01237466 -0.00247459 0.00877184
v 0.00995153 -0.00111789 -0.00656385
v 0.01105366 -0.00094141 -0.00395733
v 0.01195887 -0.00093208 -0.00149019
v 0.01267039 -0.00109641 0.00080787
v 0.01316778 -0.00134412 0.00296515
v 0.01350000 -0.00152151 0.00511918
v 0.01334700 -0.00153513 0.00696197
v 0.01249514 -0.00141208 0.00877304
v 0.00522559 -0.00012672 -0.01626511
v 0.01103917 0.00101323 -0.00397772
v 0.01198976 0.00096276 -0.00154378
v 0.01265518 0.00081095 0.00074194
v 0.01313125 0.00055956 0.00290050
v 0.01348200 0.00034068 0.00505426
v 0.01333898 0.00019215 0.00691080
v 0.01247092 0.00003332 0.00875744
v 0.00424634 0.00004501 -0.01720554
v 0.00528604 0.00061811 -0.01627173
v 0.00627704 0.00087952 -0.01485405
v 0.00701624 0.00125701 -0.01315298
v 0.01286174 0.00216711 0.00502657
v 0.00691294 0.00335687 -0.01131938
v 0.00859647 0.00418252 -0.00651621
v 0.00982961 0.00406726 -0.00400686
v 0.01061011 0.00267068 -0.00400669
v 0.01085342 0.00393928 -0.00160853
v 0.01159851 0.00262116 -0.00159211
v 0.01135734 0.00379925 0.00068495
v 0.01221061 0.00251677 0.00067982
v 0.01253512 0.00236845 0.00285695
v 0.01275342 0.00190562 0.00690912
v 0.00477814 0.00177970 -0.01637564
v 0.00556275 0.00248806 -0.01488205
v 0.00610304 0.00171689 -0.01484800
v 0.00514734 0.00125503 -0.01630663
v 0.00600971 0.00341579 -0.01313987
v 0.00669988 0.00239530 -0.01313100
v 0.00613160 0.00450810 -0.01132013
v 0.00640655 0.00540756 -0.00893775
v 0.00749159 0.00541270 -0.00642640
v 0.00869519 0.00526443 -0.00394681
v 0.00972787 0.00501169 -0.00156319
v 0.00423306 0.00212168 -0.01649773
v 0.00480433 0.00300276 -0.01501060
v 0.00508651 0.00406499 -0.01320644
v 0.00509964 0.00522966 -0.01129965
v 0.00528529 0.00611242 -0.00883658
v 0.00618373 0.00629448 -0.00630385
v 0.00726344 0.00625277 -0.00384589
v 0.00824562 0.00603092 -0.00143573
v 0.00567541 0.00720395 -0.00381458
v 0.00646652 0.00721064 -0.00138486
v 0.00372304 0.00749325 -0.00616723
v 0.00417098 0.00796304 -0.00383231
v 0.00495247 0.00851879 0.00117792
v 0.00218879 0.00433918 -0.01588901
v 0.00244643 0.00541040 -0.01378413
v 0.00227645 0.00640553 -0.01141708
v 0.00253326 0.00794950 -0.00613546
v 0.00337769 0.00912960 0.00131273
v 0.00343708 0.00951779 0.00365878
v -0.00136630 0.00120603 -0.01932185
v 0.00117096 0.00478429 -0.01627853
v 0.00147577 0.00579118 -0.01402735
v 0.00136136 0.00819304 -0.00610002
v 0.00210081 0.00987057 0.00375461
v -0.00248069 0.00165320 -0.01967649
v -0.00141428 0.00265327 -0.01928344
v -0.00048445 0.00384126 -0.01831355
v 0.00005876 0.00521732 -0.01670788
v 0.00042429 0.00615593 -0.01427020
v 0.00074725 0.00994956 0.00376880
v -0.00345300 0.00185438 -0.01978213
v -0.00249289 0.00299403 -0.01958189
v -0.00161805 0.00422798 -0.01872609
v -0.00110246 0.00560862 -0.01709914
v -0.00073293 0.00649895 -0.01450982
v -0.00426337 0.00182345 -0.01961575
v -0.00348422 0.00316772 -0.01961676
v -0.00275568 0.00454239 -0.01893602
v -0.00231596 0.00596494 -0.01734004
v -0.00193628 0.00677501 -0.01468956
v -0.00232873 0.00973524 0.00132713
v -0.00497313 0.00159340 -0.01923281
v -0.00440999 0.00315628 -0.01939828
v -0.00387870 0.00473125 -0.01888601
v -0.00351938 0.00620048 -0.01734566
v -0.00365583 0.00975466 0.00133075
v -0.00501950 0.00475585 -0.01851753
v -0.00473593 0.00627590 -0.01703508
v -0.00413652 0.00739918 -0.01454477
v -0.00392215 0.00805236 -0.01174836
v -0.00551808 0.00889995 -0.00108142
v -0.00574197 0.00449726 -0.01814305
v -0.00517536 0.00737287 -0.01422701
v -0.00519281 0.00800235 -0.01159160
v -0.00745767 0.00781191 -0.00366091
v -0.00597528 0.00240249 -0.01848181
v -0.00640868 0.00381846 -0.01773151
v -0.00674968 0.00510393 -0.01620551
v -0.00575039 0.00598277 -0.01661436
v -0.00666756 0.00690613 -0.01148880
v -0.00894081 0.00677022 -0.00364490
v -0.00876479 0.00703537 -0.00107062
v -0.00696021 0.00282094 -0.01733324
v -0.00771721 0.00374715 -0.01585669
v -0.00796431 0.00454357 -0.01379069
v -0.00645963 0.00637903 -0.01397964
v -0.01026732 0.00534322 -0.00360843
v -0.01035607 0.00555360 0.00727340
v -0.00643655 0.00130323 -0.01802045
v -0.00736132 0.00166016 -0.01699229
v -0.00838584 0.00220724 -0.01557000
v -0.00915461 0.00259954 -0.01361902
v -0.01130911 0.00361565 -0.00355498
v -0.01041872 0.00559030 -0.00110753
v -0.01181496 0.00385641 -0.00114450
v -0.01194662 0.00400032 0.00120738
v -0.01172314 0.00413464 0.00557491
v -0.01160002 0.00400749 0.00724159
v -0.00653991 0.00068915 -0.01783883
v -0.00756943 0.00046858 -0.01673283
v -0.00869013 0.00057561 -0.01532641
v -0.00955412 0.00069973 -0.01344460
v -0.01258810 0.00195482 -0.00112746
v -0.01301499 0.00211061 0.00118622
v -0.01291813 0.00221112 0.00342159
v -0.01257993 0.00229989 0.00556575
v -0.01205348 0.00231944 0.00727410
v -0.00575823 0.00058928 -0.01849140
v -0.01318030 0.00152110 0.00120247
v -0.01309726 0.00162950 0.00343610
v -0.01266271 0.00175412 0.00559519
v -0.00665097 -0.00053922 -0.01752514
v -0.00768780 -0.00075097 -0.01650406
v -0.00880310 -0.00065390 -0.01513481
v -0.00970838 -0.00052577 -0.01331355
v -0.01286708 0.00077418 -0.00109737
v -0.01332694 0.00093018 0.00122619
v -0.01323034 0.00105992 0.00346829
v -0.01272203 0.00122466 0.00563982
v -0.00761624 -0.00181858 -0.01632656
v -0.00867300 -0.00203349 -0.01498209
v -0.00967726 -0.00223856 -0.01319335
v -0.01037229 -0.00235505 -0.01114234
v -0.01252689 -0.00136612 -0.00344622
v -0.01312699 -0.00115536 -0.00103265
v -0.01350000 -0.00103478 0.00130892
v -0.01324923 -0.00074014 0.00361180
v -0.00719560 -0.00263803 -0.01625827
v -0.00800696 -0.00303970 -0.01500268
v -0.00895681 -0.00352589 -0.01323259
v -0.00981038 -0.00398845 -0.01110184
v -0.01217843 -0.00311460 -0.00335987
v -0.01280730 -0.00297369 -0.00093588
v -0.01303323 -0.00281519 0.00139698
v -0.00633389 -0.00210084 -0.01724484
v -0.00656686 -0.00325205 -0.01624314
v -0.00655398 -0.00170709 -0.01728713
v -0.00706961 -0.00385017 -0.01502687
v -0.00783726 -0.00455171 -0.01324415
v -0.00872987 -0.00526368 -0.01105747
v -0.00963402 -0.00545662 -0.00834278
v -0.01057018 -0.00396832 -0.00849168
v -0.01178757 -0.00454176 -0.00079681
v -0.01191321 -0.00434277 0.00143669
v -0.00587602 -0.00370509 -0.01621681
v -0.00609453 -0.00453853 -0.01496276
v -0.00666239 -0.00542672 -0.01314353
v -0.00746663 -0.00627009 -0.01092864
v -0.00837520 -0.00646892 -0.00813855
v -0.01022234 -0.00573118 -0.00059830
v -0.01023122 -0.00575114 0.00145594
v -0.00522284 -0.00395531 -0.01617504
v -0.00514661 -0.00498679 -0.01484014
v -0.00553139 -0.00601108 -0.01297864
v -0.00622340 -0.00692448 -0.01074483
v -0.00701696 -0.00706915 -0.00793337
v -0.00836074 -0.00702354 0.00156202
v -0.00514903 0.00042048 -0.01882616
v -0.00506870 -0.00207405 -0.01762367
v -0.00658643 -0.00807869 0.00177014
v -0.00451042 0.00073589 -0.01923220
v -0.00438643 -0.00179086 -0.01791284
v -0.00424365 -0.00780655 -0.01033437
v -0.00491239 -0.00907260 0.00199266
v -0.00468307 -0.00882699 0.00402359
v -0.00377046 0.00086192 -0.01945674
v -0.00364157 -0.00162976 -0.01810947
v -0.00270717 -0.00629457 -0.01412732
v -0.00296849 -0.00743303 -0.01226164
v -0.00324393 -0.00815628 -0.01019710
v -0.00349787 -0.00954054 -0.00011915
v -0.00329083 -0.00980623 0.00211269
v -0.00317459 -0.00950900 0.00426356
v -0.00316928 -0.00894393 0.00629660
v -0.00284444 0.00073764 -0.01943651
v -0.00272692 -0.00170314 -0.01814044
v -0.00187701 -0.00663754 -0.01398569
v -0.00204011 -0.00775356 -0.01214088
v -0.00213978 -0.00836792 -0.01015274
v -0.00226832 -0.00970767 -0.00255483
v -0.00192733 -0.01013629 -0.00014103
v -0.00170726 -0.01026482 0.00214054
v -0.00168240 -0.00995029 0.00433254
v -0.00174039 -0.00941891 0.00635748
v -0.00174506 0.00032129 -0.01917380
v -0.00108999 -0.00498333 -0.01593105
v -0.00090969 -0.00672717 -0.01397270
v -0.00100758 -0.00787894 -0.01214889
v -0.00103003 -0.00852140 -0.01017752
v -0.00105798 -0.00964065 -0.00518984
v -0.00078611 -0.01009288 -0.00260996
v -0.00032344 -0.01025034 -0.00007977
v -0.00015859 -0.01031168 0.00220982
v -0.00020720 -0.01019157 0.00432025
v -0.00027058 -0.00971817 0.00630426
v -0.00050667 -0.00033440 -0.01873784
v -0.00045816 -0.00265389 -0.01772287
v 0.00000551 -0.00517254 -0.01587574
v 0.00015921 -0.00650814 -0.01406596
v 0.00009684 -0.00774177 -0.01224620
v 0.00009029 -0.00862825 -0.01026793
v 0.00029752 -0.00983667 -0.00531439
v 0.00071761 -0.01006491 -0.00261896
v 0.00126244 -0.01013156 0.00430583
v 0.00118929 -0.00984592 0.00621374
v 0.00071394 -0.00327124 -0.01743608
v 0.00106873 -0.00508006 -0.01585896
v 0.00120269 -0.00854365 -0.01041820
v 0.00133892 -0.00926603 -0.00798773
v 0.00162046 -0.00977002 -0.00544548
v 0.00276243 -0.00981493 0.00427829
v 0.00271664 -0.00973511 0.00612478
v 0.00183430 -0.00368793 -0.01717985
v 0.00251051 -0.00929679 -0.00818798
v 0.00436860 -0.00943014 0.00603873
v 0.00352419 -0.00810748 -0.01081624
v 0.00374294 -0.00929011 -0.00841304
v 0.00434749 -0.00949473 -0.00583459
v 0.00616862 -0.00907934 0.00591032
v 0.00484709 -0.00769510 -0.01103240
v 0.00515765 -0.00898330 -0.00866489
v 0.00589710 -0.00915958 -0.00613021
v 0.00819796 -0.00854519 0.00567279
v 0.00413658 -0.00384392 -0.01604417
v 0.00604760 -0.00687489 -0.01123740
v 0.00658173 -0.00814802 -0.00890322
v 0.00743526 -0.00833497 -0.00643985
v 0.00843080 -0.00800560 -0.00372276
v 0.00969250 -0.00762475 0.00119077
v 0.00994359 -0.00771813 0.00331570
v 0.01017674 -0.00755146 0.00545691
v 0.01025936 -0.00705336 0.00720832
v 0.00452230 -0.00344671 -0.01611994
v 0.00696320 -0.00579061 -0.01139237
v 0.00782395 -0.00675677 -0.00908828
v 0.00873902 -0.00683503 -0.00660917
v 0.00967966 -0.00663071 -0.00399053
v 0.01111809 -0.00632721 0.00090375
v 0.01180488 -0.00615269 0.00531246
v 0.01177521 -0.00579676 0.00708424
v 0.00475156 -0.00286860 -0.01618956
v 0.00373927 -0.00307693 -0.01702200
v 0.00560406 -0.00300649 -0.01490377
v 0.00654072 -0.00350680 -0.01327862
v 0.00748692 -0.00432987 -0.01148674
v 0.00861327 -0.00482857 -0.00917381
v 0.00961393 -0.00476236 -0.00662963
v 0.01053622 -0.00450825 -0.00399575
v 0.01138990 -0.00433974 -0.00147298
v 0.01051167 -0.00640541 -0.00144138
v 0.01210344 -0.00434006 0.00087000
v 0.01256227 -0.00443989 0.00306269
v 0.01151006 -0.00627346 0.00313748
v 0.01287005 -0.00448754 0.00522133
v 0.01276965 -0.00428992 0.00701444
v 0.01202526 -0.00386710 0.00875900
v -0.00160059 0.00081560 -0.01928947
v -0.00270423 0.00124635 -0.01959680
v -0.00364805 0.00140493 -0.01965527
v -0.00441631 0.00132050 -0.01945272
v -0.00508188 0.00104095 -0.01904974
f 206 207 200
f 244 243 252
f 224 43 55
f 233 43 224
f 201 200 207
f 252 259 260
f 332 339 324
f 367 371 360
f 232 233 224
f 245 244 253
f 253 244 252
f 252 260 253
f 208 201 207
f 52 214 224
f 243 244 236
f 244 232 236
f 229 242 243
f 206 200 199
f 266 267 257
f 259 267 269
f 269 260 259
f 345 348 349
f 371 367 369
f 324 339 333
f 342 333 346
f 342 346 347
f 266 257 256
f 237 244 245
f 237 232 244
f 245 233 237
f 233 232 237
f 71 69 33
f 54 55 43
f 224 55 54
f 54 52 224
f 243 236 235
f 235 236 230
f 235 229 243
f 230 229 235
f 231 232 224
f 231 236 232
f 230 236 231
f 231 222 230
f 220 208 207
f 220 222 214
f 224 214 223
f 214 222 223
f 223 231 224
f 222 231 223
f 242 229 218
f 230 222 221
f 221 229 230
f 222 220 221
f 200 201 197
f 197 192 200
f 8 132 146
f 146 132 130
f 130 131 128
f 68 2 66
f 66 65 68
f 381 365 380
f 242 250 251
f 252 243 251
f 243 242 251
f 251 259 252
f 251 250 259
f 268 267 259
f 268 257 267
f 248 240 247
f 241 240 248
f 247 256 248
f 248 256 257
f 270 269 277
f 260 269 270
f 277 269 276
f 298 290 297
f 41 310 42
f 363 377 376
f 354 363 376
f 346 88 351
f 360 371 372
f 96 97 372
f 372 371 123
f 123 96 372
f 347 346 352
f 346 351 352
f 353 363 354
f 353 362 363
f 353 348 347
f 347 352 353
f 338 331 330
f 123 371 370
f 370 369 123
f 371 369 370
f 113 369 367
f 113 75 122
f 123 369 113
f 113 122 123
f 89 333 339
f 339 311 89
f 311 88 89
f 346 333 89
f 89 88 346
f 318 319 308
f 317 318 308
f 295 296 289
f 289 281 295
f 281 289 282
f 281 282 275
f 275 269 267
f 275 276 269
f 297 290 275
f 275 282 297
f 295 281 280
f 266 256 265
f 279 294 295
f 295 280 279
f 279 280 272
f 312 332 324
f 283 40 277
f 277 276 283
f 276 275 283
f 34 35 71
f 71 33 34
f 31 34 33
f 31 253 260
f 67 68 65
f 67 12 16
f 11 12 67
f 16 21 67
f 32 33 69
f 50 44 69
f 242 218 228
f 228 250 242
f 241 250 228
f 228 218 217
f 219 218 229
f 229 221 219
f 219 211 218
f 213 220 207
f 213 221 220
f 213 207 206
f 213 219 221
f 211 219 213
f 56 170 176
f 176 187 192
f 176 192 56
f 125 132 25
f 25 135 125
f 66 64 25
f 130 132 133
f 133 131 130
f 8 146 154
f 154 146 153
f 196 176 170
f 187 176 196
f 200 192 196
f 192 187 196
f 66 2 1
f 2 68 3
f 73 39 40
f 73 40 41
f 41 74 73
f 365 381 366
f 366 357 365
f 226 240 227
f 227 240 241
f 227 228 217
f 241 228 227
f 177 178 171
f 217 218 210
f 218 211 210
f 191 184 190
f 190 194 191
f 193 194 190
f 82 83 202
f 215 83 82
f 216 227 217
f 226 227 216
f 216 215 226
f 83 215 216
f 81 182 188
f 82 202 188
f 188 387 82
f 259 250 258
f 258 268 259
f 257 268 249
f 249 248 257
f 268 258 249
f 249 258 250
f 249 250 241
f 241 248 249
f 38 39 35
f 40 39 38
f 277 40 38
f 38 270 277
f 290 298 299
f 338 330 341
f 341 330 345
f 62 345 349
f 62 341 345
f 338 341 62
f 62 74 41
f 62 331 338
f 41 42 62
f 62 42 310
f 310 299 309
f 309 298 308
f 309 299 298
f 98 97 106
f 105 96 123
f 105 97 96
f 105 106 97
f 123 124 105
f 102 101 110
f 102 381 380
f 377 101 378
f 378 102 380
f 101 102 378
f 380 365 379
f 379 378 380
f 360 351 359
f 359 367 360
f 375 377 363
f 360 372 361
f 361 372 362
f 361 351 360
f 361 352 351
f 362 353 361
f 361 353 352
f 348 345 344
f 344 330 319
f 138 124 123
f 75 113 76
f 324 333 313
f 304 296 295
f 304 305 296
f 343 342 347
f 347 348 343
f 348 344 343
f 343 344 336
f 307 298 297
f 308 298 307
f 307 317 308
f 318 317 329
f 336 344 329
f 319 318 329
f 329 344 319
f 315 304 314
f 305 304 315
f 305 315 328
f 336 329 328
f 328 329 317
f 328 343 336
f 340 343 328
f 281 275 274
f 266 265 274
f 274 267 266
f 274 275 267
f 294 279 278
f 246 254 247
f 339 332 301
f 301 311 339
f 332 312 285
f 87 287 285
f 285 278 87
f 312 278 285
f 291 283 290
f 40 283 291
f 290 299 291
f 41 40 291
f 291 299 41
f 286 275 290
f 290 283 286
f 286 283 275
f 37 38 35
f 270 38 37
f 5 67 6
f 6 67 21
f 8 11 10
f 11 67 10
f 10 67 65
f 10 65 66
f 56 192 57
f 192 197 57
f 69 44 45
f 45 32 69
f 45 50 43
f 44 50 45
f 245 253 45
f 45 233 245
f 43 233 45
f 30 31 33
f 33 32 30
f 32 45 30
f 253 31 30
f 30 45 253
f 43 50 51
f 51 54 43
f 52 54 51
f 214 52 53
f 52 51 53
f 53 51 50
f 53 220 214
f 69 67 49
f 49 50 69
f 49 67 5
f 7 132 8
f 7 25 132
f 8 10 7
f 120 112 119
f 125 135 119
f 119 118 125
f 110 118 119
f 134 132 125
f 134 133 132
f 125 118 134
f 118 133 134
f 115 131 116
f 131 133 116
f 129 128 131
f 195 199 200
f 200 196 195
f 191 194 195
f 195 194 199
f 195 196 163
f 170 163 169
f 169 196 170
f 163 196 169
f 164 163 170
f 128 144 145
f 145 146 130
f 130 128 145
f 153 146 145
f 145 144 153
f 156 154 153
f 8 154 156
f 156 159 8
f 163 164 158
f 70 3 68
f 70 69 71
f 70 67 69
f 68 67 70
f 71 35 72
f 72 70 71
f 35 39 72
f 39 73 72
f 72 73 58
f 4 3 72
f 3 70 72
f 58 366 59
f 59 366 381
f 59 1 2
f 2 3 59
f 59 3 4
f 59 72 58
f 4 72 59
f 58 357 358
f 358 366 58
f 357 366 358
f 104 382 103
f 103 382 381
f 381 102 103
f 311 171 383
f 204 210 211
f 184 178 183
f 183 190 184
f 183 178 177
f 177 182 183
f 81 188 80
f 80 188 202
f 217 210 203
f 203 80 202
f 210 204 203
f 226 215 239
f 239 240 226
f 247 240 239
f 239 246 247
f 300 310 41
f 41 299 300
f 300 299 310
f 349 357 63
f 63 62 349
f 63 357 58
f 58 73 63
f 63 73 74
f 74 62 63
f 310 309 321
f 321 62 310
f 331 62 321
f 320 330 331
f 331 321 320
f 320 321 309
f 320 309 308
f 308 319 320
f 319 330 320
f 115 106 114
f 106 105 114
f 114 105 124
f 124 129 114
f 114 131 115
f 114 129 131
f 365 357 356
f 356 379 365
f 356 357 349
f 349 348 356
f 354 355 356
f 356 353 354
f 348 353 356
f 354 376 364
f 364 355 354
f 378 379 364
f 364 356 355
f 379 356 364
f 364 376 377
f 377 378 364
f 350 351 88
f 350 359 351
f 362 372 373
f 363 362 373
f 373 375 363
f 373 97 98
f 373 372 97
f 345 330 337
f 337 344 345
f 330 344 337
f 122 75 121
f 122 121 139
f 139 121 78
f 123 122 139
f 139 138 123
f 172 171 178
f 95 113 367
f 367 76 95
f 95 76 113
f 333 342 325
f 325 313 333
f 303 313 314
f 314 304 303
f 295 294 303
f 303 304 295
f 294 278 303
f 303 278 312
f 303 312 324
f 324 313 303
f 306 289 296
f 317 307 306
f 306 307 297
f 297 282 306
f 306 282 289
f 316 328 317
f 316 306 296
f 317 306 316
f 296 305 316
f 305 328 316
f 340 328 335
f 273 280 281
f 281 274 273
f 272 280 273
f 273 274 265
f 273 264 272
f 265 264 273
f 254 246 263
f 263 261 254
f 254 261 262
f 272 264 262
f 255 256 247
f 247 254 255
f 255 265 256
f 255 264 265
f 254 262 255
f 255 262 264
f 386 287 387
f 386 188 182
f 387 188 386
f 332 293 302
f 385 182 177
f 385 386 182
f 177 171 384
f 384 385 177
f 301 385 384
f 384 171 311
f 311 301 384
f 288 293 332
f 332 285 288
f 28 21 16
f 16 12 15
f 12 14 15
f 8 159 13
f 13 11 8
f 13 12 11
f 13 14 12
f 35 34 36
f 36 37 35
f 34 31 36
f 36 31 260
f 260 270 36
f 270 37 36
f 22 6 21
f 21 57 22
f 5 6 22
f 22 57 5
f 5 57 46
f 46 57 197
f 46 197 201
f 66 25 9
f 25 7 9
f 9 10 66
f 9 7 10
f 135 25 24
f 24 119 135
f 120 119 24
f 24 112 120
f 104 112 24
f 24 25 64
f 110 119 111
f 111 119 112
f 111 102 110
f 111 103 102
f 111 112 104
f 104 103 111
f 107 106 115
f 98 106 107
f 100 101 377
f 377 375 100
f 117 133 118
f 117 116 133
f 163 181 186
f 186 195 163
f 165 164 170
f 159 158 165
f 165 158 164
f 165 13 159
f 170 15 165
f 165 15 14
f 14 13 165
f 153 144 152
f 163 158 157
f 157 151 163
f 158 151 157
f 162 181 163
f 163 151 162
f 381 382 60
f 60 59 381
f 60 64 66
f 66 1 60
f 1 59 60
f 206 199 212
f 212 204 211
f 212 213 206
f 211 213 212
f 189 182 81
f 189 183 182
f 81 193 189
f 193 190 189
f 190 183 189
f 209 203 202
f 209 202 83
f 83 216 209
f 209 216 217
f 217 203 209
f 198 203 204
f 198 193 81
f 81 80 198
f 80 203 198
f 238 239 225
f 225 239 215
f 82 238 225
f 225 215 82
f 171 172 166
f 166 172 78
f 166 383 171
f 166 90 383
f 138 139 136
f 136 173 147
f 179 172 178
f 173 172 179
f 179 178 184
f 367 359 368
f 75 76 77
f 77 121 75
f 78 121 77
f 77 166 78
f 311 383 322
f 383 90 322
f 322 88 311
f 322 90 88
f 185 184 191
f 185 179 184
f 180 179 185
f 191 195 185
f 195 186 185
f 181 180 185
f 185 186 181
f 175 180 181
f 175 162 151
f 181 162 175
f 147 173 174
f 173 179 174
f 174 179 180
f 128 129 141
f 138 140 141
f 124 138 141
f 141 129 124
f 326 325 342
f 313 325 326
f 314 313 326
f 326 334 314
f 342 343 326
f 343 334 326
f 327 334 343
f 327 343 340
f 327 315 314
f 314 334 327
f 340 335 327
f 327 328 315
f 327 335 328
f 87 278 271
f 272 262 271
f 271 279 272
f 271 278 279
f 86 262 261
f 86 287 87
f 261 287 86
f 87 271 86
f 86 271 262
f 323 301 332
f 332 302 323
f 323 302 301
f 292 285 287
f 292 288 285
f 293 288 292
f 292 302 293
f 301 302 292
f 292 385 301
f 287 386 292
f 386 385 292
f 17 28 16
f 23 57 21
f 57 23 29
f 21 28 29
f 29 23 21
f 48 49 5
f 5 46 48
f 48 46 49
f 49 46 47
f 47 53 50
f 50 49 47
f 208 220 47
f 220 53 47
f 201 208 47
f 47 46 201
f 108 100 107
f 115 116 108
f 108 107 115
f 375 373 374
f 374 100 375
f 155 151 158
f 155 152 151
f 153 152 155
f 155 156 153
f 159 156 155
f 155 158 159
f 61 382 104
f 61 60 382
f 64 60 61
f 104 24 61
f 61 24 64
f 205 212 199
f 204 212 205
f 199 194 205
f 205 198 204
f 205 194 193
f 193 198 205
f 79 139 78
f 79 136 139
f 78 172 79
f 173 136 79
f 79 172 173
f 148 136 147
f 137 140 138
f 138 136 137
f 137 148 140
f 136 148 137
f 88 90 91
f 90 368 91
f 91 368 359
f 91 350 88
f 359 350 91
f 92 368 90
f 367 368 92
f 180 175 168
f 168 174 180
f 168 151 150
f 168 175 151
f 149 142 140
f 140 148 149
f 150 142 149
f 143 144 128
f 143 152 144
f 151 152 143
f 150 151 143
f 143 142 150
f 128 141 127
f 127 143 128
f 142 143 127
f 140 142 126
f 126 141 140
f 142 127 126
f 126 127 141
f 234 238 82
f 82 387 234
f 387 85 234
f 84 85 263
f 84 263 246
f 238 234 84
f 84 234 85
f 84 239 238
f 246 239 84
f 261 263 284
f 263 85 284
f 284 287 261
f 387 287 284
f 284 85 387
f 27 17 26
f 28 17 27
f 27 29 28
f 26 57 27
f 57 29 27
f 26 17 20
f 20 17 19
f 20 19 56
f 56 57 20
f 20 57 26
f 19 17 18
f 18 15 170
f 16 15 18
f 18 17 16
f 18 170 56
f 56 19 18
f 116 117 109
f 109 108 116
f 109 118 110
f 109 117 118
f 110 101 109
f 101 100 109
f 100 108 109
f 99 374 373
f 100 374 99
f 99 373 98
f 98 107 99
f 107 100 99
f 93 92 90
f 93 77 76
f 93 76 367
f 367 92 93
f 150 174 161
f 161 168 150
f 174 168 161
f 160 149 148
f 160 148 147
f 94 93 90
f 77 93 94
f 90 166 94
f 166 77 94
f 147 174 167
f 167 160 147
f 167 174 150
f 150 149 167
f 149 160 167

