
o part_0
v 0.01522834 0.01522834 -0.00662053
v 0.01325457 0.01325457 -0.01192235
v 0.00795274 0.01522834 -0.01389613
v 0.00265091 0.01612488 -0.01479266
v 0.00913701 0.01897581 -0.00780479
v 0.00304567 0.02059540 -0.00834271
v -0.00265091 0.01612488 -0.01479266
v -0.00304567 0.02059540 -0.00834271
v -0.00795274 0.01522834 -0.01389613
v -0.00913701 0.01897581 -0.00780479
v -0.01325457 0.01325457 -0.01192235
v -0.01522834 0.01522834 -0.00662053
v 0.01612488 0.01612488 -0.00131870
v 0.00967493 0.02059540 -0.00171345
v 0.00322498 0.02250000 -0.00189276
v -0.00322498 0.02250000 -0.00189276
v -0.00967493 0.02059540 -0.00171345
v 0.01612488 0.01612488 0.00398716
v 0.00967493 0.02059540 0.00445561
v 0.00322498 0.02250000 0.00464242
v -0.00967493 0.02059540 0.00445561
v -0.01612488 0.01612488 -0.00131870
v -0.01612488 0.01612488 0.00398716
v 0.01522834 0.01522834 0.00968708
v 0.00913701 0.01897581 0.01132826
v 0.00304567 0.02059540 0.01196110
v -0.00322498 0.02250000 0.00464242
v -0.00304567 0.02059540 0.01196110
v -0.00913701 0.01897581 0.01132826
v -0.01522834 0.01522834 0.00968708
v 0.01325457 0.01325457 0.01574162
v 0.00795274 0.01522834 0.01821626
v 0.00265091 0.01612488 0.01929020
v -0.00265091 0.01612488 0.01929020
v -0.00795274 0.01522834 0.01821626
v -0.01325457 0.01325457 0.01574162
v -0.01522834 0.00795274 -0.01389613
v -0.01897581 0.00913701 -0.00780479
v -0.01612488 0.00265091 -0.01479266
v -0.02059540 0.00304567 -0.00834271
v -0.01612488 -0.00265091 -0.01479266
v -0.02059540 -0.00304567 -0.00834271
v -0.01522834 -0.00795274 -0.01389613
v -0.01897581 -0.00913701 -0.00780479
v -0.01325457 -0.01325457 -0.01192235
v -0.01522834 -0.01522834 -0.00662053
v -0.02059540 0.00967493 -0.00171345
v -0.02250000 0.00322498 -0.00189276
v -0.02250000 -0.00322498 -0.00189276
v -0.02059540 -0.00967493 -0.00171345
v -0.02059540 0.00967493 0.00437788
v -0.02250000 0.00322498 0.00455719
v -0.02250000 -0.00322498 0.00455719
v -0.02059540 -0.00967493 0.00437788
v -0.01612488 -0.01612488 0.00398716
v -0.01897581 0.00913701 0.01065395
v -0.02059540 0.00304567 0.01101862
v -0.02059540 -0.00304567 0.01101862
v -0.01897581 -0.00913701 0.01065395
v -0.01522834 0.00795274 0.01674692
v -0.01612488 0.00265091 0.01660318
v -0.01612488 -0.00265091 0.01660318
v -0.01522834 -0.00795274 0.01674692
v -0.01522834 -0.01522834 0.00968708
v -0.01325457 -0.01325457 0.01574162
v -0.00795274 -0.01522834 -0.01389613
v -0.00913701 -0.01897581 -0.00780479
v -0.00265091 -0.01612488 -0.01479266
v -0.00304567 -0.02059540 -0.00834271
v 0.00265091 -0.01612488 -0.01479266
v 0.00304567 -0.02059540 -0.00834271
v 0.00795274 -0.01522834 -0.01389613
v 0.00913701 -0.01897581 -0.00780479
v 0.01325457 -0.01325457 -0.01192235
v 0.01522834 -0.01522834 -0.00662053
v -0.00967493 -0.02059540 -0.00171345
v -0.00322498 -0.02250000 -0.00189276
v 0.00967493 -0.02059540 -0.00171345
v -0.01612488 -0.01612488 -0.00131870
v -0.00967493 -0.02059540 0.00445561
v -0.00322498 -0.02250000 0.00464242
v 0.00322498 -0.02250000 -0.00189276
v 0.00322498 -0.02250000 0.00464242
v 0.00967493 -0.02059540 0.00445561
v 0.01612488 -0.01612488 -0.00131870
v 0.01612488 -0.01612488 0.00398716
v -0.00913701 -0.01897581 0.01132826
v -0.00304567 -0.02059540 0.01196110
v 0.00304567 -0.02059540 0.01196110
v 0.00913701 -0.01897581 0.01132826
v 0.01522834 -0.01522834 0.00968708
v -0.00795274 -0.01522834 0.01821626
v -0.00265091 -0.01612488 0.01929020
v 0.00265091 -0.01612488 0.01929020
v 0.00795274 -0.01522834 0.01821626
v 0.01325457 -0.01325457 0.01574162
v 0.01522834 -0.00795274 -0.01389613
v 0.01897581 -0.00913701 -0.00780479
v 0.01612488 -0.00265091 -0.01479266
v 0.02059540 -0.00304567 -0.00834271
v 0.01612488 0.00265091 -0.01479266
v 0.02059540 0.00304567 -0.00834271
v 0.01522834 0.00795274 -0.01389613
v 0.01897581 0.00913701 -0.00780479
v 0.02059540 -0.00967493 -0.00171345
v 0.02250000 -0.00322498 -0.00189276
v 0.02250000 0.00322498 -0.00189276
v 0.02059540 0.00967493 -0.00171345
v 0.02059540 -0.00967493 0.00437788
v 0.02250000 -0.00322498 0.00455719
v 0.02250000 0.00322498 0.00455719
v 0.02059540 0.00967493 0.00437788
v 0.01897581 -0.00913701 0.01065395
v 0.02059540 -0.00304567 0.01101862
v 0.02059540 0.00304567 0.01101862
v 0.01897581 0.00913701 0.01065395
v 0.01522834 -0.00795274 0.01674692
v 0.01612488 -0.00265091 0.01660318
v 0.01612488 0.00265091 0.01660318
v 0.01522834 0.00795274 0.01674692
v 0.00913701 -0.00913701 -0.01764359
v 0.00304567 -0.00967493 -0.01926318
v -0.00304567 -0.00967493 -0.01926318
v -0.00913701 -0.00913701 -0.01764359
v 0.00967493 -0.00304567 -0.01926318
v 0.00322498 -0.00322498 -0.02116778
v -0.00322498 -0.00322498 -0.02116778
v -0.00967493 -0.00304567 -0.01926318
v 0.00967493 0.00304567 -0.01926318
v 0.00322498 0.00322498 -0.02116778
v -0.00322498 0.00322498 -0.02116778
v -0.00967493 0.00304567 -0.01926318
v 0.00913701 0.00913701 -0.01764359
v 0.00304567 0.00967493 -0.01926318
v -0.00304567 0.00967493 -0.01926318
v -0.00913701 0.00913701 -0.01764359
v 0.00913701 0.00913701 0.01979486
v 0.00304567 0.00967493 0.02116778
v -0.00304567 0.00967493 0.02116778
v -0.00913701 0.00913701 0.01979486
v 0.00913701 -0.00913701 0.01979486
v 0.00304567 -0.00967493 0.02116778
v -0.00304567 -0.00967493 0.02116778
v -0.00913701 -0.00913701 0.01979486
f 43 124 45
f 45 124 66
f 106 105 98
f 109 113 91
f 86 109 91
f 91 84 86
f 97 98 74
f 65 87 92
f 88 92 87
f 93 92 88
f 48 47 38
f 66 124 123
f 67 69 77
f 66 69 67
f 67 45 66
f 54 59 53
f 64 80 87
f 64 87 65
f 65 59 64
f 64 59 54
f 43 45 44
f 106 98 100
f 98 97 100
f 75 98 105
f 74 98 75
f 128 124 43
f 43 41 128
f 121 97 74
f 2 5 1
f 1 104 2
f 6 5 3
f 2 133 3
f 3 5 2
f 13 1 14
f 14 1 5
f 87 80 81
f 81 88 87
f 37 38 11
f 37 132 39
f 40 37 39
f 38 37 40
f 48 38 40
f 144 92 93
f 142 94 141
f 90 84 91
f 90 83 84
f 89 83 90
f 66 123 68
f 68 69 66
f 45 67 46
f 46 44 45
f 79 50 46
f 50 44 46
f 76 67 77
f 79 46 76
f 76 46 67
f 63 59 65
f 65 92 63
f 92 144 63
f 52 56 51
f 57 56 52
f 58 53 59
f 59 63 58
f 55 64 54
f 80 64 55
f 49 44 50
f 85 75 105
f 78 75 85
f 73 75 78
f 82 71 73
f 78 82 73
f 74 75 73
f 127 123 124
f 124 128 127
f 2 104 103
f 103 133 2
f 101 129 103
f 103 129 133
f 101 103 102
f 102 103 104
f 102 104 107
f 97 121 125
f 125 121 126
f 72 121 74
f 74 73 72
f 72 71 70
f 72 73 71
f 122 72 70
f 121 72 122
f 126 121 122
f 11 10 9
f 133 129 130
f 6 3 4
f 10 16 8
f 8 9 10
f 7 9 8
f 17 16 10
f 15 5 6
f 15 14 5
f 51 56 30
f 30 56 36
f 12 10 11
f 11 38 12
f 12 17 10
f 22 17 12
f 12 38 47
f 47 22 12
f 36 56 60
f 60 61 140
f 57 61 60
f 60 56 57
f 140 35 60
f 60 35 36
f 28 35 34
f 140 139 34
f 34 35 140
f 143 144 93
f 117 141 95
f 95 141 94
f 95 94 89
f 89 90 95
f 118 141 117
f 108 1 13
f 104 1 108
f 107 104 108
f 24 25 31
f 19 25 24
f 62 63 144
f 62 58 63
f 44 49 42
f 42 41 43
f 43 44 42
f 97 125 99
f 99 100 97
f 132 37 136
f 136 37 11
f 11 9 136
f 134 3 133
f 134 4 3
f 133 130 134
f 26 25 20
f 20 25 19
f 23 30 21
f 51 30 23
f 21 30 29
f 29 35 28
f 36 35 29
f 29 30 36
f 29 27 21
f 28 27 29
f 117 95 96
f 91 113 96
f 113 117 96
f 96 90 91
f 96 95 90
f 18 24 112
f 19 24 18
f 114 117 113
f 114 118 117
f 116 111 112
f 31 120 116
f 116 24 31
f 112 24 116
f 132 136 131
f 32 120 31
f 32 137 120
f 31 25 32
f 32 25 26
f 120 137 119
f 113 109 110
f 110 114 113
f 135 131 136
f 135 9 7
f 135 136 9
f 33 32 26
f 33 138 137
f 137 32 33
f 120 119 115
f 115 116 120
f 111 116 115
f 94 88 89
f 93 88 94
f 71 82 77
f 77 69 71
f 78 84 83
f 83 82 78
f 39 132 128
f 128 41 39
f 77 82 81
f 82 83 81
f 89 88 81
f 81 83 89
f 68 71 69
f 70 71 68
f 77 81 76
f 76 81 80
f 52 47 48
f 51 47 52
f 58 52 53
f 57 52 58
f 54 50 55
f 55 50 79
f 55 76 80
f 79 76 55
f 49 52 48
f 53 52 49
f 49 50 54
f 54 53 49
f 109 86 85
f 105 109 85
f 85 84 78
f 85 86 84
f 106 100 102
f 102 107 106
f 70 68 122
f 122 68 123
f 122 127 126
f 123 127 122
f 129 125 130
f 130 125 126
f 8 4 7
f 6 4 8
f 27 17 21
f 16 17 27
f 6 8 15
f 15 8 16
f 140 144 143
f 143 139 140
f 93 94 143
f 143 94 142
f 111 108 112
f 107 108 111
f 62 144 140
f 140 61 62
f 57 58 62
f 62 61 57
f 42 49 48
f 48 40 42
f 39 41 42
f 42 40 39
f 99 125 129
f 99 129 101
f 99 102 100
f 101 102 99
f 14 15 20
f 19 14 20
f 20 27 28
f 20 28 26
f 16 27 20
f 20 15 16
f 21 17 23
f 23 17 22
f 23 47 51
f 23 22 47
f 112 108 18
f 18 108 13
f 18 14 19
f 13 14 18
f 126 127 131
f 131 130 126
f 131 128 132
f 131 127 128
f 139 143 138
f 138 143 142
f 142 141 138
f 141 137 138
f 119 137 141
f 141 118 119
f 110 109 105
f 110 105 106
f 106 107 110
f 107 111 110
f 130 131 135
f 135 134 130
f 7 4 135
f 4 134 135
f 139 138 33
f 33 34 139
f 26 28 33
f 28 34 33
f 115 119 118
f 118 114 115
f 115 110 111
f 114 110 115

