
o part_0
v -0.01534278 -0.00000001 -0.01689715
v -0.01527668 0.00133963 -0.01689715
v -0.01517603 0.00149281 -0.01730000
v -0.01524814 -0.00000001 -0.01730000
v -0.01524814 -0.00000302 -0.01730000
v -0.01517453 -0.00149284 -0.01730000
v -0.01527668 -0.00131262 -0.01689715
v -0.01526767 0.00150182 -0.01689715
v -0.01526466 0.00152886 -0.01689715
v -0.01495671 0.00297363 -0.01730000
v -0.01495521 -0.00297365 -0.01730000
v -0.01524363 -0.00166405 -0.01689715
v -0.01526616 -0.00150485 -0.01689715
v -0.01504534 0.00299165 -0.01689715
v -0.01504083 0.00301868 -0.01689715
v -0.01459317 0.00442740 -0.01730000
v -0.01504984 -0.00296464 -0.01689715
v -0.01459167 -0.00442442 -0.01730000
v -0.01500628 -0.00315087 -0.01689715
v -0.01504534 -0.00299167 -0.01689715
v -0.01468030 0.00445444 -0.01689715
v -0.01467279 0.00447847 -0.01689715
v -0.01422964 0.00571598 -0.01689715
v -0.01408843 0.00583613 -0.01730000
v -0.01408693 -0.00583615 -0.01730000
v -0.01468030 -0.00445146 -0.01689715
v -0.01417255 0.00587217 -0.01689715
v -0.01352960 0.00723284 -0.01689715
v -0.01344698 0.00718778 -0.01730000
v -0.01417255 -0.00586919 -0.01689715
v -0.01344698 -0.00718780 -0.01730000
v -0.01352960 -0.00723286 -0.01689715
v -0.01410345 -0.00601938 -0.01689715
v -0.01284009 0.00838024 -0.01689715
v -0.01267785 0.00847035 -0.01730000
v -0.01267785 -0.00847037 -0.01730000
v -0.01276948 -0.00849741 -0.01689715
v -0.01275446 0.00852141 -0.01689715
v -0.01273944 0.00854244 -0.01689715
v -0.01185914 0.00973189 -0.01689715
v -0.01178703 0.00967182 -0.01730000
v -0.01178703 -0.00967184 -0.01730000
v -0.01265832 -0.00865360 -0.01689715
v -0.01275446 -0.00852144 -0.01689715
v -0.01184111 0.00975292 -0.01689715
v -0.01078205 0.01078017 -0.01730000
v -0.01078055 -0.01078020 -0.01730000
v -0.01084665 -0.01084628 -0.01689715
v -0.01185764 -0.00973192 -0.01689715
v -0.01095781 0.01072611 -0.01689715
v -0.01084665 0.01084626 -0.01689715
v -0.01082862 0.01086428 -0.01689715
v -0.00967342 0.01178641 -0.01730000
v -0.00967191 -0.01178643 -0.01730000
v -0.01072647 -0.01095742 -0.01689715
v -0.00973200 0.01185849 -0.01689715
v -0.00847164 0.01267850 -0.01730000
v -0.00847014 -0.01267852 -0.01730000
v -0.00973050 -0.01185852 -0.01689715
v -0.00975153 -0.01184050 -0.01689715
v -0.00865491 0.01265747 -0.01689715
v -0.00852272 0.01275359 -0.01689715
v -0.00850018 0.01276861 -0.01689715
v -0.00723532 0.01352854 -0.01689715
v -0.00719025 0.01344744 -0.01730000
v -0.00854375 -0.01273859 -0.01689715
v -0.00719025 -0.01344746 -0.01730000
v -0.00725635 -0.01351655 -0.01689715
v -0.00852122 -0.01275361 -0.01689715
v -0.00602003 0.01410224 -0.01689715
v -0.00583676 0.01408722 -0.01730000
v -0.00583676 -0.01408724 -0.01730000
v -0.00587281 -0.01417435 -0.01689715
v -0.00723382 -0.01352856 -0.01689715
v -0.00587281 0.01417132 -0.01689715
v -0.00442768 0.01459184 -0.01730000
v -0.00442768 -0.01459186 -0.01730000
v -0.00448025 -0.01466996 -0.01689715
v -0.00445472 0.01467894 -0.01689715
v -0.00315230 0.01500634 -0.01689715
v -0.00297654 0.01495528 -0.01730000
v -0.00297654 -0.01495531 -0.01730000
v -0.00429698 -0.01472102 -0.01689715
v -0.00445472 -0.01467897 -0.01689715
v -0.00299456 0.01504539 -0.01689715
v -0.00149535 0.01517455 -0.01730000
v -0.00149535 -0.01517458 -0.01730000
v -0.00153141 -0.01526469 -0.01689715
v -0.00299456 -0.01504542 -0.01689715
v -0.00302010 -0.01503941 -0.01689715
v -0.00150437 0.01526466 -0.01689715
v -0.00147733 0.01526766 -0.01689715
v -0.00000065 0.01533975 -0.01689715
v -0.00000065 0.01524664 -0.01730000
v -0.00000065 -0.01524966 -0.01730000
v -0.00134213 -0.01527670 -0.01689715
v -0.00150437 -0.01526769 -0.01689715
v 0.00000386 0.01533975 -0.01689715
v 0.00000386 0.01524664 -0.01730000
v 0.00000386 -0.01524966 -0.01730000
v -0.00000065 -0.01533978 -0.01689715
v 0.00000386 -0.01533978 -0.01689715
f 1 2 3
f 1 3 4
f 1 4 5
f 1 5 6
f 1 6 7
f 1 7 13
f 1 13 12
f 1 12 17
f 1 17 20
f 1 20 19
f 1 19 26
f 1 26 30
f 1 30 33
f 1 33 32
f 1 32 37
f 1 37 44
f 1 44 43
f 1 43 49
f 1 49 48
f 1 48 55
f 1 55 60
f 1 60 59
f 1 59 66
f 1 66 69
f 1 69 68
f 1 68 74
f 1 74 73
f 1 73 78
f 1 78 84
f 1 84 83
f 1 83 90
f 1 90 89
f 1 89 88
f 1 88 97
f 1 97 96
f 1 96 101
f 1 101 102
f 1 102 98
f 1 98 93
f 1 93 92
f 1 92 91
f 1 91 85
f 1 85 80
f 1 80 79
f 1 79 75
f 1 75 70
f 1 70 64
f 1 64 63
f 1 63 62
f 1 62 61
f 1 61 56
f 1 56 52
f 1 52 51
f 1 51 50
f 1 50 45
f 1 45 40
f 1 40 39
f 1 39 38
f 1 38 34
f 1 34 28
f 1 28 27
f 1 27 23
f 1 23 22
f 1 22 21
f 1 21 15
f 1 15 14
f 1 14 9
f 1 9 8
f 1 8 2
f 2 8 3
f 3 8 9
f 3 9 10
f 3 10 16
f 3 16 24
f 3 24 29
f 3 29 35
f 3 35 41
f 3 41 46
f 3 46 53
f 3 53 57
f 3 57 65
f 3 65 71
f 3 71 76
f 3 76 81
f 3 81 86
f 3 86 94
f 3 94 99
f 3 99 100
f 3 100 95
f 3 95 87
f 3 87 82
f 3 82 77
f 3 77 72
f 3 72 67
f 3 67 58
f 3 58 54
f 3 54 47
f 3 47 42
f 3 42 36
f 3 36 31
f 3 31 25
f 3 25 18
f 3 18 11
f 3 11 6
f 3 6 5
f 3 5 4
f 6 11 12
f 6 12 13
f 6 13 7
f 9 14 10
f 10 14 15
f 10 15 16
f 11 17 12
f 11 18 19
f 11 19 20
f 11 20 17
f 15 21 16
f 16 21 22
f 16 22 23
f 16 23 24
f 18 25 26
f 18 26 19
f 23 27 24
f 24 27 28
f 24 28 29
f 25 30 26
f 25 31 32
f 25 32 33
f 25 33 30
f 28 34 35
f 28 35 29
f 31 36 32
f 32 36 37
f 34 38 35
f 35 38 39
f 35 39 40
f 35 40 41
f 36 42 43
f 36 43 44
f 36 44 37
f 40 45 41
f 41 45 46
f 42 47 48
f 42 48 49
f 42 49 43
f 45 50 46
f 46 50 51
f 46 51 52
f 46 52 53
f 47 54 55
f 47 55 48
f 52 56 53
f 53 56 57
f 54 58 59
f 54 59 60
f 54 60 55
f 56 61 57
f 57 61 62
f 57 62 63
f 57 63 64
f 57 64 65
f 58 66 59
f 58 67 68
f 58 68 69
f 58 69 66
f 64 70 71
f 64 71 65
f 67 72 73
f 67 73 74
f 67 74 68
f 70 75 71
f 71 75 76
f 72 77 73
f 73 77 78
f 75 79 76
f 76 79 80
f 76 80 81
f 77 82 83
f 77 83 84
f 77 84 78
f 80 85 81
f 81 85 86
f 82 87 88
f 82 88 89
f 82 89 90
f 82 90 83
f 85 91 86
f 86 91 92
f 86 92 93
f 86 93 94
f 87 95 96
f 87 96 97
f 87 97 88
f 93 98 99
f 93 99 94
f 95 100 102
f 95 102 101
f 95 101 96
f 98 102 100
f 98 100 99

o part_1
v 0.00000536 0.00000000 -0.01730000
v 0.00000686 -0.01524947 -0.01730000
v 0.00000686 -0.01534259 -0.01689715
v 0.00000536 0.00000000 -0.01690003
v 0.00000536 0.01524647 -0.01730000
v 0.00149616 -0.01517438 -0.01730000
v 0.00150667 -0.01526750 -0.01689715
v 0.00000536 0.01484699 -0.01689715
v 0.00000536 0.01534259 -0.01689715
v 0.00149616 0.01517438 -0.01730000
v 0.00296745 -0.01505123 -0.01689715
v 0.00297646 -0.01495512 -0.01730000
v 0.00150667 0.01526449 -0.01689715
v 0.00153370 0.01526149 -0.01689715
v 0.00283383 0.01506926 -0.01689715
v 0.00297646 0.01495512 -0.01730000
v 0.00299447 -0.01504523 -0.01689715
v 0.00442823 -0.01459168 -0.01730000
v 0.00445525 -0.01468179 -0.01689715
v 0.00315361 -0.01500618 -0.01689715
v 0.00299447 0.01504523 -0.01689715
v 0.00302150 0.01503922 -0.01689715
v 0.00442823 0.01459168 -0.01730000
v 0.00583796 -0.01408707 -0.01730000
v 0.00587249 -0.01417417 -0.01689715
v 0.00445525 0.01467878 -0.01689715
v 0.00448078 0.01466977 -0.01689715
v 0.00571936 0.01422824 -0.01689715
v 0.00583796 0.01408707 -0.01730000
v 0.00719065 -0.01344729 -0.01730000
v 0.00723418 -0.01352839 -0.01689715
v 0.00587249 0.01417117 -0.01689715
v 0.00589802 0.01415915 -0.01689715
v 0.00723418 0.01352839 -0.01689715
v 0.00719065 0.01344729 -0.01730000
v 0.00847127 -0.01267836 -0.01730000
v 0.00852231 -0.01275645 -0.01689715
v 0.00838269 0.01283755 -0.01689715
v 0.00847127 0.01267836 -0.01730000
v 0.00973237 -0.01185837 -0.01689715
v 0.00967232 -0.01178628 -0.01730000
v 0.00852231 0.01275345 -0.01689715
v 0.00854483 0.01273843 -0.01689715
v 0.00973237 0.01185837 -0.01689715
v 0.00967232 0.01178628 -0.01730000
v 0.01078179 -0.01078006 -0.01730000
v 0.01084785 -0.01084614 -0.01689715
v 0.01084785 0.01084614 -0.01689715
v 0.01078179 0.01078006 -0.01730000
v 0.01178617 -0.00967172 -0.01730000
v 0.01185823 -0.00973179 -0.01689715
v 0.01185823 0.00973179 -0.01689715
v 0.01178617 0.00967172 -0.01730000
v 0.01267795 -0.00847026 -0.01730000
v 0.01273950 -0.00854235 -0.01689715
v 0.01187474 0.00971076 -0.01689715
v 0.01267795 0.00847026 -0.01730000
v 0.01344662 -0.00718771 -0.01730000
v 0.01351568 -0.00725379 -0.01689715
v 0.01275451 -0.00852132 -0.01689715
v 0.01265843 0.00865348 -0.01689715
v 0.01352919 0.00723276 -0.01689715
v 0.01344662 0.00718771 -0.01730000
v 0.01275451 0.00852132 -0.01689715
v 0.01276953 0.00849729 -0.01689715
v 0.01352919 -0.00722976 -0.01689715
v 0.01408768 -0.00583607 -0.01730000
v 0.01417326 -0.00587211 -0.01689715
v 0.01354120 0.00720873 -0.01689715
v 0.01408768 0.00583607 -0.01730000
v 0.01459062 -0.00442736 -0.01730000
v 0.01468070 -0.00445440 -0.01689715
v 0.01417326 0.00586911 -0.01689715
v 0.01462515 0.00460758 -0.01689715
v 0.01459062 0.00442436 -0.01730000
v 0.01495544 -0.00297360 -0.01730000
v 0.01503951 -0.00301866 -0.01689715
v 0.01467920 0.00445139 -0.01689715
v 0.01468670 0.00442736 -0.01689715
v 0.01495544 0.00297360 -0.01730000
v 0.01504552 -0.00299162 -0.01689715
v 0.01517463 -0.00149281 -0.01730000
v 0.01526321 -0.00152885 -0.01689715
v 0.01506954 -0.00283243 -0.01689715
v 0.01500648 0.00315082 -0.01689715
v 0.01504552 0.00299162 -0.01689715
v 0.01505002 0.00296459 -0.01689715
v 0.01526621 0.00150482 -0.01689715
v 0.01517463 0.00149281 -0.01730000
v 0.01524820 0.00000000 -0.01730000
v 0.01534278 0.00000000 -0.01689715
v 0.01526621 -0.00150182 -0.01689715
f 103 104 105
f 103 105 106
f 103 106 110
f 103 110 111
f 103 111 107
f 103 107 112
f 103 112 118
f 103 118 125
f 103 125 131
f 103 131 137
f 103 137 141
f 103 141 147
f 103 147 151
f 103 151 155
f 103 155 159
f 103 159 165
f 103 165 172
f 103 172 177
f 103 177 182
f 103 182 191
f 103 191 192
f 103 192 184
f 103 184 178
f 103 178 173
f 103 173 169
f 103 169 160
f 103 160 156
f 103 156 152
f 103 152 148
f 103 148 143
f 103 143 138
f 103 138 132
f 103 132 126
f 103 126 120
f 103 120 114
f 103 114 108
f 103 108 104
f 104 108 109
f 104 109 105
f 105 109 113
f 105 113 119
f 105 119 122
f 105 122 121
f 105 121 127
f 105 127 133
f 105 133 139
f 105 139 142
f 105 142 149
f 105 149 153
f 105 153 157
f 105 157 162
f 105 162 161
f 105 161 168
f 105 168 170
f 105 170 174
f 105 174 179
f 105 179 183
f 105 183 186
f 105 186 185
f 105 185 194
f 105 194 193
f 105 193 190
f 105 190 189
f 105 189 188
f 105 188 187
f 105 187 181
f 105 181 180
f 105 180 176
f 105 176 175
f 105 175 171
f 105 171 164
f 105 164 167
f 105 167 166
f 105 166 163
f 105 163 158
f 105 158 154
f 105 154 150
f 105 150 146
f 105 146 145
f 105 145 144
f 105 144 140
f 105 140 136
f 105 136 135
f 105 135 134
f 105 134 130
f 105 130 129
f 105 129 128
f 105 128 124
f 105 124 123
f 105 123 117
f 105 117 116
f 105 116 115
f 105 115 111
f 105 111 110
f 105 110 106
f 107 111 112
f 108 113 109
f 108 114 113
f 111 115 112
f 112 115 116
f 112 116 117
f 112 117 118
f 113 114 119
f 114 120 121
f 114 121 122
f 114 122 119
f 117 123 118
f 118 124 125
f 118 123 124
f 120 126 121
f 121 126 127
f 124 128 125
f 125 128 129
f 125 129 130
f 125 130 131
f 126 132 127
f 127 132 133
f 130 134 131
f 131 134 135
f 131 135 136
f 131 136 137
f 132 138 139
f 132 139 133
f 136 140 141
f 136 141 137
f 138 142 139
f 138 143 142
f 140 144 141
f 141 145 146
f 141 146 147
f 141 144 145
f 142 143 148
f 142 148 149
f 146 150 151
f 146 151 147
f 148 152 153
f 148 153 149
f 150 154 151
f 151 154 155
f 152 156 153
f 153 156 157
f 154 158 155
f 155 158 159
f 156 160 161
f 156 161 162
f 156 162 157
f 158 163 159
f 159 164 165
f 159 163 166
f 159 166 167
f 159 167 164
f 160 168 161
f 160 169 170
f 160 170 168
f 164 171 165
f 165 171 172
f 169 173 174
f 169 174 170
f 171 175 172
f 172 175 176
f 172 176 177
f 173 178 174
f 174 178 179
f 176 180 177
f 177 180 181
f 177 181 182
f 178 183 179
f 178 184 185
f 178 185 186
f 178 186 183
f 181 187 182
f 182 187 188
f 182 188 189
f 182 189 190
f 182 190 191
f 184 192 193
f 184 193 194
f 184 194 185
f 190 193 191
f 191 193 192

o part_2
v -0.01553401 -0.01591360 0.01689989
v -0.01553401 -0.01613118 0.01593231
v -0.01553401 -0.01753120 0.01729984
v -0.00917852 -0.02156811 0.01729984
v -0.00917852 -0.02138885 0.01724589
v -0.00917852 -0.02024225 0.01689989
v -0.00917852 -0.02031272 0.01651483
v -0.00917852 -0.02046230 0.01569766
v -0.01553401 -0.01618372 0.01570002
v -0.01553401 -0.01834032 0.01649993
v -0.01487644 -0.01812768 0.01729984
v -0.01105481 -0.02068050 0.01729984
v -0.00920402 -0.02221898 0.01649993
v -0.00917852 -0.02215841 0.01658714
v -0.00917852 -0.02090425 0.01569766
v -0.01553401 -0.01654655 0.01569766
v -0.01553401 -0.01672209 0.01569860
v -0.01449508 -0.01766348 0.01569766
v -0.01525655 -0.01859127 0.01649993
v -0.01336097 -0.01999624 0.01649993
v -0.01302752 -0.01949742 0.01729984
v -0.01133724 -0.02120960 0.01649993
v -0.00917852 -0.02222825 0.01649993
v -0.01077175 -0.02015139 0.01569766
v -0.00917852 -0.02215841 0.01645648
v -0.01269407 -0.01899922 0.01569766
f 195 196 203
f 195 203 210
f 195 210 211
f 195 211 204
f 195 204 197
f 195 197 198
f 195 198 199
f 195 199 200
f 195 200 201
f 195 201 202
f 195 202 196
f 196 202 203
f 197 204 205
f 197 205 215
f 197 215 206
f 197 206 198
f 198 206 207
f 198 207 208
f 198 208 217
f 198 217 219
f 198 219 209
f 198 209 202
f 198 202 201
f 198 201 200
f 198 200 199
f 202 209 218
f 202 218 220
f 202 220 212
f 202 212 210
f 202 210 203
f 204 211 212
f 204 212 213
f 204 213 205
f 205 213 214
f 205 214 215
f 206 216 207
f 206 215 214
f 206 214 216
f 207 217 208
f 207 216 218
f 207 218 209
f 207 209 219
f 207 219 217
f 210 212 211
f 212 220 213
f 213 220 214
f 214 220 216
f 216 220 218

o part_3
v -0.00917852 -0.02090363 0.01569766
v -0.00917852 -0.02046228 0.01569766
v -0.01077135 -0.02015068 0.01569766
v -0.00917852 -0.01831403 0.00551688
v -0.01321433 -0.01811515 0.01569766
v -0.00917852 -0.01250736 -0.01397619
v -0.01183640 -0.01004005 -0.01397619
v -0.01321433 -0.01004005 -0.00932876
v -0.01269445 -0.01899785 0.01569766
v -0.00917852 -0.01545536 -0.00537263
v -0.00917852 -0.01717077 0.00102630
v -0.01321433 -0.01861287 0.01569766
v -0.00917852 -0.01310823 -0.01397619
v -0.01246888 -0.01004005 -0.01397619
v -0.01321433 -0.01004005 -0.01137363
v -0.00917852 -0.01326456 -0.01343012
v -0.00917852 -0.01373675 -0.01178028
v -0.01321433 -0.01666774 0.00890370
v -0.01016021 -0.01238080 -0.01397619
v -0.01237999 -0.01016023 -0.01397619
v -0.01321433 -0.01048034 -0.01023501
v -0.01321433 -0.01660287 0.00867714
v -0.01132442 -0.01132475 -0.01397619
v -0.01321433 -0.01610090 0.00692563
v -0.01321433 -0.01430466 0.00113668
v -0.01147612 -0.01115779 -0.01397619
v -0.01321433 -0.01321458 -0.00237213
v -0.01321433 -0.01227020 -0.00512864
v -0.01321433 -0.01084512 -0.00928809
f 221 222 225
f 221 225 232
f 221 232 229
f 221 229 223
f 221 223 224
f 221 224 231
f 221 231 230
f 221 230 237
f 221 237 236
f 221 236 233
f 221 233 226
f 221 226 222
f 222 226 227
f 222 227 228
f 222 228 225
f 223 229 230
f 223 230 231
f 223 231 224
f 225 228 235
f 225 235 241
f 225 241 249
f 225 249 248
f 225 248 247
f 225 247 245
f 225 245 244
f 225 244 242
f 225 242 238
f 225 238 232
f 226 233 239
f 226 239 243
f 226 243 246
f 226 246 240
f 226 240 234
f 226 234 227
f 227 234 235
f 227 235 228
f 229 232 236
f 229 236 237
f 229 237 230
f 232 238 239
f 232 239 236
f 233 236 239
f 234 240 235
f 235 240 241
f 238 242 239
f 239 242 244
f 239 244 245
f 239 245 243
f 240 246 247
f 240 247 248
f 240 248 249
f 240 249 241
f 243 245 247
f 243 247 246

o part_4
v 0.00000386 0.01601490 -0.01397619
v 0.00000386 0.01556685 -0.01397619
v 0.00000386 0.01534254 -0.01689715
v -0.00000034 0.01601490 -0.01397619
v 0.00000281 0.01553134 -0.01397619
v 0.00000281 0.01484996 -0.01689715
v 0.00000386 0.01529463 -0.01689715
v -0.00000034 0.01534254 -0.01689715
v -0.00016307 0.01533465 -0.01689715
v -0.00156987 0.01593825 -0.01397619
v -0.01072142 0.01121931 -0.01397619
v -0.01072142 0.01025782 -0.01689715
v -0.00150478 0.01526871 -0.01689715
v -0.00312470 0.01570774 -0.01397619
v -0.01072142 0.01187195 -0.01397619
v -0.01072142 0.01096513 -0.01689715
v -0.00299347 0.01504778 -0.01689715
v -0.00315199 0.01500833 -0.01689715
v -0.00442756 0.01468877 -0.01689715
v -0.00464908 0.01532563 -0.01397619
v -0.01015975 0.01238030 -0.01397619
v -0.00973246 0.01186067 -0.01689715
v -0.00445381 0.01468201 -0.01689715
v -0.00587111 0.01417478 -0.01689715
v -0.00612832 0.01479585 -0.01397619
v -0.00997813 0.01251500 -0.01397619
v -0.00865426 0.01266041 -0.01689715
v -0.00720757 0.01354243 -0.01689715
v -0.00734510 0.01422043 -0.01397619
v -0.00889678 0.01331587 -0.01397619
v -0.00852303 0.01275735 -0.01689715
v -0.00723172 0.01353059 -0.01689715
v -0.00754877 0.01412405 -0.01397619
v -0.00870361 0.01343197 -0.01397619
v -0.00849994 0.01277144 -0.01689715
v -0.00737240 0.01344718 -0.01689715
f 250 251 256
f 250 256 252
f 250 252 257
f 250 257 253
f 250 253 259
f 250 259 263
f 250 263 269
f 250 269 274
f 250 274 278
f 250 278 282
f 250 282 283
f 250 283 279
f 250 279 275
f 250 275 270
f 250 270 264
f 250 264 260
f 250 260 254
f 250 254 251
f 251 254 255
f 251 255 256
f 252 256 255
f 252 255 261
f 252 261 265
f 252 265 271
f 252 271 276
f 252 276 280
f 252 280 284
f 252 284 285
f 252 285 281
f 252 281 277
f 252 277 273
f 252 273 272
f 252 272 268
f 252 268 267
f 252 267 266
f 252 266 262
f 252 262 258
f 252 258 257
f 253 257 258
f 253 258 259
f 254 260 261
f 254 261 255
f 258 262 259
f 259 262 263
f 260 264 265
f 260 265 261
f 262 266 263
f 263 266 267
f 263 267 268
f 263 268 269
f 264 270 271
f 264 271 265
f 268 272 269
f 269 272 273
f 269 273 274
f 270 275 276
f 270 276 271
f 273 277 278
f 273 278 274
f 275 279 276
f 276 279 280
f 277 281 282
f 277 282 278
f 279 283 284
f 279 284 280
f 281 285 282
f 282 285 283
f 283 285 284

o part_5
v 0.00000386 0.01601529 -0.01397619
v 0.00017071 0.01533416 -0.01689715
v 0.00002799 0.01534093 -0.01689715
v 0.00000386 0.01534206 -0.01689715
v 0.00000386 0.01553095 -0.01397619
v 0.00157053 0.01593805 -0.01397619
v 0.00150442 0.01526876 -0.01689715
v 0.00000386 0.01485038 -0.01689715
v 0.01072397 0.01025557 -0.01689715
v 0.01072397 0.01121693 -0.01397619
v 0.00153171 0.01526481 -0.01689715
v 0.00312461 0.01570743 -0.01397619
v 0.01072397 0.01096264 -0.01689715
v 0.01072397 0.01186931 -0.01397619
v 0.00299344 0.01504773 -0.01689715
v 0.00334393 0.01565274 -0.01397619
v 0.00302073 0.01504096 -0.01689715
v 0.01072397 0.01097222 -0.01686684
v 0.00975333 0.01184224 -0.01689715
v 0.01032732 0.01222848 -0.01397619
v 0.00464931 0.01532571 -0.01397619
v 0.00445413 0.01468179 -0.01689715
v 0.00973234 0.01186029 -0.01689715
v 0.01015942 0.01238016 -0.01397619
v 0.00448037 0.01467277 -0.01689715
v 0.00486233 0.01524959 -0.01397619
v 0.00960222 0.01195783 -0.01689715
v 0.00889706 0.01331615 -0.01397619
v 0.00571755 0.01422958 -0.01689715
v 0.00612784 0.01479625 -0.01397619
v 0.00852350 0.01275737 -0.01689715
v 0.00838393 0.01284138 -0.01689715
v 0.00774278 0.01400799 -0.01397619
v 0.00587075 0.01417433 -0.01689715
v 0.00589593 0.01416305 -0.01689715
v 0.00754865 0.01412414 -0.01397619
v 0.00725589 0.01351688 -0.01689715
v 0.00723175 0.01353097 -0.01689715
f 286 287 288
f 286 288 289
f 286 289 293
f 286 293 290
f 286 290 295
f 286 295 299
f 286 299 305
f 286 305 309
f 286 309 313
f 286 313 318
f 286 318 321
f 286 321 315
f 286 315 311
f 286 311 306
f 286 306 301
f 286 301 297
f 286 297 291
f 286 291 292
f 286 292 287
f 287 292 296
f 287 296 300
f 287 300 302
f 287 302 307
f 287 307 310
f 287 310 314
f 287 314 319
f 287 319 320
f 287 320 323
f 287 323 322
f 287 322 317
f 287 317 316
f 287 316 312
f 287 312 308
f 287 308 304
f 287 304 298
f 287 298 294
f 287 294 293
f 287 293 289
f 287 289 288
f 290 293 294
f 290 294 295
f 291 296 292
f 291 297 296
f 294 298 303
f 294 303 299
f 294 299 295
f 296 297 300
f 297 301 302
f 297 302 300
f 298 304 303
f 299 303 304
f 299 304 305
f 301 306 302
f 302 306 307
f 304 308 309
f 304 309 305
f 306 310 307
f 306 311 310
f 308 312 309
f 309 312 313
f 310 311 315
f 310 315 314
f 312 316 313
f 313 316 317
f 313 317 318
f 314 315 319
f 315 320 319
f 315 321 320
f 317 322 318
f 318 322 321
f 320 321 323
f 321 322 323

o part_6
v -0.00917852 -0.02024236 0.01689989
v -0.00917852 -0.02046301 0.01569766
v -0.00917852 -0.02138920 0.01724589
v -0.00000063 -0.02344993 0.01729984
v 0.00000386 -0.02225166 0.01690052
v -0.00000063 -0.02224980 0.01689989
v 0.00000386 -0.02244808 0.01569766
v -0.00917762 -0.02090505 0.01569766
v -0.00917852 -0.02090542 0.01570002
v -0.00917852 -0.02156848 0.01729984
v -0.00229892 -0.02333700 0.01729984
v -0.00235735 -0.02393409 0.01649993
v -0.00000063 -0.02404963 0.01649993
v 0.00000386 -0.02345068 0.01729859
v 0.00000386 -0.02284912 0.01569766
v -0.00917852 -0.02215885 0.01645648
v -0.00874349 -0.02111041 0.01569766
v -0.00917852 -0.02215885 0.01658714
v -0.00897358 -0.02166501 0.01729984
v -0.00457564 -0.02299932 0.01729984
v -0.00224050 -0.02273917 0.01569766
v -0.00000063 -0.02284912 0.01569766
v -0.00469159 -0.02358784 0.01649993
v 0.00000386 -0.02404739 0.01649868
v -0.00917852 -0.02222818 0.01649993
v -0.00663215 -0.02186590 0.01569766
v -0.00698089 -0.02301423 0.01649993
v -0.00680652 -0.02243988 0.01729984
v -0.00445790 -0.02241006 0.01569766
f 324 325 332
f 324 332 339
f 324 339 348
f 324 348 341
f 324 341 333
f 324 333 326
f 324 326 327
f 324 327 328
f 324 328 329
f 324 329 330
f 324 330 325
f 325 331 332
f 325 330 338
f 325 338 345
f 325 345 344
f 325 344 352
f 325 352 349
f 325 349 340
f 325 340 331
f 326 333 327
f 327 334 335
f 327 335 336
f 327 336 337
f 327 337 328
f 327 333 342
f 327 342 351
f 327 351 343
f 327 343 334
f 328 337 347
f 328 347 338
f 328 338 330
f 328 330 329
f 331 339 332
f 331 340 339
f 333 341 342
f 334 343 335
f 335 344 345
f 335 345 336
f 335 343 346
f 335 346 344
f 336 347 337
f 336 345 338
f 336 338 347
f 339 340 348
f 340 349 348
f 341 348 350
f 341 350 342
f 342 350 351
f 343 351 350
f 343 350 346
f 344 346 352
f 346 350 349
f 346 349 352
f 348 349 350

o part_7
v -0.00997325 -0.01097873 -0.01689715
v -0.01070486 -0.01097873 -0.01689715
v -0.01098520 -0.01097873 -0.01397619
v 0.00000386 -0.01485046 -0.01689715
v -0.01079945 -0.01097873 -0.01662238
v -0.00975331 -0.01184202 -0.01689715
v -0.01163819 -0.01097873 -0.01397619
v 0.00000386 -0.01553133 -0.01397619
v 0.00000386 -0.01486279 -0.01684254
v 0.00000386 -0.01534250 -0.01689715
v -0.01097837 -0.01097873 -0.01610029
v -0.00973279 -0.01186026 -0.01689715
v -0.01015900 -0.01238041 -0.01397619
v -0.01132366 -0.01132484 -0.01397619
v 0.00000386 -0.01601499 -0.01397619
v -0.00000070 -0.01534250 -0.01689715
v -0.00852369 -0.01275708 -0.01689715
v -0.00889747 -0.01331666 -0.01397619
v -0.00000070 -0.01601499 -0.01397619
v -0.00022634 -0.01600414 -0.01397619
v -0.00150496 -0.01526855 -0.01689715
v -0.00838352 -0.01284138 -0.01689715
v -0.00754934 -0.01412424 -0.01397619
v -0.00156991 -0.01593808 -0.01397619
v -0.00179327 -0.01590505 -0.01397619
v -0.00283258 -0.01507183 -0.01689715
v -0.00725533 -0.01351683 -0.01689715
v -0.00612827 -0.01479623 -0.01397619
v -0.00723139 -0.01353063 -0.01689715
v -0.00708439 -0.01360064 -0.01689715
v -0.00312545 -0.01570734 -0.01397619
v -0.00299326 -0.01504767 -0.01689715
v -0.00589580 -0.01416269 -0.01689715
v -0.00587072 -0.01417453 -0.01689715
v -0.00571802 -0.01422974 -0.01689715
v -0.00464909 -0.01532574 -0.01397619
v -0.00334426 -0.01565262 -0.01397619
v -0.00302061 -0.01504127 -0.01689715
v -0.00448043 -0.01467248 -0.01689715
v -0.00445422 -0.01468185 -0.01689715
f 353 354 357
f 353 357 363
f 353 363 359
f 353 359 355
f 353 355 356
f 353 356 362
f 353 362 368
f 353 368 373
f 353 373 378
f 353 378 384
f 353 384 390
f 353 390 392
f 353 392 391
f 353 391 387
f 353 387 386
f 353 386 385
f 353 385 382
f 353 382 381
f 353 381 379
f 353 379 374
f 353 374 369
f 353 369 364
f 353 364 358
f 353 358 354
f 354 358 357
f 355 359 366
f 355 366 365
f 355 365 370
f 355 370 375
f 355 375 380
f 355 380 388
f 355 388 389
f 355 389 383
f 355 383 377
f 355 377 376
f 355 376 372
f 355 372 371
f 355 371 367
f 355 367 360
f 355 360 361
f 355 361 356
f 356 361 360
f 356 360 367
f 356 367 362
f 357 358 363
f 358 364 365
f 358 365 366
f 358 366 363
f 359 363 366
f 362 367 371
f 362 371 368
f 364 369 370
f 364 370 365
f 368 371 372
f 368 372 373
f 369 374 370
f 370 374 375
f 372 376 373
f 373 376 377
f 373 377 378
f 374 379 375
f 375 379 381
f 375 381 382
f 375 382 380
f 377 383 378
f 378 383 384
f 380 385 386
f 380 386 387
f 380 387 388
f 380 382 385
f 383 389 390
f 383 390 384
f 387 391 388
f 388 391 392
f 388 392 390
f 388 390 389

o part_8
v 0.01771192 0.01342430 0.01689989
v 0.01834288 0.01342430 0.01706897
v 0.01796071 0.01342430 0.01570002
v 0.01796071 0.01342299 0.01569766
v 0.02244873 -0.00000283 0.01569766
v 0.02224958 -0.00000283 0.01689989
v 0.02344945 -0.00000283 0.01729984
v 0.01920462 0.01342430 0.01729984
v 0.01845765 0.01342430 0.01569766
v 0.02284889 -0.00000283 0.01569766
v 0.02404938 -0.00000283 0.01649993
v 0.02405000 0.00000112 0.01649993
v 0.02344945 0.00000112 0.01729984
v 0.01949808 0.01302738 0.01729984
v 0.01995035 0.01342430 0.01649993
v 0.01899865 0.01269354 0.01569766
v 0.02284889 0.00000112 0.01569766
v 0.02273908 0.00224072 0.01569766
v 0.02393398 0.00235770 0.01649993
v 0.02333653 0.00229855 0.01729984
v 0.01999688 0.01336121 0.01649993
v 0.02068119 0.01105326 0.01729984
v 0.02015198 0.01077068 0.01569766
v 0.02241026 0.00445799 0.01569766
v 0.02358780 0.00469194 0.01649993
v 0.02299903 0.00457496 0.01729984
v 0.02120978 0.01133584 0.01649993
v 0.02166454 0.00897269 0.01729984
v 0.02221918 0.00920270 0.01649993
v 0.02110989 0.00874400 0.01569766
v 0.02186555 0.00663319 0.01569766
v 0.02301392 0.00698017 0.01649993
v 0.02244004 0.00680668 0.01729984
f 393 394 400
f 393 400 407
f 393 407 401
f 393 401 395
f 393 395 396
f 393 396 397
f 393 397 398
f 393 398 399
f 393 399 394
f 394 399 400
f 395 401 396
f 396 401 408
f 396 408 415
f 396 415 422
f 396 422 423
f 396 423 416
f 396 416 410
f 396 410 409
f 396 409 402
f 396 402 397
f 397 402 403
f 397 403 399
f 397 399 398
f 399 403 404
f 399 404 405
f 399 405 412
f 399 412 418
f 399 418 425
f 399 425 420
f 399 420 414
f 399 414 406
f 399 406 400
f 400 406 407
f 401 407 408
f 402 409 404
f 402 404 403
f 404 409 410
f 404 410 411
f 404 411 412
f 404 412 405
f 406 413 407
f 406 414 413
f 407 413 408
f 408 413 415
f 410 416 411
f 411 416 417
f 411 417 418
f 411 418 412
f 413 419 415
f 413 414 419
f 414 420 421
f 414 421 419
f 415 419 421
f 415 421 422
f 416 423 417
f 417 423 424
f 417 424 425
f 417 425 418
f 420 425 421
f 421 424 423
f 421 423 422
f 421 425 424

o part_9
v 0.01097864 -0.01163827 -0.01397619
v 0.01097864 -0.01098566 -0.01397619
v 0.01097864 -0.01114511 -0.01556419
v 0.01132474 -0.01132393 -0.01397619
v 0.01097864 -0.01029432 -0.01597020
v 0.01553120 -0.00000283 -0.01397619
v 0.01485033 -0.00000283 -0.01689715
v 0.01097864 -0.01100502 -0.01601394
v 0.01097864 -0.01097769 -0.01610086
v 0.01097864 -0.01072142 -0.01685083
v 0.01222894 -0.01032735 -0.01397619
v 0.01097864 -0.00997314 -0.01689715
v 0.01601534 -0.00000283 -0.01397619
v 0.01534237 -0.00000283 -0.01689715
v 0.01097864 -0.01070548 -0.01689715
v 0.01184192 -0.00975332 -0.01689715
v 0.01238030 -0.01015993 -0.01397619
v 0.01593794 -0.00157001 -0.01397619
v 0.01534138 -0.00002788 -0.01689715
v 0.01186016 -0.00973282 -0.01689715
v 0.01195778 -0.00960184 -0.01689715
v 0.01318195 -0.00907907 -0.01397619
v 0.01590491 -0.00179325 -0.01397619
v 0.01526447 -0.00153129 -0.01689715
v 0.01526842 -0.00150395 -0.01689715
v 0.01275746 -0.00852326 -0.01689715
v 0.01331654 -0.00889684 -0.01397619
v 0.01570770 -0.00312467 -0.01397619
v 0.01507170 -0.00283196 -0.01689715
v 0.01351671 -0.00725562 -0.01689715
v 0.01400825 -0.00774309 -0.01397619
v 0.01532561 -0.00464972 -0.01397619
v 0.01472166 -0.00429664 -0.01689715
v 0.01504113 -0.00301989 -0.01689715
v 0.01504754 -0.00299369 -0.01689715
v 0.01353101 -0.00723170 -0.01689715
v 0.01412411 -0.00754947 -0.01397619
v 0.01524968 -0.00486270 -0.01397619
v 0.01467285 -0.00448001 -0.01689715
v 0.01468172 -0.00445382 -0.01689715
v 0.01360052 -0.00708478 -0.01689715
v 0.01416306 -0.00589572 -0.01689715
v 0.01479610 -0.00612807 -0.01397619
v 0.01422962 -0.00571804 -0.01689715
v 0.01417440 -0.00587066 -0.01689715
f 426 427 430
f 426 430 437
f 426 437 440
f 426 440 435
f 426 435 434
f 426 434 433
f 426 433 428
f 426 428 429
f 426 429 436
f 426 436 442
f 426 442 447
f 426 447 452
f 426 452 456
f 426 456 462
f 426 462 468
f 426 468 463
f 426 463 457
f 426 457 453
f 426 453 448
f 426 448 443
f 426 443 438
f 426 438 431
f 426 431 427
f 427 431 432
f 427 432 430
f 428 433 429
f 429 433 434
f 429 434 435
f 429 435 436
f 430 432 437
f 431 438 439
f 431 439 432
f 432 439 444
f 432 444 450
f 432 450 449
f 432 449 454
f 432 454 460
f 432 460 459
f 432 459 458
f 432 458 465
f 432 465 464
f 432 464 469
f 432 469 470
f 432 470 467
f 432 467 466
f 432 466 461
f 432 461 455
f 432 455 451
f 432 451 446
f 432 446 445
f 432 445 441
f 432 441 440
f 432 440 437
f 435 440 441
f 435 441 436
f 436 441 442
f 438 443 444
f 438 444 439
f 441 445 442
f 442 445 446
f 442 446 447
f 443 448 449
f 443 449 450
f 443 450 444
f 446 451 447
f 447 451 452
f 448 453 449
f 449 453 454
f 451 455 456
f 451 456 452
f 453 457 458
f 453 458 459
f 453 459 460
f 453 460 454
f 455 461 462
f 455 462 456
f 457 463 464
f 457 464 465
f 457 465 458
f 461 466 462
f 462 466 467
f 462 467 468
f 463 468 469
f 463 469 464
f 467 470 468
f 468 470 469

o part_10
v 0.01831019 -0.01261764 0.01689989
v 0.01855852 -0.01261764 0.01569766
v 0.01974455 -0.01261764 0.01729984
v 0.02344982 -0.00000283 0.01729984
v 0.02224975 -0.00000283 0.01689989
v 0.02244920 -0.00000283 0.01569766
v 0.01856077 -0.01261764 0.01569766
v 0.02044290 -0.01261764 0.01649993
v 0.02068112 -0.01105313 0.01729984
v 0.02333690 -0.00229957 0.01729984
v 0.02393412 -0.00235761 0.01649993
v 0.02404930 -0.00000283 0.01649993
v 0.02284923 -0.00000283 0.01569766
v 0.01904507 -0.01261640 0.01569766
v 0.01904563 -0.01261764 0.01570002
v 0.02015187 -0.01077036 0.01569766
v 0.02120980 -0.01133591 0.01649993
v 0.02221885 -0.00920339 0.01649993
v 0.02166489 -0.00897372 0.01729984
v 0.02299924 -0.00457532 0.01729984
v 0.02358747 -0.00469263 0.01649993
v 0.02240988 -0.00445802 0.01569766
v 0.02273911 -0.00224030 0.01569766
v 0.02111036 -0.00874404 0.01569766
v 0.02301440 -0.00698073 0.01649993
v 0.02244021 -0.00680662 0.01729984
v 0.02186546 -0.00663252 0.01569766
f 471 472 477
f 471 477 485
f 471 485 478
f 471 478 473
f 471 473 474
f 471 474 475
f 471 475 476
f 471 476 472
f 472 476 483
f 472 483 493
f 472 493 492
f 472 492 497
f 472 497 494
f 472 494 486
f 472 486 484
f 472 484 477
f 473 478 479
f 473 479 489
f 473 489 496
f 473 496 490
f 473 490 480
f 473 480 474
f 474 480 481
f 474 481 482
f 474 482 483
f 474 483 476
f 474 476 475
f 477 484 485
f 478 485 484
f 478 484 486
f 478 486 487
f 478 487 479
f 479 487 488
f 479 488 489
f 480 490 481
f 481 490 491
f 481 491 492
f 481 492 493
f 481 493 483
f 481 483 482
f 486 494 488
f 486 488 487
f 488 494 495
f 488 495 489
f 489 495 496
f 490 496 495
f 490 495 491
f 491 495 497
f 491 497 492
f 494 497 495

o part_11
v -0.00000063 -0.02284946 0.01569766
v 0.00000386 -0.02282921 0.01561343
v 0.00000386 -0.02284845 0.01569766
v -0.00224050 -0.02273911 0.01569766
v -0.00156998 -0.01593860 -0.01397619
v -0.00000063 -0.01601555 -0.01397619
v 0.00000386 -0.01601555 -0.01397619
v 0.00000386 -0.02244753 0.01569766
v -0.00445790 -0.02241007 0.01569766
v -0.00179379 -0.01590620 -0.01397619
v 0.00000386 -0.01553160 -0.01397619
v -0.00917852 -0.01250646 -0.01397619
v -0.00917852 -0.02046215 0.01569766
v -0.00663215 -0.02186538 0.01569766
v -0.00334426 -0.01565310 -0.01397619
v -0.00312494 -0.01570777 -0.01397619
v -0.00917852 -0.01310885 -0.01397619
v -0.00917852 -0.01831377 0.00551688
v -0.00917762 -0.02090458 0.01569766
v -0.00874349 -0.02111010 0.01569766
v -0.00486147 -0.01525015 -0.01397619
v -0.00464845 -0.01532608 -0.01397619
v -0.00907875 -0.01318276 -0.01397619
v -0.00917852 -0.01373757 -0.01178028
v -0.00917852 -0.01717276 0.00102630
v -0.00633284 -0.01470040 -0.01397619
v -0.00612881 -0.01479658 -0.01397619
v -0.00889719 -0.01331640 -0.01397619
v -0.00774310 -0.01400891 -0.01397619
v -0.00754895 -0.01412534 -0.01397619
f 498 499 500
f 498 500 505
f 498 505 510
f 498 510 516
f 498 516 517
f 498 517 511
f 498 511 506
f 498 506 501
f 498 501 502
f 498 502 503
f 498 503 504
f 498 504 499
f 499 504 508
f 499 508 505
f 499 505 500
f 501 506 507
f 501 507 502
f 502 507 513
f 502 513 512
f 502 512 519
f 502 519 518
f 502 518 524
f 502 524 523
f 502 523 527
f 502 527 526
f 502 526 525
f 502 525 520
f 502 520 514
f 502 514 509
f 502 509 508
f 502 508 504
f 502 504 503
f 505 509 510
f 505 508 509
f 506 511 512
f 506 512 513
f 506 513 507
f 509 514 521
f 509 521 522
f 509 522 515
f 509 515 510
f 510 515 516
f 511 517 518
f 511 518 519
f 511 519 512
f 514 520 521
f 515 522 516
f 516 522 517
f 517 522 523
f 517 523 524
f 517 524 518
f 520 525 521
f 521 525 526
f 521 526 527
f 521 527 522
f 522 527 523

o part_12
v -0.00773684 0.01344875 -0.01397619
v -0.00773684 0.01401223 -0.01397619
v 0.00000310 0.01553248 -0.01397619
v 0.00000386 0.02224957 0.01689895
v -0.00773684 0.02083414 0.01689895
v -0.00754893 0.01412534 -0.01397619
v -0.00773684 0.02274352 0.01649789
v 0.00000386 0.01556776 -0.01397619
v 0.00000386 0.02344917 0.01730000
v -0.00773684 0.02210741 0.01730000
v -0.00734511 0.01422185 -0.01397619
v -0.00698066 0.02301437 0.01649789
v -0.00612824 0.01479674 -0.01397619
v 0.00000386 0.01601605 -0.01397619
v 0.00000386 0.02404896 0.01649789
v -0.00000069 0.02344917 0.01730000
v -0.00680714 0.02243947 0.01730000
v -0.00457419 0.02299880 0.01730000
v -0.00469163 0.02358718 0.01649789
v -0.00312470 0.01570785 -0.01397619
v -0.00442947 0.01538097 -0.01397619
v -0.00464844 0.01532597 -0.01397619
v 0.00000007 0.01601605 -0.01397619
v -0.00000069 0.02404896 0.01649789
v -0.00235790 0.02393378 0.01649789
v -0.00229880 0.02333606 0.01730000
v -0.00156989 0.01593926 -0.01397619
f 528 529 533
f 528 533 538
f 528 538 540
f 528 540 549
f 528 549 548
f 528 548 547
f 528 547 554
f 528 554 550
f 528 550 541
f 528 541 535
f 528 535 530
f 528 530 531
f 528 531 532
f 528 532 537
f 528 537 534
f 528 534 529
f 529 534 533
f 530 535 531
f 531 536 532
f 531 535 541
f 531 541 542
f 531 542 536
f 532 536 537
f 533 534 538
f 534 537 539
f 534 539 540
f 534 540 538
f 536 542 551
f 536 551 543
f 536 543 553
f 536 553 545
f 536 545 544
f 536 544 537
f 537 544 539
f 539 544 545
f 539 545 546
f 539 546 547
f 539 547 548
f 539 548 549
f 539 549 540
f 541 550 551
f 541 551 542
f 543 551 552
f 543 552 553
f 545 553 552
f 545 552 546
f 546 552 554
f 546 554 547
f 550 554 552
f 550 552 551

o part_13
v -0.02404733 -0.00000386 0.01649868
v -0.02345062 -0.00000386 0.01729859
v -0.02284978 -0.00000386 0.01570002
v -0.02284896 -0.00000484 0.01569766
v -0.02393393 -0.00235769 0.01649993
v -0.02225142 -0.00000386 0.01690052
v -0.02333680 -0.00229875 0.01729984
v -0.02116109 -0.01004005 0.01729984
v -0.02063160 -0.01004005 0.01714018
v -0.01983530 -0.01004005 0.01689989
v -0.02246875 -0.00000386 0.01569766
v -0.02273927 -0.00223980 0.01569766
v -0.02358753 -0.00469285 0.01649993
v -0.02244813 -0.00000386 0.01569766
v -0.02299906 -0.00457496 0.01729984
v -0.02166502 -0.00897317 0.01729984
v -0.02221926 -0.00920305 0.01649993
v -0.02182379 -0.01004005 0.01649993
v -0.01988726 -0.01004005 0.01661631
v -0.02005551 -0.01003907 0.01569766
v -0.02241019 -0.00445806 0.01569766
v -0.02186585 -0.00663211 0.01569766
v -0.02301432 -0.00698086 0.01649993
v -0.02243988 -0.00680698 0.01729984
v -0.02111037 -0.00874329 0.01569766
v -0.02049758 -0.01004005 0.01569766
v -0.02005592 -0.01004005 0.01570002
f 555 556 560
f 555 560 568
f 555 568 565
f 555 565 557
f 555 557 558
f 555 558 559
f 555 559 556
f 556 559 561
f 556 561 562
f 556 562 563
f 556 563 564
f 556 564 560
f 557 565 558
f 558 566 559
f 558 565 568
f 558 568 574
f 558 574 580
f 558 580 579
f 558 579 576
f 558 576 575
f 558 575 566
f 559 567 561
f 559 566 567
f 560 564 568
f 561 567 569
f 561 569 578
f 561 578 570
f 561 570 562
f 562 570 571
f 562 571 572
f 562 572 580
f 562 580 581
f 562 581 573
f 562 573 564
f 562 564 563
f 564 573 574
f 564 574 568
f 566 575 567
f 567 575 576
f 567 576 577
f 567 577 569
f 569 577 578
f 570 578 577
f 570 577 571
f 571 577 576
f 571 576 579
f 571 579 572
f 572 579 580
f 573 581 574
f 574 581 580

o part_14
v -0.01437548 0.00587129 -0.01397619
v -0.01363145 0.00587129 -0.01689715
v -0.01488847 0.00587129 -0.01397619
v -0.01553121 -0.00000328 -0.01397619
v -0.01411152 0.00587129 -0.01689715
v -0.01486303 -0.00000328 -0.01684254
v -0.01485042 -0.00000328 -0.01689715
v -0.01417524 0.00587129 -0.01689658
v -0.01524975 0.00486143 -0.01397619
v -0.01601525 -0.00000328 -0.01397619
v -0.01422985 0.00571774 -0.01689715
v -0.01534240 -0.00000328 -0.01689715
v -0.01468215 0.00445368 -0.01689715
v -0.01532583 0.00464864 -0.01397619
v -0.01601548 0.00000017 -0.01397619
v -0.01534263 0.00000017 -0.01689715
v -0.01472183 0.00429553 -0.01689715
v -0.01565280 0.00334318 -0.01397619
v -0.01593823 0.00157017 -0.01397619
v -0.01526888 0.00150403 -0.01689715
v -0.01504787 0.00299295 -0.01689715
v -0.01570765 0.00312407 -0.01397619
v -0.01507191 0.00283192 -0.01689715
f 582 583 586
f 582 586 589
f 582 589 584
f 582 584 590
f 582 590 595
f 582 595 599
f 582 599 603
f 582 603 600
f 582 600 596
f 582 596 591
f 582 591 585
f 582 585 583
f 583 585 587
f 583 587 588
f 583 588 593
f 583 593 597
f 583 597 601
f 583 601 604
f 583 604 602
f 583 602 598
f 583 598 594
f 583 594 592
f 583 592 586
f 584 589 590
f 585 591 593
f 585 593 588
f 585 588 587
f 586 592 589
f 589 592 594
f 589 594 590
f 590 594 595
f 591 596 597
f 591 597 593
f 594 598 595
f 595 598 599
f 596 600 601
f 596 601 597
f 598 602 603
f 598 603 599
f 600 604 601
f 600 603 604
f 602 604 603

o part_15
v 0.01097864 -0.00997450 -0.01689715
v 0.01097864 -0.01098649 -0.01397619
v 0.01097864 -0.01070609 -0.01689715
v 0.00606016 -0.01354185 -0.01689715
v 0.00606016 -0.01429385 -0.01397619
v 0.01097864 -0.01163838 -0.01397619
v 0.01097864 -0.01072223 -0.01685083
v 0.01095842 -0.01072839 -0.01689715
v 0.00606016 -0.01408557 -0.01689715
v 0.00606016 -0.01482096 -0.01397619
v 0.01015969 -0.01238041 -0.01397619
v 0.01097864 -0.01151407 -0.01437676
v 0.01097864 -0.01097890 -0.01610086
v 0.01084865 -0.01084938 -0.01689715
v 0.00612900 -0.01479628 -0.01397619
v 0.00606016 -0.01463023 -0.01475589
v 0.00720793 -0.01354280 -0.01689715
v 0.00606016 -0.01464778 -0.01468499
v 0.00997867 -0.01251468 -0.01397619
v 0.00973313 -0.01186042 -0.01689715
v 0.01097864 -0.01100594 -0.01601394
v 0.00734563 -0.01422078 -0.01397619
v 0.00723297 -0.01353094 -0.01689715
v 0.00889733 -0.01331602 -0.01397619
v 0.00865468 -0.01265986 -0.01689715
v 0.00754976 -0.01412400 -0.01397619
v 0.00850062 -0.01277088 -0.01689715
v 0.00870379 -0.01343226 -0.01397619
v 0.00852373 -0.01275665 -0.01689715
f 605 606 610
f 605 610 616
f 605 616 625
f 605 625 617
f 605 617 611
f 605 611 607
f 605 607 612
f 605 612 618
f 605 618 624
f 605 624 629
f 605 629 633
f 605 633 631
f 605 631 627
f 605 627 621
f 605 621 613
f 605 613 608
f 605 608 609
f 605 609 606
f 606 609 614
f 606 614 619
f 606 619 626
f 606 626 630
f 606 630 632
f 606 632 628
f 606 628 623
f 606 623 615
f 606 615 610
f 607 611 612
f 608 613 620
f 608 620 622
f 608 622 614
f 608 614 609
f 610 615 616
f 611 617 618
f 611 618 612
f 613 619 620
f 613 621 619
f 614 622 619
f 615 623 624
f 615 624 616
f 616 624 625
f 617 625 618
f 618 625 624
f 619 622 620
f 619 621 626
f 621 627 626
f 623 628 629
f 623 629 624
f 626 627 630
f 627 631 632
f 627 632 630
f 628 632 631
f 628 631 633
f 628 633 629

o part_16
v -0.01553132 -0.00000386 -0.01397619
v -0.01486311 -0.00000386 -0.01684254
v -0.01601529 -0.00000386 -0.01397619
v -0.01441451 -0.00576167 -0.01397619
v -0.01368307 -0.00576167 -0.01689715
v -0.01485032 -0.00000442 -0.01689715
v -0.01490899 -0.00000386 -0.01689715
v -0.01534252 -0.00000386 -0.01689715
v -0.01593836 -0.00157012 -0.01397619
v -0.01492771 -0.00576167 -0.01397619
v -0.01421430 -0.00576167 -0.01689715
v -0.01527814 -0.00131425 -0.01689715
v -0.01527015 -0.00147656 -0.01689715
v -0.01526878 -0.00150418 -0.01689715
v -0.01574089 -0.00290080 -0.01397619
v -0.01484370 -0.00576167 -0.01432130
v -0.01532585 -0.00464854 -0.01397619
v -0.01468230 -0.00445353 -0.01689715
v -0.01505190 -0.00296561 -0.01689715
v -0.01504779 -0.00299323 -0.01689715
v -0.01570756 -0.00312399 -0.01397619
v -0.01538064 -0.00442986 -0.01397619
v -0.01500830 -0.00315104 -0.01689715
f 634 635 640
f 634 640 641
f 634 641 636
f 634 636 642
f 634 642 648
f 634 648 654
f 634 654 655
f 634 655 650
f 634 650 643
f 634 643 637
f 634 637 638
f 634 638 635
f 635 639 640
f 635 638 639
f 636 641 642
f 637 643 649
f 637 649 644
f 637 644 638
f 638 644 651
f 638 651 656
f 638 656 653
f 638 653 652
f 638 652 647
f 638 647 646
f 638 646 645
f 638 645 641
f 638 641 640
f 638 640 639
f 641 645 642
f 642 646 647
f 642 647 648
f 642 645 646
f 643 650 649
f 644 649 651
f 647 652 648
f 648 652 653
f 648 653 654
f 649 650 651
f 650 655 651
f 651 655 654
f 651 654 656
f 653 656 654

o part_17
v 0.02284932 -0.00000283 0.01569766
v 0.02244918 -0.00000283 0.01569766
v 0.02273881 -0.00224000 0.01569766
v 0.01593901 -0.00157012 -0.01397619
v 0.01600496 -0.00022612 -0.01397619
v 0.01601565 -0.00000283 -0.01397619
v 0.02123002 -0.00722171 0.01569766
v 0.02243492 -0.00000283 0.01563666
v 0.01374578 -0.00722171 -0.01397619
v 0.02240996 -0.00445739 0.01569766
v 0.01590604 -0.00179341 -0.01397619
v 0.01553174 -0.00000283 -0.01397619
v 0.02165423 -0.00722171 0.01569766
v 0.01427961 -0.00722171 -0.01397619
v 0.02186544 -0.00663238 0.01569766
v 0.01570819 -0.00312469 -0.01397619
v 0.01743532 -0.00722171 -0.00157336
v 0.01470025 -0.00633277 -0.01397619
v 0.01605754 -0.00722171 -0.00699052
v 0.01525012 -0.00486158 -0.01397619
v 0.01532587 -0.00464889 -0.01397619
v 0.01479650 -0.00612856 -0.01397619
f 657 658 663
f 657 663 669
f 657 669 671
f 657 671 666
f 657 666 659
f 657 659 660
f 657 660 661
f 657 661 662
f 657 662 668
f 657 668 664
f 657 664 658
f 658 664 665
f 658 665 663
f 659 666 667
f 659 667 660
f 660 667 672
f 660 672 677
f 660 677 676
f 660 676 678
f 660 678 674
f 660 674 670
f 660 670 665
f 660 665 668
f 660 668 662
f 660 662 661
f 663 665 670
f 663 670 675
f 663 675 673
f 663 673 669
f 664 668 665
f 666 671 672
f 666 672 667
f 669 673 671
f 670 674 675
f 671 673 676
f 671 676 677
f 671 677 672
f 673 675 674
f 673 674 678
f 673 678 676

o part_18
v 0.01012837 0.02178107 0.01649993
v 0.01012837 0.02145057 0.01689973
v 0.01133784 0.02121005 0.01649993
v 0.01077156 0.02015062 0.01569766
v 0.01012837 0.02045495 0.01569845
v 0.01012837 0.02111842 0.01729984
v 0.01105518 0.02068074 0.01729984
v 0.01302897 0.01949779 0.01729984
v 0.01336162 0.01999682 0.01649993
v 0.01269536 0.01899794 0.01569766
v 0.01012837 0.02032488 0.01569766
v 0.01012837 0.01979230 0.01689989
v 0.01920321 0.01342430 0.01729984
v 0.01487682 0.01812667 0.01729984
v 0.01449610 0.01766282 0.01569766
v 0.01525658 0.01859053 0.01649993
v 0.01058312 0.01979803 0.01569766
v 0.01012837 0.02001400 0.01570002
v 0.01771109 0.01342430 0.01689989
v 0.01834178 0.01342430 0.01706897
v 0.01012837 0.01996492 0.01596383
v 0.01795913 0.01342430 0.01569766
v 0.01995023 0.01342430 0.01649993
v 0.01812642 0.01487723 0.01729984
v 0.01658142 0.01658212 0.01729984
v 0.01700541 0.01700671 0.01649993
v 0.01615647 0.01615754 0.01569766
v 0.01845715 0.01342430 0.01569766
v 0.01859079 0.01525764 0.01649993
v 0.01766205 0.01449600 0.01569766
f 679 680 681
f 679 681 682
f 679 682 683
f 679 683 689
f 679 689 696
f 679 696 699
f 679 699 690
f 679 690 684
f 679 684 680
f 680 684 685
f 680 685 681
f 681 685 686
f 681 686 687
f 681 687 688
f 681 688 682
f 682 689 683
f 682 688 693
f 682 693 705
f 682 705 708
f 682 708 706
f 682 706 700
f 682 700 695
f 682 695 689
f 684 690 691
f 684 691 702
f 684 702 703
f 684 703 692
f 684 692 686
f 684 686 685
f 686 692 687
f 687 693 688
f 687 692 694
f 687 694 693
f 689 695 696
f 690 697 698
f 690 698 691
f 690 699 700
f 690 700 697
f 691 698 697
f 691 697 700
f 691 700 706
f 691 706 701
f 691 701 702
f 692 703 704
f 692 704 694
f 693 694 704
f 693 704 705
f 695 700 696
f 696 700 699
f 701 706 707
f 701 707 702
f 702 707 703
f 703 707 704
f 704 707 705
f 705 707 708
f 706 708 707

o part_19
v -0.01492776 -0.00576167 -0.01397619
v -0.01441424 -0.00576167 -0.01397619
v -0.01421397 -0.00576167 -0.01689715
v -0.01418391 -0.00584593 -0.01689715
v -0.01479635 -0.00612935 -0.01397619
v -0.01368299 -0.00576167 -0.01689715
v -0.01098641 -0.01097873 -0.01397619
v -0.01029542 -0.01097873 -0.01596991
v -0.00997441 -0.01097873 -0.01689715
v -0.01417469 -0.00587146 -0.01689715
v -0.01353073 -0.00723292 -0.01689715
v -0.01412426 -0.00755005 -0.01397619
v -0.01163862 -0.01097873 -0.01397619
v -0.01070613 -0.01097873 -0.01689715
v -0.01275682 -0.00852391 -0.01689715
v -0.01331592 -0.00889773 -0.01397619
v -0.01238053 -0.01015961 -0.01397619
v -0.01186022 -0.00973319 -0.01689715
v -0.01097914 -0.01097873 -0.01610029
v -0.01072214 -0.01097873 -0.01685055
v -0.01084918 -0.01084851 -0.01689715
v -0.01187671 -0.00971123 -0.01689715
v -0.01086761 -0.01082859 -0.01689715
f 709 710 714
f 709 714 711
f 709 711 712
f 709 712 713
f 709 713 720
f 709 720 724
f 709 724 725
f 709 725 721
f 709 721 715
f 709 715 710
f 710 715 716
f 710 716 717
f 710 717 714
f 711 714 717
f 711 717 722
f 711 722 729
f 711 729 731
f 711 731 726
f 711 726 730
f 711 730 723
f 711 723 719
f 711 719 718
f 711 718 712
f 712 718 713
f 713 719 720
f 713 718 719
f 715 721 727
f 715 727 728
f 715 728 722
f 715 722 717
f 715 717 716
f 719 723 720
f 720 723 724
f 721 725 726
f 721 726 727
f 722 728 729
f 723 730 724
f 724 730 725
f 725 730 726
f 726 731 727
f 727 731 729
f 727 729 728

o part_20
v 0.00000386 -0.01534247 -0.01689715
v 0.00000386 -0.01601529 -0.01397619
v 0.00000386 -0.01490909 -0.01689715
v 0.00150430 -0.01526887 -0.01689715
v 0.00000386 -0.01553131 -0.01397619
v 0.00134424 -0.01594944 -0.01397619
v 0.00000386 -0.01486309 -0.01684254
v 0.00000445 -0.01485026 -0.01689715
v 0.00296621 -0.01505193 -0.01689715
v 0.00290159 -0.01574074 -0.01397619
v 0.00157010 -0.01593830 -0.01397619
v 0.00606016 -0.01429437 -0.01397619
v 0.00606016 -0.01418784 -0.01438963
v 0.00606016 -0.01354213 -0.01689715
v 0.00299347 -0.01504782 -0.01689715
v 0.00312390 -0.01570757 -0.01397619
v 0.00606016 -0.01482072 -0.01397619
v 0.00606016 -0.01408567 -0.01689715
v 0.00442693 -0.01468901 -0.01689715
v 0.00442989 -0.01538072 -0.01397619
v 0.00591610 -0.01487229 -0.01397619
v 0.00606016 -0.01463066 -0.01475589
v 0.00601866 -0.01410528 -0.01689715
v 0.00606016 -0.01410891 -0.01680623
v 0.00445360 -0.01468223 -0.01689715
v 0.00464864 -0.01532576 -0.01397619
v 0.00584556 -0.01418421 -0.01689715
v 0.00587105 -0.01417501 -0.01689715
f 732 733 736
f 732 736 738
f 732 738 734
f 732 734 739
f 732 739 745
f 732 745 749
f 732 749 754
f 732 754 759
f 732 759 758
f 732 758 756
f 732 756 750
f 732 750 746
f 732 746 740
f 732 740 735
f 732 735 733
f 733 735 737
f 733 737 742
f 733 742 741
f 733 741 747
f 733 747 751
f 733 751 757
f 733 757 752
f 733 752 748
f 733 748 743
f 733 743 736
f 734 738 739
f 735 740 741
f 735 741 742
f 735 742 737
f 736 743 744
f 736 744 745
f 736 745 738
f 738 745 739
f 740 746 747
f 740 747 741
f 743 748 753
f 743 753 755
f 743 755 749
f 743 749 745
f 743 745 744
f 746 750 751
f 746 751 747
f 748 752 753
f 749 755 754
f 750 756 757
f 750 757 751
f 752 757 753
f 753 757 756
f 753 756 758
f 753 758 759
f 753 759 755
f 754 755 759

o part_21
v 0.01489301 0.00585823 -0.01397619
v 0.01437996 0.00585823 -0.01397619
v 0.01532575 0.00464884 -0.01397619
v 0.01486159 0.00585823 -0.01410571
v 0.01363763 0.00585823 -0.01689715
v 0.01553130 -0.00000225 -0.01397619
v 0.01538069 0.00442968 -0.01397619
v 0.01468235 0.00445321 -0.01689715
v 0.01417977 0.00585823 -0.01689715
v 0.01485041 -0.00000225 -0.01689715
v 0.01556715 -0.00000283 -0.01397619
v 0.01570775 0.00312391 -0.01397619
v 0.01500824 0.00315145 -0.01689715
v 0.01534251 -0.00000283 -0.01689715
v 0.01601525 -0.00000283 -0.01397619
v 0.01574080 0.00290131 -0.01397619
v 0.01504781 0.00299311 -0.01689715
v 0.01534275 0.00000004 -0.01689715
v 0.01601548 0.00000004 -0.01397619
v 0.01593820 0.00157030 -0.01397619
v 0.01526872 0.00150432 -0.01689715
v 0.01527012 0.00147678 -0.01689715
v 0.01594937 0.00134425 -0.01397619
f 760 761 765
f 760 765 770
f 760 770 774
f 760 774 778
f 760 778 782
f 760 782 779
f 760 779 775
f 760 775 771
f 760 771 766
f 760 766 762
f 760 762 763
f 760 763 768
f 760 768 764
f 760 764 761
f 761 764 765
f 762 766 767
f 762 767 763
f 763 767 768
f 764 768 767
f 764 767 772
f 764 772 776
f 764 776 780
f 764 780 781
f 764 781 777
f 764 777 773
f 764 773 769
f 764 769 765
f 765 769 770
f 766 771 767
f 767 771 772
f 769 773 770
f 770 773 774
f 771 775 776
f 771 776 772
f 773 777 778
f 773 778 774
f 775 779 780
f 775 780 776
f 777 781 782
f 777 782 778
f 779 781 780
f 779 782 781

o part_22
v 0.01054740 -0.01958749 0.01689989
v 0.01054740 -0.02092085 0.01729984
v 0.01054740 -0.01981627 0.01570002
v 0.00000386 -0.02244806 0.01569766
v 0.00000386 -0.02225159 0.01690052
v 0.00000386 -0.02345048 0.01729859
v 0.00897351 -0.02166525 0.01729984
v 0.01054740 -0.02158404 0.01649993
v 0.00229917 -0.02333697 0.01729984
v 0.01054740 -0.01982413 0.01569766
v 0.00000386 -0.02246858 0.01569766
v 0.00000386 -0.02404774 0.01649868
v 0.00235799 -0.02393379 0.01649993
v 0.00680618 -0.02244020 0.01729984
v 0.00698060 -0.02301432 0.01649993
v 0.00920263 -0.02221928 0.01649993
v 0.00874336 -0.02111033 0.01569766
v 0.01054740 -0.02025810 0.01569986
v 0.00469252 -0.02358757 0.01649993
v 0.00457589 -0.02299904 0.01729984
v 0.00000386 -0.02284973 0.01570002
v 0.00000489 -0.02284885 0.01569766
v 0.00224034 -0.02273927 0.01569766
v 0.00663279 -0.02186521 0.01569766
v 0.00445824 -0.02241008 0.01569766
f 783 784 790
f 783 790 800
f 783 800 792
f 783 792 785
f 783 785 786
f 783 786 787
f 783 787 788
f 783 788 784
f 784 789 790
f 784 788 791
f 784 791 802
f 784 802 796
f 784 796 789
f 785 792 786
f 786 793 803
f 786 803 794
f 786 794 788
f 786 788 787
f 786 792 799
f 786 799 806
f 786 806 807
f 786 807 805
f 786 805 804
f 786 804 793
f 788 794 795
f 788 795 791
f 789 796 797
f 789 797 798
f 789 798 790
f 790 798 799
f 790 799 800
f 791 795 801
f 791 801 802
f 792 800 799
f 793 804 803
f 794 803 804
f 794 804 805
f 794 805 795
f 795 805 801
f 796 802 797
f 797 806 799
f 797 799 798
f 797 802 801
f 797 801 807
f 797 807 806
f 801 805 807

o part_23
v 0.01072438 0.01025458 -0.01689715
v 0.01072438 0.01121658 -0.01397619
v 0.01072438 0.01096181 -0.01689715
v 0.01363705 0.00585823 -0.01689715
v 0.01072438 0.01186909 -0.01397619
v 0.01437981 0.00585823 -0.01397619
v 0.01072438 0.01117951 -0.01619693
v 0.01072846 0.01095828 -0.01689715
v 0.01417942 0.00585823 -0.01689715
v 0.01132471 0.01132425 -0.01397619
v 0.01084926 0.01084884 -0.01689715
v 0.01489321 0.00585823 -0.01397619
v 0.01417453 0.00587176 -0.01689715
v 0.01421126 0.00585823 -0.01676734
v 0.01147652 0.01115715 -0.01397619
v 0.01238048 0.01015985 -0.01397619
v 0.01186015 0.00973328 -0.01689715
v 0.01487239 0.00591648 -0.01397619
v 0.01410474 0.00601945 -0.01689715
v 0.01479608 0.00612888 -0.01397619
v 0.01331628 0.00889720 -0.01397619
v 0.01266004 0.00865537 -0.01689715
v 0.01354278 0.00720797 -0.01689715
v 0.01412433 0.00754981 -0.01397619
v 0.01343218 0.00870421 -0.01397619
v 0.01277145 0.00850063 -0.01689715
v 0.01275717 0.00852417 -0.01689715
v 0.01353094 0.00723268 -0.01689715
f 808 809 812
f 808 812 814
f 808 814 810
f 808 810 815
f 808 815 818
f 808 818 824
f 808 824 829
f 808 829 834
f 808 834 833
f 808 833 835
f 808 835 830
f 808 830 826
f 808 826 820
f 808 820 816
f 808 816 811
f 808 811 809
f 809 811 813
f 809 813 819
f 809 819 825
f 809 825 827
f 809 827 831
f 809 831 832
f 809 832 828
f 809 828 823
f 809 823 822
f 809 822 817
f 809 817 812
f 810 814 815
f 811 816 821
f 811 821 819
f 811 819 813
f 812 817 818
f 812 818 814
f 814 818 815
f 816 820 821
f 817 822 818
f 818 822 823
f 818 823 824
f 819 821 825
f 820 826 827
f 820 827 821
f 821 827 825
f 823 828 829
f 823 829 824
f 826 830 831
f 826 831 827
f 828 832 833
f 828 833 834
f 828 834 829
f 830 835 831
f 831 835 833
f 831 833 832

o part_24
v -0.01389811 0.00792818 -0.01397619
v -0.01340989 0.00874326 -0.01397619
v -0.01340989 0.00792818 -0.01397619
v -0.01483308 0.00792818 -0.01048771
v -0.02015104 0.01077170 0.01569766
v -0.01340989 0.00895993 -0.01349111
v -0.01899857 0.01269490 0.01569766
v -0.01340989 0.00792818 -0.01369734
v -0.01665998 0.00792818 -0.00331033
v -0.02110948 0.00874430 0.01569766
v -0.01914018 0.00792818 0.00643765
v -0.01340989 0.00901771 -0.01334297
v -0.01766223 0.01449532 0.01569766
v -0.01340989 0.01100488 -0.00819595
v -0.01340989 0.01797029 0.01569766
v -0.02097726 0.00792818 0.01569766
v -0.02140210 0.00792818 0.01569766
v -0.01615768 0.01615646 0.01569766
v -0.01340989 0.01340888 -0.00117542
v -0.01340989 0.01846863 0.01569766
v -0.01449586 0.01766282 0.01569766
v -0.01340989 0.01549097 0.00552850
v -0.01340989 0.01633804 0.00825887
f 836 837 838
f 836 838 843
f 836 843 851
f 836 851 852
f 836 852 846
f 836 846 844
f 836 844 839
f 836 839 840
f 836 840 837
f 837 841 847
f 837 847 849
f 837 849 854
f 837 854 857
f 837 857 858
f 837 858 855
f 837 855 850
f 837 850 843
f 837 843 838
f 837 840 842
f 837 842 841
f 839 844 840
f 840 845 852
f 840 852 851
f 840 851 850
f 840 850 855
f 840 855 856
f 840 856 853
f 840 853 848
f 840 848 842
f 840 844 846
f 840 846 845
f 841 842 847
f 842 848 849
f 842 849 847
f 843 850 851
f 845 846 852
f 848 853 849
f 849 853 854
f 853 856 857
f 853 857 854
f 855 858 856
f 856 858 857

o part_25
v -0.01341003 0.00792818 -0.01369734
v -0.02097729 0.00792818 0.01569766
v -0.02244841 -0.00000386 0.01569766
v -0.01553171 -0.00000386 -0.01397619
v -0.01341003 0.00780239 -0.01397619
v -0.01341003 0.00792818 -0.01397619
v -0.02140144 0.00792818 0.01569766
v -0.02284854 -0.00000386 0.01569766
v -0.01601593 -0.00000386 -0.01397619
v -0.01389795 0.00792818 -0.01397619
v -0.02186532 0.00663231 0.01569766
v -0.01914022 0.00792818 0.00643765
v -0.02284946 0.00000002 0.01569766
v -0.02283005 -0.00000386 0.01561343
v -0.01601593 0.00000002 -0.01397619
v -0.01412527 0.00754928 -0.01397619
v -0.01448381 0.00792818 -0.01179190
v -0.02240960 0.00445752 0.01569766
v -0.01532657 0.00464852 -0.01397619
v -0.01565369 0.00334412 -0.01397619
v -0.01666001 0.00792818 -0.00331033
v -0.01479707 0.00612840 -0.01397619
v -0.02273857 0.00224003 0.01569766
v -0.01593923 0.00156997 -0.01397619
v -0.01483311 0.00792818 -0.01048771
v -0.01570821 0.00312516 -0.01397619
f 859 860 861
f 859 861 862
f 859 862 863
f 859 863 864
f 859 864 868
f 859 868 875
f 859 875 883
f 859 883 879
f 859 879 870
f 859 870 865
f 859 865 860
f 860 865 869
f 860 869 876
f 860 876 881
f 860 881 871
f 860 871 866
f 860 866 861
f 861 866 872
f 861 872 867
f 861 867 862
f 862 867 873
f 862 873 882
f 862 882 884
f 862 884 878
f 862 878 877
f 862 877 880
f 862 880 874
f 862 874 868
f 862 868 864
f 862 864 863
f 865 870 869
f 866 871 872
f 867 872 871
f 867 871 873
f 868 874 875
f 869 870 877
f 869 877 878
f 869 878 876
f 870 879 880
f 870 880 877
f 871 881 882
f 871 882 873
f 874 880 879
f 874 879 883
f 874 883 875
f 876 878 884
f 876 884 882
f 876 882 881

o part_26
v 0.02044267 -0.01261852 0.01649993
v 0.01974334 -0.01261852 0.01729984
v 0.01949731 -0.01302838 0.01729984
v 0.01999615 -0.01336188 0.01649993
v 0.01899848 -0.01269487 0.01569766
v 0.01904401 -0.01261852 0.01569766
v 0.01830981 -0.01261852 0.01689989
v 0.01054740 -0.01958705 0.01689989
v 0.01054740 -0.02092020 0.01729984
v 0.01859070 -0.01525761 0.01649993
v 0.01812674 -0.01487671 0.01729984
v 0.01766278 -0.01449581 0.01569766
v 0.01855777 -0.01261852 0.01569766
v 0.01054740 -0.01981524 0.01570002
v 0.01054740 -0.02158370 0.01649993
v 0.01105495 -0.02068060 0.01729984
v 0.01700509 -0.01700676 0.01649993
v 0.01658085 -0.01658198 0.01729984
v 0.01615660 -0.01615720 0.01569766
v 0.01054740 -0.01982314 0.01569766
v 0.01133779 -0.02120982 0.01649993
v 0.01054740 -0.02025757 0.01569986
v 0.01077212 -0.02015138 0.01569766
v 0.01302897 -0.01949753 0.01729984
v 0.01487707 -0.01812664 0.01729984
v 0.01525773 -0.01859004 0.01649993
v 0.01449641 -0.01766236 0.01569766
v 0.01336217 -0.01999603 0.01649993
v 0.01269480 -0.01899815 0.01569766
f 885 886 887
f 885 887 888
f 885 888 889
f 885 889 890
f 885 890 897
f 885 897 891
f 885 891 886
f 886 891 892
f 886 892 893
f 886 893 900
f 886 900 908
f 886 908 909
f 886 909 902
f 886 902 895
f 886 895 887
f 887 894 888
f 887 895 894
f 888 894 889
f 889 894 896
f 889 896 903
f 889 903 911
f 889 911 913
f 889 913 907
f 889 907 904
f 889 904 897
f 889 897 890
f 891 897 892
f 892 898 904
f 892 904 906
f 892 906 899
f 892 899 893
f 892 897 898
f 893 899 900
f 894 895 901
f 894 901 896
f 895 902 901
f 896 901 903
f 897 904 898
f 899 905 900
f 899 906 907
f 899 907 905
f 900 905 908
f 901 902 909
f 901 909 910
f 901 910 911
f 901 911 903
f 904 907 906
f 905 912 908
f 905 907 912
f 907 913 912
f 908 912 910
f 908 910 909
f 910 912 911
f 911 912 913

o part_27
v -0.02405000 0.00000011 0.01649993
v -0.02344984 0.00000011 0.01729984
v -0.02393413 0.00235806 0.01649993
v -0.02273924 0.00224002 0.01569766
v -0.02284927 0.00000011 0.01569766
v -0.02284927 -0.00000386 0.01569766
v -0.02404750 -0.00000386 0.01649868
v -0.02345067 -0.00000386 0.01729859
v -0.02333689 0.00229854 0.01729984
v -0.02225161 -0.00000386 0.01690052
v -0.01979263 0.01013029 0.01689989
v -0.02010604 0.01013029 0.01699447
v -0.02111839 0.01013029 0.01729984
v -0.02299930 0.00457516 0.01729984
v -0.02358779 0.00469221 0.01649993
v -0.02241040 0.00445810 0.01569766
v -0.02244833 -0.00000386 0.01569766
v -0.02224994 0.00000011 0.01689989
v -0.02001352 0.01013029 0.01570002
v -0.02144931 0.01013029 0.01690052
v -0.02166520 0.00897363 0.01729984
v -0.02243999 0.00680713 0.01729984
v -0.02301431 0.00698073 0.01649993
v -0.02186567 0.00663254 0.01569766
v -0.02032485 0.01013029 0.01569766
v -0.02178107 0.01013029 0.01649993
v -0.02221910 0.00920278 0.01649993
v -0.02111047 0.00874349 0.01569766
v -0.02045488 0.01013029 0.01569845
f 914 915 916
f 914 916 917
f 914 917 918
f 914 918 919
f 914 919 920
f 914 920 921
f 914 921 915
f 915 922 916
f 915 921 923
f 915 923 924
f 915 924 925
f 915 925 926
f 915 926 934
f 915 934 935
f 915 935 927
f 915 927 922
f 916 922 927
f 916 927 928
f 916 928 929
f 916 929 917
f 917 929 937
f 917 937 941
f 917 941 938
f 917 938 930
f 917 930 919
f 917 919 918
f 919 930 923
f 919 923 921
f 919 921 920
f 923 930 931
f 923 931 924
f 924 931 930
f 924 930 932
f 924 932 938
f 924 938 942
f 924 942 939
f 924 939 933
f 924 933 926
f 924 926 925
f 926 933 934
f 927 935 928
f 928 935 936
f 928 936 937
f 928 937 929
f 930 938 932
f 933 939 934
f 934 939 940
f 934 940 936
f 934 936 935
f 936 940 941
f 936 941 937
f 938 941 942
f 939 941 940
f 939 942 941

o part_28
v 0.00000386 0.02404981 0.01649993
v 0.00000386 0.02284897 0.01569766
v 0.00000386 0.02344981 0.01729984
v 0.00229912 0.02333689 0.01729984
v 0.00235759 0.02393398 0.01649993
v 0.00223966 0.02273939 0.01569766
v 0.00000386 0.02244897 0.01569766
v 0.00000386 0.02224980 0.01689989
v 0.01012837 0.01979312 0.01689989
v 0.01012837 0.02010854 0.01699509
v 0.01012837 0.02111937 0.01729984
v 0.00457555 0.02299939 0.01729984
v 0.00469249 0.02358772 0.01649993
v 0.00445860 0.02241022 0.01569766
v 0.01012837 0.02032520 0.01569766
v 0.01012837 0.02001437 0.01570002
v 0.01012837 0.01996562 0.01596383
v 0.01012837 0.02178230 0.01649993
v 0.00897380 0.02166521 0.01729984
v 0.00680639 0.02244022 0.01729984
v 0.00698081 0.02301439 0.01649993
v 0.00663196 0.02186563 0.01569766
v 0.00874388 0.02111021 0.01569766
v 0.01012837 0.02045604 0.01569845
v 0.00920273 0.02221897 0.01649993
f 943 944 949
f 943 949 950
f 943 950 945
f 943 945 946
f 943 946 947
f 943 947 948
f 943 948 944
f 944 948 956
f 944 956 964
f 944 964 965
f 944 965 957
f 944 957 949
f 945 950 951
f 945 951 952
f 945 952 953
f 945 953 961
f 945 961 962
f 945 962 954
f 945 954 946
f 946 954 947
f 947 954 955
f 947 955 948
f 948 955 956
f 949 957 958
f 949 958 959
f 949 959 951
f 949 951 950
f 951 959 958
f 951 958 957
f 951 957 966
f 951 966 960
f 951 960 953
f 951 953 952
f 953 960 961
f 954 962 963
f 954 963 955
f 955 963 956
f 956 963 964
f 957 965 966
f 960 966 965
f 960 965 967
f 960 967 961
f 961 963 962
f 961 967 963
f 963 967 965
f 963 965 964

o part_29
v -0.02178098 0.01013029 0.01649993
v -0.02111802 0.01013029 0.01729984
v -0.02120980 0.01133802 0.01649993
v -0.02015102 0.01077120 0.01569766
v -0.02045423 0.01013029 0.01569845
v -0.02068041 0.01105509 0.01729984
v -0.02010513 0.01013029 0.01699447
v -0.01340993 0.01921473 0.01729984
v -0.01949789 0.01302884 0.01729984
v -0.01999614 0.01336181 0.01649993
v -0.01899801 0.01269491 0.01569766
v -0.02032394 0.01013029 0.01569766
v -0.01979209 0.01013029 0.01689989
v -0.01340993 0.01834478 0.01706662
v -0.01340993 0.01934272 0.01716323
v -0.01487681 0.01812633 0.01729984
v -0.01812689 0.01487652 0.01729984
v -0.01859072 0.01525665 0.01649993
v -0.01766224 0.01449640 0.01569766
v -0.01979783 0.01058355 0.01569766
v -0.02001253 0.01013029 0.01570002
v -0.01996418 0.01013029 0.01596273
v -0.01340993 0.01797043 0.01569766
v -0.01340993 0.01772311 0.01689989
v -0.01340993 0.01996054 0.01649993
v -0.01525787 0.01859017 0.01649993
v -0.01658216 0.01658082 0.01729984
v -0.01700666 0.01700521 0.01649993
v -0.01615767 0.01615643 0.01569766
v -0.01340993 0.01846796 0.01569766
v -0.01449575 0.01766248 0.01569766
f 968 969 970
f 968 970 971
f 968 971 972
f 968 972 979
f 968 979 988
f 968 988 989
f 968 989 980
f 968 980 974
f 968 974 969
f 969 973 970
f 969 974 975
f 969 975 983
f 969 983 994
f 969 994 984
f 969 984 976
f 969 976 973
f 970 973 976
f 970 976 977
f 970 977 978
f 970 978 971
f 971 979 972
f 971 978 986
f 971 986 996
f 971 996 998
f 971 998 997
f 971 997 990
f 971 990 987
f 971 987 979
f 974 980 975
f 975 981 991
f 975 991 990
f 975 990 997
f 975 997 992
f 975 992 982
f 975 982 983
f 975 980 981
f 976 984 985
f 976 985 977
f 977 985 986
f 977 986 978
f 979 987 988
f 980 989 990
f 980 990 991
f 980 991 981
f 982 992 993
f 982 993 983
f 983 993 994
f 984 994 995
f 984 995 985
f 985 995 986
f 986 995 996
f 987 990 988
f 988 990 989
f 992 997 993
f 993 997 998
f 993 998 996
f 993 996 995
f 993 995 994

o part_30
v -0.00773685 0.02274355 0.01649985
v -0.00773685 0.02210752 0.01730000
v -0.00773685 0.02076406 0.01280615
v -0.00920377 0.02221901 0.01649985
v -0.00773685 0.02083436 0.01689971
v -0.00897446 0.02166482 0.01730000
v -0.01340856 0.01921572 0.01730000
v -0.01340856 0.01772341 0.01689971
v -0.00773685 0.02033070 0.01280615
v -0.00848974 0.02049437 0.01280615
v -0.01045749 0.01956449 0.01280615
v -0.01133698 0.02121004 0.01649985
v -0.01340856 0.01713297 0.01280615
v -0.01105381 0.02068057 0.01730000
v -0.01302767 0.01949804 0.01730000
v -0.01336136 0.01999675 0.01649985
v -0.01340856 0.01996105 0.01649985
v -0.01057020 0.01949694 0.01280615
v -0.01340856 0.01764102 0.01280615
v -0.01232419 0.01844512 0.01280615
v -0.01242968 0.01836713 0.01280615
f 999 1000 1003
f 999 1003 1007
f 999 1007 1001
f 999 1001 1002
f 999 1002 1000
f 1000 1002 1004
f 1000 1004 1012
f 1000 1012 1013
f 1000 1013 1005
f 1000 1005 1006
f 1000 1006 1003
f 1001 1007 1011
f 1001 1011 1017
f 1001 1017 1019
f 1001 1019 1018
f 1001 1018 1016
f 1001 1016 1009
f 1001 1009 1008
f 1001 1008 1002
f 1002 1008 1009
f 1002 1009 1010
f 1002 1010 1004
f 1003 1006 1011
f 1003 1011 1007
f 1004 1010 1012
f 1005 1013 1014
f 1005 1014 1015
f 1005 1015 1017
f 1005 1017 1011
f 1005 1011 1006
f 1009 1016 1014
f 1009 1014 1010
f 1010 1014 1013
f 1010 1013 1012
f 1014 1017 1015
f 1014 1016 1018
f 1014 1018 1019
f 1014 1019 1017

o part_31
v -0.01488854 0.00587188 -0.01397619
v -0.01437499 0.00587188 -0.01397619
v -0.01479635 0.00612912 -0.01397619
v -0.01417471 0.00587188 -0.01689715
v -0.01363098 0.00587188 -0.01689715
v -0.01072142 0.01121888 -0.01397619
v -0.01469968 0.00633351 -0.01397619
v -0.01360079 0.00708529 -0.01689715
v -0.01072142 0.01025743 -0.01689715
v -0.01072142 0.01187140 -0.01397619
v -0.01412413 0.00754986 -0.01397619
v -0.01353104 0.00723271 -0.01689715
v -0.01072142 0.01096457 -0.01689715
v -0.01082911 0.01086708 -0.01689715
v -0.01132471 0.01132460 -0.01397619
v -0.01331608 0.00889719 -0.01397619
v -0.01275725 0.00852424 -0.01689715
v -0.01084909 0.01084887 -0.01689715
v -0.01095882 0.01072788 -0.01689715
v -0.01238035 0.01015994 -0.01397619
v -0.01274094 0.00854655 -0.01689715
v -0.01184192 0.00975351 -0.01689715
v -0.01186028 0.00973295 -0.01689715
f 1020 1021 1025
f 1020 1025 1029
f 1020 1029 1034
f 1020 1034 1039
f 1020 1039 1035
f 1020 1035 1030
f 1020 1030 1026
f 1020 1026 1022
f 1020 1022 1023
f 1020 1023 1024
f 1020 1024 1021
f 1021 1024 1025
f 1022 1026 1027
f 1022 1027 1023
f 1023 1027 1031
f 1023 1031 1036
f 1023 1036 1040
f 1023 1040 1042
f 1023 1042 1041
f 1023 1041 1038
f 1023 1038 1037
f 1023 1037 1033
f 1023 1033 1032
f 1023 1032 1028
f 1023 1028 1024
f 1024 1028 1025
f 1025 1028 1032
f 1025 1032 1029
f 1026 1030 1031
f 1026 1031 1027
f 1029 1032 1033
f 1029 1033 1034
f 1030 1035 1036
f 1030 1036 1031
f 1033 1037 1034
f 1034 1037 1038
f 1034 1038 1039
f 1035 1040 1036
f 1035 1039 1040
f 1038 1041 1039
f 1039 1041 1042
f 1039 1042 1040

o part_32
v 0.01904469 -0.01261764 0.01569766
v 0.01899819 -0.01269486 0.01569766
v 0.01892105 -0.01261764 0.01523582
v 0.01855752 -0.01261764 0.01569766
v 0.01888300 -0.01261764 0.01509640
v 0.01766243 -0.01449569 0.01569766
v 0.01537453 -0.01261764 0.00284170
v 0.00824979 -0.02086223 0.01569766
v 0.00902863 -0.01261764 -0.01397619
v 0.00824979 -0.01314210 -0.01397619
v 0.01615654 -0.01615734 0.01569766
v 0.01261847 -0.01261764 -0.00603489
v 0.00824979 -0.02128740 0.01569766
v 0.00984022 -0.01261764 -0.01397619
v 0.00824979 -0.01370560 -0.01397619
v 0.01449530 -0.01766284 0.01569766
v 0.01177411 -0.01261764 -0.00850093
v 0.00824979 -0.01991345 0.01007427
v 0.00874436 -0.02111004 0.01569766
v 0.01035593 -0.01261764 -0.01264005
v 0.00889864 -0.01331692 -0.01397619
v 0.00824979 -0.01543260 -0.00753659
v 0.01269456 -0.01899861 0.01569766
v 0.01077124 -0.02015107 0.01569766
f 1043 1044 1045
f 1043 1045 1047
f 1043 1047 1049
f 1043 1049 1054
f 1043 1054 1059
f 1043 1059 1062
f 1043 1062 1056
f 1043 1056 1051
f 1043 1051 1046
f 1043 1046 1050
f 1043 1050 1055
f 1043 1055 1061
f 1043 1061 1066
f 1043 1066 1065
f 1043 1065 1058
f 1043 1058 1053
f 1043 1053 1048
f 1043 1048 1044
f 1044 1047 1045
f 1044 1048 1049
f 1044 1049 1047
f 1046 1051 1052
f 1046 1052 1050
f 1048 1053 1049
f 1049 1053 1054
f 1050 1052 1057
f 1050 1057 1064
f 1050 1064 1060
f 1050 1060 1055
f 1051 1056 1063
f 1051 1063 1057
f 1051 1057 1052
f 1053 1058 1059
f 1053 1059 1054
f 1055 1060 1061
f 1056 1062 1063
f 1057 1063 1064
f 1058 1065 1063
f 1058 1063 1062
f 1058 1062 1059
f 1060 1066 1061
f 1060 1064 1066
f 1063 1065 1064
f 1064 1065 1066

o part_33
v -0.01183780 -0.01004005 -0.01397619
v -0.02244826 -0.00000386 0.01569766
v -0.02005517 -0.01003907 0.01569766
v -0.01912488 -0.01004005 0.01208719
v -0.01246949 -0.01004005 -0.01397619
v -0.01553200 -0.00000386 -0.01397619
v -0.02246874 -0.00000386 0.01569766
v -0.02049713 -0.01004005 0.01569766
v -0.01331677 -0.00889752 -0.01397619
v -0.01502643 -0.01004005 -0.00504731
v -0.01601601 -0.00000386 -0.01397619
v -0.02282986 -0.00000386 0.01561343
v -0.02284927 -0.00000484 0.01569766
v -0.02110942 -0.00874329 0.01569766
v -0.01479683 -0.00612814 -0.01397619
v -0.01412525 -0.00754869 -0.01397619
v -0.01878316 -0.01004005 0.00896179
v -0.01343319 -0.00870399 -0.01397619
v -0.01595026 -0.00134484 -0.01397619
v -0.02273931 -0.00223980 0.01569766
v -0.02186508 -0.00663211 0.01569766
v -0.01487336 -0.00591594 -0.01397619
v -0.01593840 -0.00156980 -0.01397619
v -0.02240945 -0.00445806 0.01569766
v -0.01570879 -0.00312494 -0.01397619
v -0.01532611 -0.00464963 -0.01397619
f 1067 1068 1069
f 1067 1069 1070
f 1067 1070 1074
f 1067 1074 1083
f 1067 1083 1076
f 1067 1076 1071
f 1067 1071 1075
f 1067 1075 1084
f 1067 1084 1082
f 1067 1082 1081
f 1067 1081 1088
f 1067 1088 1092
f 1067 1092 1091
f 1067 1091 1089
f 1067 1089 1085
f 1067 1085 1077
f 1067 1077 1072
f 1067 1072 1068
f 1068 1073 1079
f 1068 1079 1086
f 1068 1086 1090
f 1068 1090 1087
f 1068 1087 1080
f 1068 1080 1074
f 1068 1074 1069
f 1068 1072 1077
f 1068 1077 1078
f 1068 1078 1073
f 1069 1074 1070
f 1071 1076 1075
f 1073 1078 1079
f 1074 1080 1081
f 1074 1081 1082
f 1074 1082 1083
f 1075 1076 1084
f 1076 1083 1084
f 1077 1085 1079
f 1077 1079 1078
f 1079 1085 1086
f 1080 1087 1088
f 1080 1088 1081
f 1082 1084 1083
f 1085 1089 1086
f 1086 1089 1091
f 1086 1091 1090
f 1087 1090 1091
f 1087 1091 1092
f 1087 1092 1088

o part_34
v 0.02129287 0.00823397 0.01569766
v 0.02110898 0.00874462 0.01569766
v 0.02086820 0.00823397 0.01569766
v 0.01987731 0.00823397 0.00990290
v 0.02015116 0.01077147 0.01569766
v 0.01795904 0.01342379 0.01569766
v 0.00777764 0.01342430 -0.01397619
v 0.01315145 0.00823397 -0.01397619
v 0.01812308 0.00823397 0.00301017
v 0.01899755 0.01269415 0.01569766
v 0.01540311 0.00823397 -0.00767601
v 0.01371503 0.00823397 -0.01397619
v 0.01343324 0.00870448 -0.01397619
v 0.01845647 0.01342430 0.01569766
v 0.01667049 0.01342430 0.01124775
v 0.00871826 0.01342430 -0.01397619
v 0.01331682 0.00889807 -0.01397619
v 0.01635695 0.01342430 0.00836343
v 0.00889818 0.01331608 -0.01397619
v 0.00897094 0.01342430 -0.01340978
v 0.01251511 0.00997882 -0.01397619
v 0.01342530 0.01342430 -0.00108247
v 0.01238017 0.01016021 -0.01397619
v 0.01132578 0.01132429 -0.01397619
v 0.01016027 0.01237963 -0.01397619
v 0.00937311 0.01342430 -0.01236992
v 0.01181924 0.01342430 -0.00577057
v 0.01032828 0.01222821 -0.01397619
v 0.01101754 0.01342430 -0.00810881
f 1093 1094 1097
f 1093 1097 1102
f 1093 1102 1106
f 1093 1106 1098
f 1093 1098 1095
f 1093 1095 1100
f 1093 1100 1104
f 1093 1104 1103
f 1093 1103 1101
f 1093 1101 1096
f 1093 1096 1094
f 1094 1096 1097
f 1095 1098 1099
f 1095 1099 1100
f 1096 1101 1097
f 1097 1101 1103
f 1097 1103 1104
f 1097 1104 1105
f 1097 1105 1102
f 1098 1106 1107
f 1098 1107 1099
f 1099 1107 1106
f 1099 1106 1110
f 1099 1110 1114
f 1099 1114 1119
f 1099 1119 1121
f 1099 1121 1118
f 1099 1118 1112
f 1099 1112 1108
f 1099 1108 1111
f 1099 1111 1117
f 1099 1117 1120
f 1099 1120 1116
f 1099 1116 1115
f 1099 1115 1113
f 1099 1113 1109
f 1099 1109 1105
f 1099 1105 1104
f 1099 1104 1100
f 1102 1105 1109
f 1102 1109 1106
f 1106 1109 1110
f 1108 1112 1111
f 1109 1113 1110
f 1110 1113 1115
f 1110 1115 1116
f 1110 1116 1114
f 1111 1112 1118
f 1111 1118 1117
f 1114 1116 1120
f 1114 1120 1119
f 1117 1118 1121
f 1117 1121 1120
f 1119 1120 1121

o part_35
v 0.01845633 0.01342430 0.01569766
v 0.01795953 0.01342430 0.01569766
v 0.01635680 0.01342430 0.00836343
v 0.01766269 0.01449574 0.01569766
v 0.00792774 0.02097743 0.01569766
v 0.00792774 0.01342430 -0.01364215
v 0.01552090 0.01342430 0.00567083
v 0.01615684 0.01615755 0.01569766
v 0.00792774 0.02140148 0.01569766
v 0.00792774 0.01342430 -0.01397619
v 0.01342343 0.01342430 -0.00108247
v 0.01210207 0.01342430 -0.00494274
v 0.01181863 0.01342430 -0.00577057
v 0.01101778 0.01342430 -0.00810881
v 0.01449536 0.01766240 0.01569766
v 0.00874509 0.02110941 0.01569766
v 0.00792774 0.01913913 0.00643184
v 0.00792774 0.01389833 -0.01397619
v 0.00871829 0.01342430 -0.01397619
v 0.00937278 0.01342430 -0.01236992
v 0.01269473 0.01899856 0.01569766
v 0.01077144 0.02015121 0.01569766
v 0.00792774 0.01687210 -0.00247670
v 0.00792774 0.01448324 -0.01179480
v 0.00897081 0.01342430 -0.01340978
v 0.00792774 0.01483232 -0.01049062
f 1122 1123 1127
f 1122 1127 1131
f 1122 1131 1140
f 1122 1140 1146
f 1122 1146 1141
f 1122 1141 1135
f 1122 1135 1134
f 1122 1134 1133
f 1122 1133 1132
f 1122 1132 1128
f 1122 1128 1124
f 1122 1124 1125
f 1122 1125 1129
f 1122 1129 1136
f 1122 1136 1142
f 1122 1142 1143
f 1122 1143 1137
f 1122 1137 1130
f 1122 1130 1126
f 1122 1126 1123
f 1123 1126 1127
f 1124 1128 1129
f 1124 1129 1125
f 1126 1130 1138
f 1126 1138 1144
f 1126 1144 1147
f 1126 1147 1145
f 1126 1145 1139
f 1126 1139 1131
f 1126 1131 1127
f 1128 1132 1129
f 1129 1132 1133
f 1129 1133 1134
f 1129 1134 1135
f 1129 1135 1136
f 1130 1137 1138
f 1131 1139 1140
f 1135 1141 1142
f 1135 1142 1136
f 1137 1143 1138
f 1138 1143 1144
f 1139 1145 1143
f 1139 1143 1142
f 1139 1142 1140
f 1140 1142 1146
f 1141 1146 1142
f 1143 1145 1147
f 1143 1147 1144

o part_36
v -0.01340856 0.00780425 -0.01397619
v -0.01340856 0.00874310 -0.01397619
v -0.00773685 0.01345002 -0.01397619
v -0.00773685 0.02033024 0.01280615
v -0.01340856 0.01713182 0.01280615
v -0.01340856 0.00896005 -0.01349119
v -0.01331583 0.00889788 -0.01397619
v -0.00773685 0.01401333 -0.01397619
v -0.00773685 0.02076414 0.01280615
v -0.01340856 0.01763930 0.01280615
v -0.01340856 0.00901841 -0.01334176
v -0.01318147 0.00907931 -0.01397619
v -0.00870406 0.01343353 -0.01397619
v -0.01045749 0.01956394 0.01280615
v -0.00773685 0.01447387 -0.01225117
v -0.00848974 0.02049390 0.01280615
v -0.00773685 0.01867838 0.00426757
v -0.01309207 0.01787528 0.01280615
v -0.01340856 0.01633887 0.00826028
v -0.01340856 0.01100521 -0.00819555
v -0.01237971 0.01016025 -0.01397619
v -0.00889784 0.01331680 -0.01397619
v -0.01232419 0.01844367 0.01280615
v -0.00862799 0.02042920 0.01280615
v -0.00773685 0.01521860 -0.00932546
v -0.01244745 0.01835359 0.01280615
v -0.01340856 0.01340942 -0.00117488
v -0.01016044 0.01238049 -0.01397619
v -0.01115708 0.01147717 -0.01397619
v -0.01340856 0.01179435 -0.00589115
v -0.01132421 0.01132493 -0.01397619
v -0.01222813 0.01032772 -0.01397619
f 1148 1149 1154
f 1148 1154 1159
f 1148 1159 1168
f 1148 1168 1179
f 1148 1179 1178
f 1148 1178 1176
f 1148 1176 1175
f 1148 1175 1169
f 1148 1169 1160
f 1148 1160 1155
f 1148 1155 1150
f 1148 1150 1151
f 1148 1151 1152
f 1148 1152 1157
f 1148 1157 1166
f 1148 1166 1174
f 1148 1174 1177
f 1148 1177 1167
f 1148 1167 1158
f 1148 1158 1153
f 1148 1153 1149
f 1149 1153 1154
f 1150 1155 1162
f 1150 1162 1172
f 1150 1172 1164
f 1150 1164 1156
f 1150 1156 1151
f 1151 1156 1163
f 1151 1163 1171
f 1151 1171 1161
f 1151 1161 1170
f 1151 1170 1173
f 1151 1173 1165
f 1151 1165 1157
f 1151 1157 1152
f 1153 1158 1154
f 1154 1158 1159
f 1155 1160 1161
f 1155 1161 1162
f 1156 1164 1163
f 1157 1165 1166
f 1158 1167 1168
f 1158 1168 1159
f 1160 1169 1170
f 1160 1170 1161
f 1161 1171 1164
f 1161 1164 1172
f 1161 1172 1162
f 1163 1164 1171
f 1165 1173 1166
f 1166 1173 1175
f 1166 1175 1176
f 1166 1176 1174
f 1167 1177 1178
f 1167 1178 1179
f 1167 1179 1168
f 1169 1175 1173
f 1169 1173 1170
f 1174 1176 1178
f 1174 1178 1177

o part_37
v 0.00777727 0.01342430 -0.01397619
v 0.00792774 0.01342430 -0.01397619
v 0.00792774 0.01342430 -0.01364215
v 0.00000386 0.01553145 -0.01397619
v 0.00792774 0.01389850 -0.01397619
v 0.00792774 0.02097738 0.01569766
v 0.00000386 0.02244888 0.01569766
v 0.00000386 0.01601580 -0.01397619
v 0.00754923 0.01412453 -0.01397619
v 0.00792774 0.01448341 -0.01179480
v 0.00792774 0.02140176 0.01569766
v 0.00000386 0.02284927 0.01569766
v 0.00156987 0.01593923 -0.01397619
v 0.00612827 0.01479709 -0.01397619
v 0.00792774 0.01687194 -0.00247670
v 0.00792774 0.01483214 -0.01049062
v 0.00663243 0.02186489 0.01569766
v 0.00792774 0.01987768 0.00945558
v 0.00224001 0.02273856 0.01569766
v 0.00445755 0.02241013 0.01569766
v 0.00312501 0.01570858 -0.01397619
v 0.00464836 0.01532664 -0.01397619
v 0.00792774 0.01913870 0.00643184
f 1180 1181 1182
f 1180 1182 1183
f 1180 1183 1187
f 1180 1187 1192
f 1180 1192 1200
f 1180 1200 1201
f 1180 1201 1193
f 1180 1193 1188
f 1180 1188 1184
f 1180 1184 1181
f 1181 1184 1189
f 1181 1189 1195
f 1181 1195 1194
f 1181 1194 1202
f 1181 1202 1197
f 1181 1197 1190
f 1181 1190 1185
f 1181 1185 1182
f 1182 1185 1186
f 1182 1186 1183
f 1183 1186 1191
f 1183 1191 1187
f 1184 1188 1189
f 1185 1190 1196
f 1185 1196 1199
f 1185 1199 1198
f 1185 1198 1191
f 1185 1191 1186
f 1187 1191 1192
f 1188 1193 1194
f 1188 1194 1195
f 1188 1195 1189
f 1190 1197 1196
f 1191 1198 1192
f 1192 1198 1199
f 1192 1199 1200
f 1193 1201 1197
f 1193 1197 1202
f 1193 1202 1194
f 1196 1197 1201
f 1196 1201 1200
f 1196 1200 1199

o part_38
v 0.02165488 -0.00722223 0.01569766
v 0.02122972 -0.00722223 0.01569766
v 0.02110983 -0.00874446 0.01569766
v 0.01895931 -0.00722223 0.00466582
v 0.01855763 -0.01261764 0.01569766
v 0.01374492 -0.00722223 -0.01397619
v 0.00902984 -0.01261764 -0.01397619
v 0.01743417 -0.00722223 -0.00157336
v 0.02015075 -0.01077111 0.01569766
v 0.01412559 -0.00754971 -0.01397619
v 0.01428008 -0.00722223 -0.01397619
v 0.01856011 -0.01261764 0.01569766
v 0.00984061 -0.01261764 -0.01397619
v 0.01904459 -0.01261711 0.01569766
v 0.01892594 -0.01261764 0.01525325
v 0.01400941 -0.00774355 -0.01397619
v 0.01016072 -0.01237996 -0.01397619
v 0.01025218 -0.01261764 -0.01291018
v 0.01888268 -0.01261764 0.01509640
v 0.01331729 -0.00889816 -0.01397619
v 0.01035599 -0.01261764 -0.01264005
v 0.01115811 -0.01147623 -0.01397619
v 0.01197259 -0.01261764 -0.00792000
v 0.01620442 -0.01261764 0.00574054
v 0.01238045 -0.01016000 -0.01397619
v 0.01132496 -0.01132464 -0.01397619
v 0.01261775 -0.01261764 -0.00603489
v 0.01537388 -0.01261764 0.00284170
v 0.01222967 -0.01032743 -0.01397619
v 0.01392907 -0.01261764 -0.00181444
f 1203 1204 1207
f 1203 1207 1214
f 1203 1214 1216
f 1203 1216 1211
f 1203 1211 1205
f 1203 1205 1206
f 1203 1206 1210
f 1203 1210 1213
f 1203 1213 1208
f 1203 1208 1204
f 1204 1208 1209
f 1204 1209 1207
f 1205 1210 1206
f 1205 1211 1212
f 1205 1212 1213
f 1205 1213 1210
f 1207 1209 1215
f 1207 1215 1220
f 1207 1220 1223
f 1207 1223 1225
f 1207 1225 1229
f 1207 1229 1232
f 1207 1232 1230
f 1207 1230 1226
f 1207 1226 1221
f 1207 1221 1217
f 1207 1217 1214
f 1208 1213 1212
f 1208 1212 1218
f 1208 1218 1222
f 1208 1222 1227
f 1208 1227 1231
f 1208 1231 1228
f 1208 1228 1224
f 1208 1224 1219
f 1208 1219 1215
f 1208 1215 1209
f 1211 1216 1217
f 1211 1217 1212
f 1212 1217 1218
f 1214 1217 1216
f 1215 1219 1220
f 1217 1221 1222
f 1217 1222 1218
f 1219 1223 1220
f 1219 1224 1225
f 1219 1225 1223
f 1221 1226 1222
f 1222 1226 1227
f 1224 1228 1229
f 1224 1229 1225
f 1226 1230 1227
f 1227 1230 1231
f 1228 1231 1232
f 1228 1232 1229
f 1230 1232 1231

o part_39
v 0.00000467 -0.02284832 0.01569766
v 0.00224021 -0.02273904 0.01569766
v 0.00000386 -0.02246823 0.01569766
v 0.00000386 -0.02282931 0.01561343
v 0.00445719 -0.02241027 0.01569766
v 0.00134438 -0.01594981 -0.01397619
v 0.00157035 -0.01593840 -0.01397619
v 0.00290119 -0.01574171 -0.01397619
v 0.00000386 -0.02244828 0.01569766
v 0.00000386 -0.01601537 -0.01397619
v 0.00663220 -0.02186485 0.01569766
v 0.00312474 -0.01570845 -0.01397619
v 0.00442975 -0.01538158 -0.01397619
v 0.00824873 -0.02086238 0.01569766
v 0.00824873 -0.01314194 -0.01397619
v 0.00000386 -0.01553171 -0.01397619
v 0.00824873 -0.01991407 0.01007427
v 0.00824873 -0.02128712 0.01569766
v 0.00464846 -0.01532647 -0.01397619
v 0.00824873 -0.01370541 -0.01397619
v 0.00824873 -0.01543289 -0.00753659
v 0.00612860 -0.01479720 -0.01397619
v 0.00754901 -0.01412446 -0.01397619
v 0.00734483 -0.01422138 -0.01397619
f 1233 1234 1237
f 1233 1237 1243
f 1233 1243 1250
f 1233 1250 1246
f 1233 1246 1241
f 1233 1241 1235
f 1233 1235 1236
f 1233 1236 1234
f 1234 1236 1238
f 1234 1238 1239
f 1234 1239 1240
f 1234 1240 1237
f 1235 1241 1248
f 1235 1248 1242
f 1235 1242 1236
f 1236 1242 1238
f 1237 1240 1244
f 1237 1244 1245
f 1237 1245 1243
f 1238 1242 1248
f 1238 1248 1247
f 1238 1247 1252
f 1238 1252 1255
f 1238 1255 1256
f 1238 1256 1254
f 1238 1254 1251
f 1238 1251 1245
f 1238 1245 1244
f 1238 1244 1240
f 1238 1240 1239
f 1241 1246 1247
f 1241 1247 1248
f 1243 1249 1250
f 1243 1245 1251
f 1243 1251 1249
f 1246 1250 1249
f 1246 1249 1253
f 1246 1253 1252
f 1246 1252 1247
f 1249 1251 1254
f 1249 1254 1253
f 1252 1253 1255
f 1253 1254 1256
f 1253 1256 1255

o part_40
v 0.02284851 0.00000040 0.01569766
v 0.02284851 -0.00000202 0.01569766
v 0.01601617 0.00000040 -0.01397619
v 0.02273933 0.00224006 0.01569766
v 0.02283427 -0.00000283 0.01569766
v 0.01601617 -0.00000283 -0.01397619
v 0.01593928 0.00157010 -0.01397619
v 0.01574182 0.00290116 -0.01397619
v 0.02240992 0.00445715 0.01569766
v 0.02244884 -0.00000283 0.01569766
v 0.01556809 -0.00000283 -0.01397619
v 0.01570859 0.00312448 -0.01397619
v 0.02186500 0.00663232 0.01569766
v 0.02243460 -0.00000283 0.01563666
v 0.02086820 0.00823346 0.01569766
v 0.01315109 0.00823346 -0.01397619
v 0.01553201 -0.00000202 -0.01397619
v 0.01538107 0.00442974 -0.01397619
v 0.02129255 0.00823346 0.01569766
v 0.01532601 0.00464903 -0.01397619
v 0.01479723 0.00612844 -0.01397619
v 0.01371499 0.00823346 -0.01397619
v 0.01987710 0.00823346 0.00990290
v 0.01412511 0.00754899 -0.01397619
v 0.01540385 0.00823346 -0.00767601
f 1257 1258 1262
f 1257 1262 1259
f 1257 1259 1260
f 1257 1260 1265
f 1257 1265 1269
f 1257 1269 1275
f 1257 1275 1271
f 1257 1271 1266
f 1257 1266 1261
f 1257 1261 1258
f 1258 1261 1262
f 1259 1262 1267
f 1259 1267 1273
f 1259 1273 1272
f 1259 1272 1278
f 1259 1278 1280
f 1259 1280 1277
f 1259 1277 1276
f 1259 1276 1274
f 1259 1274 1268
f 1259 1268 1264
f 1259 1264 1263
f 1259 1263 1260
f 1260 1263 1264
f 1260 1264 1265
f 1261 1266 1270
f 1261 1270 1267
f 1261 1267 1262
f 1264 1268 1265
f 1265 1268 1269
f 1266 1271 1272
f 1266 1272 1270
f 1267 1270 1273
f 1268 1274 1269
f 1269 1274 1276
f 1269 1276 1277
f 1269 1277 1275
f 1270 1272 1273
f 1271 1275 1279
f 1271 1279 1281
f 1271 1281 1278
f 1271 1278 1272
f 1275 1277 1279
f 1277 1280 1279
f 1278 1281 1280
f 1279 1280 1281

o part_41
v -0.02182366 -0.01004005 0.01649993
v -0.02145980 -0.01004005 0.01693894
v -0.02049690 -0.01004005 0.01569766
v -0.02120984 -0.01133753 0.01649993
v -0.02068098 -0.01105480 0.01729984
v -0.02116059 -0.01004005 0.01729984
v -0.02005485 -0.01004005 0.01569766
v -0.02015089 -0.01077125 0.01569766
v -0.01899837 -0.01269512 0.01569766
v -0.01999636 -0.01336214 0.01649993
v -0.01949767 -0.01302822 0.01729984
v -0.02063111 -0.01004005 0.01714018
v -0.01553463 -0.01753078 0.01729984
v -0.01983444 -0.01004005 0.01689989
v -0.01553463 -0.01618294 0.01570002
v -0.01587447 -0.01587340 0.01569766
v -0.01766299 -0.01449549 0.01569766
v -0.01859141 -0.01525675 0.01649993
v -0.01812720 -0.01487572 0.01729984
v -0.01658187 -0.01658104 0.01729984
v -0.01700607 -0.01700513 0.01649993
v -0.01553463 -0.01833917 0.01649993
v -0.01553463 -0.01628937 0.01699290
v -0.01553463 -0.01591321 0.01689989
v -0.01553463 -0.01654610 0.01569766
v -0.01615707 -0.01615694 0.01569766
v -0.01553463 -0.01672159 0.01569860
f 1282 1283 1287
f 1282 1287 1293
f 1282 1293 1295
f 1282 1295 1288
f 1282 1288 1284
f 1282 1284 1285
f 1282 1285 1286
f 1282 1286 1283
f 1283 1286 1287
f 1284 1288 1297
f 1284 1297 1306
f 1284 1306 1307
f 1284 1307 1298
f 1284 1298 1290
f 1284 1290 1289
f 1284 1289 1285
f 1285 1289 1290
f 1285 1290 1291
f 1285 1291 1286
f 1286 1291 1292
f 1286 1292 1300
f 1286 1300 1301
f 1286 1301 1294
f 1286 1294 1287
f 1287 1294 1293
f 1288 1295 1296
f 1288 1296 1297
f 1290 1298 1299
f 1290 1299 1291
f 1291 1299 1292
f 1292 1299 1300
f 1293 1294 1295
f 1294 1301 1302
f 1294 1302 1303
f 1294 1303 1308
f 1294 1308 1306
f 1294 1306 1296
f 1294 1296 1305
f 1294 1305 1304
f 1294 1304 1295
f 1295 1305 1296
f 1295 1304 1305
f 1296 1306 1297
f 1298 1307 1299
f 1299 1307 1302
f 1299 1302 1301
f 1299 1301 1300
f 1302 1307 1303
f 1303 1307 1308
f 1306 1308 1307

o part_42
v -0.01321505 -0.01861308 0.01569766
v -0.01321505 -0.01610143 0.00692632
v -0.01321505 -0.01811545 0.01569766
v -0.01449611 -0.01766230 0.01569766
v -0.01615714 -0.01615681 0.01569766
v -0.01321505 -0.01417468 0.00072013
v -0.02005522 -0.01004005 0.01569766
v -0.01321505 -0.01004005 -0.00932849
v -0.01766277 -0.01449524 0.01569766
v -0.01321505 -0.01227059 -0.00512832
v -0.01321505 -0.01321466 -0.00236972
v -0.02049722 -0.01004005 0.01569766
v -0.01321505 -0.01004005 -0.01137426
v -0.01899801 -0.01269521 0.01569766
v -0.01321505 -0.01027251 -0.01077272
v -0.01321505 -0.01084482 -0.00928874
v -0.01878343 -0.01004005 0.00896148
v -0.02015075 -0.01077182 0.01569766
v -0.01502650 -0.01004005 -0.00504617
f 1309 1310 1314
f 1309 1314 1319
f 1309 1319 1318
f 1309 1318 1324
f 1309 1324 1323
f 1309 1323 1321
f 1309 1321 1316
f 1309 1316 1311
f 1309 1311 1315
f 1309 1315 1320
f 1309 1320 1326
f 1309 1326 1322
f 1309 1322 1317
f 1309 1317 1313
f 1309 1313 1312
f 1309 1312 1310
f 1310 1312 1313
f 1310 1313 1314
f 1311 1316 1315
f 1313 1317 1318
f 1313 1318 1319
f 1313 1319 1314
f 1315 1316 1321
f 1315 1321 1327
f 1315 1327 1325
f 1315 1325 1320
f 1317 1322 1323
f 1317 1323 1324
f 1317 1324 1318
f 1320 1325 1326
f 1321 1323 1322
f 1321 1322 1327
f 1322 1326 1325
f 1322 1325 1327

