
o part_0
v -0.04900000 -0.02450000 -0.01532131
v -0.04000000 -0.02450000 -0.01532131
v -0.04000000 -0.02450000 -0.01392131
v -0.04900000 -0.02450000 -0.01392131
v -0.04044049 -0.02171885 -0.01532131
v -0.04044049 -0.02171885 -0.01392131
v -0.04171885 -0.01920993 -0.01532131
v -0.04171885 -0.01920993 -0.01392131
v -0.04370993 -0.01721885 -0.01532131
v -0.04370993 -0.01721885 -0.01392131
v -0.04621885 -0.01594049 -0.01532131
v -0.04621885 -0.01594049 -0.01392131
v -0.04900000 -0.01550000 -0.01532131
v -0.04900000 -0.01550000 -0.01392131
v -0.05178115 -0.01594049 -0.01532131
v -0.05178115 -0.01594049 -0.01392131
v -0.05429007 -0.01721885 -0.01532131
v -0.05429007 -0.01721885 -0.01392131
v -0.05628115 -0.01920993 -0.01532131
v -0.05628115 -0.01920993 -0.01392131
v -0.05755951 -0.02171885 -0.01532131
v -0.05755951 -0.02171885 -0.01392131
v -0.05800000 -0.02450000 -0.01532131
v -0.05800000 -0.02450000 -0.01392131
v -0.05755951 -0.02728115 -0.01532131
v -0.05755951 -0.02728115 -0.01392131
v -0.05628115 -0.02979007 -0.01532131
v -0.05628115 -0.02979007 -0.01392131
v -0.05429007 -0.03178115 -0.01532131
v -0.05429007 -0.03178115 -0.01392131
v -0.05178115 -0.03305951 -0.01532131
v -0.05178115 -0.03305951 -0.01392131
v -0.04900000 -0.03350000 -0.01532131
v -0.04900000 -0.03350000 -0.01392131
v -0.04621885 -0.03305951 -0.01532131
v -0.04621885 -0.03305951 -0.01392131
v -0.04370993 -0.03178115 -0.01532131
v -0.04370993 -0.03178115 -0.01392131
v -0.04171885 -0.02979007 -0.01532131
v -0.04171885 -0.02979007 -0.01392131
v -0.04044049 -0.02728115 -0.01532131
v -0.04044049 -0.02728115 -0.01392131
f 2 1 5
f 2 5 3
f 3 5 6
f 3 6 4
f 5 1 7
f 5 7 6
f 6 7 8
f 6 8 4
f 7 1 9
f 7 9 8
f 8 9 10
f 8 10 4
f 9 1 11
f 9 11 10
f 10 11 12
f 10 12 4
f 11 1 13
f 11 13 12
f 12 13 14
f 12 14 4
f 13 1 15
f 13 15 14
f 14 15 16
f 14 16 4
f 15 1 17
f 15 17 16
f 16 17 18
f 16 18 4
f 17 1 19
f 17 19 18
f 18 19 20
f 18 20 4
f 19 1 21
f 19 21 20
f 20 21 22
f 20 22 4
f 21 1 23
f 21 23 22
f 22 23 24
f 22 24 4
f 23 1 25
f 23 25 24
f 24 25 26
f 24 26 4
f 25 1 27
f 25 27 26
f 26 27 28
f 26 28 4
f 27 1 29
f 27 29 28
f 28 29 30
f 28 30 4
f 29 1 31
f 29 31 30
f 30 31 32
f 30 32 4
f 31 1 33
f 31 33 32
f 32 33 34
f 32 34 4
f 33 1 35
f 33 35 34
f 34 35 36
f 34 36 4
f 35 1 37
f 35 37 36
f 36 37 38
f 36 38 4
f 37 1 39
f 37 39 38
f 38 39 40
f 38 40 4
f 39 1 41
f 39 41 40
f 40 41 42
f 40 42 4
f 41 1 2
f 41 2 42
f 42 2 3
f 42 3 4

o part_1
v -0.04000000 -0.02183135 -0.01532131
v -0.04000000 -0.02716865 -0.01532131
v -0.04072812 -0.02183135 -0.01412556
v -0.04072812 -0.02716865 -0.01412556
v -0.02450000 -0.01712126 0.01467869
v -0.02450000 -0.03187874 0.01467869
v -0.02574380 -0.01712126 0.01532131
v -0.02574380 -0.03187874 0.01532131
f 43 49 47
f 45 49 43
f 48 50 44
f 46 44 50
f 47 49 50
f 50 48 47
f 47 48 44
f 44 43 47
f 46 50 49
f 46 49 45
f 43 44 46
f 45 43 46

o part_2
v -0.04328744 -0.01705095 -0.01532131
v -0.04015025 -0.02136892 -0.01532131
v -0.04387650 -0.01747893 -0.01412556
v -0.04073932 -0.02179690 -0.01412556
v -0.03351620 -0.00412974 0.01467869
v -0.02484197 -0.01606879 0.01467869
v -0.03452245 -0.00486082 0.01532131
v -0.02584822 -0.01679987 0.01532131
f 51 57 55
f 53 57 51
f 56 58 52
f 54 52 58
f 55 57 58
f 56 55 58
f 52 55 56
f 52 51 55
f 54 58 57
f 54 57 53
f 51 52 54
f 53 51 54

o part_3
v -0.04875689 -0.01511583 -0.01532131
v -0.04368081 -0.01676515 -0.01532131
v -0.04898189 -0.01580832 -0.01412556
v -0.04390581 -0.01745763 -0.01412556
v -0.04844668 0.00108104 0.01467869
v -0.03441149 -0.00347927 0.01467869
v -0.04883104 -0.00010188 0.01532131
v -0.03479584 -0.00466219 0.01532131
f 64 66 60
f 59 65 63
f 61 65 59
f 62 60 66
f 63 65 66
f 64 63 66
f 59 63 64
f 64 60 59
f 62 66 65
f 62 65 61
f 62 59 60
f 61 59 62

o part_4
v -0.05431919 -0.01676515 -0.01532131
v -0.04924311 -0.01511583 -0.01532131
v -0.05409419 -0.01745763 -0.01412556
v -0.04901811 -0.01580832 -0.01412556
v -0.06358851 -0.00347927 0.01467869
v -0.04955332 0.00108104 0.01467869
v -0.06320416 -0.00466219 0.01532131
v -0.04916896 -0.00010188 0.01532131
f 67 69 73
f 67 73 71
f 72 74 68
f 68 74 70
f 74 69 70
f 73 69 74
f 74 72 71
f 71 73 74
f 70 69 68
f 69 67 68
f 71 72 68
f 68 67 71

o part_5
v -0.05784975 -0.02136892 -0.01532131
v -0.05471256 -0.01705095 -0.01532131
v -0.05726068 -0.02179690 -0.01412556
v -0.05412350 -0.01747893 -0.01412556
v -0.07315803 -0.01606879 0.01467869
v -0.06448380 -0.00412974 0.01467869
v -0.07215178 -0.01679987 0.01532131
v -0.06347755 -0.00486082 0.01532131
f 75 77 81
f 75 81 79
f 80 82 76
f 76 82 78
f 82 77 78
f 81 77 82
f 82 80 79
f 79 81 82
f 78 77 76
f 77 75 76
f 79 80 76
f 76 75 79

o part_6
v -0.05800000 -0.02716865 -0.01532131
v -0.05800000 -0.02183135 -0.01532131
v -0.05727188 -0.02716865 -0.01412556
v -0.05727188 -0.02183135 -0.01412556
v -0.07350000 -0.03187874 0.01467869
v -0.07350000 -0.01712126 0.01467869
v -0.07225620 -0.03187874 0.01532131
v -0.07225620 -0.01712126 0.01532131
f 83 89 87
f 85 89 83
f 88 90 84
f 86 84 90
f 87 89 90
f 90 88 87
f 87 88 84
f 84 83 87
f 86 90 89
f 86 89 85
f 83 84 86
f 85 83 86

o part_7
v -0.05471256 -0.03194905 -0.01532131
v -0.05784975 -0.02763108 -0.01532131
v -0.05412350 -0.03152107 -0.01412556
v -0.05726068 -0.02720310 -0.01412556
v -0.06448380 -0.04487026 0.01467869
v -0.07315803 -0.03293121 0.01467869
v -0.06347755 -0.04413918 0.01532131
v -0.07215178 -0.03220013 0.01532131
f 91 97 95
f 93 97 91
f 96 98 92
f 94 92 98
f 95 97 98
f 96 95 98
f 92 95 96
f 92 91 95
f 94 98 97
f 94 97 93
f 91 92 94
f 93 91 94

o part_8
v -0.04924311 -0.03388417 -0.01532131
v -0.05431919 -0.03223485 -0.01532131
v -0.04901811 -0.03319168 -0.01412556
v -0.05409419 -0.03154237 -0.01412556
v -0.04955332 -0.05008104 0.01467869
v -0.06358851 -0.04552073 0.01467869
v -0.04916896 -0.04889812 0.01532131
v -0.06320416 -0.04433781 0.01532131
f 104 106 100
f 99 105 103
f 101 105 99
f 102 100 106
f 103 105 106
f 104 103 106
f 99 103 104
f 104 100 99
f 102 106 105
f 102 105 101
f 102 99 100
f 101 99 102

o part_9
v -0.04368081 -0.03223485 -0.01532131
v -0.04875689 -0.03388417 -0.01532131
v -0.04390581 -0.03154237 -0.01412556
v -0.04898189 -0.03319168 -0.01412556
v -0.03441149 -0.04552073 0.01467869
v -0.04844668 -0.05008104 0.01467869
v -0.03479584 -0.04433781 0.01532131
v -0.04883104 -0.04889812 0.01532131
f 107 109 113
f 107 113 111
f 112 114 108
f 108 114 110
f 114 109 110
f 113 109 114
f 114 112 111
f 111 113 114
f 110 109 108
f 109 107 108
f 111 112 108
f 108 107 111

o part_10
v -0.04015025 -0.02763108 -0.01532131
v -0.04328744 -0.03194905 -0.01532131
v -0.04073932 -0.02720310 -0.01412556
v -0.04387650 -0.03152107 -0.01412556
v -0.02484197 -0.03293121 0.01467869
v -0.03351620 -0.04487026 0.01467869
v -0.02584822 -0.03220013 0.01532131
v -0.03452245 -0.04413918 0.01532131
f 115 117 121
f 115 121 119
f 120 122 116
f 116 122 118
f 122 117 118
f 121 117 122
f 122 120 119
f 119 121 122
f 118 117 116
f 117 115 116
f 119 120 116
f 116 115 119

o part_11
v -0.04900000 0.02450000 -0.01532131
v -0.04000000 0.02450000 -0.01532131
v -0.04000000 0.02450000 -0.01392131
v -0.04900000 0.02450000 -0.01392131
v -0.04044049 0.02728115 -0.01532131
v -0.04044049 0.02728115 -0.01392131
v -0.04171885 0.02979007 -0.01532131
v -0.04171885 0.02979007 -0.01392131
v -0.04370993 0.03178115 -0.01532131
v -0.04370993 0.03178115 -0.01392131
v -0.04621885 0.03305951 -0.01532131
v -0.04621885 0.03305951 -0.01392131
v -0.04900000 0.03350000 -0.01532131
v -0.04900000 0.03350000 -0.01392131
v -0.05178115 0.03305951 -0.01532131
v -0.05178115 0.03305951 -0.01392131
v -0.05429007 0.03178115 -0.01532131
v -0.05429007 0.03178115 -0.01392131
v -0.05628115 0.02979007 -0.01532131
v -0.05628115 0.02979007 -0.01392131
v -0.05755951 0.02728115 -0.01532131
v -0.05755951 0.02728115 -0.01392131
v -0.05800000 0.02450000 -0.01532131
v -0.05800000 0.02450000 -0.01392131
v -0.05755951 0.02171885 -0.01532131
v -0.05755951 0.02171885 -0.01392131
v -0.05628115 0.01920993 -0.01532131
v -0.05628115 0.01920993 -0.01392131
v -0.05429007 0.01721885 -0.01532131
v -0.05429007 0.01721885 -0.01392131
v -0.05178115 0.01594049 -0.01532131
v -0.05178115 0.01594049 -0.01392131
v -0.04900000 0.01550000 -0.01532131
v -0.04900000 0.01550000 -0.01392131
v -0.04621885 0.01594049 -0.01532131
v -0.04621885 0.01594049 -0.01392131
v -0.04370993 0.01721885 -0.01532131
v -0.04370993 0.01721885 -0.01392131
v -0.04171885 0.01920993 -0.01532131
v -0.04171885 0.01920993 -0.01392131
v -0.04044049 0.02171885 -0.01532131
v -0.04044049 0.02171885 -0.01392131
f 124 123 127
f 124 127 125
f 125 127 128
f 125 128 126
f 127 123 129
f 127 129 128
f 128 129 130
f 128 130 126
f 129 123 131
f 129 131 130
f 130 131 132
f 130 132 126
f 131 123 133
f 131 133 132
f 132 133 134
f 132 134 126
f 133 123 135
f 133 135 134
f 134 135 136
f 134 136 126
f 135 123 137
f 135 137 136
f 136 137 138
f 136 138 126
f 137 123 139
f 137 139 138
f 138 139 140
f 138 140 126
f 139 123 141
f 139 141 140
f 140 141 142
f 140 142 126
f 141 123 143
f 141 143 142
f 142 143 144
f 142 144 126
f 143 123 145
f 143 145 144
f 144 145 146
f 144 146 126
f 145 123 147
f 145 147 146
f 146 147 148
f 146 148 126
f 147 123 149
f 147 149 148
f 148 149 150
f 148 150 126
f 149 123 151
f 149 151 150
f 150 151 152
f 150 152 126
f 151 123 153
f 151 153 152
f 152 153 154
f 152 154 126
f 153 123 155
f 153 155 154
f 154 155 156
f 154 156 126
f 155 123 157
f 155 157 156
f 156 157 158
f 156 158 126
f 157 123 159
f 157 159 158
f 158 159 160
f 158 160 126
f 159 123 161
f 159 161 160
f 160 161 162
f 160 162 126
f 161 123 163
f 161 163 162
f 162 163 164
f 162 164 126
f 163 123 124
f 163 124 164
f 164 124 125
f 164 125 126

o part_12
v -0.04000000 0.02716865 -0.01532131
v -0.04000000 0.02183135 -0.01532131
v -0.04072812 0.02716865 -0.01412556
v -0.04072812 0.02183135 -0.01412556
v -0.02450000 0.03187874 0.01467869
v -0.02450000 0.01712126 0.01467869
v -0.02574380 0.03187874 0.01532131
v -0.02574380 0.01712126 0.01532131
f 165 171 169
f 167 171 165
f 170 172 166
f 168 166 172
f 169 171 172
f 172 170 169
f 169 170 166
f 166 165 169
f 168 172 171
f 168 171 167
f 165 166 168
f 167 165 168

o part_13
v -0.04328744 0.03194905 -0.01532131
v -0.04015025 0.02763108 -0.01532131
v -0.04387650 0.03152107 -0.01412556
v -0.04073932 0.02720310 -0.01412556
v -0.03351620 0.04487026 0.01467869
v -0.02484197 0.03293121 0.01467869
v -0.03452245 0.04413918 0.01532131
v -0.02584822 0.03220013 0.01532131
f 173 179 177
f 175 179 173
f 178 180 174
f 176 174 180
f 177 179 180
f 178 177 180
f 174 177 178
f 174 173 177
f 176 180 179
f 176 179 175
f 173 174 176
f 175 173 176

o part_14
v -0.04875689 0.03388417 -0.01532131
v -0.04368081 0.03223485 -0.01532131
v -0.04898189 0.03319168 -0.01412556
v -0.04390581 0.03154237 -0.01412556
v -0.04844668 0.05008104 0.01467869
v -0.03441149 0.04552073 0.01467869
v -0.04883104 0.04889812 0.01532131
v -0.03479584 0.04433781 0.01532131
f 186 188 182
f 181 187 185
f 183 187 181
f 184 182 188
f 185 187 188
f 186 185 188
f 181 185 186
f 186 182 181
f 184 188 187
f 184 187 183
f 184 181 182
f 183 181 184

o part_15
v -0.05431919 0.03223485 -0.01532131
v -0.04924311 0.03388417 -0.01532131
v -0.05409419 0.03154237 -0.01412556
v -0.04901811 0.03319168 -0.01412556
v -0.06358851 0.04552073 0.01467869
v -0.04955332 0.05008104 0.01467869
v -0.06320416 0.04433781 0.01532131
v -0.04916896 0.04889812 0.01532131
f 189 191 195
f 189 195 193
f 194 196 190
f 190 196 192
f 196 191 192
f 195 191 196
f 196 194 193
f 193 195 196
f 192 191 190
f 191 189 190
f 193 194 190
f 190 189 193

o part_16
v -0.05784975 0.02763108 -0.01532131
v -0.05471256 0.03194905 -0.01532131
v -0.05726068 0.02720310 -0.01412556
v -0.05412350 0.03152107 -0.01412556
v -0.07315803 0.03293121 0.01467869
v -0.06448380 0.04487026 0.01467869
v -0.07215178 0.03220013 0.01532131
v -0.06347755 0.04413918 0.01532131
f 197 199 203
f 197 203 201
f 202 204 198
f 198 204 200
f 204 199 200
f 203 199 204
f 204 202 201
f 201 203 204
f 200 199 198
f 199 197 198
f 201 202 198
f 198 197 201

o part_17
v -0.05800000 0.02183135 -0.01532131
v -0.05800000 0.02716865 -0.01532131
v -0.05727188 0.02183135 -0.01412556
v -0.05727188 0.02716865 -0.01412556
v -0.07350000 0.01712126 0.01467869
v -0.07350000 0.03187874 0.01467869
v -0.07225620 0.01712126 0.01532131
v -0.07225620 0.03187874 0.01532131
f 205 211 209
f 207 211 205
f 210 212 206
f 208 206 212
f 209 211 212
f 212 210 209
f 209 210 206
f 206 205 209
f 208 212 211
f 208 211 207
f 205 206 208
f 207 205 208

o part_18
v -0.05471256 0.01705095 -0.01532131
v -0.05784975 0.02136892 -0.01532131
v -0.05412350 0.01747893 -0.01412556
v -0.05726068 0.02179690 -0.01412556
v -0.06448380 0.00412974 0.01467869
v -0.07315803 0.01606879 0.01467869
v -0.06347755 0.00486082 0.01532131
v -0.07215178 0.01679987 0.01532131
f 213 219 217
f 215 219 213
f 218 220 214
f 216 214 220
f 217 219 220
f 218 217 220
f 214 217 218
f 214 213 217
f 216 220 219
f 216 219 215
f 213 214 216
f 215 213 216

o part_19
v -0.04924311 0.01511583 -0.01532131
v -0.05431919 0.01676515 -0.01532131
v -0.04901811 0.01580832 -0.01412556
v -0.05409419 0.01745763 -0.01412556
v -0.04955332 -0.00108104 0.01467869
v -0.06358851 0.00347927 0.01467869
v -0.04916896 0.00010188 0.01532131
v -0.06320416 0.00466219 0.01532131
f 226 228 222
f 221 227 225
f 223 227 221
f 224 222 228
f 225 227 228
f 226 225 228
f 221 225 226
f 226 222 221
f 224 228 227
f 224 227 223
f 224 221 222
f 223 221 224

o part_20
v -0.04368081 0.01676515 -0.01532131
v -0.04875689 0.01511583 -0.01532131
v -0.04390581 0.01745763 -0.01412556
v -0.04898189 0.01580832 -0.01412556
v -0.03441149 0.00347927 0.01467869
v -0.04844668 -0.00108104 0.01467869
v -0.03479584 0.00466219 0.01532131
v -0.04883104 0.00010188 0.01532131
f 229 231 235
f 229 235 233
f 234 236 230
f 230 236 232
f 236 231 232
f 235 231 236
f 236 234 233
f 233 235 236
f 232 231 230
f 231 229 230
f 233 234 230
f 230 229 233

o part_21
v -0.04015025 0.02136892 -0.01532131
v -0.04328744 0.01705095 -0.01532131
v -0.04073932 0.02179690 -0.01412556
v -0.04387650 0.01747893 -0.01412556
v -0.02484197 0.01606879 0.01467869
v -0.03351620 0.00412974 0.01467869
v -0.02584822 0.01679987 0.01532131
v -0.03452245 0.00486082 0.01532131
f 237 239 243
f 237 243 241
f 242 244 238
f 238 244 240
f 244 239 240
f 243 239 244
f 244 242 241
f 241 243 244
f 240 239 238
f 239 237 238
f 241 242 238
f 238 237 241

o part_22
v 0.00000000 -0.02450000 -0.01532131
v 0.00900000 -0.02450000 -0.01532131
v 0.00900000 -0.02450000 -0.01392131
v 0.00000000 -0.02450000 -0.01392131
v 0.00855951 -0.02171885 -0.01532131
v 0.00855951 -0.02171885 -0.01392131
v 0.00728115 -0.01920993 -0.01532131
v 0.00728115 -0.01920993 -0.01392131
v 0.00529007 -0.01721885 -0.01532131
v 0.00529007 -0.01721885 -0.01392131
v 0.00278115 -0.01594049 -0.01532131
v 0.00278115 -0.01594049 -0.01392131
v 0.00000000 -0.01550000 -0.01532131
v 0.00000000 -0.01550000 -0.01392131
v -0.00278115 -0.01594049 -0.01532131
v -0.00278115 -0.01594049 -0.01392131
v -0.00529007 -0.01721885 -0.01532131
v -0.00529007 -0.01721885 -0.01392131
v -0.00728115 -0.01920993 -0.01532131
v -0.00728115 -0.01920993 -0.01392131
v -0.00855951 -0.02171885 -0.01532131
v -0.00855951 -0.02171885 -0.01392131
v -0.00900000 -0.02450000 -0.01532131
v -0.00900000 -0.02450000 -0.01392131
v -0.00855951 -0.02728115 -0.01532131
v -0.00855951 -0.02728115 -0.01392131
v -0.00728115 -0.02979007 -0.01532131
v -0.00728115 -0.02979007 -0.01392131
v -0.00529007 -0.03178115 -0.01532131
v -0.00529007 -0.03178115 -0.01392131
v -0.00278115 -0.03305951 -0.01532131
v -0.00278115 -0.03305951 -0.01392131
v -0.00000000 -0.03350000 -0.01532131
v -0.00000000 -0.03350000 -0.01392131
v 0.00278115 -0.03305951 -0.01532131
v 0.00278115 -0.03305951 -0.01392131
v 0.00529007 -0.03178115 -0.01532131
v 0.00529007 -0.03178115 -0.01392131
v 0.00728115 -0.02979007 -0.01532131
v 0.00728115 -0.02979007 -0.01392131
v 0.00855951 -0.02728115 -0.01532131
v 0.00855951 -0.02728115 -0.01392131
f 246 245 249
f 246 249 247
f 247 249 250
f 247 250 248
f 249 245 251
f 249 251 250
f 250 251 252
f 250 252 248
f 251 245 253
f 251 253 252
f 252 253 254
f 252 254 248
f 253 245 255
f 253 255 254
f 254 255 256
f 254 256 248
f 255 245 257
f 255 257 256
f 256 257 258
f 256 258 248
f 257 245 259
f 257 259 258
f 258 259 260
f 258 260 248
f 259 245 261
f 259 261 260
f 260 261 262
f 260 262 248
f 261 245 263
f 261 263 262
f 262 263 264
f 262 264 248
f 263 245 265
f 263 265 264
f 264 265 266
f 264 266 248
f 265 245 267
f 265 267 266
f 266 267 268
f 266 268 248
f 267 245 269
f 267 269 268
f 268 269 270
f 268 270 248
f 269 245 271
f 269 271 270
f 270 271 272
f 270 272 248
f 271 245 273
f 271 273 272
f 272 273 274
f 272 274 248
f 273 245 275
f 273 275 274
f 274 275 276
f 274 276 248
f 275 245 277
f 275 277 276
f 276 277 278
f 276 278 248
f 277 245 279
f 277 279 278
f 278 279 280
f 278 280 248
f 279 245 281
f 279 281 280
f 280 281 282
f 280 282 248
f 281 245 283
f 281 283 282
f 282 283 284
f 282 284 248
f 283 245 285
f 283 285 284
f 284 285 286
f 284 286 248
f 285 245 246
f 285 246 286
f 286 246 247
f 286 247 248

o part_23
v 0.00900000 -0.02183135 -0.01532131
v 0.00900000 -0.02716865 -0.01532131
v 0.00827188 -0.02183135 -0.01412556
v 0.00827188 -0.02716865 -0.01412556
v 0.02450000 -0.01712126 0.01467869
v 0.02450000 -0.03187874 0.01467869
v 0.02325620 -0.01712126 0.01532131
v 0.02325620 -0.03187874 0.01532131
f 287 293 291
f 289 293 287
f 292 294 288
f 290 288 294
f 291 293 294
f 294 292 291
f 291 292 288
f 288 287 291
f 290 294 293
f 290 293 289
f 287 288 290
f 289 287 290

o part_24
v 0.00571256 -0.01705095 -0.01532131
v 0.00884975 -0.02136892 -0.01532131
v 0.00512350 -0.01747893 -0.01412556
v 0.00826068 -0.02179690 -0.01412556
v 0.01548380 -0.00412974 0.01467869
v 0.02415803 -0.01606879 0.01467869
v 0.01447755 -0.00486082 0.01532131
v 0.02315178 -0.01679987 0.01532131
f 295 301 299
f 297 301 295
f 300 302 296
f 298 296 302
f 299 301 302
f 300 299 302
f 296 299 300
f 296 295 299
f 298 302 301
f 298 301 297
f 295 296 298
f 297 295 298

o part_25
v 0.00024311 -0.01511583 -0.01532131
v 0.00531919 -0.01676515 -0.01532131
v 0.00001811 -0.01580832 -0.01412556
v 0.00509419 -0.01745763 -0.01412556
v 0.00055332 0.00108104 0.01467869
v 0.01458851 -0.00347927 0.01467869
v 0.00016896 -0.00010188 0.01532131
v 0.01420416 -0.00466219 0.01532131
f 308 310 304
f 303 309 307
f 305 309 303
f 306 304 310
f 307 309 310
f 308 307 310
f 303 307 308
f 308 304 303
f 306 310 309
f 306 309 305
f 306 303 304
f 305 303 306

o part_26
v -0.00531919 -0.01676515 -0.01532131
v -0.00024311 -0.01511583 -0.01532131
v -0.00509419 -0.01745763 -0.01412556
v -0.00001811 -0.01580832 -0.01412556
v -0.01458851 -0.00347927 0.01467869
v -0.00055332 0.00108104 0.01467869
v -0.01420416 -0.00466219 0.01532131
v -0.00016896 -0.00010188 0.01532131
f 311 313 317
f 311 317 315
f 316 318 312
f 312 318 314
f 318 313 314
f 317 313 318
f 318 316 315
f 315 317 318
f 314 313 312
f 313 311 312
f 315 316 312
f 312 311 315

o part_27
v -0.00884975 -0.02136892 -0.01532131
v -0.00571256 -0.01705095 -0.01532131
v -0.00826068 -0.02179690 -0.01412556
v -0.00512350 -0.01747893 -0.01412556
v -0.02415803 -0.01606879 0.01467869
v -0.01548380 -0.00412974 0.01467869
v -0.02315178 -0.01679987 0.01532131
v -0.01447755 -0.00486082 0.01532131
f 319 321 325
f 319 325 323
f 324 326 320
f 320 326 322
f 326 321 322
f 325 321 326
f 326 324 323
f 323 325 326
f 322 321 320
f 321 319 320
f 323 324 320
f 320 319 323

o part_28
v -0.00900000 -0.02716865 -0.01532131
v -0.00900000 -0.02183135 -0.01532131
v -0.00827188 -0.02716865 -0.01412556
v -0.00827188 -0.02183135 -0.01412556
v -0.02450000 -0.03187874 0.01467869
v -0.02450000 -0.01712126 0.01467869
v -0.02325620 -0.03187874 0.01532131
v -0.02325620 -0.01712126 0.01532131
f 327 333 331
f 329 333 327
f 332 334 328
f 330 328 334
f 331 333 334
f 334 332 331
f 331 332 328
f 328 327 331
f 330 334 333
f 330 333 329
f 327 328 330
f 329 327 330

o part_29
v -0.00571256 -0.03194905 -0.01532131
v -0.00884975 -0.02763108 -0.01532131
v -0.00512350 -0.03152107 -0.01412556
v -0.00826068 -0.02720310 -0.01412556
v -0.01548380 -0.04487026 0.01467869
v -0.02415803 -0.03293121 0.01467869
v -0.01447755 -0.04413918 0.01532131
v -0.02315178 -0.03220013 0.01532131
f 335 341 339
f 337 341 335
f 340 342 336
f 338 336 342
f 339 341 342
f 340 339 342
f 336 339 340
f 336 335 339
f 338 342 341
f 338 341 337
f 335 336 338
f 337 335 338

o part_30
v -0.00024311 -0.03388417 -0.01532131
v -0.00531919 -0.03223485 -0.01532131
v -0.00001811 -0.03319168 -0.01412556
v -0.00509419 -0.03154237 -0.01412556
v -0.00055332 -0.05008104 0.01467869
v -0.01458851 -0.04552073 0.01467869
v -0.00016896 -0.04889812 0.01532131
v -0.01420416 -0.04433781 0.01532131
f 348 350 344
f 343 349 347
f 345 349 343
f 346 344 350
f 347 349 350
f 348 347 350
f 343 347 348
f 348 344 343
f 346 350 349
f 346 349 345
f 346 343 344
f 345 343 346

o part_31
v 0.00531919 -0.03223485 -0.01532131
v 0.00024311 -0.03388417 -0.01532131
v 0.00509419 -0.03154237 -0.01412556
v 0.00001811 -0.03319168 -0.01412556
v 0.01458851 -0.04552073 0.01467869
v 0.00055332 -0.05008104 0.01467869
v 0.01420416 -0.04433781 0.01532131
v 0.00016896 -0.04889812 0.01532131
f 351 353 357
f 351 357 355
f 356 358 352
f 352 358 354
f 358 353 354
f 357 353 358
f 358 356 355
f 355 357 358
f 354 353 352
f 353 351 352
f 355 356 352
f 352 351 355

o part_32
v 0.00884975 -0.02763108 -0.01532131
v 0.00571256 -0.03194905 -0.01532131
v 0.00826068 -0.02720310 -0.01412556
v 0.00512350 -0.03152107 -0.01412556
v 0.02415803 -0.03293121 0.01467869
v 0.01548380 -0.04487026 0.01467869
v 0.02315178 -0.03220013 0.01532131
v 0.01447755 -0.04413918 0.01532131
f 359 361 365
f 359 365 363
f 364 366 360
f 360 366 362
f 366 361 362
f 365 361 366
f 366 364 363
f 363 365 366
f 362 361 360
f 361 359 360
f 363 364 360
f 360 359 363

o part_33
v 0.00000000 0.02450000 -0.01532131
v 0.00900000 0.02450000 -0.01532131
v 0.00900000 0.02450000 -0.01392131
v 0.00000000 0.02450000 -0.01392131
v 0.00855951 0.02728115 -0.01532131
v 0.00855951 0.02728115 -0.01392131
v 0.00728115 0.02979007 -0.01532131
v 0.00728115 0.02979007 -0.01392131
v 0.00529007 0.03178115 -0.01532131
v 0.00529007 0.03178115 -0.01392131
v 0.00278115 0.03305951 -0.01532131
v 0.00278115 0.03305951 -0.01392131
v 0.00000000 0.03350000 -0.01532131
v 0.00000000 0.03350000 -0.01392131
v -0.00278115 0.03305951 -0.01532131
v -0.00278115 0.03305951 -0.01392131
v -0.00529007 0.03178115 -0.01532131
v -0.00529007 0.03178115 -0.01392131
v -0.00728115 0.02979007 -0.01532131
v -0.00728115 0.02979007 -0.01392131
v -0.00855951 0.02728115 -0.01532131
v -0.00855951 0.02728115 -0.01392131
v -0.00900000 0.02450000 -0.01532131
v -0.00900000 0.02450000 -0.01392131
v -0.00855951 0.02171885 -0.01532131
v -0.00855951 0.02171885 -0.01392131
v -0.00728115 0.01920993 -0.01532131
v -0.00728115 0.01920993 -0.01392131
v -0.00529007 0.01721885 -0.01532131
v -0.00529007 0.01721885 -0.01392131
v -0.00278115 0.01594049 -0.01532131
v -0.00278115 0.01594049 -0.01392131
v -0.00000000 0.01550000 -0.01532131
v -0.00000000 0.01550000 -0.01392131
v 0.00278115 0.01594049 -0.01532131
v 0.00278115 0.01594049 -0.01392131
v 0.00529007 0.01721885 -0.01532131
v 0.00529007 0.01721885 -0.01392131
v 0.00728115 0.01920993 -0.01532131
v 0.00728115 0.01920993 -0.01392131
v 0.00855951 0.02171885 -0.01532131
v 0.00855951 0.02171885 -0.01392131
f 368 367 371
f 368 371 369
f 369 371 372
f 369 372 370
f 371 367 373
f 371 373 372
f 372 373 374
f 372 374 370
f 373 367 375
f 373 375 374
f 374 375 376
f 374 376 370
f 375 367 377
f 375 377 376
f 376 377 378
f 376 378 370
f 377 367 379
f 377 379 378
f 378 379 380
f 378 380 370
f 379 367 381
f 379 381 380
f 380 381 382
f 380 382 370
f 381 367 383
f 381 383 382
f 382 383 384
f 382 384 370
f 383 367 385
f 383 385 384
f 384 385 386
f 384 386 370
f 385 367 387
f 385 387 386
f 386 387 388
f 386 388 370
f 387 367 389
f 387 389 388
f 388 389 390
f 388 390 370
f 389 367 391
f 389 391 390
f 390 391 392
f 390 392 370
f 391 367 393
f 391 393 392
f 392 393 394
f 392 394 370
f 393 367 395
f 393 395 394
f 394 395 396
f 394 396 370
f 395 367 397
f 395 397 396
f 396 397 398
f 396 398 370
f 397 367 399
f 397 399 398
f 398 399 400
f 398 400 370
f 399 367 401
f 399 401 400
f 400 401 402
f 400 402 370
f 401 367 403
f 401 403 402
f 402 403 404
f 402 404 370
f 403 367 405
f 403 405 404
f 404 405 406
f 404 406 370
f 405 367 407
f 405 407 406
f 406 407 408
f 406 408 370
f 407 367 368
f 407 368 408
f 408 368 369
f 408 369 370

o part_34
v 0.00900000 0.02716865 -0.01532131
v 0.00900000 0.02183135 -0.01532131
v 0.00827188 0.02716865 -0.01412556
v 0.00827188 0.02183135 -0.01412556
v 0.02450000 0.03187874 0.01467869
v 0.02450000 0.01712126 0.01467869
v 0.02325620 0.03187874 0.01532131
v 0.02325620 0.01712126 0.01532131
f 409 415 413
f 411 415 409
f 414 416 410
f 412 410 416
f 413 415 416
f 416 414 413
f 413 414 410
f 410 409 413
f 412 416 415
f 412 415 411
f 409 410 412
f 411 409 412

o part_35
v 0.00571256 0.03194905 -0.01532131
v 0.00884975 0.02763108 -0.01532131
v 0.00512350 0.03152107 -0.01412556
v 0.00826068 0.02720310 -0.01412556
v 0.01548380 0.04487026 0.01467869
v 0.02415803 0.03293121 0.01467869
v 0.01447755 0.04413918 0.01532131
v 0.02315178 0.03220013 0.01532131
f 417 423 421
f 419 423 417
f 422 424 418
f 420 418 424
f 421 423 424
f 422 421 424
f 418 421 422
f 418 417 421
f 420 424 423
f 420 423 419
f 417 418 420
f 419 417 420

o part_36
v 0.00024311 0.03388417 -0.01532131
v 0.00531919 0.03223485 -0.01532131
v 0.00001811 0.03319168 -0.01412556
v 0.00509419 0.03154237 -0.01412556
v 0.00055332 0.05008104 0.01467869
v 0.01458851 0.04552073 0.01467869
v 0.00016896 0.04889812 0.01532131
v 0.01420416 0.04433781 0.01532131
f 430 432 426
f 425 431 429
f 427 431 425
f 428 426 432
f 429 431 432
f 430 429 432
f 425 429 430
f 430 426 425
f 428 432 431
f 428 431 427
f 428 425 426
f 427 425 428

o part_37
v -0.00531919 0.03223485 -0.01532131
v -0.00024311 0.03388417 -0.01532131
v -0.00509419 0.03154237 -0.01412556
v -0.00001811 0.03319168 -0.01412556
v -0.01458851 0.04552073 0.01467869
v -0.00055332 0.05008104 0.01467869
v -0.01420416 0.04433781 0.01532131
v -0.00016896 0.04889812 0.01532131
f 433 435 439
f 433 439 437
f 438 440 434
f 434 440 436
f 440 435 436
f 439 435 440
f 440 438 437
f 437 439 440
f 436 435 434
f 435 433 434
f 437 438 434
f 434 433 437

o part_38
v -0.00884975 0.02763108 -0.01532131
v -0.00571256 0.03194905 -0.01532131
v -0.00826068 0.02720310 -0.01412556
v -0.00512350 0.03152107 -0.01412556
v -0.02415803 0.03293121 0.01467869
v -0.01548380 0.04487026 0.01467869
v -0.02315178 0.03220013 0.01532131
v -0.01447755 0.04413918 0.01532131
f 441 443 447
f 441 447 445
f 446 448 442
f 442 448 444
f 448 443 444
f 447 443 448
f 448 446 445
f 445 447 448
f 444 443 442
f 443 441 442
f 445 446 442
f 442 441 445

o part_39
v -0.00900000 0.02183135 -0.01532131
v -0.00900000 0.02716865 -0.01532131
v -0.00827188 0.02183135 -0.01412556
v -0.00827188 0.02716865 -0.01412556
v -0.02450000 0.01712126 0.01467869
v -0.02450000 0.03187874 0.01467869
v -0.02325620 0.01712126 0.01532131
v -0.02325620 0.03187874 0.01532131
f 449 455 453
f 451 455 449
f 454 456 450
f 452 450 456
f 453 455 456
f 456 454 453
f 453 454 450
f 450 449 453
f 452 456 455
f 452 455 451
f 449 450 452
f 451 449 452

o part_40
v -0.00571256 0.01705095 -0.01532131
v -0.00884975 0.02136892 -0.01532131
v -0.00512350 0.01747893 -0.01412556
v -0.00826068 0.02179690 -0.01412556
v -0.01548380 0.00412974 0.01467869
v -0.02415803 0.01606879 0.01467869
v -0.01447755 0.00486082 0.01532131
v -0.02315178 0.01679987 0.01532131
f 457 463 461
f 459 463 457
f 462 464 458
f 460 458 464
f 461 463 464
f 462 461 464
f 458 461 462
f 458 457 461
f 460 464 463
f 460 463 459
f 457 458 460
f 459 457 460

o part_41
v -0.00024311 0.01511583 -0.01532131
v -0.00531919 0.01676515 -0.01532131
v -0.00001811 0.01580832 -0.01412556
v -0.00509419 0.01745763 -0.01412556
v -0.00055332 -0.00108104 0.01467869
v -0.01458851 0.00347927 0.01467869
v -0.00016896 0.00010188 0.01532131
v -0.01420416 0.00466219 0.01532131
f 470 472 466
f 465 471 469
f 467 471 465
f 468 466 472
f 469 471 472
f 470 469 472
f 465 469 470
f 470 466 465
f 468 472 471
f 468 471 467
f 468 465 466
f 467 465 468

o part_42
v 0.00531919 0.01676515 -0.01532131
v 0.00024311 0.01511583 -0.01532131
v 0.00509419 0.01745763 -0.01412556
v 0.00001811 0.01580832 -0.01412556
v 0.01458851 0.00347927 0.01467869
v 0.00055332 -0.00108104 0.01467869
v 0.01420416 0.00466219 0.01532131
v 0.00016896 0.00010188 0.01532131
f 473 475 479
f 473 479 477
f 478 480 474
f 474 480 476
f 480 475 476
f 479 475 480
f 480 478 477
f 477 479 480
f 476 475 474
f 475 473 474
f 477 478 474
f 474 473 477

o part_43
v 0.00884975 0.02136892 -0.01532131
v 0.00571256 0.01705095 -0.01532131
v 0.00826068 0.02179690 -0.01412556
v 0.00512350 0.01747893 -0.01412556
v 0.02415803 0.01606879 0.01467869
v 0.01548380 0.00412974 0.01467869
v 0.02315178 0.01679987 0.01532131
v 0.01447755 0.00486082 0.01532131
f 481 483 487
f 481 487 485
f 486 488 482
f 482 488 484
f 488 483 484
f 487 483 488
f 488 486 485
f 485 487 488
f 484 483 482
f 483 481 482
f 485 486 482
f 482 481 485

o part_44
v 0.04900000 -0.02450000 -0.01532131
v 0.05800000 -0.02450000 -0.01532131
v 0.05800000 -0.02450000 -0.01392131
v 0.04900000 -0.02450000 -0.01392131
v 0.05755951 -0.02171885 -0.01532131
v 0.05755951 -0.02171885 -0.01392131
v 0.05628115 -0.01920993 -0.01532131
v 0.05628115 -0.01920993 -0.01392131
v 0.05429007 -0.01721885 -0.01532131
v 0.05429007 -0.01721885 -0.01392131
v 0.05178115 -0.01594049 -0.01532131
v 0.05178115 -0.01594049 -0.01392131
v 0.04900000 -0.01550000 -0.01532131
v 0.04900000 -0.01550000 -0.01392131
v 0.04621885 -0.01594049 -0.01532131
v 0.04621885 -0.01594049 -0.01392131
v 0.04370993 -0.01721885 -0.01532131
v 0.04370993 -0.01721885 -0.01392131
v 0.04171885 -0.01920993 -0.01532131
v 0.04171885 -0.01920993 -0.01392131
v 0.04044049 -0.02171885 -0.01532131
v 0.04044049 -0.02171885 -0.01392131
v 0.04000000 -0.02450000 -0.01532131
v 0.04000000 -0.02450000 -0.01392131
v 0.04044049 -0.02728115 -0.01532131
v 0.04044049 -0.02728115 -0.01392131
v 0.04171885 -0.02979007 -0.01532131
v 0.04171885 -0.02979007 -0.01392131
v 0.04370993 -0.03178115 -0.01532131
v 0.04370993 -0.03178115 -0.01392131
v 0.04621885 -0.03305951 -0.01532131
v 0.04621885 -0.03305951 -0.01392131
v 0.04900000 -0.03350000 -0.01532131
v 0.04900000 -0.03350000 -0.01392131
v 0.05178115 -0.03305951 -0.01532131
v 0.05178115 -0.03305951 -0.01392131
v 0.05429007 -0.03178115 -0.01532131
v 0.05429007 -0.03178115 -0.01392131
v 0.05628115 -0.02979007 -0.01532131
v 0.05628115 -0.02979007 -0.01392131
v 0.05755951 -0.02728115 -0.01532131
v 0.05755951 -0.02728115 -0.01392131
f 490 489 493
f 490 493 491
f 491 493 494
f 491 494 492
f 493 489 495
f 493 495 494
f 494 495 496
f 494 496 492
f 495 489 497
f 495 497 496
f 496 497 498
f 496 498 492
f 497 489 499
f 497 499 498
f 498 499 500
f 498 500 492
f 499 489 501
f 499 501 500
f 500 501 502
f 500 502 492
f 501 489 503
f 501 503 502
f 502 503 504
f 502 504 492
f 503 489 505
f 503 505 504
f 504 505 506
f 504 506 492
f 505 489 507
f 505 507 506
f 506 507 508
f 506 508 492
f 507 489 509
f 507 509 508
f 508 509 510
f 508 510 492
f 509 489 511
f 509 511 510
f 510 511 512
f 510 512 492
f 511 489 513
f 511 513 512
f 512 513 514
f 512 514 492
f 513 489 515
f 513 515 514
f 514 515 516
f 514 516 492
f 515 489 517
f 515 517 516
f 516 517 518
f 516 518 492
f 517 489 519
f 517 519 518
f 518 519 520
f 518 520 492
f 519 489 521
f 519 521 520
f 520 521 522
f 520 522 492
f 521 489 523
f 521 523 522
f 522 523 524
f 522 524 492
f 523 489 525
f 523 525 524
f 524 525 526
f 524 526 492
f 525 489 527
f 525 527 526
f 526 527 528
f 526 528 492
f 527 489 529
f 527 529 528
f 528 529 530
f 528 530 492
f 529 489 490
f 529 490 530
f 530 490 491
f 530 491 492

o part_45
v 0.05800000 -0.02183135 -0.01532131
v 0.05800000 -0.02716865 -0.01532131
v 0.05727188 -0.02183135 -0.01412556
v 0.05727188 -0.02716865 -0.01412556
v 0.07350000 -0.01712126 0.01467869
v 0.07350000 -0.03187874 0.01467869
v 0.07225620 -0.01712126 0.01532131
v 0.07225620 -0.03187874 0.01532131
f 531 537 535
f 533 537 531
f 536 538 532
f 534 532 538
f 535 537 538
f 538 536 535
f 535 536 532
f 532 531 535
f 534 538 537
f 534 537 533
f 531 532 534
f 533 531 534

o part_46
v 0.05471256 -0.01705095 -0.01532131
v 0.05784975 -0.02136892 -0.01532131
v 0.05412350 -0.01747893 -0.01412556
v 0.05726068 -0.02179690 -0.01412556
v 0.06448380 -0.00412974 0.01467869
v 0.07315803 -0.01606879 0.01467869
v 0.06347755 -0.00486082 0.01532131
v 0.07215178 -0.01679987 0.01532131
f 539 545 543
f 541 545 539
f 544 546 540
f 542 540 546
f 543 545 546
f 544 543 546
f 540 543 544
f 540 539 543
f 542 546 545
f 542 545 541
f 539 540 542
f 541 539 542

o part_47
v 0.04924311 -0.01511583 -0.01532131
v 0.05431919 -0.01676515 -0.01532131
v 0.04901811 -0.01580832 -0.01412556
v 0.05409419 -0.01745763 -0.01412556
v 0.04955332 0.00108104 0.01467869
v 0.06358851 -0.00347927 0.01467869
v 0.04916896 -0.00010188 0.01532131
v 0.06320416 -0.00466219 0.01532131
f 552 554 548
f 547 553 551
f 549 553 547
f 550 548 554
f 551 553 554
f 552 551 554
f 547 551 552
f 552 548 547
f 550 554 553
f 550 553 549
f 550 547 548
f 549 547 550

o part_48
v 0.04368081 -0.01676515 -0.01532131
v 0.04875689 -0.01511583 -0.01532131
v 0.04390581 -0.01745763 -0.01412556
v 0.04898189 -0.01580832 -0.01412556
v 0.03441149 -0.00347927 0.01467869
v 0.04844668 0.00108104 0.01467869
v 0.03479584 -0.00466219 0.01532131
v 0.04883104 -0.00010188 0.01532131
f 555 557 561
f 555 561 559
f 560 562 556
f 556 562 558
f 562 557 558
f 561 557 562
f 562 560 559
f 559 561 562
f 558 557 556
f 557 555 556
f 559 560 556
f 556 555 559

o part_49
v 0.04015025 -0.02136892 -0.01532131
v 0.04328744 -0.01705095 -0.01532131
v 0.04073932 -0.02179690 -0.01412556
v 0.04387650 -0.01747893 -0.01412556
v 0.02484197 -0.01606879 0.01467869
v 0.03351620 -0.00412974 0.01467869
v 0.02584822 -0.01679987 0.01532131
v 0.03452245 -0.00486082 0.01532131
f 563 565 569
f 563 569 567
f 568 570 564
f 564 570 566
f 570 565 566
f 569 565 570
f 570 568 567
f 567 569 570
f 566 565 564
f 565 563 564
f 567 568 564
f 564 563 567

o part_50
v 0.04000000 -0.02716865 -0.01532131
v 0.04000000 -0.02183135 -0.01532131
v 0.04072812 -0.02716865 -0.01412556
v 0.04072812 -0.02183135 -0.01412556
v 0.02450000 -0.03187874 0.01467869
v 0.02450000 -0.01712126 0.01467869
v 0.02574380 -0.03187874 0.01532131
v 0.02574380 -0.01712126 0.01532131
f 571 577 575
f 573 577 571
f 576 578 572
f 574 572 578
f 575 577 578
f 578 576 575
f 575 576 572
f 572 571 575
f 574 578 577
f 574 577 573
f 571 572 574
f 573 571 574

o part_51
v 0.04328744 -0.03194905 -0.01532131
v 0.04015025 -0.02763108 -0.01532131
v 0.04387650 -0.03152107 -0.01412556
v 0.04073932 -0.02720310 -0.01412556
v 0.03351620 -0.04487026 0.01467869
v 0.02484197 -0.03293121 0.01467869
v 0.03452245 -0.04413918 0.01532131
v 0.02584822 -0.03220013 0.01532131
f 579 585 583
f 581 585 579
f 584 586 580
f 582 580 586
f 583 585 586
f 584 583 586
f 580 583 584
f 580 579 583
f 582 586 585
f 582 585 581
f 579 580 582
f 581 579 582

o part_52
v 0.04875689 -0.03388417 -0.01532131
v 0.04368081 -0.03223485 -0.01532131
v 0.04898189 -0.03319168 -0.01412556
v 0.04390581 -0.03154237 -0.01412556
v 0.04844668 -0.05008104 0.01467869
v 0.03441149 -0.04552073 0.01467869
v 0.04883104 -0.04889812 0.01532131
v 0.03479584 -0.04433781 0.01532131
f 592 594 588
f 587 593 591
f 589 593 587
f 590 588 594
f 591 593 594
f 592 591 594
f 587 591 592
f 592 588 587
f 590 594 593
f 590 593 589
f 590 587 588
f 589 587 590

o part_53
v 0.05431919 -0.03223485 -0.01532131
v 0.04924311 -0.03388417 -0.01532131
v 0.05409419 -0.03154237 -0.01412556
v 0.04901811 -0.03319168 -0.01412556
v 0.06358851 -0.04552073 0.01467869
v 0.04955332 -0.05008104 0.01467869
v 0.06320416 -0.04433781 0.01532131
v 0.04916896 -0.04889812 0.01532131
f 595 597 601
f 595 601 599
f 600 602 596
f 596 602 598
f 602 597 598
f 601 597 602
f 602 600 599
f 599 601 602
f 598 597 596
f 597 595 596
f 599 600 596
f 596 595 599

o part_54
v 0.05784975 -0.02763108 -0.01532131
v 0.05471256 -0.03194905 -0.01532131
v 0.05726068 -0.02720310 -0.01412556
v 0.05412350 -0.03152107 -0.01412556
v 0.07315803 -0.03293121 0.01467869
v 0.06448380 -0.04487026 0.01467869
v 0.07215178 -0.03220013 0.01532131
v 0.06347755 -0.04413918 0.01532131
f 603 605 609
f 603 609 607
f 608 610 604
f 604 610 606
f 610 605 606
f 609 605 610
f 610 608 607
f 607 609 610
f 606 605 604
f 605 603 604
f 607 608 604
f 604 603 607

o part_55
v 0.04900000 0.02450000 -0.01532131
v 0.05800000 0.02450000 -0.01532131
v 0.05800000 0.02450000 -0.01392131
v 0.04900000 0.02450000 -0.01392131
v 0.05755951 0.02728115 -0.01532131
v 0.05755951 0.02728115 -0.01392131
v 0.05628115 0.02979007 -0.01532131
v 0.05628115 0.02979007 -0.01392131
v 0.05429007 0.03178115 -0.01532131
v 0.05429007 0.03178115 -0.01392131
v 0.05178115 0.03305951 -0.01532131
v 0.05178115 0.03305951 -0.01392131
v 0.04900000 0.03350000 -0.01532131
v 0.04900000 0.03350000 -0.01392131
v 0.04621885 0.03305951 -0.01532131
v 0.04621885 0.03305951 -0.01392131
v 0.04370993 0.03178115 -0.01532131
v 0.04370993 0.03178115 -0.01392131
v 0.04171885 0.02979007 -0.01532131
v 0.04171885 0.02979007 -0.01392131
v 0.04044049 0.02728115 -0.01532131
v 0.04044049 0.02728115 -0.01392131
v 0.04000000 0.02450000 -0.01532131
v 0.04000000 0.02450000 -0.01392131
v 0.04044049 0.02171885 -0.01532131
v 0.04044049 0.02171885 -0.01392131
v 0.04171885 0.01920993 -0.01532131
v 0.04171885 0.01920993 -0.01392131
v 0.04370993 0.01721885 -0.01532131
v 0.04370993 0.01721885 -0.01392131
v 0.04621885 0.01594049 -0.01532131
v 0.04621885 0.01594049 -0.01392131
v 0.04900000 0.01550000 -0.01532131
v 0.04900000 0.01550000 -0.01392131
v 0.05178115 0.01594049 -0.01532131
v 0.05178115 0.01594049 -0.01392131
v 0.05429007 0.01721885 -0.01532131
v 0.05429007 0.01721885 -0.01392131
v 0.05628115 0.01920993 -0.01532131
v 0.05628115 0.01920993 -0.01392131
v 0.05755951 0.02171885 -0.01532131
v 0.05755951 0.02171885 -0.01392131
f 612 611 615
f 612 615 613
f 613 615 616
f 613 616 614
f 615 611 617
f 615 617 616
f 616 617 618
f 616 618 614
f 617 611 619
f 617 619 618
f 618 619 620
f 618 620 614
f 619 611 621
f 619 621 620
f 620 621 622
f 620 622 614
f 621 611 623
f 621 623 622
f 622 623 624
f 622 624 614
f 623 611 625
f 623 625 624
f 624 625 626
f 624 626 614
f 625 611 627
f 625 627 626
f 626 627 628
f 626 628 614
f 627 611 629
f 627 629 628
f 628 629 630
f 628 630 614
f 629 611 631
f 629 631 630
f 630 631 632
f 630 632 614
f 631 611 633
f 631 633 632
f 632 633 634
f 632 634 614
f 633 611 635
f 633 635 634
f 634 635 636
f 634 636 614
f 635 611 637
f 635 637 636
f 636 637 638
f 636 638 614
f 637 611 639
f 637 639 638
f 638 639 640
f 638 640 614
f 639 611 641
f 639 641 640
f 640 641 642
f 640 642 614
f 641 611 643
f 641 643 642
f 642 643 644
f 642 644 614
f 643 611 645
f 643 645 644
f 644 645 646
f 644 646 614
f 645 611 647
f 645 647 646
f 646 647 648
f 646 648 614
f 647 611 649
f 647 649 648
f 648 649 650
f 648 650 614
f 649 611 651
f 649 651 650
f 650 651 652
f 650 652 614
f 651 611 612
f 651 612 652
f 652 612 613
f 652 613 614

o part_56
v 0.05800000 0.02716865 -0.01532131
v 0.05800000 0.02183135 -0.01532131
v 0.05727188 0.02716865 -0.01412556
v 0.05727188 0.02183135 -0.01412556
v 0.07350000 0.03187874 0.01467869
v 0.07350000 0.01712126 0.01467869
v 0.07225620 0.03187874 0.01532131
v 0.07225620 0.01712126 0.01532131
f 653 659 657
f 655 659 653
f 658 660 654
f 656 654 660
f 657 659 660
f 660 658 657
f 657 658 654
f 654 653 657
f 656 660 659
f 656 659 655
f 653 654 656
f 655 653 656

o part_57
v 0.05471256 0.03194905 -0.01532131
v 0.05784975 0.02763108 -0.01532131
v 0.05412350 0.03152107 -0.01412556
v 0.05726068 0.02720310 -0.01412556
v 0.06448380 0.04487026 0.01467869
v 0.07315803 0.03293121 0.01467869
v 0.06347755 0.04413918 0.01532131
v 0.07215178 0.03220013 0.01532131
f 661 667 665
f 663 667 661
f 666 668 662
f 664 662 668
f 665 667 668
f 666 665 668
f 662 665 666
f 662 661 665
f 664 668 667
f 664 667 663
f 661 662 664
f 663 661 664

o part_58
v 0.04924311 0.03388417 -0.01532131
v 0.05431919 0.03223485 -0.01532131
v 0.04901811 0.03319168 -0.01412556
v 0.05409419 0.03154237 -0.01412556
v 0.04955332 0.05008104 0.01467869
v 0.06358851 0.04552073 0.01467869
v 0.04916896 0.04889812 0.01532131
v 0.06320416 0.04433781 0.01532131
f 674 676 670
f 669 675 673
f 671 675 669
f 672 670 676
f 673 675 676
f 674 673 676
f 669 673 674
f 674 670 669
f 672 676 675
f 672 675 671
f 672 669 670
f 671 669 672

o part_59
v 0.04368081 0.03223485 -0.01532131
v 0.04875689 0.03388417 -0.01532131
v 0.04390581 0.03154237 -0.01412556
v 0.04898189 0.03319168 -0.01412556
v 0.03441149 0.04552073 0.01467869
v 0.04844668 0.05008104 0.01467869
v 0.03479584 0.04433781 0.01532131
v 0.04883104 0.04889812 0.01532131
f 677 679 683
f 677 683 681
f 682 684 678
f 678 684 680
f 684 679 680
f 683 679 684
f 684 682 681
f 681 683 684
f 680 679 678
f 679 677 678
f 681 682 678
f 678 677 681

o part_60
v 0.04015025 0.02763108 -0.01532131
v 0.04328744 0.03194905 -0.01532131
v 0.04073932 0.02720310 -0.01412556
v 0.04387650 0.03152107 -0.01412556
v 0.02484197 0.03293121 0.01467869
v 0.03351620 0.04487026 0.01467869
v 0.02584822 0.03220013 0.01532131
v 0.03452245 0.04413918 0.01532131
f 685 687 691
f 685 691 689
f 690 692 686
f 686 692 688
f 692 687 688
f 691 687 692
f 692 690 689
f 689 691 692
f 688 687 686
f 687 685 686
f 689 690 686
f 686 685 689

o part_61
v 0.04000000 0.02183135 -0.01532131
v 0.04000000 0.02716865 -0.01532131
v 0.04072812 0.02183135 -0.01412556
v 0.04072812 0.02716865 -0.01412556
v 0.02450000 0.01712126 0.01467869
v 0.02450000 0.03187874 0.01467869
v 0.02574380 0.01712126 0.01532131
v 0.02574380 0.03187874 0.01532131
f 693 699 697
f 695 699 693
f 698 700 694
f 696 694 700
f 697 699 700
f 700 698 697
f 697 698 694
f 694 693 697
f 696 700 699
f 696 699 695
f 693 694 696
f 695 693 696

o part_62
v 0.04328744 0.01705095 -0.01532131
v 0.04015025 0.02136892 -0.01532131
v 0.04387650 0.01747893 -0.01412556
v 0.04073932 0.02179690 -0.01412556
v 0.03351620 0.00412974 0.01467869
v 0.02484197 0.01606879 0.01467869
v 0.03452245 0.00486082 0.01532131
v 0.02584822 0.01679987 0.01532131
f 701 707 705
f 703 707 701
f 706 708 702
f 704 702 708
f 705 707 708
f 706 705 708
f 702 705 706
f 702 701 705
f 704 708 707
f 704 707 703
f 701 702 704
f 703 701 704

o part_63
v 0.04875689 0.01511583 -0.01532131
v 0.04368081 0.01676515 -0.01532131
v 0.04898189 0.01580832 -0.01412556
v 0.04390581 0.01745763 -0.01412556
v 0.04844668 -0.00108104 0.01467869
v 0.03441149 0.00347927 0.01467869
v 0.04883104 0.00010188 0.01532131
v 0.03479584 0.00466219 0.01532131
f 714 716 710
f 709 715 713
f 711 715 709
f 712 710 716
f 713 715 716
f 714 713 716
f 709 713 714
f 714 710 709
f 712 716 715
f 712 715 711
f 712 709 710
f 711 709 712

o part_64
v 0.05431919 0.01676515 -0.01532131
v 0.04924311 0.01511583 -0.01532131
v 0.05409419 0.01745763 -0.01412556
v 0.04901811 0.01580832 -0.01412556
v 0.06358851 0.00347927 0.01467869
v 0.04955332 -0.00108104 0.01467869
v 0.06320416 0.00466219 0.01532131
v 0.04916896 0.00010188 0.01532131
f 717 719 723
f 717 723 721
f 722 724 718
f 718 724 720
f 724 719 720
f 723 719 724
f 724 722 721
f 721 723 724
f 720 719 718
f 719 717 718
f 721 722 718
f 718 717 721

o part_65
v 0.05784975 0.02136892 -0.01532131
v 0.05471256 0.01705095 -0.01532131
v 0.05726068 0.02179690 -0.01412556
v 0.05412350 0.01747893 -0.01412556
v 0.07315803 0.01606879 0.01467869
v 0.06448380 0.00412974 0.01467869
v 0.07215178 0.01679987 0.01532131
v 0.06347755 0.00486082 0.01532131
f 725 727 731
f 725 731 729
f 730 732 726
f 726 732 728
f 732 727 728
f 731 727 732
f 732 730 729
f 729 731 732
f 728 727 726
f 727 725 726
f 729 730 726
f 726 725 729

o part_66
v -0.07500000 -0.05000000 0.00667869
v -0.07500000 -0.05000000 0.01467869
v -0.07500000 -0.04860000 0.00667869
v -0.07500000 -0.04860000 0.01467869
v 0.07500000 -0.05000000 0.00667869
v 0.07500000 -0.05000000 0.01467869
v 0.07500000 -0.04860000 0.00667869
v 0.07500000 -0.04860000 0.01467869
f 734 736 733
f 737 734 733
f 733 736 735
f 735 737 733
f 734 740 736
f 738 734 737
f 738 740 734
f 736 740 735
f 739 737 735
f 735 740 739
f 739 738 737
f 740 738 739

o part_67
v -0.07500000 0.04860000 0.00667869
v -0.07500000 0.04860000 0.01467869
v -0.07500000 0.05000000 0.00667869
v -0.07500000 0.05000000 0.01467869
v 0.07500000 0.04860000 0.00667869
v 0.07500000 0.04860000 0.01467869
v 0.07500000 0.05000000 0.00667869
v 0.07500000 0.05000000 0.01467869
f 742 744 741
f 745 742 741
f 741 744 743
f 743 745 741
f 742 748 744
f 746 742 745
f 746 748 742
f 744 748 743
f 747 745 743
f 743 748 747
f 747 746 745
f 748 746 747

o part_68
v -0.07500000 -0.04900000 0.00667869
v -0.07500000 -0.04900000 0.01467869
v -0.07500000 0.04900000 0.00667869
v -0.07500000 0.04900000 0.01467869
v -0.07360000 -0.04900000 0.00667869
v -0.07360000 -0.04900000 0.01467869
v -0.07360000 0.04900000 0.00667869
v -0.07360000 0.04900000 0.01467869
f 750 752 749
f 753 750 749
f 749 752 751
f 751 753 749
f 750 756 752
f 754 750 753
f 754 756 750
f 752 756 751
f 755 753 751
f 751 756 755
f 755 754 753
f 756 754 755

o part_69
v 0.07360000 -0.04900000 0.00667869
v 0.07360000 -0.04900000 0.01467869
v 0.07360000 0.04900000 0.00667869
v 0.07360000 0.04900000 0.01467869
v 0.07500000 -0.04900000 0.00667869
v 0.07500000 -0.04900000 0.01467869
v 0.07500000 0.04900000 0.00667869
v 0.07500000 0.04900000 0.01467869
f 758 760 757
f 761 758 757
f 757 760 759
f 759 761 757
f 758 764 760
f 762 758 761
f 762 764 758
f 760 764 759
f 763 761 759
f 759 764 763
f 763 762 761
f 764 762 763

