v 0.00000000 0.00000000 -0.01730000
v 0.01525000 0.00000000 -0.01730000
v 0.02285000 0.00000000 0.01570000
v 0.02405000 0.00000000 0.01650000
v 0.02345000 0.00000000 0.01730000
v 0.02225000 0.00000000 0.01690000
v 0.02245000 0.00000000 0.01570000
v 0.01485000 0.00000000 -0.01690000
v 0.00000000 0.00000000 -0.01690000
v 0.01517657 0.00149476 -0.01730000
v 0.02273997 0.00223969 0.01570000
v 0.02393419 0.00235731 0.01650000
v 0.02333708 0.00229850 0.01730000
v 0.02214286 0.00218088 0.01690000
v 0.02234190 0.00220048 0.01570000
v 0.01477849 0.00145555 -0.01690000
v 0.01495698 0.00297513 -0.01730000
v 0.02241094 0.00445781 0.01570000
v 0.02358789 0.00469192 0.01650000
v 0.02299941 0.00457487 0.01730000
v 0.02182247 0.00434076 0.01690000
v 0.02201863 0.00437978 0.01570000
v 0.01456466 0.00289709 -0.01690000
v 0.01459334 0.00442684 -0.01730000
v 0.02186609 0.00663300 0.01570000
v 0.02301442 0.00698135 0.01650000
v 0.02244025 0.00680718 0.01730000
v 0.02129192 0.00645883 0.01690000
v 0.02148331 0.00651689 0.01570000
v 0.01421056 0.00431073 -0.01690000
v 0.01408916 0.00583592 -0.01730000
v 0.02111065 0.00874432 0.01570000
v 0.02221930 0.00920354 0.01650000
v 0.02166498 0.00897393 0.01730000
v 0.02055632 0.00851471 0.01690000
v 0.02074110 0.00859124 0.01570000
v 0.01371961 0.00568285 -0.01690000
v 0.01344930 0.00718880 -0.01730000
v 0.02015190 0.01077142 0.01570000
v 0.02121021 0.01133709 0.01650000
v 0.02068105 0.01105425 0.01730000
v 0.01962275 0.01048858 0.01690000
v 0.01979913 0.01058286 0.01570000
v 0.01309653 0.00700024 -0.01690000
v 0.01267991 0.00847245 -0.01730000
v 0.01899908 0.01269478 0.01570000
v 0.01999684 0.01336146 0.01650000
v 0.01949796 0.01302812 0.01730000
v 0.01850020 0.01236144 0.01690000
v 0.01866649 0.01247255 0.01570000
v 0.01234732 0.00825022 -0.01690000
v 0.01178841 0.00967450 -0.01730000
v 0.01766329 0.01449589 0.01570000
v 0.01859090 0.01525716 0.01650000
v 0.01812710 0.01487652 0.01730000
v 0.01719948 0.01411525 0.01690000
v 0.01735408 0.01424213 0.01570000
v 0.01147921 0.00942074 -0.01690000
v 0.01078338 0.01078338 -0.01730000
v 0.01615739 0.01615739 0.01570000
v 0.01700592 0.01700592 0.01650000
v 0.01658165 0.01658165 0.01730000
v 0.01573313 0.01573313 0.01690000
v 0.01587455 0.01587455 0.01570000
v 0.01050054 0.01050054 -0.01690000
v 0.00967450 0.01178841 -0.01730000
v 0.01449589 0.01766329 0.01570000
v 0.01525716 0.01859090 0.01650000
v 0.01487652 0.01812710 0.01730000
v 0.01411525 0.01719948 0.01690000
v 0.01424213 0.01735408 0.01570000
v 0.00942074 0.01147921 -0.01690000
v 0.00847245 0.01267991 -0.01730000
v 0.01269478 0.01899908 0.01570000
v 0.01336146 0.01999684 0.01650000
v 0.01302812 0.01949796 0.01730000
v 0.01236144 0.01850020 0.01690000
v 0.01247255 0.01866649 0.01570000
v 0.00825022 0.01234732 -0.01690000
v 0.00718880 0.01344930 -0.01730000
v 0.01077142 0.02015190 0.01570000
v 0.01133709 0.02121021 0.01650000
v 0.01105425 0.02068105 0.01730000
v 0.01048858 0.01962275 0.01690000
v 0.01058286 0.01979913 0.01570000
v 0.00700024 0.01309653 -0.01690000
v 0.00583592 0.01408916 -0.01730000
v 0.00874432 0.02111065 0.01570000
v 0.00920354 0.02221930 0.01650000
v 0.00897393 0.02166498 0.01730000
v 0.00851471 0.02055632 0.01690000
v 0.00859124 0.02074110 0.01570000
v 0.00568285 0.01371961 -0.01690000
v 0.00442684 0.01459334 -0.01730000
v 0.00663300 0.02186609 0.01570000
v 0.00698135 0.02301442 0.01650000
v 0.00680718 0.02244025 0.01730000
v 0.00645883 0.02129192 0.01690000
v 0.00651689 0.02148331 0.01570000
v 0.00431073 0.01421056 -0.01690000
v 0.00297513 0.01495698 -0.01730000
v 0.00445781 0.02241094 0.01570000
v 0.00469192 0.02358789 0.01650000
v 0.00457487 0.02299941 0.01730000
v 0.00434076 0.02182247 0.01690000
v 0.00437978 0.02201863 0.01570000
v 0.00289709 0.01456466 -0.01690000
v 0.00149476 0.01517657 -0.01730000
v 0.00223969 0.02273997 0.01570000
v 0.00235731 0.02393419 0.01650000
v 0.00229850 0.02333708 0.01730000
v 0.00218088 0.02214286 0.01690000
v 0.00220048 0.02234190 0.01570000
v 0.00145555 0.01477849 -0.01690000
v 0.00000000 0.01525000 -0.01730000
v 0.00000000 0.02285000 0.01570000
v 0.00000000 0.02405000 0.01650000
v 0.00000000 0.02345000 0.01730000
v 0.00000000 0.02225000 0.01690000
v 0.00000000 0.02245000 0.01570000
v 0.00000000 0.01485000 -0.01690000
v -0.00149476 0.01517657 -0.01730000
v -0.00223969 0.02273997 0.01570000
v -0.00235731 0.02393419 0.01650000
v -0.00229850 0.02333708 0.01730000
v -0.00218088 0.02214286 0.01690000
v -0.00220048 0.02234190 0.01570000
v -0.00145555 0.01477849 -0.01690000
v -0.00297513 0.01495698 -0.01730000
v -0.00445781 0.02241094 0.01570000
v -0.00469192 0.02358789 0.01650000
v -0.00457487 0.02299941 0.01730000
v -0.00434076 0.02182247 0.01690000
v -0.00437978 0.02201863 0.01570000
v -0.00289709 0.01456466 -0.01690000
v -0.00442684 0.01459334 -0.01730000
v -0.00663300 0.02186609 0.01570000
v -0.00698135 0.02301442 0.01650000
v -0.00680718 0.02244025 0.01730000
v -0.00645883 0.02129192 0.01690000
v -0.00651689 0.02148331 0.01570000
v -0.00431073 0.01421056 -0.01690000
v -0.00583592 0.01408916 -0.01730000
v -0.00874432 0.02111065 0.01570000
v -0.00920354 0.02221930 0.01650000
v -0.00897393 0.02166498 0.01730000
v -0.00851471 0.02055632 0.01690000
v -0.00859124 0.02074110 0.01570000
v -0.00568285 0.01371961 -0.01690000
v -0.00718880 0.01344930 -0.01730000
v -0.01077142 0.02015190 0.01570000
v -0.01133709 0.02121021 0.01650000
v -0.01105425 0.02068105 0.01730000
v -0.01048858 0.01962275 0.01690000
v -0.01058286 0.01979913 0.01570000
v -0.00700024 0.01309653 -0.01690000
v -0.00847245 0.01267991 -0.01730000
v -0.01269478 0.01899908 0.01570000
v -0.01336146 0.01999684 0.01650000
v -0.01302812 0.01949796 0.01730000
v -0.01236144 0.01850020 0.01690000
v -0.01247255 0.01866649 0.01570000
v -0.00825022 0.01234732 -0.01690000
v -0.00967450 0.01178841 -0.01730000
v -0.01449589 0.01766329 0.01570000
v -0.01525716 0.01859090 0.01650000
v -0.01487652 0.01812710 0.01730000
v -0.01411525 0.01719948 0.01690000
v -0.01424213 0.01735408 0.01570000
v -0.00942074 0.01147921 -0.01690000
v -0.01078338 0.01078338 -0.01730000
v -0.01615739 0.01615739 0.01570000
v -0.01700592 0.01700592 0.01650000
v -0.01658165 0.01658165 0.01730000
v -0.01573313 0.01573313 0.01690000
v -0.01587455 0.01587455 0.01570000
v -0.01050054 0.01050054 -0.01690000
v -0.01178841 0.00967450 -0.01730000
v -0.01766329 0.01449589 0.01570000
v -0.01859090 0.01525716 0.01650000
v -0.01812710 0.01487652 0.01730000
v -0.01719948 0.01411525 0.01690000
v -0.01735408 0.01424213 0.01570000
v -0.01147921 0.00942074 -0.01690000
v -0.01267991 0.00847245 -0.01730000
v -0.01899908 0.01269478 0.01570000
v -0.01999684 0.01336146 0.01650000
v -0.01949796 0.01302812 0.01730000
v -0.01850020 0.01236144 0.01690000
v -0.01866649 0.01247255 0.01570000
v -0.01234732 0.00825022 -0.01690000
v -0.01344930 0.00718880 -0.01730000
v -0.02015190 0.01077142 0.01570000
v -0.02121021 0.01133709 0.01650000
v -0.02068105 0.01105425 0.01730000
v -0.01962275 0.01048858 0.01690000
v -0.01979913 0.01058286 0.01570000
v -0.01309653 0.00700024 -0.01690000
v -0.01408916 0.00583592 -0.01730000
v -0.02111065 0.00874432 0.01570000
v -0.02221930 0.00920354 0.01650000
v -0.02166498 0.00897393 0.01730000
v -0.02055632 0.00851471 0.01690000
v -0.02074110 0.00859124 0.01570000
v -0.01371961 0.00568285 -0.01690000
v -0.01459334 0.00442684 -0.01730000
v -0.02186609 0.00663300 0.01570000
v -0.02301442 0.00698135 0.01650000
v -0.02244025 0.00680718 0.01730000
v -0.02129192 0.00645883 0.01690000
v -0.02148331 0.00651689 0.01570000
v -0.01421056 0.00431073 -0.01690000
v -0.01495698 0.00297513 -0.01730000
v -0.02241094 0.00445781 0.01570000
v -0.02358789 0.00469192 0.01650000
v -0.02299941 0.00457487 0.01730000
v -0.02182247 0.00434076 0.01690000
v -0.02201863 0.00437978 0.01570000
v -0.01456466 0.00289709 -0.01690000
v -0.01517657 0.00149476 -0.01730000
v -0.02273997 0.00223969 0.01570000
v -0.02393419 0.00235731 0.01650000
v -0.02333708 0.00229850 0.01730000
v -0.02214286 0.00218088 0.01690000
v -0.02234190 0.00220048 0.01570000
v -0.01477849 0.00145555 -0.01690000
v -0.01525000 0.00000000 -0.01730000
v -0.02285000 0.00000000 0.01570000
v -0.02405000 0.00000000 0.01650000
v -0.02345000 0.00000000 0.01730000
v -0.02225000 0.00000000 0.01690000
v -0.02245000 0.00000000 0.01570000
v -0.01485000 0.00000000 -0.01690000
v -0.01517657 -0.00149476 -0.01730000
v -0.02273997 -0.00223969 0.01570000
v -0.02393419 -0.00235731 0.01650000
v -0.02333708 -0.00229850 0.01730000
v -0.02214286 -0.00218088 0.01690000
v -0.02234190 -0.00220048 0.01570000
v -0.01477849 -0.00145555 -0.01690000
v -0.01495698 -0.00297513 -0.01730000
v -0.02241094 -0.00445781 0.01570000
v -0.02358789 -0.00469192 0.01650000
v -0.02299941 -0.00457487 0.01730000
v -0.02182247 -0.00434076 0.01690000
v -0.02201863 -0.00437978 0.01570000
v -0.01456466 -0.00289709 -0.01690000
v -0.01459334 -0.00442684 -0.01730000
v -0.02186609 -0.00663300 0.01570000
v -0.02301442 -0.00698135 0.01650000
v -0.02244025 -0.00680718 0.01730000
v -0.02129192 -0.00645883 0.01690000
v -0.02148331 -0.00651689 0.01570000
v -0.01421056 -0.00431073 -0.01690000
v -0.01408916 -0.00583592 -0.01730000
v -0.02111065 -0.00874432 0.01570000
v -0.02221930 -0.00920354 0.01650000
v -0.02166498 -0.00897393 0.01730000
v -0.02055632 -0.00851471 0.01690000
v -0.02074110 -0.00859124 0.01570000
v -0.01371961 -0.00568285 -0.01690000
v -0.01344930 -0.00718880 -0.01730000
v -0.02015190 -0.01077142 0.01570000
v -0.02121021 -0.01133709 0.01650000
v -0.02068105 -0.01105425 0.01730000
v -0.01962275 -0.01048858 0.01690000
v -0.01979913 -0.01058286 0.01570000
v -0.01309653 -0.00700024 -0.01690000
v -0.01267991 -0.00847245 -0.01730000
v -0.01899908 -0.01269478 0.01570000
v -0.01999684 -0.01336146 0.01650000
v -0.01949796 -0.01302812 0.01730000
v -0.01850020 -0.01236144 0.01690000
v -0.01866649 -0.01247255 0.01570000
v -0.01234732 -0.00825022 -0.01690000
v -0.01178841 -0.00967450 -0.01730000
v -0.01766329 -0.01449589 0.01570000
v -0.01859090 -0.01525716 0.01650000
v -0.01812710 -0.01487652 0.01730000
v -0.01719948 -0.01411525 0.01690000
v -0.01735408 -0.01424213 0.01570000
v -0.01147921 -0.00942074 -0.01690000
v -0.01078338 -0.01078338 -0.01730000
v -0.01615739 -0.01615739 0.01570000
v -0.01700592 -0.01700592 0.01650000
v -0.01658165 -0.01658165 0.01730000
v -0.01573313 -0.01573313 0.01690000
v -0.01587455 -0.01587455 0.01570000
v -0.01050054 -0.01050054 -0.01690000
v -0.00967450 -0.01178841 -0.01730000
v -0.01449589 -0.01766329 0.01570000
v -0.01525716 -0.01859090 0.01650000
v -0.01487652 -0.01812710 0.01730000
v -0.01411525 -0.01719948 0.01690000
v -0.01424213 -0.01735408 0.01570000
v -0.00942074 -0.01147921 -0.01690000
v -0.00847245 -0.01267991 -0.01730000
v -0.01269478 -0.01899908 0.01570000
v -0.01336146 -0.01999684 0.01650000
v -0.01302812 -0.01949796 0.01730000
v -0.01236144 -0.01850020 0.01690000
v -0.01247255 -0.01866649 0.01570000
v -0.00825022 -0.01234732 -0.01690000
v -0.00718880 -0.01344930 -0.01730000
v -0.01077142 -0.02015190 0.01570000
v -0.01133709 -0.02121021 0.01650000
v -0.01105425 -0.02068105 0.01730000
v -0.01048858 -0.01962275 0.01690000
v -0.01058286 -0.01979913 0.01570000
v -0.00700024 -0.01309653 -0.01690000
v -0.00583592 -0.01408916 -0.01730000
v -0.00874432 -0.02111065 0.01570000
v -0.00920354 -0.02221930 0.01650000
v -0.00897393 -0.02166498 0.01730000
v -0.00851471 -0.02055632 0.01690000
v -0.00859124 -0.02074110 0.01570000
v -0.00568285 -0.01371961 -0.01690000
v -0.00442684 -0.01459334 -0.01730000
v -0.00663300 -0.02186609 0.01570000
v -0.00698135 -0.02301442 0.01650000
v -0.00680718 -0.02244025 0.01730000
v -0.00645883 -0.02129192 0.01690000
v -0.00651689 -0.02148331 0.01570000
v -0.00431073 -0.01421056 -0.01690000
v -0.00297513 -0.01495698 -0.01730000
v -0.00445781 -0.02241094 0.01570000
v -0.00469192 -0.02358789 0.01650000
v -0.00457487 -0.02299941 0.01730000
v -0.00434076 -0.02182247 0.01690000
v -0.00437978 -0.02201863 0.01570000
v -0.00289709 -0.01456466 -0.01690000
v -0.00149476 -0.01517657 -0.01730000
v -0.00223969 -0.02273997 0.01570000
v -0.00235731 -0.02393419 0.01650000
v -0.00229850 -0.02333708 0.01730000
v -0.00218088 -0.02214286 0.01690000
v -0.00220048 -0.02234190 0.01570000
v -0.00145555 -0.01477849 -0.01690000
v -0.00000000 -0.01525000 -0.01730000
v -0.00000000 -0.02285000 0.01570000
v -0.00000000 -0.02405000 0.01650000
v -0.00000000 -0.02345000 0.01730000
v -0.00000000 -0.02225000 0.01690000
v -0.00000000 -0.02245000 0.01570000
v -0.00000000 -0.01485000 -0.01690000
v 0.00149476 -0.01517657 -0.01730000
v 0.00223969 -0.02273997 0.01570000
v 0.00235731 -0.02393419 0.01650000
v 0.00229850 -0.02333708 0.01730000
v 0.00218088 -0.02214286 0.01690000
v 0.00220048 -0.02234190 0.01570000
v 0.00145555 -0.01477849 -0.01690000
v 0.00297513 -0.01495698 -0.01730000
v 0.00445781 -0.02241094 0.01570000
v 0.00469192 -0.02358789 0.01650000
v 0.00457487 -0.02299941 0.01730000
v 0.00434076 -0.02182247 0.01690000
v 0.00437978 -0.02201863 0.01570000
v 0.00289709 -0.01456466 -0.01690000
v 0.00442684 -0.01459334 -0.01730000
v 0.00663300 -0.02186609 0.01570000
v 0.00698135 -0.02301442 0.01650000
v 0.00680718 -0.02244025 0.01730000
v 0.00645883 -0.02129192 0.01690000
v 0.00651689 -0.02148331 0.01570000
v 0.00431073 -0.01421056 -0.01690000
v 0.00583592 -0.01408916 -0.01730000
v 0.00874432 -0.02111065 0.01570000
v 0.00920354 -0.02221930 0.01650000
v 0.00897393 -0.02166498 0.01730000
v 0.00851471 -0.02055632 0.01690000
v 0.00859124 -0.02074110 0.01570000
v 0.00568285 -0.01371961 -0.01690000
v 0.00718880 -0.01344930 -0.01730000
v 0.01077142 -0.02015190 0.01570000
v 0.01133709 -0.02121021 0.01650000
v 0.01105425 -0.02068105 0.01730000
v 0.01048858 -0.01962275 0.01690000
v 0.01058286 -0.01979913 0.01570000
v 0.00700024 -0.01309653 -0.01690000
v 0.00847245 -0.01267991 -0.01730000
v 0.01269478 -0.01899908 0.01570000
v 0.01336146 -0.01999684 0.01650000
v 0.01302812 -0.01949796 0.01730000
v 0.01236144 -0.01850020 0.01690000
v 0.01247255 -0.01866649 0.01570000
v 0.00825022 -0.01234732 -0.01690000
v 0.00967450 -0.01178841 -0.01730000
v 0.01449589 -0.01766329 0.01570000
v 0.01525716 -0.01859090 0.01650000
v 0.01487652 -0.01812710 0.01730000
v 0.01411525 -0.01719948 0.01690000
v 0.01424213 -0.01735408 0.01570000
v 0.00942074 -0.01147921 -0.01690000
v 0.01078338 -0.01078338 -0.01730000
v 0.01615739 -0.01615739 0.01570000
v 0.01700592 -0.01700592 0.01650000
v 0.01658165 -0.01658165 0.01730000
v 0.01573313 -0.01573313 0.01690000
v 0.01587455 -0.01587455 0.01570000
v 0.01050054 -0.01050054 -0.01690000
v 0.01178841 -0.00967450 -0.01730000
v 0.01766329 -0.01449589 0.01570000
v 0.01859090 -0.01525716 0.01650000
v 0.01812710 -0.01487652 0.01730000
v 0.01719948 -0.01411525 0.01690000
v 0.01735408 -0.01424213 0.01570000
v 0.01147921 -0.00942074 -0.01690000
v 0.01267991 -0.00847245 -0.01730000
v 0.01899908 -0.01269478 0.01570000
v 0.01999684 -0.01336146 0.01650000
v 0.01949796 -0.01302812 0.01730000
v 0.01850020 -0.01236144 0.01690000
v 0.01866649 -0.01247255 0.01570000
v 0.01234732 -0.00825022 -0.01690000
v 0.01344930 -0.00718880 -0.01730000
v 0.02015190 -0.01077142 0.01570000
v 0.02121021 -0.01133709 0.01650000
v 0.02068105 -0.01105425 0.01730000
v 0.01962275 -0.01048858 0.01690000
v 0.01979913 -0.01058286 0.01570000
v 0.01309653 -0.00700024 -0.01690000
v 0.01408916 -0.00583592 -0.01730000
v 0.02111065 -0.00874432 0.01570000
v 0.02221930 -0.00920354 0.01650000
v 0.02166498 -0.00897393 0.01730000
v 0.02055632 -0.00851471 0.01690000
v 0.02074110 -0.00859124 0.01570000
v 0.01371961 -0.00568285 -0.01690000
v 0.01459334 -0.00442684 -0.01730000
v 0.02186609 -0.00663300 0.01570000
v 0.02301442 -0.00698135 0.01650000
v 0.02244025 -0.00680718 0.01730000
v 0.02129192 -0.00645883 0.01690000
v 0.02148331 -0.00651689 0.01570000
v 0.01421056 -0.00431073 -0.01690000
v 0.01495698 -0.00297513 -0.01730000
v 0.02241094 -0.00445781 0.01570000
v 0.02358789 -0.00469192 0.01650000
v 0.02299941 -0.00457487 0.01730000
v 0.02182247 -0.00434076 0.01690000
v 0.02201863 -0.00437978 0.01570000
v 0.01456466 -0.00289709 -0.01690000
v 0.01517657 -0.00149476 -0.01730000
v 0.02273997 -0.00223969 0.01570000
v 0.02393419 -0.00235731 0.01650000
v 0.02333708 -0.00229850 0.01730000
v 0.02214286 -0.00218088 0.01690000
v 0.02234190 -0.00220048 0.01570000
v 0.01477849 -0.00145555 -0.01690000
f 2 1 10
f 2 10 3
f 3 10 11
f 3 11 4
f 4 11 12
f 4 12 5
f 5 12 13
f 5 13 6
f 6 13 14
f 6 14 7
f 7 14 15
f 7 15 8
f 8 15 16
f 8 16 9
f 10 1 17
f 10 17 11
f 11 17 18
f 11 18 12
f 12 18 19
f 12 19 13
f 13 19 20
f 13 20 14
f 14 20 21
f 14 21 15
f 15 21 22
f 15 22 16
f 16 22 23
f 16 23 9
f 17 1 24
f 17 24 18
f 18 24 25
f 18 25 19
f 19 25 26
f 19 26 20
f 20 26 27
f 20 27 21
f 21 27 28
f 21 28 22
f 22 28 29
f 22 29 23
f 23 29 30
f 23 30 9
f 24 1 31
f 24 31 25
f 25 31 32
f 25 32 26
f 26 32 33
f 26 33 27
f 27 33 34
f 27 34 28
f 28 34 35
f 28 35 29
f 29 35 36
f 29 36 30
f 30 36 37
f 30 37 9
f 31 1 38
f 31 38 32
f 32 38 39
f 32 39 33
f 33 39 40
f 33 40 34
f 34 40 41
f 34 41 35
f 35 41 42
f 35 42 36
f 36 42 43
f 36 43 37
f 37 43 44
f 37 44 9
f 38 1 45
f 38 45 39
f 39 45 46
f 39 46 40
f 40 46 47
f 40 47 41
f 41 47 48
f 41 48 42
f 42 48 49
f 42 49 43
f 43 49 50
f 43 50 44
f 44 50 51
f 44 51 9
f 45 1 52
f 45 52 46
f 46 52 53
f 46 53 47
f 47 53 54
f 47 54 48
f 48 54 55
f 48 55 49
f 49 55 56
f 49 56 50
f 50 56 57
f 50 57 51
f 51 57 58
f 51 58 9
f 52 1 59
f 52 59 53
f 53 59 60
f 53 60 54
f 54 60 61
f 54 61 55
f 55 61 62
f 55 62 56
f 56 62 63
f 56 63 57
f 57 63 64
f 57 64 58
f 58 64 65
f 58 65 9
f 59 1 66
f 59 66 60
f 60 66 67
f 60 67 61
f 61 67 68
f 61 68 62
f 62 68 69
f 62 69 63
f 63 69 70
f 63 70 64
f 64 70 71
f 64 71 65
f 65 71 72
f 65 72 9
f 66 1 73
f 66 73 67
f 67 73 74
f 67 74 68
f 68 74 75
f 68 75 69
f 69 75 76
f 69 76 70
f 70 76 77
f 70 77 71
f 71 77 78
f 71 78 72
f 72 78 79
f 72 79 9
f 73 1 80
f 73 80 74
f 74 80 81
f 74 81 75
f 75 81 82
f 75 82 76
f 76 82 83
f 76 83 77
f 77 83 84
f 77 84 78
f 78 84 85
f 78 85 79
f 79 85 86
f 79 86 9
f 80 1 87
f 80 87 81
f 81 87 88
f 81 88 82
f 82 88 89
f 82 89 83
f 83 89 90
f 83 90 84
f 84 90 91
f 84 91 85
f 85 91 92
f 85 92 86
f 86 92 93
f 86 93 9
f 87 1 94
f 87 94 88
f 88 94 95
f 88 95 89
f 89 95 96
f 89 96 90
f 90 96 97
f 90 97 91
f 91 97 98
f 91 98 92
f 92 98 99
f 92 99 93
f 93 99 100
f 93 100 9
f 94 1 101
f 94 101 95
f 95 101 102
f 95 102 96
f 96 102 103
f 96 103 97
f 97 103 104
f 97 104 98
f 98 104 105
f 98 105 99
f 99 105 106
f 99 106 100
f 100 106 107
f 100 107 9
f 101 1 108
f 101 108 102
f 102 108 109
f 102 109 103
f 103 109 110
f 103 110 104
f 104 110 111
f 104 111 105
f 105 111 112
f 105 112 106
f 106 112 113
f 106 113 107
f 107 113 114
f 107 114 9
f 108 1 115
f 108 115 109
f 109 115 116
f 109 116 110
f 110 116 117
f 110 117 111
f 111 117 118
f 111 118 112
f 112 118 119
f 112 119 113
f 113 119 120
f 113 120 114
f 114 120 121
f 114 121 9
f 115 1 122
f 115 122 116
f 116 122 123
f 116 123 117
f 117 123 124
f 117 124 118
f 118 124 125
f 118 125 119
f 119 125 126
f 119 126 120
f 120 126 127
f 120 127 121
f 121 127 128
f 121 128 9
f 122 1 129
f 122 129 123
f 123 129 130
f 123 130 124
f 124 130 131
f 124 131 125
f 125 131 132
f 125 132 126
f 126 132 133
f 126 133 127
f 127 133 134
f 127 134 128
f 128 134 135
f 128 135 9
f 129 1 136
f 129 136 130
f 130 136 137
f 130 137 131
f 131 137 138
f 131 138 132
f 132 138 139
f 132 139 133
f 133 139 140
f 133 140 134
f 134 140 141
f 134 141 135
f 135 141 142
f 135 142 9
f 136 1 143
f 136 143 137
f 137 143 144
f 137 144 138
f 138 144 145
f 138 145 139
f 139 145 146
f 139 146 140
f 140 146 147
f 140 147 141
f 141 147 148
f 141 148 142
f 142 148 149
f 142 149 9
f 143 1 150
f 143 150 144
f 144 150 151
f 144 151 145
f 145 151 152
f 145 152 146
f 146 152 153
f 146 153 147
f 147 153 154
f 147 154 148
f 148 154 155
f 148 155 149
f 149 155 156
f 149 156 9
f 150 1 157
f 150 157 151
f 151 157 158
f 151 158 152
f 152 158 159
f 152 159 153
f 153 159 160
f 153 160 154
f 154 160 161
f 154 161 155
f 155 161 162
f 155 162 156
f 156 162 163
f 156 163 9
f 157 1 164
f 157 164 158
f 158 164 165
f 158 165 159
f 159 165 166
f 159 166 160
f 160 166 167
f 160 167 161
f 161 167 168
f 161 168 162
f 162 168 169
f 162 169 163
f 163 169 170
f 163 170 9
f 164 1 171
f 164 171 165
f 165 171 172
f 165 172 166
f 166 172 173
f 166 173 167
f 167 173 174
f 167 174 168
f 168 174 175
f 168 175 169
f 169 175 176
f 169 176 170
f 170 176 177
f 170 177 9
f 171 1 178
f 171 178 172
f 172 178 179
f 172 179 173
f 173 179 180
f 173 180 174
f 174 180 181
f 174 181 175
f 175 181 182
f 175 182 176
f 176 182 183
f 176 183 177
f 177 183 184
f 177 184 9
f 178 1 185
f 178 185 179
f 179 185 186
f 179 186 180
f 180 186 187
f 180 187 181
f 181 187 188
f 181 188 182
f 182 188 189
f 182 189 183
f 183 189 190
f 183 190 184
f 184 190 191
f 184 191 9
f 185 1 192
f 185 192 186
f 186 192 193
f 186 193 187
f 187 193 194
f 187 194 188
f 188 194 195
f 188 195 189
f 189 195 196
f 189 196 190
f 190 196 197
f 190 197 191
f 191 197 198
f 191 198 9
f 192 1 199
f 192 199 193
f 193 199 200
f 193 200 194
f 194 200 201
f 194 201 195
f 195 201 202
f 195 202 196
f 196 202 203
f 196 203 197
f 197 203 204
f 197 204 198
f 198 204 205
f 198 205 9
f 199 1 206
f 199 206 200
f 200 206 207
f 200 207 201
f 201 207 208
f 201 208 202
f 202 208 209
f 202 209 203
f 203 209 210
f 203 210 204
f 204 210 211
f 204 211 205
f 205 211 212
f 205 212 9
f 206 1 213
f 206 213 207
f 207 213 214
f 207 214 208
f 208 214 215
f 208 215 209
f 209 215 216
f 209 216 210
f 210 216 217
f 210 217 211
f 211 217 218
f 211 218 212
f 212 218 219
f 212 219 9
f 213 1 220
f 213 220 214
f 214 220 221
f 214 221 215
f 215 221 222
f 215 222 216
f 216 222 223
f 216 223 217
f 217 223 224
f 217 224 218
f 218 224 225
f 218 225 219
f 219 225 226
f 219 226 9
f 220 1 227
f 220 227 221
f 221 227 228
f 221 228 222
f 222 228 229
f 222 229 223
f 223 229 230
f 223 230 224
f 224 230 231
f 224 231 225
f 225 231 232
f 225 232 226
f 226 232 233
f 226 233 9
f 227 1 234
f 227 234 228
f 228 234 235
f 228 235 229
f 229 235 236
f 229 236 230
f 230 236 237
f 230 237 231
f 231 237 238
f 231 238 232
f 232 238 239
f 232 239 233
f 233 239 240
f 233 240 9
f 234 1 241
f 234 241 235
f 235 241 242
f 235 242 236
f 236 242 243
f 236 243 237
f 237 243 244
f 237 244 238
f 238 244 245
f 238 245 239
f 239 245 246
f 239 246 240
f 240 246 247
f 240 247 9
f 241 1 248
f 241 248 242
f 242 248 249
f 242 249 243
f 243 249 250
f 243 250 244
f 244 250 251
f 244 251 245
f 245 251 252
f 245 252 246
f 246 252 253
f 246 253 247
f 247 253 254
f 247 254 9
f 248 1 255
f 248 255 249
f 249 255 256
f 249 256 250
f 250 256 257
f 250 257 251
f 251 257 258
f 251 258 252
f 252 258 259
f 252 259 253
f 253 259 260
f 253 260 254
f 254 260 261
f 254 261 9
f 255 1 262
f 255 262 256
f 256 262 263
f 256 263 257
f 257 263 264
f 257 264 258
f 258 264 265
f 258 265 259
f 259 265 266
f 259 266 260
f 260 266 267
f 260 267 261
f 261 267 268
f 261 268 9
f 262 1 269
f 262 269 263
f 263 269 270
f 263 270 264
f 264 270 271
f 264 271 265
f 265 271 272
f 265 272 266
f 266 272 273
f 266 273 267
f 267 273 274
f 267 274 268
f 268 274 275
f 268 275 9
f 269 1 276
f 269 276 270
f 270 276 277
f 270 277 271
f 271 277 278
f 271 278 272
f 272 278 279
f 272 279 273
f 273 279 280
f 273 280 274
f 274 280 281
f 274 281 275
f 275 281 282
f 275 282 9
f 276 1 283
f 276 283 277
f 277 283 284
f 277 284 278
f 278 284 285
f 278 285 279
f 279 285 286
f 279 286 280
f 280 286 287
f 280 287 281
f 281 287 288
f 281 288 282
f 282 288 289
f 282 289 9
f 283 1 290
f 283 290 284
f 284 290 291
f 284 291 285
f 285 291 292
f 285 292 286
f 286 292 293
f 286 293 287
f 287 293 294
f 287 294 288
f 288 294 295
f 288 295 289
f 289 295 296
f 289 296 9
f 290 1 297
f 290 297 291
f 291 297 298
f 291 298 292
f 292 298 299
f 292 299 293
f 293 299 300
f 293 300 294
f 294 300 301
f 294 301 295
f 295 301 302
f 295 302 296
f 296 302 303
f 296 303 9
f 297 1 304
f 297 304 298
f 298 304 305
f 298 305 299
f 299 305 306
f 299 306 300
f 300 306 307
f 300 307 301
f 301 307 308
f 301 308 302
f 302 308 309
f 302 309 303
f 303 309 310
f 303 310 9
f 304 1 311
f 304 311 305
f 305 311 312
f 305 312 306
f 306 312 313
f 306 313 307
f 307 313 314
f 307 314 308
f 308 314 315
f 308 315 309
f 309 315 316
f 309 316 310
f 310 316 317
f 310 317 9
f 311 1 318
f 311 318 312
f 312 318 319
f 312 319 313
f 313 319 320
f 313 320 314
f 314 320 321
f 314 321 315
f 315 321 322
f 315 322 316
f 316 322 323
f 316 323 317
f 317 323 324
f 317 324 9
f 318 1 325
f 318 325 319
f 319 325 326
f 319 326 320
f 320 326 327
f 320 327 321
f 321 327 328
f 321 328 322
f 322 328 329
f 322 329 323
f 323 329 330
f 323 330 324
f 324 330 331
f 324 331 9
f 325 1 332
f 325 332 326
f 326 332 333
f 326 333 327
f 327 333 334
f 327 334 328
f 328 334 335
f 328 335 329
f 329 335 336
f 329 336 330
f 330 336 337
f 330 337 331
f 331 337 338
f 331 338 9
f 332 1 339
f 332 339 333
f 333 339 340
f 333 340 334
f 334 340 341
f 334 341 335
f 335 341 342
f 335 342 336
f 336 342 343
f 336 343 337
f 337 343 344
f 337 344 338
f 338 344 345
f 338 345 9
f 339 1 346
f 339 346 340
f 340 346 347
f 340 347 341
f 341 347 348
f 341 348 342
f 342 348 349
f 342 349 343
f 343 349 350
f 343 350 344
f 344 350 351
f 344 351 345
f 345 351 352
f 345 352 9
f 346 1 353
f 346 353 347
f 347 353 354
f 347 354 348
f 348 354 355
f 348 355 349
f 349 355 356
f 349 356 350
f 350 356 357
f 350 357 351
f 351 357 358
f 351 358 352
f 352 358 359
f 352 359 9
f 353 1 360
f 353 360 354
f 354 360 361
f 354 361 355
f 355 361 362
f 355 362 356
f 356 362 363
f 356 363 357
f 357 363 364
f 357 364 358
f 358 364 365
f 358 365 359
f 359 365 366
f 359 366 9
f 360 1 367
f 360 367 361
f 361 367 368
f 361 368 362
f 362 368 369
f 362 369 363
f 363 369 370
f 363 370 364
f 364 370 371
f 364 371 365
f 365 371 372
f 365 372 366
f 366 372 373
f 366 373 9
f 367 1 374
f 367 374 368
f 368 374 375
f 368 375 369
f 369 375 376
f 369 376 370
f 370 376 377
f 370 377 371
f 371 377 378
f 371 378 372
f 372 378 379
f 372 379 373
f 373 379 380
f 373 380 9
f 374 1 381
f 374 381 375
f 375 381 382
f 375 382 376
f 376 382 383
f 376 383 377
f 377 383 384
f 377 384 378
f 378 384 385
f 378 385 379
f 379 385 386
f 379 386 380
f 380 386 387
f 380 387 9
f 381 1 388
f 381 388 382
f 382 388 389
f 382 389 383
f 383 389 390
f 383 390 384
f 384 390 391
f 384 391 385
f 385 391 392
f 385 392 386
f 386 392 393
f 386 393 387
f 387 393 394
f 387 394 9
f 388 1 395
f 388 395 389
f 389 395 396
f 389 396 390
f 390 396 397
f 390 397 391
f 391 397 398
f 391 398 392
f 392 398 399
f 392 399 393
f 393 399 400
f 393 400 394
f 394 400 401
f 394 401 9
f 395 1 402
f 395 402 396
f 396 402 403
f 396 403 397
f 397 403 404
f 397 404 398
f 398 404 405
f 398 405 399
f 399 405 406
f 399 406 400
f 400 406 407
f 400 407 401
f 401 407 408
f 401 408 9
f 402 1 409
f 402 409 403
f 403 409 410
f 403 410 404
f 404 410 411
f 404 411 405
f 405 411 412
f 405 412 406
f 406 412 413
f 406 413 407
f 407 413 414
f 407 414 408
f 408 414 415
f 408 415 9
f 409 1 416
f 409 416 410
f 410 416 417
f 410 417 411
f 411 417 418
f 411 418 412
f 412 418 419
f 412 419 413
f 413 419 420
f 413 420 414
f 414 420 421
f 414 421 415
f 415 421 422
f 415 422 9
f 416 1 423
f 416 423 417
f 417 423 424
f 417 424 418
f 418 424 425
f 418 425 419
f 419 425 426
f 419 426 420
f 420 426 427
f 420 427 421
f 421 427 428
f 421 428 422
f 422 428 429
f 422 429 9
f 423 1 430
f 423 430 424
f 424 430 431
f 424 431 425
f 425 431 432
f 425 432 426
f 426 432 433
f 426 433 427
f 427 433 434
f 427 434 428
f 428 434 435
f 428 435 429
f 429 435 436
f 429 436 9
f 430 1 437
f 430 437 431
f 431 437 438
f 431 438 432
f 432 438 439
f 432 439 433
f 433 439 440
f 433 440 434
f 434 440 441
f 434 441 435
f 435 441 442
f 435 442 436
f 436 442 443
f 436 443 9
f 437 1 444
f 437 444 438
f 438 444 445
f 438 445 439
f 439 445 446
f 439 446 440
f 440 446 447
f 440 447 441
f 441 447 448
f 441 448 442
f 442 448 449
f 442 449 443
f 443 449 450
f 443 450 9
f 444 1 2
f 444 2 445
f 445 2 3
f 445 3 446
f 446 3 4
f 446 4 447
f 447 4 5
f 447 5 448
f 448 5 6
f 448 6 449
f 449 6 7
f 449 7 450
f 450 7 8
f 450 8 9

