v 0.00000000 0.00000000 -0.01642552
v 0.00378915 0.00000000 -0.01643367
v 0.00757830 0.00000000 -0.01644183
v 0.01136744 0.00000000 -0.01644999
v 0.01515659 0.00000000 -0.01645815
v 0.01599517 0.00000000 -0.01280078
v 0.01683375 0.00000000 -0.00914342
v 0.01767234 0.00000000 -0.00548605
v 0.01851092 0.00000000 -0.00182868
v 0.01934950 0.00000000 0.00182868
v 0.02018808 0.00000000 0.00548605
v 0.02102666 0.00000000 0.00914342
v 0.02186524 0.00000000 0.01280078
v 0.02270383 0.00000000 0.01645815
v 0.00375673 0.00049458 -0.01643367
v 0.00751346 0.00098917 -0.01644183
v 0.01127019 0.00148375 -0.01644999
v 0.01502692 0.00197833 -0.01645815
v 0.01585833 0.00208779 -0.01280078
v 0.01668974 0.00219725 -0.00914342
v 0.01752115 0.00230670 -0.00548605
v 0.01835255 0.00241616 -0.00182868
v 0.01918396 0.00252562 0.00182868
v 0.02001537 0.00263507 0.00548605
v 0.02084678 0.00274453 0.00914342
v 0.02167818 0.00285399 0.01280078
v 0.02250959 0.00296344 0.01645815
v 0.00366004 0.00098070 -0.01643367
v 0.00732007 0.00196141 -0.01644183
v 0.01098011 0.00294211 -0.01644999
v 0.01464014 0.00392281 -0.01645815
v 0.01545015 0.00413986 -0.01280078
v 0.01626016 0.00435690 -0.00914342
v 0.01707017 0.00457394 -0.00548605
v 0.01788017 0.00479098 -0.00182868
v 0.01869018 0.00500802 0.00182868
v 0.01950019 0.00522506 0.00548605
v 0.02031020 0.00544210 0.00914342
v 0.02112020 0.00565914 0.01280078
v 0.02193021 0.00587618 0.01645815
v 0.00350072 0.00145004 -0.01643367
v 0.00700143 0.00290009 -0.01644183
v 0.01050215 0.00435013 -0.01644999
v 0.01400286 0.00580018 -0.01645815
v 0.01477761 0.00612109 -0.01280078
v 0.01555236 0.00644200 -0.00914342
v 0.01632711 0.00676291 -0.00548605
v 0.01710186 0.00708382 -0.00182868
v 0.01787661 0.00740473 0.00182868
v 0.01865136 0.00772564 0.00548605
v 0.01942610 0.00804656 0.00914342
v 0.02020085 0.00836747 0.01280078
v 0.02097560 0.00868838 0.01645815
v 0.00328150 0.00189457 -0.01643367
v 0.00656300 0.00378915 -0.01644183
v 0.00984449 0.00568372 -0.01644999
v 0.01312599 0.00757830 -0.01645815
v 0.01385223 0.00799759 -0.01280078
v 0.01457846 0.00841688 -0.00914342
v 0.01530469 0.00883617 -0.00548605
v 0.01603093 0.00925546 -0.00182868
v 0.01675716 0.00967475 0.00182868
v 0.01748339 0.01009404 0.00548605
v 0.01820962 0.01051333 0.00914342
v 0.01893586 0.01093262 0.01280078
v 0.01966209 0.01135191 0.01645815
v 0.00300613 0.00230669 -0.01643367
v 0.00601227 0.00461337 -0.01644183
v 0.00901840 0.00692006 -0.01644999
v 0.01202453 0.00922675 -0.01645815
v 0.01268982 0.00973724 -0.01280078
v 0.01335512 0.01024774 -0.00914342
v 0.01402041 0.01075824 -0.00548605
v 0.01468570 0.01126873 -0.00182868
v 0.01535099 0.01177923 0.00182868
v 0.01601628 0.01228973 0.00548605
v 0.01668157 0.01280022 0.00914342
v 0.01734686 0.01331072 0.01280078
v 0.01801216 0.01382121 0.01645815
v 0.00267933 0.00267933 -0.01643367
v 0.00535866 0.00535866 -0.01644183
v 0.00803800 0.00803800 -0.01644999
v 0.01071733 0.01071733 -0.01645815
v 0.01131030 0.01131030 -0.01280078
v 0.01190326 0.01190326 -0.00914342
v 0.01249623 0.01249623 -0.00548605
v 0.01308920 0.01308920 -0.00182868
v 0.01368216 0.01368216 0.00182868
v 0.01427513 0.01427513 0.00548605
v 0.01486810 0.01486810 0.00914342
v 0.01546106 0.01546106 0.01280078
v 0.01605403 0.01605403 0.01645815
v 0.00230669 0.00300613 -0.01643367
v 0.00461337 0.00601227 -0.01644183
v 0.00692006 0.00901840 -0.01644999
v 0.00922675 0.01202453 -0.01645815
v 0.00973724 0.01268982 -0.01280078
v 0.01024774 0.01335512 -0.00914342
v 0.01075824 0.01402041 -0.00548605
v 0.01126873 0.01468570 -0.00182868
v 0.01177923 0.01535099 0.00182868
v 0.01228973 0.01601628 0.00548605
v 0.01280022 0.01668157 0.00914342
v 0.01331072 0.01734686 0.01280078
v 0.01382121 0.01801216 0.01645815
v 0.00189457 0.00328150 -0.01643367
v 0.00378915 0.00656300 -0.01644183
v 0.00568372 0.00984449 -0.01644999
v 0.00757830 0.01312599 -0.01645815
v 0.00799759 0.01385223 -0.01280078
v 0.00841688 0.01457846 -0.00914342
v 0.00883617 0.01530469 -0.00548605
v 0.00925546 0.01603093 -0.00182868
v 0.00967475 0.01675716 0.00182868
v 0.01009404 0.01748339 0.00548605
v 0.01051333 0.01820962 0.00914342
v 0.01093262 0.01893586 0.01280078
v 0.01135191 0.01966209 0.01645815
v 0.00145004 0.00350072 -0.01643367
v 0.00290009 0.00700143 -0.01644183
v 0.00435013 0.01050215 -0.01644999
v 0.00580018 0.01400286 -0.01645815
v 0.00612109 0.01477761 -0.01280078
v 0.00644200 0.01555236 -0.00914342
v 0.00676291 0.01632711 -0.00548605
v 0.00708382 0.01710186 -0.00182868
v 0.00740473 0.01787661 0.00182868
v 0.00772564 0.01865136 0.00548605
v 0.00804656 0.01942610 0.00914342
v 0.00836747 0.02020085 0.01280078
v 0.00868838 0.02097560 0.01645815
v 0.00098070 0.00366004 -0.01643367
v 0.00196141 0.00732007 -0.01644183
v 0.00294211 0.01098011 -0.01644999
v 0.00392281 0.01464014 -0.01645815
v 0.00413986 0.01545015 -0.01280078
v 0.00435690 0.01626016 -0.00914342
v 0.00457394 0.01707017 -0.00548605
v 0.00479098 0.01788017 -0.00182868
v 0.00500802 0.01869018 0.00182868
v 0.00522506 0.01950019 0.00548605
v 0.00544210 0.02031020 0.00914342
v 0.00565914 0.02112020 0.01280078
v 0.00587618 0.02193021 0.01645815
v 0.00049458 0.00375673 -0.01643367
v 0.00098917 0.00751346 -0.01644183
v 0.00148375 0.01127019 -0.01644999
v 0.00197833 0.01502692 -0.01645815
v 0.00208779 0.01585833 -0.01280078
v 0.00219725 0.01668974 -0.00914342
v 0.00230670 0.01752115 -0.00548605
v 0.00241616 0.01835255 -0.00182868
v 0.00252562 0.01918396 0.00182868
v 0.00263507 0.02001537 0.00548605
v 0.00274453 0.02084678 0.00914342
v 0.00285399 0.02167818 0.01280078
v 0.00296344 0.02250959 0.01645815
v 0.00000000 0.00378915 -0.01643367
v 0.00000000 0.00757830 -0.01644183
v 0.00000000 0.01136744 -0.01644999
v 0.00000000 0.01515659 -0.01645815
v 0.00000000 0.01599517 -0.01280078
v 0.00000000 0.01683375 -0.00914342
v 0.00000000 0.01767234 -0.00548605
v 0.00000000 0.01851092 -0.00182868
v 0.00000000 0.01934950 0.00182868
v 0.00000000 0.02018808 0.00548605
v 0.00000000 0.02102666 0.00914342
v 0.00000000 0.02186524 0.01280078
v 0.00000000 0.02270383 0.01645815
v -0.00049458 0.00375673 -0.01643367
v -0.00098917 0.00751346 -0.01644183
v -0.00148375 0.01127019 -0.01644999
v -0.00197833 0.01502692 -0.01645815
v -0.00208779 0.01585833 -0.01280078
v -0.00219725 0.01668974 -0.00914342
v -0.00230670 0.01752115 -0.00548605
v -0.00241616 0.01835255 -0.00182868
v -0.00252562 0.01918396 0.00182868
v -0.00263507 0.02001537 0.00548605
v -0.00274453 0.02084678 0.00914342
v -0.00285399 0.02167818 0.01280078
v -0.00296344 0.02250959 0.01645815
v -0.00098070 0.00366004 -0.01643367
v -0.00196141 0.00732007 -0.01644183
v -0.00294211 0.01098011 -0.01644999
v -0.00392281 0.01464014 -0.01645815
v -0.00413986 0.01545015 -0.01280078
v -0.00435690 0.01626016 -0.00914342
v -0.00457394 0.01707017 -0.00548605
v -0.00479098 0.01788017 -0.00182868
v -0.00500802 0.01869018 0.00182868
v -0.00522506 0.01950019 0.00548605
v -0.00544210 0.02031020 0.00914342
v -0.00565914 0.02112020 0.01280078
v -0.00587618 0.02193021 0.01645815
v -0.00145004 0.00350072 -0.01643367
v -0.00290009 0.00700143 -0.01644183
v -0.00435013 0.01050215 -0.01644999
v -0.00580018 0.01400286 -0.01645815
v -0.00612109 0.01477761 -0.01280078
v -0.00644200 0.01555236 -0.00914342
v -0.00676291 0.01632711 -0.00548605
v -0.00708382 0.01710186 -0.00182868
v -0.00740473 0.01787661 0.00182868
v -0.00772564 0.01865136 0.00548605
v -0.00804656 0.01942610 0.00914342
v -0.00836747 0.02020085 0.01280078
v -0.00868838 0.02097560 0.01645815
v -0.00189457 0.00328150 -0.01643367
v -0.00378915 0.00656300 -0.01644183
v -0.00568372 0.00984449 -0.01644999
v -0.00757830 0.01312599 -0.01645815
v -0.00799759 0.01385223 -0.01280078
v -0.00841688 0.01457846 -0.00914342
v -0.00883617 0.01530469 -0.00548605
v -0.00925546 0.01603093 -0.00182868
v -0.00967475 0.01675716 0.00182868
v -0.01009404 0.01748339 0.00548605
v -0.01051333 0.01820962 0.00914342
v -0.01093262 0.01893586 0.01280078
v -0.01135191 0.01966209 0.01645815
v -0.00230669 0.00300613 -0.01643367
v -0.00461337 0.00601227 -0.01644183
v -0.00692006 0.00901840 -0.01644999
v -0.00922675 0.01202453 -0.01645815
v -0.00973724 0.01268982 -0.01280078
v -0.01024774 0.01335512 -0.00914342
v -0.01075824 0.01402041 -0.00548605
v -0.01126873 0.01468570 -0.00182868
v -0.01177923 0.01535099 0.00182868
v -0.01228973 0.01601628 0.00548605
v -0.01280022 0.01668157 0.00914342
v -0.01331072 0.01734686 0.01280078
v -0.01382121 0.01801216 0.01645815
v -0.00267933 0.00267933 -0.01643367
v -0.00535866 0.00535866 -0.01644183
v -0.00803800 0.00803800 -0.01644999
v -0.01071733 0.01071733 -0.01645815
v -0.01131030 0.01131030 -0.01280078
v -0.01190326 0.01190326 -0.00914342
v -0.01249623 0.01249623 -0.00548605
v -0.01308920 0.01308920 -0.00182868
v -0.01368216 0.01368216 0.00182868
v -0.01427513 0.01427513 0.00548605
v -0.01486810 0.01486810 0.00914342
v -0.01546106 0.01546106 0.01280078
v -0.01605403 0.01605403 0.01645815
v -0.00300613 0.00230669 -0.01643367
v -0.00601227 0.00461337 -0.01644183
v -0.00901840 0.00692006 -0.01644999
v -0.01202453 0.00922675 -0.01645815
v -0.01268982 0.00973724 -0.01280078
v -0.01335512 0.01024774 -0.00914342
v -0.01402041 0.01075824 -0.00548605
v -0.01468570 0.01126873 -0.00182868
v -0.01535099 0.01177923 0.00182868
v -0.01601628 0.01228973 0.00548605
v -0.01668157 0.01280022 0.00914342
v -0.01734686 0.01331072 0.01280078
v -0.01801216 0.01382121 0.01645815
v -0.00328150 0.00189457 -0.01643367
v -0.00656300 0.00378915 -0.01644183
v -0.00984449 0.00568372 -0.01644999
v -0.01312599 0.00757830 -0.01645815
v -0.01385223 0.00799759 -0.01280078
v -0.01457846 0.00841688 -0.00914342
v -0.01530469 0.00883617 -0.00548605
v -0.01603093 0.00925546 -0.00182868
v -0.01675716 0.00967475 0.00182868
v -0.01748339 0.01009404 0.00548605
v -0.01820962 0.01051333 0.00914342
v -0.01893586 0.01093262 0.01280078
v -0.01966209 0.01135191 0.01645815
v -0.00350072 0.00145004 -0.01643367
v -0.00700143 0.00290009 -0.01644183
v -0.01050215 0.00435013 -0.01644999
v -0.01400286 0.00580018 -0.01645815
v -0.01477761 0.00612109 -0.01280078
v -0.01555236 0.00644200 -0.00914342
v -0.01632711 0.00676291 -0.00548605
v -0.01710186 0.00708382 -0.00182868
v -0.01787661 0.00740473 0.00182868
v -0.01865136 0.00772564 0.00548605
v -0.01942610 0.00804656 0.00914342
v -0.02020085 0.00836747 0.01280078
v -0.02097560 0.00868838 0.01645815
v -0.00366004 0.00098070 -0.01643367
v -0.00732007 0.00196141 -0.01644183
v -0.01098011 0.00294211 -0.01644999
v -0.01464014 0.00392281 -0.01645815
v -0.01545015 0.00413986 -0.01280078
v -0.01626016 0.00435690 -0.00914342
v -0.01707017 0.00457394 -0.00548605
v -0.01788017 0.00479098 -0.00182868
v -0.01869018 0.00500802 0.00182868
v -0.01950019 0.00522506 0.00548605
v -0.02031020 0.00544210 0.00914342
v -0.02112020 0.00565914 0.01280078
v -0.02193021 0.00587618 0.01645815
v -0.00375673 0.00049458 -0.01643367
v -0.00751346 0.00098917 -0.01644183
v -0.01127019 0.00148375 -0.01644999
v -0.01502692 0.00197833 -0.01645815
v -0.01585833 0.00208779 -0.01280078
v -0.01668974 0.00219725 -0.00914342
v -0.01752115 0.00230670 -0.00548605
v -0.01835255 0.00241616 -0.00182868
v -0.01918396 0.00252562 0.00182868
v -0.02001537 0.00263507 0.00548605
v -0.02084678 0.00274453 0.00914342
v -0.02167818 0.00285399 0.01280078
v -0.02250959 0.00296344 0.01645815
v -0.00378915 0.00000000 -0.01643367
v -0.00757830 0.00000000 -0.01644183
v -0.01136744 0.00000000 -0.01644999
v -0.01515659 0.00000000 -0.01645815
v -0.01599517 0.00000000 -0.01280078
v -0.01683375 0.00000000 -0.00914342
v -0.01767234 0.00000000 -0.00548605
v -0.01851092 0.00000000 -0.00182868
v -0.01934950 0.00000000 0.00182868
v -0.02018808 0.00000000 0.00548605
v -0.02102666 0.00000000 0.00914342
v -0.02186524 0.00000000 0.01280078
v -0.02270383 0.00000000 0.01645815
v -0.00375673 -0.00049458 -0.01643367
v -0.00751346 -0.00098917 -0.01644183
v -0.01127019 -0.00148375 -0.01644999
v -0.01502692 -0.00197833 -0.01645815
v -0.01585833 -0.00208779 -0.01280078
v -0.01668974 -0.00219725 -0.00914342
v -0.01752115 -0.00230670 -0.00548605
v -0.01835255 -0.00241616 -0.00182868
v -0.01918396 -0.00252562 0.00182868
v -0.02001537 -0.00263507 0.00548605
v -0.02084678 -0.00274453 0.00914342
v -0.02167818 -0.00285399 0.01280078
v -0.02250959 -0.00296344 0.01645815
v -0.00366004 -0.00098070 -0.01643367
v -0.00732007 -0.00196141 -0.01644183
v -0.01098011 -0.00294211 -0.01644999
v -0.01464014 -0.00392281 -0.01645815
v -0.01545015 -0.00413986 -0.01280078
v -0.01626016 -0.00435690 -0.00914342
v -0.01707017 -0.00457394 -0.00548605
v -0.01788017 -0.00479098 -0.00182868
v -0.01869018 -0.00500802 0.00182868
v -0.01950019 -0.00522506 0.00548605
v -0.02031020 -0.00544210 0.00914342
v -0.02112020 -0.00565914 0.01280078
v -0.02193021 -0.00587618 0.01645815
v -0.00350072 -0.00145004 -0.01643367
v -0.00700143 -0.00290009 -0.01644183
v -0.01050215 -0.00435013 -0.01644999
v -0.01400286 -0.00580018 -0.01645815
v -0.01477761 -0.00612109 -0.01280078
v -0.01555236 -0.00644200 -0.00914342
v -0.01632711 -0.00676291 -0.00548605
v -0.01710186 -0.00708382 -0.00182868
v -0.01787661 -0.00740473 0.00182868
v -0.01865136 -0.00772564 0.00548605
v -0.01942610 -0.00804656 0.00914342
v -0.02020085 -0.00836747 0.01280078
v -0.02097560 -0.00868838 0.01645815
v -0.00328150 -0.00189457 -0.01643367
v -0.00656300 -0.00378915 -0.01644183
v -0.00984449 -0.00568372 -0.01644999
v -0.01312599 -0.00757830 -0.01645815
v -0.01385223 -0.00799759 -0.01280078
v -0.01457846 -0.00841688 -0.00914342
v -0.01530469 -0.00883617 -0.00548605
v -0.01603093 -0.00925546 -0.00182868
v -0.01675716 -0.00967475 0.00182868
v -0.01748339 -0.01009404 0.00548605
v -0.01820962 -0.01051333 0.00914342
v -0.01893586 -0.01093262 0.01280078
v -0.01966209 -0.01135191 0.01645815
v -0.00300613 -0.00230669 -0.01643367
v -0.00601227 -0.00461337 -0.01644183
v -0.00901840 -0.00692006 -0.01644999
v -0.01202453 -0.00922675 -0.01645815
v -0.01268982 -0.00973724 -0.01280078
v -0.01335512 -0.01024774 -0.00914342
v -0.01402041 -0.01075824 -0.00548605
v -0.01468570 -0.01126873 -0.00182868
v -0.01535099 -0.01177923 0.00182868
v -0.01601628 -0.01228973 0.00548605
v -0.01668157 -0.01280022 0.00914342
v -0.01734686 -0.01331072 0.01280078
v -0.01801216 -0.01382121 0.01645815
v -0.00267933 -0.00267933 -0.01643367
v -0.00535866 -0.00535866 -0.01644183
v -0.00803800 -0.00803800 -0.01644999
v -0.01071733 -0.01071733 -0.01645815
v -0.01131030 -0.01131030 -0.01280078
v -0.01190326 -0.01190326 -0.00914342
v -0.01249623 -0.01249623 -0.00548605
v -0.01308920 -0.01308920 -0.00182868
v -0.01368216 -0.01368216 0.00182868
v -0.01427513 -0.01427513 0.00548605
v -0.01486810 -0.01486810 0.00914342
v -0.01546106 -0.01546106 0.01280078
v -0.01605403 -0.01605403 0.01645815
v -0.00230669 -0.00300613 -0.01643367
v -0.00461337 -0.00601227 -0.01644183
v -0.00692006 -0.00901840 -0.01644999
v -0.00922675 -0.01202453 -0.01645815
v -0.00973724 -0.01268982 -0.01280078
v -0.01024774 -0.01335512 -0.00914342
v -0.01075824 -0.01402041 -0.00548605
v -0.01126873 -0.01468570 -0.00182868
v -0.01177923 -0.01535099 0.00182868
v -0.01228973 -0.01601628 0.00548605
v -0.01280022 -0.01668157 0.00914342
v -0.01331072 -0.01734686 0.01280078
v -0.01382121 -0.01801216 0.01645815
v -0.00189457 -0.00328150 -0.01643367
v -0.00378915 -0.00656300 -0.01644183
v -0.00568372 -0.00984449 -0.01644999
v -0.00757830 -0.01312599 -0.01645815
v -0.00799759 -0.01385223 -0.01280078
v -0.00841688 -0.01457846 -0.00914342
v -0.00883617 -0.01530469 -0.00548605
v -0.00925546 -0.01603093 -0.00182868
v -0.00967475 -0.01675716 0.00182868
v -0.01009404 -0.01748339 0.00548605
v -0.01051333 -0.01820962 0.00914342
v -0.01093262 -0.01893586 0.01280078
v -0.01135191 -0.01966209 0.01645815
v -0.00145004 -0.00350072 -0.01643367
v -0.00290009 -0.00700143 -0.01644183
v -0.00435013 -0.01050215 -0.01644999
v -0.00580018 -0.01400286 -0.01645815
v -0.00612109 -0.01477761 -0.01280078
v -0.00644200 -0.01555236 -0.00914342
v -0.00676291 -0.01632711 -0.00548605
v -0.00708382 -0.01710186 -0.00182868
v -0.00740473 -0.01787661 0.00182868
v -0.00772564 -0.01865136 0.00548605
v -0.00804656 -0.01942610 0.00914342
v -0.00836747 -0.02020085 0.01280078
v -0.00868838 -0.02097560 0.01645815
v -0.00098070 -0.00366004 -0.01643367
v -0.00196141 -0.00732007 -0.01644183
v -0.00294211 -0.01098011 -0.01644999
v -0.00392281 -0.01464014 -0.01645815
v -0.00413986 -0.01545015 -0.01280078
v -0.00435690 -0.01626016 -0.00914342
v -0.00457394 -0.01707017 -0.00548605
v -0.00479098 -0.01788017 -0.00182868
v -0.00500802 -0.01869018 0.00182868
v -0.00522506 -0.01950019 0.00548605
v -0.00544210 -0.02031020 0.00914342
v -0.00565914 -0.02112020 0.01280078
v -0.00587618 -0.02193021 0.01645815
v -0.00049458 -0.00375673 -0.01643367
v -0.00098917 -0.00751346 -0.01644183
v -0.00148375 -0.01127019 -0.01644999
v -0.00197833 -0.01502692 -0.01645815
v -0.00208779 -0.01585833 -0.01280078
v -0.00219725 -0.01668974 -0.00914342
v -0.00230670 -0.01752115 -0.00548605
v -0.00241616 -0.01835255 -0.00182868
v -0.00252562 -0.01918396 0.00182868
v -0.00263507 -0.02001537 0.00548605
v -0.00274453 -0.02084678 0.00914342
v -0.00285399 -0.02167818 0.01280078
v -0.00296344 -0.02250959 0.01645815
v -0.00000000 -0.00378915 -0.01643367
v -0.00000000 -0.00757830 -0.01644183
v -0.00000000 -0.01136744 -0.01644999
v -0.00000000 -0.01515659 -0.01645815
v -0.00000000 -0.01599517 -0.01280078
v -0.00000000 -0.01683375 -0.00914342
v -0.00000000 -0.01767234 -0.00548605
v -0.00000000 -0.01851092 -0.00182868
v -0.00000000 -0.01934950 0.00182868
v -0.00000000 -0.02018808 0.00548605
v -0.00000000 -0.02102666 0.00914342
v -0.00000000 -0.02186524 0.01280078
v -0.00000000 -0.02270383 0.01645815
v 0.00049458 -0.00375673 -0.01643367
v 0.00098917 -0.00751346 -0.01644183
v 0.00148375 -0.01127019 -0.01644999
v 0.00197833 -0.01502692 -0.01645815
v 0.00208779 -0.01585833 -0.01280078
v 0.00219725 -0.01668974 -0.00914342
v 0.00230670 -0.01752115 -0.00548605
v 0.00241616 -0.01835255 -0.00182868
v 0.00252562 -0.01918396 0.00182868
v 0.00263507 -0.02001537 0.00548605
v 0.00274453 -0.02084678 0.00914342
v 0.00285399 -0.02167818 0.01280078
v 0.00296344 -0.02250959 0.01645815
v 0.00098070 -0.00366004 -0.01643367
v 0.00196141 -0.00732007 -0.01644183
v 0.00294211 -0.01098011 -0.01644999
v 0.00392281 -0.01464014 -0.01645815
v 0.00413986 -0.01545015 -0.01280078
v 0.00435690 -0.01626016 -0.00914342
v 0.00457394 -0.01707017 -0.00548605
v 0.00479098 -0.01788017 -0.00182868
v 0.00500802 -0.01869018 0.00182868
v 0.00522506 -0.01950019 0.00548605
v 0.00544210 -0.02031020 0.00914342
v 0.00565914 -0.02112020 0.01280078
v 0.00587618 -0.02193021 0.01645815
v 0.00145004 -0.00350072 -0.01643367
v 0.00290009 -0.00700143 -0.01644183
v 0.00435013 -0.01050215 -0.01644999
v 0.00580018 -0.01400286 -0.01645815
v 0.00612109 -0.01477761 -0.01280078
v 0.00644200 -0.01555236 -0.00914342
v 0.00676291 -0.01632711 -0.00548605
v 0.00708382 -0.01710186 -0.00182868
v 0.00740473 -0.01787661 0.00182868
v 0.00772564 -0.01865136 0.00548605
v 0.00804656 -0.01942610 0.00914342
v 0.00836747 -0.02020085 0.01280078
v 0.00868838 -0.02097560 0.01645815
v 0.00189457 -0.00328150 -0.01643367
v 0.00378915 -0.00656300 -0.01644183
v 0.00568372 -0.00984449 -0.01644999
v 0.00757830 -0.01312599 -0.01645815
v 0.00799759 -0.01385223 -0.01280078
v 0.00841688 -0.01457846 -0.00914342
v 0.00883617 -0.01530469 -0.00548605
v 0.00925546 -0.01603093 -0.00182868
v 0.00967475 -0.01675716 0.00182868
v 0.01009404 -0.01748339 0.00548605
v 0.01051333 -0.01820962 0.00914342
v 0.01093262 -0.01893586 0.01280078
v 0.01135191 -0.01966209 0.01645815
v 0.00230669 -0.00300613 -0.01643367
v 0.00461337 -0.00601227 -0.01644183
v 0.00692006 -0.00901840 -0.01644999
v 0.00922675 -0.01202453 -0.01645815
v 0.00973724 -0.01268982 -0.01280078
v 0.01024774 -0.01335512 -0.00914342
v 0.01075824 -0.01402041 -0.00548605
v 0.01126873 -0.01468570 -0.00182868
v 0.01177923 -0.01535099 0.00182868
v 0.01228973 -0.01601628 0.00548605
v 0.01280022 -0.01668157 0.00914342
v 0.01331072 -0.01734686 0.01280078
v 0.01382121 -0.01801216 0.01645815
v 0.00267933 -0.00267933 -0.01643367
v 0.00535866 -0.00535866 -0.01644183
v 0.00803800 -0.00803800 -0.01644999
v 0.01071733 -0.01071733 -0.01645815
v 0.01131030 -0.01131030 -0.01280078
v 0.01190326 -0.01190326 -0.00914342
v 0.01249623 -0.01249623 -0.00548605
v 0.01308920 -0.01308920 -0.00182868
v 0.01368216 -0.01368216 0.00182868
v 0.01427513 -0.01427513 0.00548605
v 0.01486810 -0.01486810 0.00914342
v 0.01546106 -0.01546106 0.01280078
v 0.01605403 -0.01605403 0.01645815
v 0.00300613 -0.00230669 -0.01643367
v 0.00601227 -0.00461337 -0.01644183
v 0.00901840 -0.00692006 -0.01644999
v 0.01202453 -0.00922675 -0.01645815
v 0.01268982 -0.00973724 -0.01280078
v 0.01335512 -0.01024774 -0.00914342
v 0.01402041 -0.01075824 -0.00548605
v 0.01468570 -0.01126873 -0.00182868
v 0.01535099 -0.01177923 0.00182868
v 0.01601628 -0.01228973 0.00548605
v 0.01668157 -0.01280022 0.00914342
v 0.01734686 -0.01331072 0.01280078
v 0.01801216 -0.01382121 0.01645815
v 0.00328150 -0.00189457 -0.01643367
v 0.00656300 -0.00378915 -0.01644183
v 0.00984449 -0.00568372 -0.01644999
v 0.01312599 -0.00757830 -0.01645815
v 0.01385223 -0.00799759 -0.01280078
v 0.01457846 -0.00841688 -0.00914342
v 0.01530469 -0.00883617 -0.00548605
v 0.01603093 -0.00925546 -0.00182868
v 0.01675716 -0.00967475 0.00182868
v 0.01748339 -0.01009404 0.00548605
v 0.01820962 -0.01051333 0.00914342
v 0.01893586 -0.01093262 0.01280078
v 0.01966209 -0.01135191 0.01645815
v 0.00350072 -0.00145004 -0.01643367
v 0.00700143 -0.00290009 -0.01644183
v 0.01050215 -0.00435013 -0.01644999
v 0.01400286 -0.00580018 -0.01645815
v 0.01477761 -0.00612109 -0.01280078
v 0.01555236 -0.00644200 -0.00914342
v 0.01632711 -0.00676291 -0.00548605
v 0.01710186 -0.00708382 -0.00182868
v 0.01787661 -0.00740473 0.00182868
v 0.01865136 -0.00772564 0.00548605
v 0.01942610 -0.00804656 0.00914342
v 0.02020085 -0.00836747 0.01280078
v 0.02097560 -0.00868838 0.01645815
v 0.00366004 -0.00098070 -0.01643367
v 0.00732007 -0.00196141 -0.01644183
v 0.01098011 -0.00294211 -0.01644999
v 0.01464014 -0.00392281 -0.01645815
v 0.01545015 -0.00413986 -0.01280078
v 0.01626016 -0.00435690 -0.00914342
v 0.01707017 -0.00457394 -0.00548605
v 0.01788017 -0.00479098 -0.00182868
v 0.01869018 -0.00500802 0.00182868
v 0.01950019 -0.00522506 0.00548605
v 0.02031020 -0.00544210 0.00914342
v 0.02112020 -0.00565914 0.01280078
v 0.02193021 -0.00587618 0.01645815
v 0.00375673 -0.00049458 -0.01643367
v 0.00751346 -0.00098917 -0.01644183
v 0.01127019 -0.00148375 -0.01644999
v 0.01502692 -0.00197833 -0.01645815
v 0.01585833 -0.00208779 -0.01280078
v 0.01668974 -0.00219725 -0.00914342
v 0.01752115 -0.00230670 -0.00548605
v 0.01835255 -0.00241616 -0.00182868
v 0.01918396 -0.00252562 0.00182868
v 0.02001537 -0.00263507 0.00548605
v 0.02084678 -0.00274453 0.00914342
v 0.02167818 -0.00285399 0.01280078
v 0.02250959 -0.00296344 0.01645815
f 2 1 15
f 2 15 3
f 3 15 16
f 3 16 4
f 4 16 17
f 4 17 5
f 5 17 18
f 5 18 6
f 6 18 19
f 6 19 7
f 7 19 20
f 7 20 8
f 8 20 21
f 8 21 9
f 9 21 22
f 9 22 10
f 10 22 23
f 10 23 11
f 11 23 24
f 11 24 12
f 12 24 25
f 12 25 13
f 13 25 26
f 13 26 14
f 14 26 27
f 15 1 28
f 15 28 16
f 16 28 29
f 16 29 17
f 17 29 30
f 17 30 18
f 18 30 31
f 18 31 19
f 19 31 32
f 19 32 20
f 20 32 33
f 20 33 21
f 21 33 34
f 21 34 22
f 22 34 35
f 22 35 23
f 23 35 36
f 23 36 24
f 24 36 37
f 24 37 25
f 25 37 38
f 25 38 26
f 26 38 39
f 26 39 27
f 27 39 40
f 28 1 41
f 28 41 29
f 29 41 42
f 29 42 30
f 30 42 43
f 30 43 31
f 31 43 44
f 31 44 32
f 32 44 45
f 32 45 33
f 33 45 46
f 33 46 34
f 34 46 47
f 34 47 35
f 35 47 48
f 35 48 36
f 36 48 49
f 36 49 37
f 37 49 50
f 37 50 38
f 38 50 51
f 38 51 39
f 39 51 52
f 39 52 40
f 40 52 53
f 41 1 54
f 41 54 42
f 42 54 55
f 42 55 43
f 43 55 56
f 43 56 44
f 44 56 57
f 44 57 45
f 45 57 58
f 45 58 46
f 46 58 59
f 46 59 47
f 47 59 60
f 47 60 48
f 48 60 61
f 48 61 49
f 49 61 62
f 49 62 50
f 50 62 63
f 50 63 51
f 51 63 64
f 51 64 52
f 52 64 65
f 52 65 53
f 53 65 66
f 54 1 67
f 54 67 55
f 55 67 68
f 55 68 56
f 56 68 69
f 56 69 57
f 57 69 70
f 57 70 58
f 58 70 71
f 58 71 59
f 59 71 72
f 59 72 60
f 60 72 73
f 60 73 61
f 61 73 74
f 61 74 62
f 62 74 75
f 62 75 63
f 63 75 76
f 63 76 64
f 64 76 77
f 64 77 65
f 65 77 78
f 65 78 66
f 66 78 79
f 67 1 80
f 67 80 68
f 68 80 81
f 68 81 69
f 69 81 82
f 69 82 70
f 70 82 83
f 70 83 71
f 71 83 84
f 71 84 72
f 72 84 85
f 72 85 73
f 73 85 86
f 73 86 74
f 74 86 87
f 74 87 75
f 75 87 88
f 75 88 76
f 76 88 89
f 76 89 77
f 77 89 90
f 77 90 78
f 78 90 91
f 78 91 79
f 79 91 92
f 80 1 93
f 80 93 81
f 81 93 94
f 81 94 82
f 82 94 95
f 82 95 83
f 83 95 96
f 83 96 84
f 84 96 97
f 84 97 85
f 85 97 98
f 85 98 86
f 86 98 99
f 86 99 87
f 87 99 100
f 87 100 88
f 88 100 101
f 88 101 89
f 89 101 102
f 89 102 90
f 90 102 103
f 90 103 91
f 91 103 104
f 91 104 92
f 92 104 105
f 93 1 106
f 93 106 94
f 94 106 107
f 94 107 95
f 95 107 108
f 95 108 96
f 96 108 109
f 96 109 97
f 97 109 110
f 97 110 98
f 98 110 111
f 98 111 99
f 99 111 112
f 99 112 100
f 100 112 113
f 100 113 101
f 101 113 114
f 101 114 102
f 102 114 115
f 102 115 103
f 103 115 116
f 103 116 104
f 104 116 117
f 104 117 105
f 105 117 118
f 106 1 119
f 106 119 107
f 107 119 120
f 107 120 108
f 108 120 121
f 108 121 109
f 109 121 122
f 109 122 110
f 110 122 123
f 110 123 111
f 111 123 124
f 111 124 112
f 112 124 125
f 112 125 113
f 113 125 126
f 113 126 114
f 114 126 127
f 114 127 115
f 115 127 128
f 115 128 116
f 116 128 129
f 116 129 117
f 117 129 130
f 117 130 118
f 118 130 131
f 119 1 132
f 119 132 120
f 120 132 133
f 120 133 121
f 121 133 134
f 121 134 122
f 122 134 135
f 122 135 123
f 123 135 136
f 123 136 124
f 124 136 137
f 124 137 125
f 125 137 138
f 125 138 126
f 126 138 139
f 126 139 127
f 127 139 140
f 127 140 128
f 128 140 141
f 128 141 129
f 129 141 142
f 129 142 130
f 130 142 143
f 130 143 131
f 131 143 144
f 132 1 145
f 132 145 133
f 133 145 146
f 133 146 134
f 134 146 147
f 134 147 135
f 135 147 148
f 135 148 136
f 136 148 149
f 136 149 137
f 137 149 150
f 137 150 138
f 138 150 151
f 138 151 139
f 139 151 152
f 139 152 140
f 140 152 153
f 140 153 141
f 141 153 154
f 141 154 142
f 142 154 155
f 142 155 143
f 143 155 156
f 143 156 144
f 144 156 157
f 145 1 158
f 145 158 146
f 146 158 159
f 146 159 147
f 147 159 160
f 147 160 148
f 148 160 161
f 148 161 149
f 149 161 162
f 149 162 150
f 150 162 163
f 150 163 151
f 151 163 164
f 151 164 152
f 152 164 165
f 152 165 153
f 153 165 166
f 153 166 154
f 154 166 167
f 154 167 155
f 155 167 168
f 155 168 156
f 156 168 169
f 156 169 157
f 157 169 170
f 158 1 171
f 158 171 159
f 159 171 172
f 159 172 160
f 160 172 173
f 160 173 161
f 161 173 174
f 161 174 162
f 162 174 175
f 162 175 163
f 163 175 176
f 163 176 164
f 164 176 177
f 164 177 165
f 165 177 178
f 165 178 166
f 166 178 179
f 166 179 167
f 167 179 180
f 167 180 168
f 168 180 181
f 168 181 169
f 169 181 182
f 169 182 170
f 170 182 183
f 171 1 184
f 171 184 172
f 172 184 185
f 172 185 173
f 173 185 186
f 173 186 174
f 174 186 187
f 174 187 175
f 175 187 188
f 175 188 176
f 176 188 189
f 176 189 177
f 177 189 190
f 177 190 178
f 178 190 191
f 178 191 179
f 179 191 192
f 179 192 180
f 180 192 193
f 180 193 181
f 181 193 194
f 181 194 182
f 182 194 195
f 182 195 183
f 183 195 196
f 184 1 197
f 184 197 185
f 185 197 198
f 185 198 186
f 186 198 199
f 186 199 187
f 187 199 200
f 187 200 188
f 188 200 201
f 188 201 189
f 189 201 202
f 189 202 190
f 190 202 203
f 190 203 191
f 191 203 204
f 191 204 192
f 192 204 205
f 192 205 193
f 193 205 206
f 193 206 194
f 194 206 207
f 194 207 195
f 195 207 208
f 195 208 196
f 196 208 209
f 197 1 210
f 197 210 198
f 198 210 211
f 198 211 199
f 199 211 212
f 199 212 200
f 200 212 213
f 200 213 201
f 201 213 214
f 201 214 202
f 202 214 215
f 202 215 203
f 203 215 216
f 203 216 204
f 204 216 217
f 204 217 205
f 205 217 218
f 205 218 206
f 206 218 219
f 206 219 207
f 207 219 220
f 207 220 208
f 208 220 221
f 208 221 209
f 209 221 222
f 210 1 223
f 210 223 211
f 211 223 224
f 211 224 212
f 212 224 225
f 212 225 213
f 213 225 226
f 213 226 214
f 214 226 227
f 214 227 215
f 215 227 228
f 215 228 216
f 216 228 229
f 216 229 217
f 217 229 230
f 217 230 218
f 218 230 231
f 218 231 219
f 219 231 232
f 219 232 220
f 220 232 233
f 220 233 221
f 221 233 234
f 221 234 222
f 222 234 235
f 223 1 236
f 223 236 224
f 224 236 237
f 224 237 225
f 225 237 238
f 225 238 226
f 226 238 239
f 226 239 227
f 227 239 240
f 227 240 228
f 228 240 241
f 228 241 229
f 229 241 242
f 229 242 230
f 230 242 243
f 230 243 231
f 231 243 244
f 231 244 232
f 232 244 245
f 232 245 233
f 233 245 246
f 233 246 234
f 234 246 247
f 234 247 235
f 235 247 248
f 236 1 249
f 236 249 237
f 237 249 250
f 237 250 238
f 238 250 251
f 238 251 239
f 239 251 252
f 239 252 240
f 240 252 253
f 240 253 241
f 241 253 254
f 241 254 242
f 242 254 255
f 242 255 243
f 243 255 256
f 243 256 244
f 244 256 257
f 244 257 245
f 245 257 258
f 245 258 246
f 246 258 259
f 246 259 247
f 247 259 260
f 247 260 248
f 248 260 261
f 249 1 262
f 249 262 250
f 250 262 263
f 250 263 251
f 251 263 264
f 251 264 252
f 252 264 265
f 252 265 253
f 253 265 266
f 253 266 254
f 254 266 267
f 254 267 255
f 255 267 268
f 255 268 256
f 256 268 269
f 256 269 257
f 257 269 270
f 257 270 258
f 258 270 271
f 258 271 259
f 259 271 272
f 259 272 260
f 260 272 273
f 260 273 261
f 261 273 274
f 262 1 275
f 262 275 263
f 263 275 276
f 263 276 264
f 264 276 277
f 264 277 265
f 265 277 278
f 265 278 266
f 266 278 279
f 266 279 267
f 267 279 280
f 267 280 268
f 268 280 281
f 268 281 269
f 269 281 282
f 269 282 270
f 270 282 283
f 270 283 271
f 271 283 284
f 271 284 272
f 272 284 285
f 272 285 273
f 273 285 286
f 273 286 274
f 274 286 287
f 275 1 288
f 275 288 276
f 276 288 289
f 276 289 277
f 277 289 290
f 277 290 278
f 278 290 291
f 278 291 279
f 279 291 292
f 279 292 280
f 280 292 293
f 280 293 281
f 281 293 294
f 281 294 282
f 282 294 295
f 282 295 283
f 283 295 296
f 283 296 284
f 284 296 297
f 284 297 285
f 285 297 298
f 285 298 286
f 286 298 299
f 286 299 287
f 287 299 300
f 288 1 301
f 288 301 289
f 289 301 302
f 289 302 290
f 290 302 303
f 290 303 291
f 291 303 304
f 291 304 292
f 292 304 305
f 292 305 293
f 293 305 306
f 293 306 294
f 294 306 307
f 294 307 295
f 295 307 308
f 295 308 296
f 296 308 309
f 296 309 297
f 297 309 310
f 297 310 298
f 298 310 311
f 298 311 299
f 299 311 312
f 299 312 300
f 300 312 313
f 301 1 314
f 301 314 302
f 302 314 315
f 302 315 303
f 303 315 316
f 303 316 304
f 304 316 317
f 304 317 305
f 305 317 318
f 305 318 306
f 306 318 319
f 306 319 307
f 307 319 320
f 307 320 308
f 308 320 321
f 308 321 309
f 309 321 322
f 309 322 310
f 310 322 323
f 310 323 311
f 311 323 324
f 311 324 312
f 312 324 325
f 312 325 313
f 313 325 326
f 314 1 327
f 314 327 315
f 315 327 328
f 315 328 316
f 316 328 329
f 316 329 317
f 317 329 330
f 317 330 318
f 318 330 331
f 318 331 319
f 319 331 332
f 319 332 320
f 320 332 333
f 320 333 321
f 321 333 334
f 321 334 322
f 322 334 335
f 322 335 323
f 323 335 336
f 323 336 324
f 324 336 337
f 324 337 325
f 325 337 338
f 325 338 326
f 326 338 339
f 327 1 340
f 327 340 328
f 328 340 341
f 328 341 329
f 329 341 342
f 329 342 330
f 330 342 343
f 330 343 331
f 331 343 344
f 331 344 332
f 332 344 345
f 332 345 333
f 333 345 346
f 333 346 334
f 334 346 347
f 334 347 335
f 335 347 348
f 335 348 336
f 336 348 349
f 336 349 337
f 337 349 350
f 337 350 338
f 338 350 351
f 338 351 339
f 339 351 352
f 340 1 353
f 340 353 341
f 341 353 354
f 341 354 342
f 342 354 355
f 342 355 343
f 343 355 356
f 343 356 344
f 344 356 357
f 344 357 345
f 345 357 358
f 345 358 346
f 346 358 359
f 346 359 347
f 347 359 360
f 347 360 348
f 348 360 361
f 348 361 349
f 349 361 362
f 349 362 350
f 350 362 363
f 350 363 351
f 351 363 364
f 351 364 352
f 352 364 365
f 353 1 366
f 353 366 354
f 354 366 367
f 354 367 355
f 355 367 368
f 355 368 356
f 356 368 369
f 356 369 357
f 357 369 370
f 357 370 358
f 358 370 371
f 358 371 359
f 359 371 372
f 359 372 360
f 360 372 373
f 360 373 361
f 361 373 374
f 361 374 362
f 362 374 375
f 362 375 363
f 363 375 376
f 363 376 364
f 364 376 377
f 364 377 365
f 365 377 378
f 366 1 379
f 366 379 367
f 367 379 380
f 367 380 368
f 368 380 381
f 368 381 369
f 369 381 382
f 369 382 370
f 370 382 383
f 370 383 371
f 371 383 384
f 371 384 372
f 372 384 385
f 372 385 373
f 373 385 386
f 373 386 374
f 374 386 387
f 374 387 375
f 375 387 388
f 375 388 376
f 376 388 389
f 376 389 377
f 377 389 390
f 377 390 378
f 378 390 391
f 379 1 392
f 379 392 380
f 380 392 393
f 380 393 381
f 381 393 394
f 381 394 382
f 382 394 395
f 382 395 383
f 383 395 396
f 383 396 384
f 384 396 397
f 384 397 385
f 385 397 398
f 385 398 386
f 386 398 399
f 386 399 387
f 387 399 400
f 387 400 388
f 388 400 401
f 388 401 389
f 389 401 402
f 389 402 390
f 390 402 403
f 390 403 391
f 391 403 404
f 392 1 405
f 392 405 393
f 393 405 406
f 393 406 394
f 394 406 407
f 394 407 395
f 395 407 408
f 395 408 396
f 396 408 409
f 396 409 397
f 397 409 410
f 397 410 398
f 398 410 411
f 398 411 399
f 399 411 412
f 399 412 400
f 400 412 413
f 400 413 401
f 401 413 414
f 401 414 402
f 402 414 415
f 402 415 403
f 403 415 416
f 403 416 404
f 404 416 417
f 405 1 418
f 405 418 406
f 406 418 419
f 406 419 407
f 407 419 420
f 407 420 408
f 408 420 421
f 408 421 409
f 409 421 422
f 409 422 410
f 410 422 423
f 410 423 411
f 411 423 424
f 411 424 412
f 412 424 425
f 412 425 413
f 413 425 426
f 413 426 414
f 414 426 427
f 414 427 415
f 415 427 428
f 415 428 416
f 416 428 429
f 416 429 417
f 417 429 430
f 418 1 431
f 418 431 419
f 419 431 432
f 419 432 420
f 420 432 433
f 420 433 421
f 421 433 434
f 421 434 422
f 422 434 435
f 422 435 423
f 423 435 436
f 423 436 424
f 424 436 437
f 424 437 425
f 425 437 438
f 425 438 426
f 426 438 439
f 426 439 427
f 427 439 440
f 427 440 428
f 428 440 441
f 428 441 429
f 429 441 442
f 429 442 430
f 430 442 443
f 431 1 444
f 431 444 432
f 432 444 445
f 432 445 433
f 433 445 446
f 433 446 434
f 434 446 447
f 434 447 435
f 435 447 448
f 435 448 436
f 436 448 449
f 436 449 437
f 437 449 450
f 437 450 438
f 438 450 451
f 438 451 439
f 439 451 452
f 439 452 440
f 440 452 453
f 440 453 441
f 441 453 454
f 441 454 442
f 442 454 455
f 442 455 443
f 443 455 456
f 444 1 457
f 444 457 445
f 445 457 458
f 445 458 446
f 446 458 459
f 446 459 447
f 447 459 460
f 447 460 448
f 448 460 461
f 448 461 449
f 449 461 462
f 449 462 450
f 450 462 463
f 450 463 451
f 451 463 464
f 451 464 452
f 452 464 465
f 452 465 453
f 453 465 466
f 453 466 454
f 454 466 467
f 454 467 455
f 455 467 468
f 455 468 456
f 456 468 469
f 457 1 470
f 457 470 458
f 458 470 471
f 458 471 459
f 459 471 472
f 459 472 460
f 460 472 473
f 460 473 461
f 461 473 474
f 461 474 462
f 462 474 475
f 462 475 463
f 463 475 476
f 463 476 464
f 464 476 477
f 464 477 465
f 465 477 478
f 465 478 466
f 466 478 479
f 466 479 467
f 467 479 480
f 467 480 468
f 468 480 481
f 468 481 469
f 469 481 482
f 470 1 483
f 470 483 471
f 471 483 484
f 471 484 472
f 472 484 485
f 472 485 473
f 473 485 486
f 473 486 474
f 474 486 487
f 474 487 475
f 475 487 488
f 475 488 476
f 476 488 489
f 476 489 477
f 477 489 490
f 477 490 478
f 478 490 491
f 478 491 479
f 479 491 492
f 479 492 480
f 480 492 493
f 480 493 481
f 481 493 494
f 481 494 482
f 482 494 495
f 483 1 496
f 483 496 484
f 484 496 497
f 484 497 485
f 485 497 498
f 485 498 486
f 486 498 499
f 486 499 487
f 487 499 500
f 487 500 488
f 488 500 501
f 488 501 489
f 489 501 502
f 489 502 490
f 490 502 503
f 490 503 491
f 491 503 504
f 491 504 492
f 492 504 505
f 492 505 493
f 493 505 506
f 493 506 494
f 494 506 507
f 494 507 495
f 495 507 508
f 496 1 509
f 496 509 497
f 497 509 510
f 497 510 498
f 498 510 511
f 498 511 499
f 499 511 512
f 499 512 500
f 500 512 513
f 500 513 501
f 501 513 514
f 501 514 502
f 502 514 515
f 502 515 503
f 503 515 516
f 503 516 504
f 504 516 517
f 504 517 505
f 505 517 518
f 505 518 506
f 506 518 519
f 506 519 507
f 507 519 520
f 507 520 508
f 508 520 521
f 509 1 522
f 509 522 510
f 510 522 523
f 510 523 511
f 511 523 524
f 511 524 512
f 512 524 525
f 512 525 513
f 513 525 526
f 513 526 514
f 514 526 527
f 514 527 515
f 515 527 528
f 515 528 516
f 516 528 529
f 516 529 517
f 517 529 530
f 517 530 518
f 518 530 531
f 518 531 519
f 519 531 532
f 519 532 520
f 520 532 533
f 520 533 521
f 521 533 534
f 522 1 535
f 522 535 523
f 523 535 536
f 523 536 524
f 524 536 537
f 524 537 525
f 525 537 538
f 525 538 526
f 526 538 539
f 526 539 527
f 527 539 540
f 527 540 528
f 528 540 541
f 528 541 529
f 529 541 542
f 529 542 530
f 530 542 543
f 530 543 531
f 531 543 544
f 531 544 532
f 532 544 545
f 532 545 533
f 533 545 546
f 533 546 534
f 534 546 547
f 535 1 548
f 535 548 536
f 536 548 549
f 536 549 537
f 537 549 550
f 537 550 538
f 538 550 551
f 538 551 539
f 539 551 552
f 539 552 540
f 540 552 553
f 540 553 541
f 541 553 554
f 541 554 542
f 542 554 555
f 542 555 543
f 543 555 556
f 543 556 544
f 544 556 557
f 544 557 545
f 545 557 558
f 545 558 546
f 546 558 559
f 546 559 547
f 547 559 560
f 548 1 561
f 548 561 549
f 549 561 562
f 549 562 550
f 550 562 563
f 550 563 551
f 551 563 564
f 551 564 552
f 552 564 565
f 552 565 553
f 553 565 566
f 553 566 554
f 554 566 567
f 554 567 555
f 555 567 568
f 555 568 556
f 556 568 569
f 556 569 557
f 557 569 570
f 557 570 558
f 558 570 571
f 558 571 559
f 559 571 572
f 559 572 560
f 560 572 573
f 561 1 574
f 561 574 562
f 562 574 575
f 562 575 563
f 563 575 576
f 563 576 564
f 564 576 577
f 564 577 565
f 565 577 578
f 565 578 566
f 566 578 579
f 566 579 567
f 567 579 580
f 567 580 568
f 568 580 581
f 568 581 569
f 569 581 582
f 569 582 570
f 570 582 583
f 570 583 571
f 571 583 584
f 571 584 572
f 572 584 585
f 572 585 573
f 573 585 586
f 574 1 587
f 574 587 575
f 575 587 588
f 575 588 576
f 576 588 589
f 576 589 577
f 577 589 590
f 577 590 578
f 578 590 591
f 578 591 579
f 579 591 592
f 579 592 580
f 580 592 593
f 580 593 581
f 581 593 594
f 581 594 582
f 582 594 595
f 582 595 583
f 583 595 596
f 583 596 584
f 584 596 597
f 584 597 585
f 585 597 598
f 585 598 586
f 586 598 599
f 587 1 600
f 587 600 588
f 588 600 601
f 588 601 589
f 589 601 602
f 589 602 590
f 590 602 603
f 590 603 591
f 591 603 604
f 591 604 592
f 592 604 605
f 592 605 593
f 593 605 606
f 593 606 594
f 594 606 607
f 594 607 595
f 595 607 608
f 595 608 596
f 596 608 609
f 596 609 597
f 597 609 610
f 597 610 598
f 598 610 611
f 598 611 599
f 599 611 612
f 600 1 613
f 600 613 601
f 601 613 614
f 601 614 602
f 602 614 615
f 602 615 603
f 603 615 616
f 603 616 604
f 604 616 617
f 604 617 605
f 605 617 618
f 605 618 606
f 606 618 619
f 606 619 607
f 607 619 620
f 607 620 608
f 608 620 621
f 608 621 609
f 609 621 622
f 609 622 610
f 610 622 623
f 610 623 611
f 611 623 624
f 611 624 612
f 612 624 625
f 613 1 2
f 613 2 614
f 614 2 3
f 614 3 615
f 615 3 4
f 615 4 616
f 616 4 5
f 616 5 617
f 617 5 6
f 617 6 618
f 618 6 7
f 618 7 619
f 619 7 8
f 619 8 620
f 620 8 9
f 620 9 621
f 621 9 10
f 621 10 622
f 622 10 11
f 622 11 623
f 623 11 12
f 623 12 624
f 624 12 13
f 624 13 625
f 625 13 14

