mtllib material.mtl

o Object_0
usemtl initialShadingGroup
v 0.02189133 -0.00711291 0.02374668
v 0.02025660 -0.01032125 0.02374668
v 0.01653420 -0.00537228 -0.02170668
v 0.01406483 -0.01021869 -0.02170668
v 0.01862188 -0.01352957 0.02374668
v 0.01607572 -0.01607571 0.02374668
v 0.01021870 -0.01406483 -0.02170668
v 0.01352958 -0.01862187 0.02374668
v 0.01032126 -0.02025658 0.02374668
v 0.00537229 -0.01653418 -0.02170668
v 0.00711292 -0.02189130 0.02374668
v 0.00355647 -0.02245458 0.02374668
v 0.00000001 -0.01738507 -0.02170668
v 0.00000001 -0.02301788 0.02374668
v -0.00355646 -0.02245458 0.02374668
v -0.00537227 -0.01653418 -0.02170668
v -0.00711290 -0.02189130 0.02374668
v -0.01032124 -0.02025658 0.02374668
v -0.01021868 -0.01406481 -0.02170668
v -0.01352956 -0.01862185 0.02374668
v -0.01607571 -0.01607571 0.02374668
v -0.01406481 -0.01021869 -0.02170668
v -0.01862185 -0.01352957 0.02374668
v -0.02025658 -0.01032125 0.02374668
v -0.01653418 -0.00537228 -0.02170668
v -0.02189130 -0.00711291 0.02374668
v -0.02245458 -0.00355646 0.02374668
v -0.01738507 -0.00000000 -0.02170668
v -0.02301788 0.00000000 0.02374668
v -0.02245458 0.00355646 0.02374668
v -0.01653418 0.00537228 -0.02170668
v -0.02189130 0.00711291 0.02374668
v -0.02025658 0.01032125 0.02374668
v -0.01406481 0.01021869 -0.02170668
v -0.01862185 0.01352957 0.02374668
v -0.01607571 0.01607571 0.02374668
v -0.01021868 0.01406481 -0.02170668
v -0.01352956 0.01862185 0.02374668
v -0.01032124 0.02025657 0.02374668
v -0.00537227 0.01653417 -0.02170668
v -0.00711290 0.02189130 0.02374668
v -0.00355646 0.02245458 0.02374668
v 0.00000001 0.01738506 -0.02170668
v 0.00000001 0.02301787 0.02374668
v 0.00355646 0.02245458 0.02374668
v 0.00537229 0.01653417 -0.02170668
v 0.00711292 0.02189130 0.02374668
v 0.01032124 0.02025657 0.02374668
v 0.01021870 0.01406481 -0.02170668
v 0.01352958 0.01862185 0.02374668
v 0.01607572 0.01607571 0.02374668
v 0.01406483 0.01021869 -0.02170668
v 0.01862185 0.01352957 0.02374668
v 0.02025658 0.01032123 0.02374668
v 0.01653418 0.00537228 -0.02170668
v 0.02189131 0.00711291 0.02374668
v 0.02245460 0.00355646 0.02374668
v 0.01738507 -0.00000000 -0.02170668
v 0.02301788 0.00000000 0.02374668
v 0.02245460 -0.00355646 0.02374668
v 0.01653420 -0.00537228 -0.02170668
v 0.02189133 -0.00711291 0.02374668
v 0.00826710 -0.00268615 -0.02249206
v 0.00703242 -0.00510934 -0.02249206
v 0.00000001 -0.00000000 -0.02271853
v 0.00510935 -0.00703241 -0.02249206
v 0.00268616 -0.00826708 -0.02249206
v 0.00000001 -0.00869254 -0.02249206
v -0.00268614 -0.00826708 -0.02249206
v -0.00510934 -0.00703241 -0.02249206
v -0.00703241 -0.00510934 -0.02249206
v -0.00826708 -0.00268615 -0.02249206
v -0.00869253 -0.00000000 -0.02249206
v -0.00826708 0.00268615 -0.02249206
v -0.00703241 0.00510934 -0.02249206
v -0.00510934 0.00703240 -0.02249206
v -0.00268614 0.00826708 -0.02249206
v 0.00000001 0.00869254 -0.02249206
v 0.00268616 0.00826708 -0.02249206
v 0.00510935 0.00703240 -0.02249206
v 0.00703241 0.00510934 -0.02249206
v 0.00826710 0.00268615 -0.02249206
v 0.00869255 -0.00000000 -0.02249206
v 0.01653420 -0.00537228 -0.02170668
v 0.01738507 -0.00000000 -0.02170668
v 0.01406483 -0.01021869 -0.02170668
v 0.01021870 -0.01406483 -0.02170668
v 0.00537229 -0.01653418 -0.02170668
v 0.00000001 -0.01738507 -0.02170668
v -0.00537227 -0.01653418 -0.02170668
v -0.01021868 -0.01406481 -0.02170668
v -0.01406481 -0.01021869 -0.02170668
v -0.01653418 -0.00537228 -0.02170668
v -0.01738507 -0.00000000 -0.02170668
v -0.01653418 0.00537228 -0.02170668
v -0.01406481 0.01021869 -0.02170668
v -0.01021868 0.01406481 -0.02170668
v -0.00537227 0.01653417 -0.02170668
v 0.00000001 0.01738506 -0.02170668
v 0.00537229 0.01653417 -0.02170668
v 0.01021870 0.01406481 -0.02170668
v 0.01406483 0.01021869 -0.02170668
v 0.01653418 0.00537228 -0.02170668
v 0.01953589 -0.01419364 0.02374668
v 0.02125086 -0.01082784 0.02374668
v 0.01475518 -0.01072026 -0.02500000
v 0.01734574 -0.00563597 -0.02500000
v 0.02296582 -0.00746204 0.02374668
v 0.01419365 -0.01953588 0.02374668
v 0.01686477 -0.01686476 0.02374668
v 0.01072027 -0.01475517 -0.02500000
v 0.00746205 -0.02296579 0.02374668
v 0.01082785 -0.02125084 0.02374668
v 0.00563598 -0.01734573 -0.02500000
v 0.00000001 -0.02414767 0.02374668
v 0.00373103 -0.02355673 0.02374668
v 0.00000001 -0.01823839 -0.02500000
v -0.00746203 -0.02296579 0.02374668
v -0.00373101 -0.02355673 0.02374668
v -0.00563596 -0.01734573 -0.02500000
v -0.01419364 -0.01953588 0.02374668
v -0.01082783 -0.02125083 0.02374668
v -0.01072025 -0.01475517 -0.02500000
v -0.01953588 -0.01419364 0.02374668
v -0.01686476 -0.01686476 0.02374668
v -0.01475517 -0.01072026 -0.02500000
v -0.02296579 -0.00746204 0.02374668
v -0.02125083 -0.01082784 0.02374668
v -0.01734573 -0.00563597 -0.02500000
v -0.02414767 0.00000000 0.02374668
v -0.02355673 -0.00373102 0.02374668
v -0.01823837 -0.00000000 -0.02500000
v -0.02296579 0.00746204 0.02374668
v -0.02355673 0.00373102 0.02374668
v -0.01734573 0.00563597 -0.02500000
v -0.01953588 0.01419364 0.02374668
v -0.02125083 0.01082784 0.02374668
v -0.01475517 0.01072024 -0.02500000
v -0.01419364 0.01953588 0.02374668
v -0.01686476 0.01686476 0.02374668
v -0.01072024 0.01475515 -0.02500000
v -0.00746203 0.02296579 0.02374668
v -0.01082783 0.02125083 0.02374668
v -0.00563596 0.01734573 -0.02500000
v 0.00000001 0.02414767 0.02374668
v -0.00373101 0.02355673 0.02374668
v 0.00000001 0.01823837 -0.02500000
v 0.00746205 0.02296579 0.02374668
v 0.00373103 0.02355673 0.02374668
v 0.00563598 0.01734573 -0.02500000
v 0.01419365 0.01953586 0.02374668
v 0.01082785 0.02125083 0.02374668
v 0.01072026 0.01475515 -0.02500000
v 0.01953588 0.01419364 0.02374668
v 0.01686477 0.01686476 0.02374668
v 0.01475517 0.01072024 -0.02500000
v 0.02296581 0.00746204 0.02374668
v 0.02125084 0.01082784 0.02374668
v 0.01734574 0.00563597 -0.02500000
v 0.02414767 0.00000000 0.02374668
v 0.02355675 0.00373102 0.02374668
v 0.01823839 -0.00000000 -0.02500000
v 0.02296582 -0.00746204 0.02374668
v 0.02355675 -0.00373102 0.02374668
v 0.01734574 -0.00563597 -0.02500000
v 0.00695487 -0.00505301 -0.02319047
v 0.00817593 -0.00265652 -0.02319047
v 0.00000001 -0.00000000 -0.02341694
v 0.00505302 -0.00695486 -0.02319047
v 0.00265653 -0.00817592 -0.02319047
v 0.00000001 -0.00859667 -0.02319047
v -0.00265652 -0.00817592 -0.02319047
v -0.00505298 -0.00695486 -0.02319047
v -0.00695485 -0.00505301 -0.02319047
v -0.00817591 -0.00265652 -0.02319047
v -0.00859667 -0.00000000 -0.02319047
v -0.00817591 0.00265652 -0.02319047
v -0.00695485 0.00505299 -0.02319047
v -0.00505298 0.00695486 -0.02319047
v -0.00265652 0.00817592 -0.02319047
v 0.00000001 0.00859667 -0.02319047
v 0.00265653 0.00817592 -0.02319047
v 0.00505300 0.00695486 -0.02319047
v 0.00695487 0.00505299 -0.02319047
v 0.00817593 0.00265652 -0.02319047
v 0.00859668 -0.00000000 -0.02319047
v -0.01823837 -0.00000000 -0.02500000
v -0.01734573 -0.00563597 -0.02500000
v -0.01635184 -0.00531303 -0.02500000
v -0.01719334 -0.00000000 -0.02500000
v -0.01475517 -0.01072026 -0.02500000
v -0.01390970 -0.01010600 -0.02500000
v -0.01072025 -0.01475517 -0.02500000
v -0.01010599 -0.01390970 -0.02500000
v -0.00563596 -0.01734573 -0.02500000
v -0.00531302 -0.01635185 -0.02500000
v 0.00000001 -0.01823839 -0.02500000
v 0.00000001 -0.01719335 -0.02500000
v 0.00563598 -0.01734573 -0.02500000
v 0.00531304 -0.01635185 -0.02500000
v 0.01072027 -0.01475517 -0.02500000
v 0.01010601 -0.01390972 -0.02500000
v 0.01475518 -0.01072026 -0.02500000
v 0.01390973 -0.01010600 -0.02500000
v 0.01734574 -0.00563597 -0.02500000
v 0.01635187 -0.00531303 -0.02500000
v 0.01823839 -0.00000000 -0.02500000
v 0.01719336 -0.00000000 -0.02500000
v 0.01734574 0.00563597 -0.02500000
v 0.01635185 0.00531303 -0.02500000
v 0.01475517 0.01072024 -0.02500000
v 0.01390972 0.01010600 -0.02500000
v 0.01072026 0.01475515 -0.02500000
v 0.01010601 0.01390970 -0.02500000
v 0.00563598 0.01734573 -0.02500000
v 0.00531304 0.01635184 -0.02500000
v 0.00000001 0.01823837 -0.02500000
v 0.00000001 0.01719335 -0.02500000
v -0.00563596 0.01734573 -0.02500000
v -0.00531302 0.01635184 -0.02500000
v -0.01072024 0.01475515 -0.02500000
v -0.01010599 0.01390970 -0.02500000
v -0.01475517 0.01072024 -0.02500000
v -0.01390970 0.01010600 -0.02500000
v -0.01734573 0.00563597 -0.02500000
v -0.01635184 0.00531303 -0.02500000
v 0.01635187 -0.00531303 -0.02240510
v 0.01390973 -0.01010600 -0.02240510
v 0.01010601 -0.01390972 -0.02240510
v 0.00531304 -0.01635185 -0.02240510
v 0.00000001 -0.01719335 -0.02240510
v -0.00531302 -0.01635185 -0.02240510
v -0.01010599 -0.01390970 -0.02240510
v -0.01390970 -0.01010600 -0.02240510
v -0.01635184 -0.00531303 -0.02240510
v -0.01719334 -0.00000000 -0.02240510
v -0.01635184 0.00531303 -0.02240510
v -0.01390970 0.01010600 -0.02240510
v -0.01010599 0.01390970 -0.02240510
v -0.00531302 0.01635184 -0.02240510
v 0.00000001 0.01719335 -0.02240510
v 0.00531304 0.01635184 -0.02240510
v 0.01010601 0.01390970 -0.02240510
v 0.01390972 0.01010600 -0.02240510
v 0.01635185 0.00531303 -0.02240510
v 0.01719336 -0.00000000 -0.02240510
v 0.02125440 -0.01082965 0.02500000
v 0.01930007 -0.01402232 0.02500000
v 0.01884544 -0.01369201 0.02500000
v 0.02075374 -0.01057454 0.02500000
v 0.01686759 -0.01686758 0.02500000
v 0.01402233 -0.01930006 0.02500000
v 0.01369202 -0.01884541 0.02500000
v 0.01647026 -0.01647024 0.02500000
v 0.01082967 -0.02125438 0.02500000
v 0.00737198 -0.02268857 0.02500000
v 0.00719833 -0.02215412 0.02500000
v 0.01057455 -0.02075371 0.02500000
v 0.00373166 -0.02356066 0.02500000
v 0.00000001 -0.02385619 0.02500000
v 0.00000001 -0.02329421 0.02500000
v 0.00364374 -0.02300566 0.02500000
v -0.00373164 -0.02356066 0.02500000
v -0.00737196 -0.02268857 0.02500000
v -0.00719831 -0.02215411 0.02500000
v -0.00364373 -0.02300566 0.02500000
v -0.01082965 -0.02125438 0.02500000
v -0.01402231 -0.01930006 0.02500000
v -0.01369200 -0.01884541 0.02500000
v -0.01057454 -0.02075371 0.02500000
v -0.01686757 -0.01686758 0.02500000
v -0.01930006 -0.01402230 0.02500000
v -0.01884541 -0.01369199 0.02500000
v -0.01647022 -0.01647023 0.02500000
v -0.02125437 -0.01082964 0.02500000
v -0.02268857 -0.00737196 0.02500000
v -0.02215411 -0.00719830 0.02500000
v -0.02075370 -0.01057454 0.02500000
v -0.02356066 -0.00373165 0.02500000
v -0.02385617 0.00000000 0.02500000
v -0.02329421 0.00000000 0.02500000
v -0.02300565 -0.00364373 0.02500000
v -0.02356066 0.00373165 0.02500000
v -0.02268857 0.00737196 0.02500000
v -0.02215411 0.00719830 0.02500000
v -0.02300565 0.00364373 0.02500000
v -0.02125438 0.01082964 0.02500000
v -0.01930006 0.01402230 0.02500000
v -0.01884541 0.01369199 0.02500000
v -0.02075370 0.01057454 0.02500000
v -0.01686757 0.01686756 0.02500000
v -0.01402230 0.01930006 0.02500000
v -0.01369199 0.01884541 0.02500000
v -0.01647022 0.01647023 0.02500000
v -0.01082964 0.02125437 0.02500000
v -0.00737196 0.02268857 0.02500000
v -0.00719830 0.02215411 0.02500000
v -0.01057454 0.02075371 0.02500000
v -0.00373164 0.02356066 0.02500000
v 0.00000001 0.02385617 0.02500000
v 0.00000001 0.02329421 0.02500000
v -0.00364373 0.02300566 0.02500000
v 0.00373164 0.02356066 0.02500000
v 0.00737198 0.02268857 0.02500000
v 0.00719831 0.02215411 0.02500000
v 0.00364374 0.02300566 0.02500000
v 0.01082965 0.02125437 0.02500000
v 0.01402231 0.01930004 0.02500000
v 0.01369200 0.01884541 0.02500000
v 0.01057455 0.02075371 0.02500000
v 0.01686758 0.01686756 0.02500000
v 0.01930006 0.01402230 0.02500000
v 0.01884543 0.01369199 0.02500000
v 0.01647024 0.01647023 0.02500000
v 0.02125438 0.01082964 0.02500000
v 0.02268859 0.00737196 0.02500000
v 0.02215412 0.00719830 0.02500000
v 0.02075372 0.01057454 0.02500000
v 0.02356067 0.00373163 0.02500000
v 0.02385619 0.00000000 0.02500000
v 0.02329423 0.00000000 0.02500000
v 0.02300567 0.00364373 0.02500000
v 0.02356067 -0.00373165 0.02500000
v 0.02268860 -0.00737196 0.02500000
v 0.02215414 -0.00719832 0.02500000
v 0.02300567 -0.00364373 0.02500000
v 0.01839402 -0.01336402 0.02437334
v 0.01862188 -0.01352957 0.02374668
v 0.02025660 -0.01032125 0.02374668
v 0.02025660 -0.01032125 0.02437334
v 0.02377643 -0.00772543 0.02437334
v 0.02363998 -0.00768109 0.02379555
v 0.02214566 -0.01128376 0.02379555
v 0.02227348 -0.01134889 0.02437334
v 0.01336403 -0.01839401 0.02437334
v 0.01352958 -0.01862187 0.02374668
v 0.01607572 -0.01607571 0.02374668
v 0.01607572 -0.01607571 0.02437334
v 0.02022545 -0.01469463 0.02437334
v 0.02010937 -0.01461030 0.02379555
v 0.01757488 -0.01757487 0.02379555
v 0.01767633 -0.01767632 0.02437334
v 0.00702590 -0.02162344 0.02437334
v 0.00711292 -0.02189130 0.02374668
v 0.01032126 -0.02025658 0.02374668
v 0.01032126 -0.02025658 0.02437334
v 0.01469464 -0.02022543 0.02437334
v 0.01461031 -0.02010936 0.02379555
v 0.01128377 -0.02214563 0.02379555
v 0.01134890 -0.02227345 0.02437334
v 0.00000001 -0.02273622 0.02437334
v 0.00000001 -0.02301788 0.02374668
v 0.00355647 -0.02245458 0.02374668
v 0.00355647 -0.02245458 0.02437334
v 0.00772544 -0.02377641 0.02437334
v 0.00768110 -0.02363997 0.02379555
v 0.00388812 -0.02454862 0.02379555
v 0.00391057 -0.02469032 0.02437334
v -0.00702588 -0.02162344 0.02437334
v -0.00711290 -0.02189130 0.02374668
v -0.00355646 -0.02245458 0.02374668
v -0.00355646 -0.02245458 0.02437334
v 0.00000001 -0.02500000 0.02437334
v 0.00000001 -0.02485653 0.02379555
v -0.00388811 -0.02454862 0.02379555
v -0.00391056 -0.02469032 0.02437334
v -0.01336401 -0.01839401 0.02437334
v -0.01352956 -0.01862185 0.02374668
v -0.01032124 -0.02025658 0.02374668
v -0.01032124 -0.02025658 0.02437334
v -0.00772541 -0.02377641 0.02437334
v -0.00768108 -0.02363997 0.02379555
v -0.01128375 -0.02214563 0.02379555
v -0.01134888 -0.02227345 0.02437334
v -0.01839399 -0.01336402 0.02437334
v -0.01862185 -0.01352957 0.02374668
v -0.01607571 -0.01607571 0.02374668
v -0.01607571 -0.01607571 0.02437334
v -0.01469462 -0.02022542 0.02437334
v -0.01461029 -0.02010936 0.02379555
v -0.01757487 -0.01757487 0.02379555
v -0.01767630 -0.01767631 0.02437334
v -0.02162343 -0.00702589 0.02437334
v -0.02189130 -0.00711291 0.02374668
v -0.02025658 -0.01032125 0.02374668
v -0.02025658 -0.01032125 0.02437334
v -0.02022542 -0.01469463 0.02437334
v -0.02010935 -0.01461030 0.02379555
v -0.02214562 -0.01128376 0.02379555
v -0.02227345 -0.01134889 0.02437334
v -0.02273622 0.00000000 0.02437334
v -0.02301788 0.00000000 0.02374668
v -0.02245458 -0.00355646 0.02374668
v -0.02245458 -0.00355646 0.02437334
v -0.02377641 -0.00772542 0.02437334
v -0.02363995 -0.00768109 0.02379555
v -0.02454861 -0.00388811 0.02379555
v -0.02469030 -0.00391056 0.02437334
v -0.02162343 0.00702589 0.02437334
v -0.02189130 0.00711291 0.02374668
v -0.02245458 0.00355646 0.02374668
v -0.02245458 0.00355646 0.02437334
v -0.02500000 0.00000000 0.02437334
v -0.02485651 0.00000000 0.02379555
v -0.02454861 0.00388811 0.02379555
v -0.02469030 0.00391056 0.02437334
v -0.01839399 0.01336402 0.02437334
v -0.01862185 0.01352957 0.02374668
v -0.02025658 0.01032125 0.02374668
v -0.02025656 0.01032123 0.02437334
v -0.02377641 0.00772542 0.02437334
v -0.02363995 0.00768109 0.02379555
v -0.02214562 0.01128376 0.02379555
v -0.02227345 0.01134889 0.02437334
v -0.01336401 0.01839399 0.02437334
v -0.01352956 0.01862185 0.02374668
v -0.01607571 0.01607571 0.02374668
v -0.01607571 0.01607571 0.02437334
v -0.02022542 0.01469463 0.02437334
v -0.02010935 0.01461030 0.02379555
v -0.01757487 0.01757487 0.02379555
v -0.01767630 0.01767631 0.02437334
v -0.00702588 0.02162344 0.02437334
v -0.00711290 0.02189130 0.02374668
v -0.01032124 0.02025657 0.02374668
v -0.01032124 0.02025657 0.02437334
v -0.01469462 0.02022542 0.02437334
v -0.01461029 0.02010936 0.02379555
v -0.01128375 0.02214563 0.02379555
v -0.01134888 0.02227345 0.02437334
v 0.00000001 0.02273622 0.02437334
v 0.00000001 0.02301787 0.02374668
v -0.00355646 0.02245458 0.02374668
v -0.00355646 0.02245458 0.02437334
v -0.00772541 0.02377641 0.02437334
v -0.00768108 0.02363995 0.02379555
v -0.00388811 0.02454861 0.02379555
v -0.00391056 0.02469030 0.02437334
v 0.00702588 0.02162344 0.02437334
v 0.00711292 0.02189130 0.02374668
v 0.00355646 0.02245458 0.02374668
v 0.00355646 0.02245458 0.02437334
v 0.00000001 0.02500000 0.02437334
v 0.00000001 0.02485651 0.02379555
v 0.00388812 0.02454861 0.02379555
v 0.00391057 0.02469030 0.02437334
v 0.01336403 0.01839399 0.02437334
v 0.01352958 0.01862185 0.02374668
v 0.01032124 0.02025657 0.02374668
v 0.01032124 0.02025657 0.02437334
v 0.00772543 0.02377640 0.02437334
v 0.00768110 0.02363995 0.02379555
v 0.01128377 0.02214563 0.02379555
v 0.01134890 0.02227345 0.02437334
v 0.01839400 0.01336402 0.02437334
v 0.01862185 0.01352957 0.02374668
v 0.01607572 0.01607571 0.02374668
v 0.01607572 0.01607571 0.02437334
v 0.01469464 0.02022542 0.02437334
v 0.01461031 0.02010934 0.02379555
v 0.01757488 0.01757485 0.02379555
v 0.01767632 0.01767631 0.02437334
v 0.02162345 0.00702589 0.02437334
v 0.02189131 0.00711291 0.02374668
v 0.02025658 0.01032123 0.02374668
v 0.02025658 0.01032123 0.02437334
v 0.02022543 0.01469463 0.02437334
v 0.02010935 0.01461030 0.02379555
v 0.02214564 0.01128376 0.02379555
v 0.02227347 0.01134889 0.02437334
v 0.02273624 0.00000000 0.02437334
v 0.02301788 0.00000000 0.02374668
v 0.02245460 0.00355646 0.02374668
v 0.02245460 0.00355646 0.02437334
v 0.02377642 0.00772542 0.02437334
v 0.02363997 0.00768109 0.02379555
v 0.02454862 0.00388811 0.02379555
v 0.02469032 0.00391056 0.02437334
v 0.02162347 -0.00702589 0.02437334
v 0.02189133 -0.00711291 0.02374668
v 0.02245460 -0.00355646 0.02374668
v 0.02245460 -0.00355646 0.02437334
v 0.02500000 0.00000000 0.02437334
v 0.02485653 0.00000000 0.02379555
v 0.02454862 -0.00388811 0.02379555
v 0.02469032 -0.00391056 0.02437334
v 0.02323062 -0.00754808 0.02354178
v 0.02296582 -0.00746204 0.02374668
v 0.02125086 -0.01082784 0.02374668
v 0.02176216 -0.01108837 0.02354178
v 0.01976115 -0.01435731 0.02500000
v 0.02176216 -0.01108837 0.02500000
v 0.01976115 -0.01435731 0.02354178
v 0.01953589 -0.01419364 0.02374668
v 0.01686477 -0.01686476 0.02374668
v 0.01727056 -0.01727055 0.02354178
v 0.01435732 -0.01976114 0.02500000
v 0.01727056 -0.01727055 0.02500000
v 0.01435732 -0.01976114 0.02354178
v 0.01419365 -0.01953588 0.02374668
v 0.01082785 -0.02125084 0.02374668
v 0.01108838 -0.02176215 0.02354178
v 0.00754809 -0.02323061 0.02500000
v 0.01108838 -0.02176215 0.02500000
v 0.00754809 -0.02323061 0.02354178
v 0.00746205 -0.02296579 0.02374668
v 0.00373103 -0.02355673 0.02374668
v 0.00382081 -0.02412352 0.02354178
v 0.00000001 -0.02442611 0.02500000
v 0.00382081 -0.02412352 0.02500000
v 0.00000001 -0.02442611 0.02354178
v 0.00000001 -0.02414767 0.02374668
v -0.00373101 -0.02355673 0.02374668
v -0.00382079 -0.02412352 0.02354178
v -0.00754807 -0.02323061 0.02500000
v -0.00382079 -0.02412352 0.02500000
v -0.00754807 -0.02323061 0.02354178
v -0.00746203 -0.02296579 0.02374668
v -0.01082783 -0.02125083 0.02374668
v -0.01108837 -0.02176215 0.02354178
v -0.01435731 -0.01976112 0.02500000
v -0.01108837 -0.02176215 0.02500000
v -0.01435731 -0.01976112 0.02354178
v -0.01419364 -0.01953588 0.02374668
v -0.01686476 -0.01686476 0.02374668
v -0.01727053 -0.01727053 0.02354178
v -0.01976112 -0.01435729 0.02500000
v -0.01727053 -0.01727053 0.02500000
v -0.01976112 -0.01435729 0.02354178
v -0.01953588 -0.01419364 0.02374668
v -0.02125083 -0.01082784 0.02374668
v -0.02176215 -0.01108837 0.02354178
v -0.02323059 -0.00754808 0.02500000
v -0.02176215 -0.01108837 0.02500000
v -0.02323061 -0.00754808 0.02354178
v -0.02296579 -0.00746204 0.02374668
v -0.02355673 -0.00373102 0.02374668
v -0.02412352 -0.00382078 0.02354178
v -0.02442609 0.00000000 0.02500000
v -0.02412352 -0.00382078 0.02500000
v -0.02442609 0.00000000 0.02354178
v -0.02414767 0.00000000 0.02374668
v -0.02355673 0.00373102 0.02374668
v -0.02412352 0.00382078 0.02354178
v -0.02323061 0.00754808 0.02500000
v -0.02412352 0.00382078 0.02500000
v -0.02323059 0.00754808 0.02354178
v -0.02296579 0.00746204 0.02374668
v -0.02125083 0.01082784 0.02374668
v -0.02176215 0.01108837 0.02354178
v -0.01976112 0.01435729 0.02500000
v -0.02176215 0.01108837 0.02500000
v -0.01976112 0.01435729 0.02354178
v -0.01953588 0.01419364 0.02374668
v -0.01686476 0.01686476 0.02374668
v -0.01727053 0.01727053 0.02354178
v -0.01435729 0.01976112 0.02500000
v -0.01727053 0.01727053 0.02500000
v -0.01435729 0.01976112 0.02354178
v -0.01419364 0.01953588 0.02374668
v -0.01082783 0.02125083 0.02374668
v -0.01108837 0.02176215 0.02354178
v -0.00754807 0.02323059 0.02500000
v -0.01108837 0.02176215 0.02500000
v -0.00754807 0.02323059 0.02354178
v -0.00746203 0.02296579 0.02374668
v -0.00373101 0.02355673 0.02374668
v -0.00382078 0.02412352 0.02354178
v 0.00000001 0.02442609 0.02500000
v -0.00382078 0.02412352 0.02500000
v 0.00000001 0.02442609 0.02354178
v 0.00000001 0.02414767 0.02374668
v 0.00373103 0.02355673 0.02374668
v 0.00382079 0.02412352 0.02354178
v 0.00754809 0.02323059 0.02500000
v 0.00382079 0.02412352 0.02500000
v 0.00754809 0.02323059 0.02354178
v 0.00746205 0.02296579 0.02374668
v 0.01082785 0.02125083 0.02374668
v 0.01108837 0.02176213 0.02354178
v 0.01435731 0.01976112 0.02500000
v 0.01108837 0.02176213 0.02500000
v 0.01435731 0.01976112 0.02354178
v 0.01419365 0.01953586 0.02374668
v 0.01686477 0.01686476 0.02374668
v 0.01727055 0.01727053 0.02354178
v 0.01976114 0.01435729 0.02500000
v 0.01727055 0.01727053 0.02500000
v 0.01976114 0.01435729 0.02354178
v 0.01953588 0.01419364 0.02374668
v 0.02125084 0.01082784 0.02374668
v 0.02176215 0.01108836 0.02354178
v 0.02323061 0.00754808 0.02500000
v 0.02176215 0.01108836 0.02500000
v 0.02323061 0.00754808 0.02354178
v 0.02296581 0.00746204 0.02374668
v 0.02355675 0.00373102 0.02374668
v 0.02412353 0.00382078 0.02354178
v 0.02442611 0.00000000 0.02500000
v 0.02412353 0.00382078 0.02500000
v 0.02442611 0.00000000 0.02354178
v 0.02414767 0.00000000 0.02374668
v 0.02355675 -0.00373102 0.02374668
v 0.02412354 -0.00382080 0.02354178
v 0.02323062 -0.00754808 0.02500000
v 0.02412354 -0.00382080 0.02500000
v 0.01850688 -0.01344602 0.02484333
v 0.02038088 -0.01038457 0.02484333
v 0.02175613 -0.00706900 0.02484333
v 0.02215414 -0.00719832 0.02500000
v 0.02268860 -0.00737196 0.02500000
v 0.01344604 -0.01850685 0.02484333
v 0.01617435 -0.01617434 0.02484333
v 0.00706901 -0.02175611 0.02484333
v 0.01038459 -0.02038087 0.02484333
v 0.00000001 -0.02287572 0.02484333
v 0.00357829 -0.02259235 0.02484333
v -0.00706899 -0.02175611 0.02484333
v -0.00357827 -0.02259235 0.02484333
v -0.01344602 -0.01850685 0.02484333
v -0.01038457 -0.02038087 0.02484333
v -0.01850685 -0.01344602 0.02484333
v -0.01617434 -0.01617434 0.02484333
v -0.02175611 -0.00706898 0.02484333
v -0.02038085 -0.01038456 0.02484333
v -0.02287572 0.00000000 0.02484333
v -0.02259235 -0.00357828 0.02484333
v -0.02175611 0.00706898 0.02484333
v -0.02259235 0.00357828 0.02484333
v -0.01850685 0.01344601 0.02484333
v -0.02038085 0.01038456 0.02484333
v -0.01344600 0.01850685 0.02484333
v -0.01617434 0.01617434 0.02484333
v -0.00706898 0.02175610 0.02484333
v -0.01038455 0.02038085 0.02484333
v 0.00000001 0.02287572 0.02484333
v -0.00357827 0.02259235 0.02484333
v 0.00706899 0.02175610 0.02484333
v 0.00357829 0.02259235 0.02484333
v 0.01344602 0.01850685 0.02484333
v 0.01038457 0.02038085 0.02484333
v 0.01850685 0.01344601 0.02484333
v 0.01617434 0.01617434 0.02484333
v 0.02175611 0.00706898 0.02484333
v 0.02038087 0.01038456 0.02484333
v 0.02287574 0.00000000 0.02484333
v 0.02259237 0.00357828 0.02484333
v 0.02175613 -0.00706900 0.02484333
v 0.02259237 -0.00357828 0.02484333
v 0.02189133 -0.00711291 0.02374668
v 0.02162347 -0.00702589 0.02437334
v 0.02010937 -0.01461030 0.02484333
v 0.02214564 -0.01128376 0.02484333
v 0.02363998 -0.00768109 0.02484333
v 0.01461031 -0.02010936 0.02484333
v 0.01757488 -0.01757487 0.02484333
v 0.00768110 -0.02363997 0.02484333
v 0.01128377 -0.02214563 0.02484333
v 0.00000001 -0.02485653 0.02484333
v 0.00388812 -0.02454862 0.02484333
v -0.00768108 -0.02363997 0.02484333
v -0.00388811 -0.02454862 0.02484333
v -0.01461029 -0.02010936 0.02484333
v -0.01128375 -0.02214563 0.02484333
v -0.02010935 -0.01461030 0.02484333
v -0.01757487 -0.01757487 0.02484333
v -0.02363995 -0.00768109 0.02484333
v -0.02214562 -0.01128376 0.02484333
v -0.02485651 0.00000000 0.02484333
v -0.02454861 -0.00388811 0.02484333
v -0.02363995 0.00768109 0.02484333
v -0.02454861 0.00388811 0.02484333
v -0.02010935 0.01461030 0.02484333
v -0.02214562 0.01128376 0.02484333
v -0.01461029 0.02010934 0.02484333
v -0.01757487 0.01757487 0.02484333
v -0.00768108 0.02363995 0.02484333
v -0.01128375 0.02214563 0.02484333
v 0.00000001 0.02485651 0.02484333
v -0.00388811 0.02454861 0.02484333
v 0.00768110 0.02363995 0.02484333
v 0.00388812 0.02454861 0.02484333
v 0.01461031 0.02010934 0.02484333
v 0.01128377 0.02214563 0.02484333
v 0.02010935 0.01461030 0.02484333
v 0.01757487 0.01757485 0.02484333
v 0.02363997 0.00768109 0.02484333
v 0.02214564 0.01128376 0.02484333
v 0.02485653 0.00000000 0.02484333
v 0.02454862 0.00388811 0.02484333
v 0.02363998 -0.00768109 0.02379555
v 0.02377643 -0.00772543 0.02437334
v 0.02363998 -0.00768109 0.02484333
v 0.02454862 -0.00388811 0.02484333
v 0.02323062 -0.00754808 0.02500000
v 0.02296582 -0.00746204 0.02374668
v 0.02323062 -0.00754808 0.02354178
vt 0.37500000 0.31155998
vt 0.38124999 0.31155998
vt 0.37500000 0.68750000
vt 0.38749999 0.68750000
vt 0.38749999 0.33505601
vt 0.39375001 0.31155998
vt 0.40000001 0.68750000
vt 0.40000001 0.33505601
vt 0.40625000 0.31155998
vt 0.41249999 0.68750000
vt 0.41249999 0.33505601
vt 0.41874999 0.31155998
vt 0.42500001 0.68750000
vt 0.42500001 0.33505601
vt 0.43125001 0.31155998
vt 0.43750000 0.68750000
vt 0.43750000 0.33505601
vt 0.44374999 0.31155998
vt 0.44999999 0.68750000
vt 0.44999999 0.33505601
vt 0.45625001 0.31155998
vt 0.46250001 0.68750000
vt 0.46250001 0.33505601
vt 0.46875000 0.31155998
vt 0.47499999 0.68750000
vt 0.47499999 0.33505601
vt 0.48124999 0.31155998
vt 0.48750001 0.68750000
vt 0.48750001 0.33505601
vt 0.49375001 0.31155998
vt 0.50000000 0.68750000
vt 0.50000000 0.33505601
vt 0.50625002 0.31155998
vt 0.51249999 0.68750000
vt 0.51249999 0.33505601
vt 0.51875001 0.31155998
vt 0.52499998 0.68750000
vt 0.52499998 0.33505601
vt 0.53125000 0.31155998
vt 0.53750002 0.68750000
vt 0.53750002 0.33505601
vt 0.54374999 0.31155998
vt 0.55000001 0.68750000
vt 0.55000001 0.33505601
vt 0.55624998 0.31155998
vt 0.56250000 0.68750000
vt 0.56250000 0.33505601
vt 0.56875002 0.31155998
vt 0.57499999 0.68750000
vt 0.57499999 0.33505601
vt 0.58125001 0.31155998
vt 0.58749998 0.68750000
vt 0.58749998 0.33505601
vt 0.59375000 0.31155998
vt 0.60000002 0.68750000
vt 0.60000002 0.33505601
vt 0.60624999 0.31155998
vt 0.61250001 0.68750000
vt 0.61250001 0.33505601
vt 0.61874998 0.31155998
vt 0.62500000 0.68750000
vt 0.62500000 0.31155998
vt 0.57430100 0.87101698
vt 0.56320500 0.89279598
vt 0.50000000 0.85000002
vt 0.54592103 0.91007900
vt 0.52414203 0.92117602
vt 0.50000000 0.92500001
vt 0.47585800 0.92117602
vt 0.45407900 0.91007900
vt 0.43679601 0.89279598
vt 0.42569900 0.87101698
vt 0.42187500 0.84687501
vt 0.42569900 0.82273299
vt 0.43679601 0.80095398
vt 0.45407900 0.78367102
vt 0.47585800 0.77257401
vt 0.50000000 0.76875001
vt 0.52414203 0.77257401
vt 0.54592103 0.78367102
vt 0.56320399 0.80095398
vt 0.57430100 0.82273299
vt 0.57812500 0.84687501
vt 0.64860302 0.89203399
vt 0.65625000 0.84375000
vt 0.62640899 0.93559200
vt 0.59184200 0.97015899
vt 0.54828399 0.99235302
vt 0.50000000 1.00000000
vt 0.45171601 0.99235302
vt 0.40815899 0.97015899
vt 0.37359101 0.93559098
vt 0.35139701 0.89203399
vt 0.34375000 0.84375000
vt 0.35139701 0.79546601
vt 0.37359101 0.75190902
vt 0.40815899 0.71734101
vt 0.45171601 0.69514704
vt 0.50000000 0.68750000
vt 0.54828399 0.69514704
vt 0.59184098 0.71734101
vt 0.62640899 0.75190902
vt 0.64860302 0.79546601
vt 0.38749999 0.31155998
vt 0.38124999 0.31155998
vt 0.38749999 0.68750000
vt 0.37500000 0.68750000
vt 0.37500000 0.31155998
vt 0.40000001 0.31155998
vt 0.39375001 0.31155998
vt 0.40000001 0.68750000
vt 0.41249999 0.31155998
vt 0.40625000 0.31155998
vt 0.41249999 0.68750000
vt 0.42500001 0.31155998
vt 0.41874999 0.31155998
vt 0.42500001 0.68750000
vt 0.43750000 0.31155998
vt 0.43125001 0.31155998
vt 0.43750000 0.68750000
vt 0.44999999 0.31155998
vt 0.44374999 0.31155998
vt 0.44999999 0.68750000
vt 0.46250001 0.31155998
vt 0.45625001 0.31155998
vt 0.46250001 0.68750000
vt 0.47499999 0.31155998
vt 0.46875000 0.31155998
vt 0.47499999 0.68750000
vt 0.48750001 0.31155998
vt 0.48124999 0.31155998
vt 0.48750001 0.68750000
vt 0.50000000 0.31155998
vt 0.49375001 0.31155998
vt 0.50000000 0.68750000
vt 0.51249999 0.31155998
vt 0.50625002 0.31155998
vt 0.51249999 0.68750000
vt 0.52499998 0.31155998
vt 0.51875001 0.31155998
vt 0.52499998 0.68750000
vt 0.53750002 0.31155998
vt 0.53125000 0.31155998
vt 0.53750002 0.68750000
vt 0.55000001 0.31155998
vt 0.54374999 0.31155998
vt 0.55000001 0.68750000
vt 0.56250000 0.31155998
vt 0.55624998 0.31155998
vt 0.56250000 0.68750000
vt 0.57499999 0.31155998
vt 0.56875002 0.31155998
vt 0.57499999 0.68750000
vt 0.58749998 0.31155998
vt 0.58125001 0.31155998
vt 0.58749998 0.68750000
vt 0.60000002 0.31155998
vt 0.59375000 0.31155998
vt 0.60000002 0.68750000
vt 0.61250001 0.31155998
vt 0.60624999 0.31155998
vt 0.61250001 0.68750000
vt 0.62500000 0.31155998
vt 0.61874998 0.31155998
vt 0.62500000 0.68750000
vt 0.53160203 0.87139797
vt 0.53715098 0.86050797
vt 0.50000000 0.85000002
vt 0.52296001 0.88003999
vt 0.51207101 0.88558799
vt 0.50000000 0.88749999
vt 0.48792899 0.88558799
vt 0.47703999 0.88003999
vt 0.46839800 0.87139797
vt 0.46284899 0.86050797
vt 0.46093801 0.84843701
vt 0.46284899 0.83636701
vt 0.46839800 0.82547700
vt 0.47703999 0.81683499
vt 0.48792899 0.81128699
vt 0.50000000 0.80937499
vt 0.51207101 0.81128699
vt 0.52296001 0.81683499
vt 0.53160203 0.82547700
vt 0.53715098 0.83636701
vt 0.53906202 0.84843701
vt 0.34375000 0.84375000
vt 0.35139701 0.89203399
vt 0.42569900 0.87101698
vt 0.42187500 0.84687501
vt 0.37359101 0.93559098
vt 0.43679601 0.89279598
vt 0.40815899 0.97015899
vt 0.45407900 0.91007900
vt 0.45171601 0.99235302
vt 0.47585800 0.92117602
vt 0.50000000 1.00000000
vt 0.50000000 0.92500001
vt 0.54828399 0.99235302
vt 0.52414203 0.92117602
vt 0.59184200 0.97015899
vt 0.54592103 0.91007900
vt 0.62640899 0.93559200
vt 0.56320500 0.89279598
vt 0.64860302 0.89203399
vt 0.57430100 0.87101698
vt 0.65625000 0.84375000
vt 0.57812500 0.84687501
vt 0.64860302 0.79546601
vt 0.57430100 0.82273299
vt 0.62640899 0.75190902
vt 0.56320399 0.80095398
vt 0.59184098 0.71734101
vt 0.54592103 0.78367102
vt 0.54828399 0.69514704
vt 0.52414203 0.77257401
vt 0.50000000 0.68750000
vt 0.50000000 0.76875001
vt 0.45171601 0.69514704
vt 0.47585800 0.77257401
vt 0.40815899 0.71734101
vt 0.45407900 0.78367102
vt 0.37359101 0.75190902
vt 0.43679601 0.80095398
vt 0.35139701 0.79546601
vt 0.42569900 0.82273299
vt 0.57430100 0.87101698
vt 0.56320500 0.89279598
vt 0.54592103 0.91007900
vt 0.52414203 0.92117602
vt 0.50000000 0.92500001
vt 0.47585800 0.92117602
vt 0.45407900 0.91007900
vt 0.43679601 0.89279598
vt 0.42569900 0.87101698
vt 0.42187500 0.84687501
vt 0.42569900 0.82273299
vt 0.43679601 0.80095398
vt 0.45407900 0.78367102
vt 0.47585800 0.77257401
vt 0.50000000 0.76875001
vt 0.52414203 0.77257401
vt 0.54592103 0.78367102
vt 0.56320399 0.80095398
vt 0.57430100 0.82273299
vt 0.57812500 0.84687501
vt 0.38124999 0.31155998
vt 0.38749999 0.31155998
vt 0.38749999 0.31155998
vt 0.38124999 0.31155998
vt 0.39375001 0.31155998
vt 0.40000001 0.31155998
vt 0.40000001 0.31155998
vt 0.39375001 0.31155998
vt 0.40625000 0.31155998
vt 0.41249999 0.31155998
vt 0.41249999 0.31155998
vt 0.40625000 0.31155998
vt 0.41874999 0.31155998
vt 0.42500001 0.31155998
vt 0.42500001 0.31155998
vt 0.41874999 0.31155998
vt 0.43125001 0.31155998
vt 0.43750000 0.31155998
vt 0.43750000 0.31155998
vt 0.43125001 0.31155998
vt 0.44374999 0.31155998
vt 0.44999999 0.31155998
vt 0.44999999 0.31155998
vt 0.44374999 0.31155998
vt 0.45625001 0.31155998
vt 0.46250001 0.31155998
vt 0.46250001 0.31155998
vt 0.45625001 0.31155998
vt 0.46875000 0.31155998
vt 0.47499999 0.31155998
vt 0.47499999 0.31155998
vt 0.46875000 0.31155998
vt 0.48124999 0.31155998
vt 0.48750001 0.31155998
vt 0.48750001 0.31155998
vt 0.48124999 0.31155998
vt 0.49375001 0.31155998
vt 0.50000000 0.31155998
vt 0.50000000 0.31155998
vt 0.49375001 0.31155998
vt 0.50625002 0.31155998
vt 0.51249999 0.31155998
vt 0.51249999 0.31155998
vt 0.50625002 0.31155998
vt 0.51875001 0.31155998
vt 0.52499998 0.31155998
vt 0.52499998 0.31155998
vt 0.51875001 0.31155998
vt 0.53125000 0.31155998
vt 0.53750002 0.31155998
vt 0.53750002 0.31155998
vt 0.53125000 0.31155998
vt 0.54374999 0.31155998
vt 0.55000001 0.31155998
vt 0.55000001 0.31155998
vt 0.54374999 0.31155998
vt 0.55624998 0.31155998
vt 0.56250000 0.31155998
vt 0.56250000 0.31155998
vt 0.55624998 0.31155998
vt 0.56875002 0.31155998
vt 0.57499999 0.31155998
vt 0.57499999 0.31155998
vt 0.56875002 0.31155998
vt 0.58125001 0.31155998
vt 0.58749998 0.31155998
vt 0.58749998 0.31155998
vt 0.58125001 0.31155998
vt 0.59375000 0.31155998
vt 0.60000002 0.31155998
vt 0.60000002 0.31155998
vt 0.59375000 0.31155998
vt 0.60624999 0.31155998
vt 0.61250001 0.31155998
vt 0.61250001 0.31155998
vt 0.60624999 0.31155998
vt 0.61874998 0.31155998
vt 0.62500000 0.31155998
vt 0.62500000 0.31155998
vt 0.61874998 0.31155998
vt 0.38749999 0.31155998
vt 0.38749999 0.33505601
vt 0.38124999 0.31155998
vt 0.38124999 0.31155998
vt 0.37500000 0.31155998
vt 0.37500000 0.31155998
vt 0.38124999 0.31155998
vt 0.38124999 0.31155998
vt 0.40000001 0.31155998
vt 0.40000001 0.33505601
vt 0.39375001 0.31155998
vt 0.39375001 0.31155998
vt 0.38749999 0.31155998
vt 0.38749999 0.31155998
vt 0.39375001 0.31155998
vt 0.39375001 0.31155998
vt 0.41249999 0.31155998
vt 0.41249999 0.33505601
vt 0.40625000 0.31155998
vt 0.40625000 0.31155998
vt 0.40000001 0.31155998
vt 0.40000001 0.31155998
vt 0.40625000 0.31155998
vt 0.40625000 0.31155998
vt 0.42500001 0.31155998
vt 0.42500001 0.33505601
vt 0.41874999 0.31155998
vt 0.41874999 0.31155998
vt 0.41249999 0.31155998
vt 0.41249999 0.31155998
vt 0.41874999 0.31155998
vt 0.41874999 0.31155998
vt 0.43750000 0.31155998
vt 0.43750000 0.33505601
vt 0.43125001 0.31155998
vt 0.43125001 0.31155998
vt 0.42500001 0.31155998
vt 0.42500001 0.31155998
vt 0.43125001 0.31155998
vt 0.43125001 0.31155998
vt 0.44999999 0.31155998
vt 0.44999999 0.33505601
vt 0.44374999 0.31155998
vt 0.44374999 0.31155998
vt 0.43750000 0.31155998
vt 0.43750000 0.31155998
vt 0.44374999 0.31155998
vt 0.44374999 0.31155998
vt 0.46250001 0.31155998
vt 0.46250001 0.33505601
vt 0.45625001 0.31155998
vt 0.45625001 0.31155998
vt 0.44999999 0.31155998
vt 0.44999999 0.31155998
vt 0.45625001 0.31155998
vt 0.45625001 0.31155998
vt 0.47499999 0.31155998
vt 0.47499999 0.33505601
vt 0.46875000 0.31155998
vt 0.46875000 0.31155998
vt 0.46250001 0.31155998
vt 0.46250001 0.31155998
vt 0.46875000 0.31155998
vt 0.46875000 0.31155998
vt 0.48750001 0.31155998
vt 0.48750001 0.33505601
vt 0.48124999 0.31155998
vt 0.48124999 0.31155998
vt 0.47499999 0.31155998
vt 0.47499999 0.31155998
vt 0.48124999 0.31155998
vt 0.48124999 0.31155998
vt 0.50000000 0.31155998
vt 0.50000000 0.33505601
vt 0.49375001 0.31155998
vt 0.49375001 0.31155998
vt 0.48750001 0.31155998
vt 0.48750001 0.31155998
vt 0.49375001 0.31155998
vt 0.49375001 0.31155998
vt 0.51249999 0.31155998
vt 0.51249999 0.33505601
vt 0.50625002 0.31155998
vt 0.50625002 0.31155998
vt 0.50000000 0.31155998
vt 0.50000000 0.31155998
vt 0.50625002 0.31155998
vt 0.50625002 0.31155998
vt 0.52499998 0.31155998
vt 0.52499998 0.33505601
vt 0.51875001 0.31155998
vt 0.51875001 0.31155998
vt 0.51249999 0.31155998
vt 0.51249999 0.31155998
vt 0.51875001 0.31155998
vt 0.51875001 0.31155998
vt 0.53750002 0.31155998
vt 0.53750002 0.33505601
vt 0.53125000 0.31155998
vt 0.53125000 0.31155998
vt 0.52499998 0.31155998
vt 0.52499998 0.31155998
vt 0.53125000 0.31155998
vt 0.53125000 0.31155998
vt 0.55000001 0.31155998
vt 0.55000001 0.33505601
vt 0.54374999 0.31155998
vt 0.54374999 0.31155998
vt 0.53750002 0.31155998
vt 0.53750002 0.31155998
vt 0.54374999 0.31155998
vt 0.54374999 0.31155998
vt 0.56250000 0.31155998
vt 0.56250000 0.33505601
vt 0.55624998 0.31155998
vt 0.55624998 0.31155998
vt 0.55000001 0.31155998
vt 0.55000001 0.31155998
vt 0.55624998 0.31155998
vt 0.55624998 0.31155998
vt 0.57499999 0.31155998
vt 0.57499999 0.33505601
vt 0.56875002 0.31155998
vt 0.56875002 0.31155998
vt 0.56250000 0.31155998
vt 0.56250000 0.31155998
vt 0.56875002 0.31155998
vt 0.56875002 0.31155998
vt 0.58749998 0.31155998
vt 0.58749998 0.33505601
vt 0.58125001 0.31155998
vt 0.58125001 0.31155998
vt 0.57499999 0.31155998
vt 0.57499999 0.31155998
vt 0.58125001 0.31155998
vt 0.58125001 0.31155998
vt 0.60000002 0.31155998
vt 0.60000002 0.33505601
vt 0.59375000 0.31155998
vt 0.59375000 0.31155998
vt 0.58749998 0.31155998
vt 0.58749998 0.31155998
vt 0.59375000 0.31155998
vt 0.59375000 0.31155998
vt 0.61250001 0.31155998
vt 0.61250001 0.33505601
vt 0.60624999 0.31155998
vt 0.60624999 0.31155998
vt 0.60000002 0.31155998
vt 0.60000002 0.31155998
vt 0.60624999 0.31155998
vt 0.60624999 0.31155998
vt 0.62500000 0.31155998
vt 0.62500000 0.31155998
vt 0.61874998 0.31155998
vt 0.61874998 0.31155998
vt 0.61250001 0.31155998
vt 0.61250001 0.31155998
vt 0.61874998 0.31155998
vt 0.61874998 0.31155998
vt 0.37500000 0.31155998
vt 0.37500000 0.31155998
vt 0.38124999 0.31155998
vt 0.38124999 0.31155998
vt 0.38749999 0.31155998
vt 0.38124999 0.31155998
vt 0.38749999 0.31155998
vt 0.38749999 0.31155998
vt 0.39375001 0.31155998
vt 0.39375001 0.31155998
vt 0.40000001 0.31155998
vt 0.39375001 0.31155998
vt 0.40000001 0.31155998
vt 0.40000001 0.31155998
vt 0.40625000 0.31155998
vt 0.40625000 0.31155998
vt 0.41249999 0.31155998
vt 0.40625000 0.31155998
vt 0.41249999 0.31155998
vt 0.41249999 0.31155998
vt 0.41874999 0.31155998
vt 0.41874999 0.31155998
vt 0.42500001 0.31155998
vt 0.41874999 0.31155998
vt 0.42500001 0.31155998
vt 0.42500001 0.31155998
vt 0.43125001 0.31155998
vt 0.43125001 0.31155998
vt 0.43750000 0.31155998
vt 0.43125001 0.31155998
vt 0.43750000 0.31155998
vt 0.43750000 0.31155998
vt 0.44374999 0.31155998
vt 0.44374999 0.31155998
vt 0.44999999 0.31155998
vt 0.44374999 0.31155998
vt 0.44999999 0.31155998
vt 0.44999999 0.31155998
vt 0.45625001 0.31155998
vt 0.45625001 0.31155998
vt 0.46250001 0.31155998
vt 0.45625001 0.31155998
vt 0.46250001 0.31155998
vt 0.46250001 0.31155998
vt 0.46875000 0.31155998
vt 0.46875000 0.31155998
vt 0.47499999 0.31155998
vt 0.46875000 0.31155998
vt 0.47499999 0.31155998
vt 0.47499999 0.31155998
vt 0.48124999 0.31155998
vt 0.48124999 0.31155998
vt 0.48750001 0.31155998
vt 0.48124999 0.31155998
vt 0.48750001 0.31155998
vt 0.48750001 0.31155998
vt 0.49375001 0.31155998
vt 0.49375001 0.31155998
vt 0.50000000 0.31155998
vt 0.49375001 0.31155998
vt 0.50000000 0.31155998
vt 0.50000000 0.31155998
vt 0.50625002 0.31155998
vt 0.50625002 0.31155998
vt 0.51249999 0.31155998
vt 0.50625002 0.31155998
vt 0.51249999 0.31155998
vt 0.51249999 0.31155998
vt 0.51875001 0.31155998
vt 0.51875001 0.31155998
vt 0.52499998 0.31155998
vt 0.51875001 0.31155998
vt 0.52499998 0.31155998
vt 0.52499998 0.31155998
vt 0.53125000 0.31155998
vt 0.53125000 0.31155998
vt 0.53750002 0.31155998
vt 0.53125000 0.31155998
vt 0.53750002 0.31155998
vt 0.53750002 0.31155998
vt 0.54374999 0.31155998
vt 0.54374999 0.31155998
vt 0.55000001 0.31155998
vt 0.54374999 0.31155998
vt 0.55000001 0.31155998
vt 0.55000001 0.31155998
vt 0.55624998 0.31155998
vt 0.55624998 0.31155998
vt 0.56250000 0.31155998
vt 0.55624998 0.31155998
vt 0.56250000 0.31155998
vt 0.56250000 0.31155998
vt 0.56875002 0.31155998
vt 0.56875002 0.31155998
vt 0.57499999 0.31155998
vt 0.56875002 0.31155998
vt 0.57499999 0.31155998
vt 0.57499999 0.31155998
vt 0.58125001 0.31155998
vt 0.58125001 0.31155998
vt 0.58749998 0.31155998
vt 0.58125001 0.31155998
vt 0.58749998 0.31155998
vt 0.58749998 0.31155998
vt 0.59375000 0.31155998
vt 0.59375000 0.31155998
vt 0.60000002 0.31155998
vt 0.59375000 0.31155998
vt 0.60000002 0.31155998
vt 0.60000002 0.31155998
vt 0.60624999 0.31155998
vt 0.60624999 0.31155998
vt 0.61250001 0.31155998
vt 0.60624999 0.31155998
vt 0.61250001 0.31155998
vt 0.61250001 0.31155998
vt 0.61874998 0.31155998
vt 0.61874998 0.31155998
vt 0.62500000 0.31155998
vt 0.61874998 0.31155998
vt 0.38749999 0.31155998
vt 0.38124999 0.31155998
vt 0.37500000 0.31155998
vt 0.37500000 0.31155998
vt 0.37500000 0.31155998
vt 0.40000001 0.31155998
vt 0.39375001 0.31155998
vt 0.41249999 0.31155998
vt 0.40625000 0.31155998
vt 0.42500001 0.31155998
vt 0.41874999 0.31155998
vt 0.43750000 0.31155998
vt 0.43125001 0.31155998
vt 0.44999999 0.31155998
vt 0.44374999 0.31155998
vt 0.46250001 0.31155998
vt 0.45625001 0.31155998
vt 0.47499999 0.31155998
vt 0.46875000 0.31155998
vt 0.48750001 0.31155998
vt 0.48124999 0.31155998
vt 0.50000000 0.31155998
vt 0.49375001 0.31155998
vt 0.51249999 0.31155998
vt 0.50625002 0.31155998
vt 0.52499998 0.31155998
vt 0.51875001 0.31155998
vt 0.53750002 0.31155998
vt 0.53125000 0.31155998
vt 0.55000001 0.31155998
vt 0.54374999 0.31155998
vt 0.56250000 0.31155998
vt 0.55624998 0.31155998
vt 0.57499999 0.31155998
vt 0.56875002 0.31155998
vt 0.58749998 0.31155998
vt 0.58125001 0.31155998
vt 0.60000002 0.31155998
vt 0.59375000 0.31155998
vt 0.61250001 0.31155998
vt 0.60624999 0.31155998
vt 0.62500000 0.31155998
vt 0.61874998 0.31155998
vt 0.37500000 0.31155998
vt 0.37500000 0.31155998
vt 0.38749999 0.31155998
vt 0.38124999 0.31155998
vt 0.37500000 0.31155998
vt 0.40000001 0.31155998
vt 0.39375001 0.31155998
vt 0.41249999 0.31155998
vt 0.40625000 0.31155998
vt 0.42500001 0.31155998
vt 0.41874999 0.31155998
vt 0.43750000 0.31155998
vt 0.43125001 0.31155998
vt 0.44999999 0.31155998
vt 0.44374999 0.31155998
vt 0.46250001 0.31155998
vt 0.45625001 0.31155998
vt 0.47499999 0.31155998
vt 0.46875000 0.31155998
vt 0.48750001 0.31155998
vt 0.48124999 0.31155998
vt 0.50000000 0.31155998
vt 0.49375001 0.31155998
vt 0.51249999 0.31155998
vt 0.50625002 0.31155998
vt 0.52499998 0.31155998
vt 0.51875001 0.31155998
vt 0.53750002 0.31155998
vt 0.53125000 0.31155998
vt 0.55000001 0.31155998
vt 0.54374999 0.31155998
vt 0.56250000 0.31155998
vt 0.55624998 0.31155998
vt 0.57499999 0.31155998
vt 0.56875002 0.31155998
vt 0.58749998 0.31155998
vt 0.58125001 0.31155998
vt 0.60000002 0.31155998
vt 0.59375000 0.31155998
vt 0.61250001 0.31155998
vt 0.60624999 0.31155998
vt 0.62500000 0.31155998
vt 0.62500000 0.31155998
vt 0.62500000 0.31155998
vt 0.61874998 0.31155998
vt 0.37500000 0.31155998
vt 0.62500000 0.31155998
vt 0.62500000 0.31155998
f 3/3 2/2 1/1
f 4/4 2/2 3/3
f 4/4 5/5 2/2
f 4/4 6/6 5/5
f 7/7 6/6 4/4
f 7/7 8/8 6/6
f 7/7 9/9 8/8
f 10/10 9/9 7/7
f 10/10 11/11 9/9
f 10/10 12/12 11/11
f 13/13 12/12 10/10
f 13/13 14/14 12/12
f 13/13 15/15 14/14
f 16/16 15/15 13/13
f 16/16 17/17 15/15
f 16/16 18/18 17/17
f 19/19 18/18 16/16
f 19/19 20/20 18/18
f 19/19 21/21 20/20
f 22/22 21/21 19/19
f 22/22 23/23 21/21
f 22/22 24/24 23/23
f 25/25 24/24 22/22
f 25/25 26/26 24/24
f 25/25 27/27 26/26
f 28/28 27/27 25/25
f 28/28 29/29 27/27
f 28/28 30/30 29/29
f 31/31 30/30 28/28
f 31/31 32/32 30/30
f 31/31 33/33 32/32
f 34/34 33/33 31/31
f 34/34 35/35 33/33
f 34/34 36/36 35/35
f 37/37 36/36 34/34
f 37/37 38/38 36/36
f 37/37 39/39 38/38
f 40/40 39/39 37/37
f 40/40 41/41 39/39
f 40/40 42/42 41/41
f 43/43 42/42 40/40
f 43/43 44/44 42/42
f 43/43 45/45 44/44
f 46/46 45/45 43/43
f 46/46 47/47 45/45
f 46/46 48/48 47/47
f 49/49 48/48 46/46
f 49/49 50/50 48/48
f 49/49 51/51 50/50
f 52/52 51/51 49/49
f 52/52 53/53 51/51
f 52/52 54/54 53/53
f 55/55 54/54 52/52
f 55/55 56/56 54/54
f 55/55 57/57 56/56
f 58/58 57/57 55/55
f 58/58 59/59 57/57
f 58/58 60/60 59/59
f 61/61 60/60 58/58
f 61/61 62/62 60/60
f 65/65 64/64 63/63
f 65/65 66/66 64/64
f 65/65 67/67 66/66
f 65/65 68/68 67/67
f 65/65 69/69 68/68
f 65/65 70/70 69/69
f 65/65 71/71 70/70
f 65/65 72/72 71/71
f 65/65 73/73 72/72
f 65/65 74/74 73/73
f 65/65 75/75 74/74
f 65/65 76/76 75/75
f 65/65 77/77 76/76
f 65/65 78/78 77/77
f 65/65 79/79 78/78
f 65/65 80/80 79/79
f 65/65 81/81 80/80
f 65/65 82/82 81/81
f 65/65 83/83 82/82
f 65/65 63/63 83/83
f 83/83 63/63 84/84
f 85/85 83/83 84/84
f 63/63 64/64 86/86
f 84/84 63/63 86/86
f 64/64 66/66 87/87
f 86/86 64/64 87/87
f 66/66 67/67 88/88
f 87/87 66/66 88/88
f 67/67 68/68 89/89
f 88/88 67/67 89/89
f 68/68 69/69 90/90
f 89/89 68/68 90/90
f 69/69 70/70 91/91
f 90/90 69/69 91/91
f 70/70 71/71 92/92
f 91/91 70/70 92/92
f 71/71 72/72 93/93
f 92/92 71/71 93/93
f 72/72 73/73 94/94
f 93/93 72/72 94/94
f 73/73 74/74 95/95
f 94/94 73/73 95/95
f 74/74 75/75 96/96
f 95/95 74/74 96/96
f 75/75 76/76 97/97
f 96/96 75/75 97/97
f 76/76 77/77 98/98
f 97/97 76/76 98/98
f 77/77 78/78 99/99
f 98/98 77/77 99/99
f 78/78 79/79 100/100
f 99/99 78/78 100/100
f 79/79 80/80 101/101
f 100/100 79/79 101/101
f 80/80 81/81 102/102
f 101/101 80/80 102/102
f 81/81 82/82 103/103
f 102/102 81/81 103/103
f 82/82 83/83 85/85
f 103/103 82/82 85/85
f 106/106 105/105 104/104
f 107/107 105/105 106/106
f 108/108 105/105 107/107
f 111/111 110/110 109/109
f 106/106 110/110 111/111
f 104/104 110/110 106/106
f 114/114 113/113 112/112
f 111/111 113/113 114/114
f 109/109 113/113 111/111
f 117/117 116/116 115/115
f 114/114 116/116 117/117
f 112/112 116/116 114/114
f 120/120 119/119 118/118
f 117/117 119/119 120/120
f 115/115 119/119 117/117
f 123/123 122/122 121/121
f 120/120 122/122 123/123
f 118/118 122/122 120/120
f 126/126 125/125 124/124
f 123/123 125/125 126/126
f 121/121 125/125 123/123
f 129/129 128/128 127/127
f 126/126 128/128 129/129
f 124/124 128/128 126/126
f 132/132 131/131 130/130
f 129/129 131/131 132/132
f 127/127 131/131 129/129
f 135/135 134/134 133/133
f 132/132 134/134 135/135
f 130/130 134/134 132/132
f 138/138 137/137 136/136
f 135/135 137/137 138/138
f 133/133 137/137 135/135
f 141/141 140/140 139/139
f 138/138 140/140 141/141
f 136/136 140/140 138/138
f 144/144 143/143 142/142
f 141/141 143/143 144/144
f 139/139 143/143 141/141
f 147/147 146/146 145/145
f 144/144 146/146 147/147
f 142/142 146/146 144/144
f 150/150 149/149 148/148
f 147/147 149/149 150/150
f 145/145 149/149 147/147
f 153/153 152/152 151/151
f 150/150 152/152 153/153
f 148/148 152/152 150/150
f 156/156 155/155 154/154
f 153/153 155/155 156/156
f 151/151 155/155 153/153
f 159/159 158/158 157/157
f 156/156 158/158 159/159
f 154/154 158/158 156/156
f 162/162 161/161 160/160
f 159/159 161/161 162/162
f 157/157 161/161 159/159
f 165/165 164/164 163/163
f 162/162 164/164 165/165
f 160/160 164/164 162/162
f 168/168 167/167 166/166
f 168/168 166/166 169/169
f 168/168 169/169 170/170
f 168/168 170/170 171/171
f 168/168 171/171 172/172
f 168/168 172/172 173/173
f 168/168 173/173 174/174
f 168/168 174/174 175/175
f 168/168 175/175 176/176
f 168/168 176/176 177/177
f 168/168 177/177 178/178
f 168/168 178/178 179/179
f 168/168 179/179 180/180
f 168/168 180/180 181/181
f 168/168 181/181 182/182
f 168/168 182/182 183/183
f 168/168 183/183 184/184
f 168/168 184/184 185/185
f 168/168 185/185 186/186
f 168/168 186/186 167/167
f 189/189 188/188 187/187
f 190/190 189/189 187/187
f 192/192 191/191 188/188
f 189/189 192/192 188/188
f 194/194 193/193 191/191
f 192/192 194/194 191/191
f 196/196 195/195 193/193
f 194/194 196/196 193/193
f 198/198 197/197 195/195
f 196/196 198/198 195/195
f 200/200 199/199 197/197
f 198/198 200/200 197/197
f 202/202 201/201 199/199
f 200/200 202/202 199/199
f 204/204 203/203 201/201
f 202/202 204/204 201/201
f 206/206 205/205 203/203
f 204/204 206/206 203/203
f 208/208 207/207 205/205
f 206/206 208/208 205/205
f 210/210 209/209 207/207
f 208/208 210/210 207/207
f 212/212 211/211 209/209
f 210/210 212/212 209/209
f 214/214 213/213 211/211
f 212/212 214/214 211/211
f 216/216 215/215 213/213
f 214/214 216/216 213/213
f 218/218 217/217 215/215
f 216/216 218/218 215/215
f 220/220 219/219 217/217
f 218/218 220/220 217/217
f 222/222 221/221 219/219
f 220/220 222/222 219/219
f 224/224 223/223 221/221
f 222/222 224/224 221/221
f 226/226 225/225 223/223
f 224/224 226/226 223/223
f 190/190 187/187 225/225
f 226/226 190/190 225/225
f 227/227 206/206 204/204
f 228/228 227/227 204/204
f 228/228 204/204 202/202
f 229/229 228/228 202/202
f 229/229 202/202 200/200
f 230/230 229/229 200/200
f 230/230 200/200 198/198
f 231/231 230/230 198/198
f 231/231 198/198 196/196
f 232/232 231/231 196/196
f 232/232 196/196 194/194
f 233/233 232/232 194/194
f 233/233 194/194 192/192
f 234/234 233/233 192/192
f 234/234 192/192 189/189
f 235/235 234/234 189/189
f 235/235 189/189 190/190
f 236/236 235/235 190/190
f 236/236 190/190 226/226
f 237/237 236/236 226/226
f 237/237 226/226 224/224
f 238/238 237/237 224/224
f 238/238 224/224 222/222
f 239/239 238/238 222/222
f 239/239 222/222 220/220
f 240/240 239/239 220/220
f 240/240 220/220 218/218
f 241/241 240/240 218/218
f 241/241 218/218 216/216
f 242/242 241/241 216/216
f 242/242 216/216 214/214
f 243/243 242/242 214/214
f 243/243 214/214 212/212
f 244/244 243/243 212/212
f 244/244 212/212 210/210
f 245/245 244/244 210/210
f 245/245 210/210 208/208
f 246/246 245/245 208/208
f 246/246 208/208 206/206
f 227/227 246/246 206/206
f 166/166 228/228 229/229
f 169/169 166/166 229/229
f 167/167 227/227 228/228
f 166/166 167/167 228/228
f 186/186 246/246 227/227
f 167/167 186/186 227/227
f 185/185 245/245 246/246
f 186/186 185/185 246/246
f 184/184 244/244 245/245
f 185/185 184/184 245/245
f 183/183 243/243 244/244
f 184/184 183/183 244/244
f 182/182 242/242 243/243
f 183/183 182/182 243/243
f 181/181 241/241 242/242
f 182/182 181/181 242/242
f 180/180 240/240 241/241
f 181/181 180/180 241/241
f 179/179 239/239 240/240
f 180/180 179/179 240/240
f 178/178 238/238 239/239
f 179/179 178/178 239/239
f 177/177 237/237 238/238
f 178/178 177/177 238/238
f 176/176 236/236 237/237
f 177/177 176/176 237/237
f 175/175 235/235 236/236
f 176/176 175/175 236/236
f 174/174 234/234 235/235
f 175/175 174/174 235/235
f 173/173 233/233 234/234
f 174/174 173/173 234/234
f 172/172 232/232 233/233
f 173/173 172/172 233/233
f 171/171 231/231 232/232
f 172/172 171/171 232/232
f 170/170 230/230 231/231
f 171/171 170/170 231/231
f 169/169 229/229 230/230
f 170/170 169/169 230/230
f 249/249 248/248 247/247
f 250/250 249/249 247/247
f 253/253 252/252 251/251
f 254/254 253/253 251/251
f 257/257 256/256 255/255
f 258/258 257/257 255/255
f 261/261 260/260 259/259
f 262/262 261/261 259/259
f 265/265 264/264 263/263
f 266/266 265/265 263/263
f 269/269 268/268 267/267
f 270/270 269/269 267/267
f 273/273 272/272 271/271
f 274/274 273/273 271/271
f 277/277 276/276 275/275
f 278/278 277/277 275/275
f 281/281 280/280 279/279
f 282/282 281/281 279/279
f 285/285 284/284 283/283
f 286/286 285/285 283/283
f 289/289 288/288 287/287
f 290/290 289/289 287/287
f 293/293 292/292 291/291
f 294/294 293/293 291/291
f 297/297 296/296 295/295
f 298/298 297/297 295/295
f 301/301 300/300 299/299
f 302/302 301/301 299/299
f 305/305 304/304 303/303
f 306/306 305/305 303/303
f 309/309 308/308 307/307
f 310/310 309/309 307/307
f 313/313 312/312 311/311
f 314/314 313/313 311/311
f 317/317 316/316 315/315
f 318/318 317/317 315/315
f 321/321 320/320 319/319
f 322/322 321/321 319/319
f 325/325 324/324 323/323
f 326/326 325/325 323/323
f 329/329 328/328 327/327
f 330/330 329/329 327/327
f 333/333 332/332 331/331
f 334/334 333/333 331/331
f 337/337 336/336 335/335
f 338/338 337/337 335/335
f 341/341 340/340 339/339
f 342/342 341/341 339/339
f 345/345 344/344 343/343
f 346/346 345/345 343/343
f 349/349 348/348 347/347
f 350/350 349/349 347/347
f 353/353 352/352 351/351
f 354/354 353/353 351/351
f 357/357 356/356 355/355
f 358/358 357/357 355/355
f 361/361 360/360 359/359
f 362/362 361/361 359/359
f 365/365 364/364 363/363
f 366/366 365/365 363/363
f 369/369 368/368 367/367
f 370/370 369/369 367/367
f 373/373 372/372 371/371
f 374/374 373/373 371/371
f 377/377 376/376 375/375
f 378/378 377/377 375/375
f 381/381 380/380 379/379
f 382/382 381/381 379/379
f 385/385 384/384 383/383
f 386/386 385/385 383/383
f 389/389 388/388 387/387
f 390/390 389/389 387/387
f 393/393 392/392 391/391
f 394/394 393/393 391/391
f 397/397 396/396 395/395
f 398/398 397/397 395/395
f 401/401 400/400 399/399
f 402/402 401/401 399/399
f 405/405 404/404 403/403
f 406/406 405/405 403/403
f 409/409 408/408 407/407
f 410/410 409/409 407/407
f 413/413 412/412 411/411
f 414/414 413/413 411/411
f 417/417 416/416 415/415
f 418/418 417/417 415/415
f 421/421 420/420 419/419
f 422/422 421/421 419/419
f 425/425 424/424 423/423
f 426/426 425/425 423/423
f 429/429 428/428 427/427
f 430/430 429/429 427/427
f 433/433 432/432 431/431
f 434/434 433/433 431/431
f 437/437 436/436 435/435
f 438/438 437/437 435/435
f 441/441 440/440 439/439
f 442/442 441/441 439/439
f 445/445 444/444 443/443
f 446/446 445/445 443/443
f 449/449 448/448 447/447
f 450/450 449/449 447/447
f 453/453 452/452 451/451
f 454/454 453/453 451/451
f 457/457 456/456 455/455
f 458/458 457/457 455/455
f 461/461 460/460 459/459
f 462/462 461/461 459/459
f 465/465 464/464 463/463
f 466/466 465/465 463/463
f 469/469 468/468 467/467
f 470/470 469/469 467/467
f 473/473 472/472 471/471
f 474/474 473/473 471/471
f 477/477 476/476 475/475
f 478/478 477/477 475/475
f 481/481 480/480 479/479
f 482/482 481/481 479/479
f 485/485 484/484 483/483
f 486/486 485/485 483/483
f 489/489 488/488 487/487
f 490/490 489/489 487/487
f 247/247 248/248 491/491
f 492/492 247/247 491/491
f 495/495 494/494 493/493
f 496/496 495/495 493/493
f 251/251 252/252 497/497
f 498/498 251/251 497/497
f 501/501 500/500 499/499
f 502/502 501/501 499/499
f 255/255 256/256 503/503
f 504/504 255/255 503/503
f 507/507 506/506 505/505
f 508/508 507/507 505/505
f 259/259 260/260 509/509
f 510/510 259/259 509/509
f 513/513 512/512 511/511
f 514/514 513/513 511/511
f 263/263 264/264 515/515
f 516/516 263/263 515/515
f 519/519 518/518 517/517
f 520/520 519/519 517/517
f 267/267 268/268 521/521
f 522/522 267/267 521/521
f 525/525 524/524 523/523
f 526/526 525/525 523/523
f 271/271 272/272 527/527
f 528/528 271/271 527/527
f 531/531 530/530 529/529
f 532/532 531/531 529/529
f 275/275 276/276 533/533
f 534/534 275/275 533/533
f 537/537 536/536 535/535
f 538/538 537/537 535/535
f 279/279 280/280 539/539
f 540/540 279/279 539/539
f 543/543 542/542 541/541
f 544/544 543/543 541/541
f 283/283 284/284 545/545
f 546/546 283/283 545/545
f 549/549 548/548 547/547
f 550/550 549/549 547/547
f 287/287 288/288 551/551
f 552/552 287/287 551/551
f 555/555 554/554 553/553
f 556/556 555/555 553/553
f 291/291 292/292 557/557
f 558/558 291/291 557/557
f 561/561 560/560 559/559
f 562/562 561/561 559/559
f 295/295 296/296 563/563
f 564/564 295/295 563/563
f 567/567 566/566 565/565
f 568/568 567/567 565/565
f 299/299 300/300 569/569
f 570/570 299/299 569/569
f 573/573 572/572 571/571
f 574/574 573/573 571/571
f 303/303 304/304 575/575
f 576/576 303/303 575/575
f 579/579 578/578 577/577
f 580/580 579/579 577/577
f 307/307 308/308 581/581
f 582/582 307/307 581/581
f 585/585 584/584 583/583
f 586/586 585/585 583/583
f 311/311 312/312 587/587
f 588/588 311/311 587/587
f 591/591 590/590 589/589
f 592/592 591/591 589/589
f 315/315 316/316 593/593
f 594/594 315/315 593/593
f 597/597 596/596 595/595
f 598/598 597/597 595/595
f 319/319 320/320 599/599
f 600/600 319/319 599/599
f 603/603 602/602 601/601
f 604/604 603/603 601/601
f 323/323 324/324 605/605
f 606/606 323/323 605/605
f 608/608 607/607 249/249
f 250/250 608/608 249/249
f 610/610 609/609 608/608
f 250/250 610/610 608/608
f 247/247 611/611 610/610
f 250/250 247/247 610/610
f 613/613 612/612 253/253
f 254/254 613/613 253/253
f 249/249 607/607 613/613
f 254/254 249/249 613/613
f 251/251 248/248 249/249
f 254/254 251/251 249/249
f 615/615 614/614 257/257
f 258/258 615/615 257/257
f 253/253 612/612 615/615
f 258/258 253/253 615/615
f 255/255 252/252 253/253
f 258/258 255/255 253/253
f 617/617 616/616 261/261
f 262/262 617/617 261/261
f 257/257 614/614 617/617
f 262/262 257/257 617/617
f 259/259 256/256 257/257
f 262/262 259/259 257/257
f 619/619 618/618 265/265
f 266/266 619/619 265/265
f 261/261 616/616 619/619
f 266/266 261/261 619/619
f 263/263 260/260 261/261
f 266/266 263/263 261/261
f 621/621 620/620 269/269
f 270/270 621/621 269/269
f 265/265 618/618 621/621
f 270/270 265/265 621/621
f 267/267 264/264 265/265
f 270/270 267/267 265/265
f 623/623 622/622 273/273
f 274/274 623/623 273/273
f 269/269 620/620 623/623
f 274/274 269/269 623/623
f 271/271 268/268 269/269
f 274/274 271/271 269/269
f 625/625 624/624 277/277
f 278/278 625/625 277/277
f 273/273 622/622 625/625
f 278/278 273/273 625/625
f 275/275 272/272 273/273
f 278/278 275/275 273/273
f 627/627 626/626 281/281
f 282/282 627/627 281/281
f 277/277 624/624 627/627
f 282/282 277/277 627/627
f 279/279 276/276 277/277
f 282/282 279/279 277/277
f 629/629 628/628 285/285
f 286/286 629/629 285/285
f 281/281 626/626 629/629
f 286/286 281/281 629/629
f 283/283 280/280 281/281
f 286/286 283/283 281/281
f 631/631 630/630 289/289
f 290/290 631/631 289/289
f 285/285 628/628 631/631
f 290/290 285/285 631/631
f 287/287 284/284 285/285
f 290/290 287/287 285/285
f 633/633 632/632 293/293
f 294/294 633/633 293/293
f 289/289 630/630 633/633
f 294/294 289/289 633/633
f 291/291 288/288 289/289
f 294/294 291/291 289/289
f 635/635 634/634 297/297
f 298/298 635/635 297/297
f 293/293 632/632 635/635
f 298/298 293/293 635/635
f 295/295 292/292 293/293
f 298/298 295/295 293/293
f 637/637 636/636 301/301
f 302/302 637/637 301/301
f 297/297 634/634 637/637
f 302/302 297/297 637/637
f 299/299 296/296 297/297
f 302/302 299/299 297/297
f 639/639 638/638 305/305
f 306/306 639/639 305/305
f 301/301 636/636 639/639
f 306/306 301/301 639/639
f 303/303 300/300 301/301
f 306/306 303/303 301/301
f 641/641 640/640 309/309
f 310/310 641/641 309/309
f 305/305 638/638 641/641
f 310/310 305/305 641/641
f 307/307 304/304 305/305
f 310/310 307/307 305/305
f 643/643 642/642 313/313
f 314/314 643/643 313/313
f 309/309 640/640 643/643
f 314/314 309/309 643/643
f 311/311 308/308 309/309
f 314/314 311/311 309/309
f 645/645 644/644 317/317
f 318/318 645/645 317/317
f 313/313 642/642 645/645
f 318/318 313/313 645/645
f 315/315 312/312 313/313
f 318/318 315/315 313/313
f 647/647 646/646 321/321
f 322/322 647/647 321/321
f 317/317 644/644 647/647
f 322/322 317/317 647/647
f 319/319 316/316 317/317
f 322/322 319/319 317/317
f 649/649 648/648 325/325
f 326/326 649/649 325/325
f 321/321 646/646 649/649
f 326/326 321/321 649/649
f 323/323 320/320 321/321
f 326/326 323/323 321/321
f 651/651 650/650 329/329
f 330/330 651/651 329/329
f 608/608 609/609 651/651
f 330/330 608/608 651/651
f 327/327 607/607 608/608
f 330/330 327/327 608/608
f 339/339 340/340 333/333
f 334/334 339/339 333/333
f 653/653 652/652 339/339
f 334/334 653/653 339/339
f 331/331 654/654 653/653
f 334/334 331/331 653/653
f 327/327 328/328 337/337
f 338/338 327/327 337/337
f 613/613 607/607 327/327
f 338/338 613/613 327/327
f 335/335 612/612 613/613
f 338/338 335/335 613/613
f 347/347 348/348 341/341
f 342/342 347/347 341/341
f 656/656 655/655 347/347
f 342/342 656/656 347/347
f 339/339 652/652 656/656
f 342/342 339/339 656/656
f 335/335 336/336 345/345
f 346/346 335/335 345/345
f 615/615 612/612 335/335
f 346/346 615/615 335/335
f 343/343 614/614 615/615
f 346/346 343/343 615/615
f 355/355 356/356 349/349
f 350/350 355/355 349/349
f 658/658 657/657 355/355
f 350/350 658/658 355/355
f 347/347 655/655 658/658
f 350/350 347/347 658/658
f 343/343 344/344 353/353
f 354/354 343/343 353/353
f 617/617 614/614 343/343
f 354/354 617/617 343/343
f 351/351 616/616 617/617
f 354/354 351/351 617/617
f 363/363 364/364 357/357
f 358/358 363/363 357/357
f 660/660 659/659 363/363
f 358/358 660/660 363/363
f 355/355 657/657 660/660
f 358/358 355/355 660/660
f 351/351 352/352 361/361
f 362/362 351/351 361/361
f 619/619 616/616 351/351
f 362/362 619/619 351/351
f 359/359 618/618 619/619
f 362/362 359/359 619/619
f 371/371 372/372 365/365
f 366/366 371/371 365/365
f 662/662 661/661 371/371
f 366/366 662/662 371/371
f 363/363 659/659 662/662
f 366/366 363/363 662/662
f 359/359 360/360 369/369
f 370/370 359/359 369/369
f 621/621 618/618 359/359
f 370/370 621/621 359/359
f 367/367 620/620 621/621
f 370/370 367/367 621/621
f 379/379 380/380 373/373
f 374/374 379/379 373/373
f 664/664 663/663 379/379
f 374/374 664/664 379/379
f 371/371 661/661 664/664
f 374/374 371/371 664/664
f 367/367 368/368 377/377
f 378/378 367/367 377/377
f 623/623 620/620 367/367
f 378/378 623/623 367/367
f 375/375 622/622 623/623
f 378/378 375/375 623/623
f 387/387 388/388 381/381
f 382/382 387/387 381/381
f 666/666 665/665 387/387
f 382/382 666/666 387/387
f 379/379 663/663 666/666
f 382/382 379/379 666/666
f 375/375 376/376 385/385
f 386/386 375/375 385/385
f 625/625 622/622 375/375
f 386/386 625/625 375/375
f 383/383 624/624 625/625
f 386/386 383/383 625/625
f 395/395 396/396 389/389
f 390/390 395/395 389/389
f 668/668 667/667 395/395
f 390/390 668/668 395/395
f 387/387 665/665 668/668
f 390/390 387/387 668/668
f 383/383 384/384 393/393
f 394/394 383/383 393/393
f 627/627 624/624 383/383
f 394/394 627/627 383/383
f 391/391 626/626 627/627
f 394/394 391/391 627/627
f 403/403 404/404 397/397
f 398/398 403/403 397/397
f 670/670 669/669 403/403
f 398/398 670/670 403/403
f 395/395 667/667 670/670
f 398/398 395/395 670/670
f 391/391 392/392 401/401
f 402/402 391/391 401/401
f 629/629 626/626 391/391
f 402/402 629/629 391/391
f 399/399 628/628 629/629
f 402/402 399/399 629/629
f 411/411 412/412 405/405
f 406/406 411/411 405/405
f 672/672 671/671 411/411
f 406/406 672/672 411/411
f 403/403 669/669 672/672
f 406/406 403/403 672/672
f 399/399 400/400 409/409
f 410/410 399/399 409/409
f 631/631 628/628 399/399
f 410/410 631/631 399/399
f 407/407 630/630 631/631
f 410/410 407/407 631/631
f 419/419 420/420 413/413
f 414/414 419/419 413/413
f 674/674 673/673 419/419
f 414/414 674/674 419/419
f 411/411 671/671 674/674
f 414/414 411/411 674/674
f 407/407 408/408 417/417
f 418/418 407/407 417/417
f 633/633 630/630 407/407
f 418/418 633/633 407/407
f 415/415 632/632 633/633
f 418/418 415/415 633/633
f 427/427 428/428 421/421
f 422/422 427/427 421/421
f 676/676 675/675 427/427
f 422/422 676/676 427/427
f 419/419 673/673 676/676
f 422/422 419/419 676/676
f 415/415 416/416 425/425
f 426/426 415/415 425/425
f 635/635 632/632 415/415
f 426/426 635/635 415/415
f 423/423 634/634 635/635
f 426/426 423/423 635/635
f 435/435 436/436 429/429
f 430/430 435/435 429/429
f 678/678 677/677 435/435
f 430/430 678/678 435/435
f 427/427 675/675 678/678
f 430/430 427/427 678/678
f 423/423 424/424 433/433
f 434/434 423/423 433/433
f 637/637 634/634 423/423
f 434/434 637/637 423/423
f 431/431 636/636 637/637
f 434/434 431/431 637/637
f 443/443 444/444 437/437
f 438/438 443/443 437/437
f 680/680 679/679 443/443
f 438/438 680/680 443/443
f 435/435 677/677 680/680
f 438/438 435/435 680/680
f 431/431 432/432 441/441
f 442/442 431/431 441/441
f 639/639 636/636 431/431
f 442/442 639/639 431/431
f 439/439 638/638 639/639
f 442/442 439/439 639/639
f 451/451 452/452 445/445
f 446/446 451/451 445/445
f 682/682 681/681 451/451
f 446/446 682/682 451/451
f 443/443 679/679 682/682
f 446/446 443/443 682/682
f 439/439 440/440 449/449
f 450/450 439/439 449/449
f 641/641 638/638 439/439
f 450/450 641/641 439/439
f 447/447 640/640 641/641
f 450/450 447/447 641/641
f 459/459 460/460 453/453
f 454/454 459/459 453/453
f 684/684 683/683 459/459
f 454/454 684/684 459/459
f 451/451 681/681 684/684
f 454/454 451/451 684/684
f 447/447 448/448 457/457
f 458/458 447/447 457/457
f 643/643 640/640 447/447
f 458/458 643/643 447/447
f 455/455 642/642 643/643
f 458/458 455/455 643/643
f 467/467 468/468 461/461
f 462/462 467/467 461/461
f 686/686 685/685 467/467
f 462/462 686/686 467/467
f 459/459 683/683 686/686
f 462/462 459/459 686/686
f 455/455 456/456 465/465
f 466/466 455/455 465/465
f 645/645 642/642 455/455
f 466/466 645/645 455/455
f 463/463 644/644 645/645
f 466/466 463/463 645/645
f 475/475 476/476 469/469
f 470/470 475/475 469/469
f 688/688 687/687 475/475
f 470/470 688/688 475/475
f 467/467 685/685 688/688
f 470/470 467/467 688/688
f 463/463 464/464 473/473
f 474/474 463/463 473/473
f 647/647 644/644 463/463
f 474/474 647/647 463/463
f 471/471 646/646 647/647
f 474/474 471/471 647/647
f 483/483 484/484 477/477
f 478/478 483/483 477/477
f 690/690 689/689 483/483
f 478/478 690/690 483/483
f 475/475 687/687 690/690
f 478/478 475/475 690/690
f 471/471 472/472 481/481
f 482/482 471/471 481/481
f 649/649 646/646 471/471
f 482/482 649/649 471/471
f 479/479 648/648 649/649
f 482/482 479/479 649/649
f 692/692 691/691 485/485
f 486/486 692/692 485/485
f 694/694 693/693 692/692
f 486/486 694/694 692/692
f 483/483 689/689 694/694
f 486/486 483/483 694/694
f 493/493 494/494 489/489
f 490/490 493/493 489/489
f 333/333 340/340 493/493
f 490/490 333/333 493/493
f 487/487 332/332 333/333
f 490/490 487/487 333/333
f 695/695 611/611 247/247
f 492/492 695/695 247/247
f 653/653 654/654 695/695
f 492/492 653/653 695/695
f 491/491 652/652 653/653
f 492/492 491/491 653/653
f 499/499 500/500 495/495
f 496/496 499/499 495/495
f 341/341 348/348 499/499
f 496/496 341/341 499/499
f 493/493 340/340 341/341
f 496/496 493/493 341/341
f 491/491 248/248 251/251
f 498/498 491/491 251/251
f 656/656 652/652 491/491
f 498/498 656/656 491/491
f 497/497 655/655 656/656
f 498/498 497/497 656/656
f 505/505 506/506 501/501
f 502/502 505/505 501/501
f 349/349 356/356 505/505
f 502/502 349/349 505/505
f 499/499 348/348 349/349
f 502/502 499/499 349/349
f 497/497 252/252 255/255
f 504/504 497/497 255/255
f 658/658 655/655 497/497
f 504/504 658/658 497/497
f 503/503 657/657 658/658
f 504/504 503/503 658/658
f 511/511 512/512 507/507
f 508/508 511/511 507/507
f 357/357 364/364 511/511
f 508/508 357/357 511/511
f 505/505 356/356 357/357
f 508/508 505/505 357/357
f 503/503 256/256 259/259
f 510/510 503/503 259/259
f 660/660 657/657 503/503
f 510/510 660/660 503/503
f 509/509 659/659 660/660
f 510/510 509/509 660/660
f 517/517 518/518 513/513
f 514/514 517/517 513/513
f 365/365 372/372 517/517
f 514/514 365/365 517/517
f 511/511 364/364 365/365
f 514/514 511/511 365/365
f 509/509 260/260 263/263
f 516/516 509/509 263/263
f 662/662 659/659 509/509
f 516/516 662/662 509/509
f 515/515 661/661 662/662
f 516/516 515/515 662/662
f 523/523 524/524 519/519
f 520/520 523/523 519/519
f 373/373 380/380 523/523
f 520/520 373/373 523/523
f 517/517 372/372 373/373
f 520/520 517/517 373/373
f 515/515 264/264 267/267
f 522/522 515/515 267/267
f 664/664 661/661 515/515
f 522/522 664/664 515/515
f 521/521 663/663 664/664
f 522/522 521/521 664/664
f 529/529 530/530 525/525
f 526/526 529/529 525/525
f 381/381 388/388 529/529
f 526/526 381/381 529/529
f 523/523 380/380 381/381
f 526/526 523/523 381/381
f 521/521 268/268 271/271
f 528/528 521/521 271/271
f 666/666 663/663 521/521
f 528/528 666/666 521/521
f 527/527 665/665 666/666
f 528/528 527/527 666/666
f 535/535 536/536 531/531
f 532/532 535/535 531/531
f 389/389 396/396 535/535
f 532/532 389/389 535/535
f 529/529 388/388 389/389
f 532/532 529/529 389/389
f 527/527 272/272 275/275
f 534/534 527/527 275/275
f 668/668 665/665 527/527
f 534/534 668/668 527/527
f 533/533 667/667 668/668
f 534/534 533/533 668/668
f 541/541 542/542 537/537
f 538/538 541/541 537/537
f 397/397 404/404 541/541
f 538/538 397/397 541/541
f 535/535 396/396 397/397
f 538/538 535/535 397/397
f 533/533 276/276 279/279
f 540/540 533/533 279/279
f 670/670 667/667 533/533
f 540/540 670/670 533/533
f 539/539 669/669 670/670
f 540/540 539/539 670/670
f 547/547 548/548 543/543
f 544/544 547/547 543/543
f 405/405 412/412 547/547
f 544/544 405/405 547/547
f 541/541 404/404 405/405
f 544/544 541/541 405/405
f 539/539 280/280 283/283
f 546/546 539/539 283/283
f 672/672 669/669 539/539
f 546/546 672/672 539/539
f 545/545 671/671 672/672
f 546/546 545/545 672/672
f 553/553 554/554 549/549
f 550/550 553/553 549/549
f 413/413 420/420 553/553
f 550/550 413/413 553/553
f 547/547 412/412 413/413
f 550/550 547/547 413/413
f 545/545 284/284 287/287
f 552/552 545/545 287/287
f 674/674 671/671 545/545
f 552/552 674/674 545/545
f 551/551 673/673 674/674
f 552/552 551/551 674/674
f 559/559 560/560 555/555
f 556/556 559/559 555/555
f 421/421 428/428 559/559
f 556/556 421/421 559/559
f 553/553 420/420 421/421
f 556/556 553/553 421/421
f 551/551 288/288 291/291
f 558/558 551/551 291/291
f 676/676 673/673 551/551
f 558/558 676/676 551/551
f 557/557 675/675 676/676
f 558/558 557/557 676/676
f 565/565 566/566 561/561
f 562/562 565/565 561/561
f 429/429 436/436 565/565
f 562/562 429/429 565/565
f 559/559 428/428 429/429
f 562/562 559/559 429/429
f 557/557 292/292 295/295
f 564/564 557/557 295/295
f 678/678 675/675 557/557
f 564/564 678/678 557/557
f 563/563 677/677 678/678
f 564/564 563/563 678/678
f 571/571 572/572 567/567
f 568/568 571/571 567/567
f 437/437 444/444 571/571
f 568/568 437/437 571/571
f 565/565 436/436 437/437
f 568/568 565/565 437/437
f 563/563 296/296 299/299
f 570/570 563/563 299/299
f 680/680 677/677 563/563
f 570/570 680/680 563/563
f 569/569 679/679 680/680
f 570/570 569/569 680/680
f 577/577 578/578 573/573
f 574/574 577/577 573/573
f 445/445 452/452 577/577
f 574/574 445/445 577/577
f 571/571 444/444 445/445
f 574/574 571/571 445/445
f 569/569 300/300 303/303
f 576/576 569/569 303/303
f 682/682 679/679 569/569
f 576/576 682/682 569/569
f 575/575 681/681 682/682
f 576/576 575/575 682/682
f 583/583 584/584 579/579
f 580/580 583/583 579/579
f 453/453 460/460 583/583
f 580/580 453/453 583/583
f 577/577 452/452 453/453
f 580/580 577/577 453/453
f 575/575 304/304 307/307
f 582/582 575/575 307/307
f 684/684 681/681 575/575
f 582/582 684/684 575/575
f 581/581 683/683 684/684
f 582/582 581/581 684/684
f 589/589 590/590 585/585
f 586/586 589/589 585/585
f 461/461 468/468 589/589
f 586/586 461/461 589/589
f 583/583 460/460 461/461
f 586/586 583/583 461/461
f 581/581 308/308 311/311
f 588/588 581/581 311/311
f 686/686 683/683 581/581
f 588/588 686/686 581/581
f 587/587 685/685 686/686
f 588/588 587/587 686/686
f 595/595 596/596 591/591
f 592/592 595/595 591/591
f 469/469 476/476 595/595
f 592/592 469/469 595/595
f 589/589 468/468 469/469
f 592/592 589/589 469/469
f 587/587 312/312 315/315
f 594/594 587/587 315/315
f 688/688 685/685 587/587
f 594/594 688/688 587/587
f 593/593 687/687 688/688
f 594/594 593/593 688/688
f 601/601 602/602 597/597
f 598/598 601/601 597/597
f 477/477 484/484 601/601
f 598/598 477/477 601/601
f 595/595 476/476 477/477
f 598/598 595/595 477/477
f 593/593 316/316 319/319
f 600/600 593/593 319/319
f 690/690 687/687 593/593
f 600/600 690/690 593/593
f 599/599 689/689 690/690
f 600/600 599/599 690/690
f 697/697 696/696 603/603
f 604/604 697/697 603/603
f 485/485 691/691 697/697
f 604/604 485/485 697/697
f 601/601 484/484 485/485
f 604/604 601/601 485/485
f 599/599 320/320 323/323
f 606/606 599/599 323/323
f 694/694 689/689 599/599
f 606/606 694/694 599/599
f 605/605 693/693 694/694
f 606/606 605/605 694/694

