v 0.00000000 0.00000000 -0.02493163
v 0.00348369 0.00000000 -0.02493769
v 0.00696737 0.00000000 -0.02494374
v 0.01045106 0.00000000 -0.02494980
v 0.01393474 0.00000000 -0.02495586
v 0.01741843 0.00000000 -0.02496191
v 0.01799212 0.00000000 -0.02112162
v 0.01856581 0.00000000 -0.01728132
v 0.01913950 0.00000000 -0.01344103
v 0.01971319 0.00000000 -0.00960074
v 0.02028687 0.00000000 -0.00576044
v 0.02086056 0.00000000 -0.00192015
v 0.02143425 0.00000000 0.00192015
v 0.02200794 0.00000000 0.00576044
v 0.02258163 0.00000000 0.00960074
v 0.02315532 0.00000000 0.01344103
v 0.02372901 0.00000000 0.01728132
v 0.02430269 0.00000000 0.02112162
v 0.02487638 0.00000000 0.02496191
v 0.00345388 0.00045471 -0.02493769
v 0.00690777 0.00090942 -0.02494374
v 0.01036165 0.00136414 -0.02494980
v 0.01381553 0.00181885 -0.02495586
v 0.01726941 0.00227356 -0.02496191
v 0.01783819 0.00234844 -0.02112162
v 0.01840697 0.00242332 -0.01728132
v 0.01897576 0.00249821 -0.01344103
v 0.01954454 0.00257309 -0.00960074
v 0.02011332 0.00264797 -0.00576044
v 0.02068210 0.00272285 -0.00192015
v 0.02125088 0.00279773 0.00192015
v 0.02181966 0.00287261 0.00576044
v 0.02238844 0.00294749 0.00960074
v 0.02295722 0.00302238 0.01344103
v 0.02352600 0.00309726 0.01728132
v 0.02409478 0.00317214 0.02112162
v 0.02466356 0.00324702 0.02496191
v 0.00336498 0.00090164 -0.02493769
v 0.00672996 0.00180329 -0.02494374
v 0.01009495 0.00270493 -0.02494980
v 0.01345993 0.00360658 -0.02495586
v 0.01682491 0.00450822 -0.02496191
v 0.01737905 0.00465670 -0.02112162
v 0.01793319 0.00480518 -0.01728132
v 0.01848733 0.00495367 -0.01344103
v 0.01904147 0.00510215 -0.00960074
v 0.01959562 0.00525063 -0.00576044
v 0.02014976 0.00539911 -0.00192015
v 0.02070390 0.00554759 0.00192015
v 0.02125804 0.00569607 0.00576044
v 0.02181218 0.00584456 0.00960074
v 0.02236632 0.00599304 0.01344103
v 0.02292046 0.00614152 0.01728132
v 0.02347460 0.00629000 0.02112162
v 0.02402874 0.00643848 0.02496191
v 0.00321851 0.00133315 -0.02493769
v 0.00643701 0.00266630 -0.02494374
v 0.00965552 0.00399945 -0.02494980
v 0.01287403 0.00533260 -0.02495586
v 0.01609253 0.00666574 -0.02496191
v 0.01662255 0.00688529 -0.02112162
v 0.01715257 0.00710483 -0.01728132
v 0.01768259 0.00732437 -0.01344103
v 0.01821261 0.00754391 -0.00960074
v 0.01874263 0.00776345 -0.00576044
v 0.01927265 0.00798299 -0.00192015
v 0.01980267 0.00820253 0.00192015
v 0.02033269 0.00842207 0.00576044
v 0.02086270 0.00864162 0.00960074
v 0.02139272 0.00886116 0.01344103
v 0.02192274 0.00908070 0.01728132
v 0.02245276 0.00930024 0.02112162
v 0.02298278 0.00951978 0.02496191
v 0.00301696 0.00174184 -0.02493769
v 0.00603392 0.00348369 -0.02494374
v 0.00905088 0.00522553 -0.02494980
v 0.01206784 0.00696737 -0.02495586
v 0.01508480 0.00870922 -0.02496191
v 0.01558163 0.00899606 -0.02112162
v 0.01607846 0.00928290 -0.01728132
v 0.01657529 0.00956975 -0.01344103
v 0.01707212 0.00985659 -0.00960074
v 0.01756895 0.01014344 -0.00576044
v 0.01806578 0.01043028 -0.00192015
v 0.01856261 0.01071713 0.00192015
v 0.01905943 0.01100397 0.00576044
v 0.01955626 0.01129081 0.00960074
v 0.02005309 0.01157766 0.01344103
v 0.02054992 0.01186450 0.01728132
v 0.02104675 0.01215135 0.02112162
v 0.02154358 0.01243819 0.02496191
v 0.00276379 0.00212073 -0.02493769
v 0.00552759 0.00424147 -0.02494374
v 0.00829138 0.00636220 -0.02494980
v 0.01105518 0.00848293 -0.02495586
v 0.01381897 0.01060367 -0.02496191
v 0.01427411 0.01095291 -0.02112162
v 0.01472925 0.01130215 -0.01728132
v 0.01518438 0.01165139 -0.01344103
v 0.01563952 0.01200063 -0.00960074
v 0.01609466 0.01234987 -0.00576044
v 0.01654980 0.01269911 -0.00192015
v 0.01700493 0.01304835 0.00192015
v 0.01746007 0.01339758 0.00576044
v 0.01791521 0.01374682 0.00960074
v 0.01837035 0.01409606 0.01344103
v 0.01882549 0.01444530 0.01728132
v 0.01928062 0.01479454 0.02112162
v 0.01973576 0.01514378 0.02496191
v 0.00246334 0.00246334 -0.02493769
v 0.00492668 0.00492668 -0.02494374
v 0.00739001 0.00739001 -0.02494980
v 0.00985335 0.00985335 -0.02495586
v 0.01231669 0.01231669 -0.02496191
v 0.01272235 0.01272235 -0.02112162
v 0.01312801 0.01312801 -0.01728132
v 0.01353367 0.01353367 -0.01344103
v 0.01393933 0.01393933 -0.00960074
v 0.01434499 0.01434499 -0.00576044
v 0.01475065 0.01475065 -0.00192015
v 0.01515630 0.01515630 0.00192015
v 0.01556196 0.01556196 0.00576044
v 0.01596762 0.01596762 0.00960074
v 0.01637328 0.01637328 0.01344103
v 0.01677894 0.01677894 0.01728132
v 0.01718460 0.01718460 0.02112162
v 0.01759026 0.01759026 0.02496191
v 0.00212073 0.00276379 -0.02493769
v 0.00424147 0.00552759 -0.02494374
v 0.00636220 0.00829138 -0.02494980
v 0.00848293 0.01105518 -0.02495586
v 0.01060367 0.01381897 -0.02496191
v 0.01095291 0.01427411 -0.02112162
v 0.01130215 0.01472925 -0.01728132
v 0.01165139 0.01518438 -0.01344103
v 0.01200063 0.01563952 -0.00960074
v 0.01234987 0.01609466 -0.00576044
v 0.01269911 0.01654980 -0.00192015
v 0.01304835 0.01700493 0.00192015
v 0.01339758 0.01746007 0.00576044
v 0.01374682 0.01791521 0.00960074
v 0.01409606 0.01837035 0.01344103
v 0.01444530 0.01882549 0.01728132
v 0.01479454 0.01928062 0.02112162
v 0.01514378 0.01973576 0.02496191
v 0.00174184 0.00301696 -0.02493769
v 0.00348369 0.00603392 -0.02494374
v 0.00522553 0.00905088 -0.02494980
v 0.00696737 0.01206784 -0.02495586
v 0.00870922 0.01508480 -0.02496191
v 0.00899606 0.01558163 -0.02112162
v 0.00928290 0.01607846 -0.01728132
v 0.00956975 0.01657529 -0.01344103
v 0.00985659 0.01707212 -0.00960074
v 0.01014344 0.01756895 -0.00576044
v 0.01043028 0.01806578 -0.00192015
v 0.01071713 0.01856261 0.00192015
v 0.01100397 0.01905943 0.00576044
v 0.01129081 0.01955626 0.00960074
v 0.01157766 0.02005309 0.01344103
v 0.01186450 0.02054992 0.01728132
v 0.01215135 0.02104675 0.02112162
v 0.01243819 0.02154358 0.02496191
v 0.00133315 0.00321851 -0.02493769
v 0.00266630 0.00643701 -0.02494374
v 0.00399945 0.00965552 -0.02494980
v 0.00533260 0.01287403 -0.02495586
v 0.00666574 0.01609253 -0.02496191
v 0.00688529 0.01662255 -0.02112162
v 0.00710483 0.01715257 -0.01728132
v 0.00732437 0.01768259 -0.01344103
v 0.00754391 0.01821261 -0.00960074
v 0.00776345 0.01874263 -0.00576044
v 0.00798299 0.01927265 -0.00192015
v 0.00820253 0.01980267 0.00192015
v 0.00842207 0.02033269 0.00576044
v 0.00864162 0.02086270 0.00960074
v 0.00886116 0.02139272 0.01344103
v 0.00908070 0.02192274 0.01728132
v 0.00930024 0.02245276 0.02112162
v 0.00951978 0.02298278 0.02496191
v 0.00090164 0.00336498 -0.02493769
v 0.00180329 0.00672996 -0.02494374
v 0.00270493 0.01009495 -0.02494980
v 0.00360658 0.01345993 -0.02495586
v 0.00450822 0.01682491 -0.02496191
v 0.00465670 0.01737905 -0.02112162
v 0.00480518 0.01793319 -0.01728132
v 0.00495367 0.01848733 -0.01344103
v 0.00510215 0.01904147 -0.00960074
v 0.00525063 0.01959562 -0.00576044
v 0.00539911 0.02014976 -0.00192015
v 0.00554759 0.02070390 0.00192015
v 0.00569607 0.02125804 0.00576044
v 0.00584456 0.02181218 0.00960074
v 0.00599304 0.02236632 0.01344103
v 0.00614152 0.02292046 0.01728132
v 0.00629000 0.02347460 0.02112162
v 0.00643848 0.02402874 0.02496191
v 0.00045471 0.00345388 -0.02493769
v 0.00090942 0.00690777 -0.02494374
v 0.00136414 0.01036165 -0.02494980
v 0.00181885 0.01381553 -0.02495586
v 0.00227356 0.01726941 -0.02496191
v 0.00234844 0.01783819 -0.02112162
v 0.00242332 0.01840697 -0.01728132
v 0.00249821 0.01897576 -0.01344103
v 0.00257309 0.01954454 -0.00960074
v 0.00264797 0.02011332 -0.00576044
v 0.00272285 0.02068210 -0.00192015
v 0.00279773 0.02125088 0.00192015
v 0.00287261 0.02181966 0.00576044
v 0.00294749 0.02238844 0.00960074
v 0.00302238 0.02295722 0.01344103
v 0.00309726 0.02352600 0.01728132
v 0.00317214 0.02409478 0.02112162
v 0.00324702 0.02466356 0.02496191
v 0.00000000 0.00348369 -0.02493769
v 0.00000000 0.00696737 -0.02494374
v 0.00000000 0.01045106 -0.02494980
v 0.00000000 0.01393474 -0.02495586
v 0.00000000 0.01741843 -0.02496191
v 0.00000000 0.01799212 -0.02112162
v 0.00000000 0.01856581 -0.01728132
v 0.00000000 0.01913950 -0.01344103
v 0.00000000 0.01971319 -0.00960074
v 0.00000000 0.02028687 -0.00576044
v 0.00000000 0.02086056 -0.00192015
v 0.00000000 0.02143425 0.00192015
v 0.00000000 0.02200794 0.00576044
v 0.00000000 0.02258163 0.00960074
v 0.00000000 0.02315532 0.01344103
v 0.00000000 0.02372901 0.01728132
v 0.00000000 0.02430269 0.02112162
v 0.00000000 0.02487638 0.02496191
v -0.00045471 0.00345388 -0.02493769
v -0.00090942 0.00690777 -0.02494374
v -0.00136414 0.01036165 -0.02494980
v -0.00181885 0.01381553 -0.02495586
v -0.00227356 0.01726941 -0.02496191
v -0.00234844 0.01783819 -0.02112162
v -0.00242332 0.01840697 -0.01728132
v -0.00249821 0.01897576 -0.01344103
v -0.00257309 0.01954454 -0.00960074
v -0.00264797 0.02011332 -0.00576044
v -0.00272285 0.02068210 -0.00192015
v -0.00279773 0.02125088 0.00192015
v -0.00287261 0.02181966 0.00576044
v -0.00294749 0.02238844 0.00960074
v -0.00302238 0.02295722 0.01344103
v -0.00309726 0.02352600 0.01728132
v -0.00317214 0.02409478 0.02112162
v -0.00324702 0.02466356 0.02496191
v -0.00090164 0.00336498 -0.02493769
v -0.00180329 0.00672996 -0.02494374
v -0.00270493 0.01009495 -0.02494980
v -0.00360658 0.01345993 -0.02495586
v -0.00450822 0.01682491 -0.02496191
v -0.00465670 0.01737905 -0.02112162
v -0.00480518 0.01793319 -0.01728132
v -0.00495367 0.01848733 -0.01344103
v -0.00510215 0.01904147 -0.00960074
v -0.00525063 0.01959562 -0.00576044
v -0.00539911 0.02014976 -0.00192015
v -0.00554759 0.02070390 0.00192015
v -0.00569607 0.02125804 0.00576044
v -0.00584456 0.02181218 0.00960074
v -0.00599304 0.02236632 0.01344103
v -0.00614152 0.02292046 0.01728132
v -0.00629000 0.02347460 0.02112162
v -0.00643848 0.02402874 0.02496191
v -0.00133315 0.00321851 -0.02493769
v -0.00266630 0.00643701 -0.02494374
v -0.00399945 0.00965552 -0.02494980
v -0.00533260 0.01287403 -0.02495586
v -0.00666574 0.01609253 -0.02496191
v -0.00688529 0.01662255 -0.02112162
v -0.00710483 0.01715257 -0.01728132
v -0.00732437 0.01768259 -0.01344103
v -0.00754391 0.01821261 -0.00960074
v -0.00776345 0.01874263 -0.00576044
v -0.00798299 0.01927265 -0.00192015
v -0.00820253 0.01980267 0.00192015
v -0.00842207 0.02033269 0.00576044
v -0.00864162 0.02086270 0.00960074
v -0.00886116 0.02139272 0.01344103
v -0.00908070 0.02192274 0.01728132
v -0.00930024 0.02245276 0.02112162
v -0.00951978 0.02298278 0.02496191
v -0.00174184 0.00301696 -0.02493769
v -0.00348369 0.00603392 -0.02494374
v -0.00522553 0.00905088 -0.02494980
v -0.00696737 0.01206784 -0.02495586
v -0.00870922 0.01508480 -0.02496191
v -0.00899606 0.01558163 -0.02112162
v -0.00928290 0.01607846 -0.01728132
v -0.00956975 0.01657529 -0.01344103
v -0.00985659 0.01707212 -0.00960074
v -0.01014344 0.01756895 -0.00576044
v -0.01043028 0.01806578 -0.00192015
v -0.01071713 0.01856261 0.00192015
v -0.01100397 0.01905943 0.00576044
v -0.01129081 0.01955626 0.00960074
v -0.01157766 0.02005309 0.01344103
v -0.01186450 0.02054992 0.01728132
v -0.01215135 0.02104675 0.02112162
v -0.01243819 0.02154358 0.02496191
v -0.00212073 0.00276379 -0.02493769
v -0.00424147 0.00552759 -0.02494374
v -0.00636220 0.00829138 -0.02494980
v -0.00848293 0.01105518 -0.02495586
v -0.01060367 0.01381897 -0.02496191
v -0.01095291 0.01427411 -0.02112162
v -0.01130215 0.01472925 -0.01728132
v -0.01165139 0.01518438 -0.01344103
v -0.01200063 0.01563952 -0.00960074
v -0.01234987 0.01609466 -0.00576044
v -0.01269911 0.01654980 -0.00192015
v -0.01304835 0.01700493 0.00192015
v -0.01339758 0.01746007 0.00576044
v -0.01374682 0.01791521 0.00960074
v -0.01409606 0.01837035 0.01344103
v -0.01444530 0.01882549 0.01728132
v -0.01479454 0.01928062 0.02112162
v -0.01514378 0.01973576 0.02496191
v -0.00246334 0.00246334 -0.02493769
v -0.00492668 0.00492668 -0.02494374
v -0.00739001 0.00739001 -0.02494980
v -0.00985335 0.00985335 -0.02495586
v -0.01231669 0.01231669 -0.02496191
v -0.01272235 0.01272235 -0.02112162
v -0.01312801 0.01312801 -0.01728132
v -0.01353367 0.01353367 -0.01344103
v -0.01393933 0.01393933 -0.00960074
v -0.01434499 0.01434499 -0.00576044
v -0.01475065 0.01475065 -0.00192015
v -0.01515630 0.01515630 0.00192015
v -0.01556196 0.01556196 0.00576044
v -0.01596762 0.01596762 0.00960074
v -0.01637328 0.01637328 0.01344103
v -0.01677894 0.01677894 0.01728132
v -0.01718460 0.01718460 0.02112162
v -0.01759026 0.01759026 0.02496191
v -0.00276379 0.00212073 -0.02493769
v -0.00552759 0.00424147 -0.02494374
v -0.00829138 0.00636220 -0.02494980
v -0.01105518 0.00848293 -0.02495586
v -0.01381897 0.01060367 -0.02496191
v -0.01427411 0.01095291 -0.02112162
v -0.01472925 0.01130215 -0.01728132
v -0.01518438 0.01165139 -0.01344103
v -0.01563952 0.01200063 -0.00960074
v -0.01609466 0.01234987 -0.00576044
v -0.01654980 0.01269911 -0.00192015
v -0.01700493 0.01304835 0.00192015
v -0.01746007 0.01339758 0.00576044
v -0.01791521 0.01374682 0.00960074
v -0.01837035 0.01409606 0.01344103
v -0.01882549 0.01444530 0.01728132
v -0.01928062 0.01479454 0.02112162
v -0.01973576 0.01514378 0.02496191
v -0.00301696 0.00174184 -0.02493769
v -0.00603392 0.00348369 -0.02494374
v -0.00905088 0.00522553 -0.02494980
v -0.01206784 0.00696737 -0.02495586
v -0.01508480 0.00870922 -0.02496191
v -0.01558163 0.00899606 -0.02112162
v -0.01607846 0.00928290 -0.01728132
v -0.01657529 0.00956975 -0.01344103
v -0.01707212 0.00985659 -0.00960074
v -0.01756895 0.01014344 -0.00576044
v -0.01806578 0.01043028 -0.00192015
v -0.01856261 0.01071713 0.00192015
v -0.01905943 0.01100397 0.00576044
v -0.01955626 0.01129081 0.00960074
v -0.02005309 0.01157766 0.01344103
v -0.02054992 0.01186450 0.01728132
v -0.02104675 0.01215135 0.02112162
v -0.02154358 0.01243819 0.02496191
v -0.00321851 0.00133315 -0.02493769
v -0.00643701 0.00266630 -0.02494374
v -0.00965552 0.00399945 -0.02494980
v -0.01287403 0.00533260 -0.02495586
v -0.01609253 0.00666574 -0.02496191
v -0.01662255 0.00688529 -0.02112162
v -0.01715257 0.00710483 -0.01728132
v -0.01768259 0.00732437 -0.01344103
v -0.01821261 0.00754391 -0.00960074
v -0.01874263 0.00776345 -0.00576044
v -0.01927265 0.00798299 -0.00192015
v -0.01980267 0.00820253 0.00192015
v -0.02033269 0.00842207 0.00576044
v -0.02086270 0.00864162 0.00960074
v -0.02139272 0.00886116 0.01344103
v -0.02192274 0.00908070 0.01728132
v -0.02245276 0.00930024 0.02112162
v -0.02298278 0.00951978 0.02496191
v -0.00336498 0.00090164 -0.02493769
v -0.00672996 0.00180329 -0.02494374
v -0.01009495 0.00270493 -0.02494980
v -0.01345993 0.00360658 -0.02495586
v -0.01682491 0.00450822 -0.02496191
v -0.01737905 0.00465670 -0.02112162
v -0.01793319 0.00480518 -0.01728132
v -0.01848733 0.00495367 -0.01344103
v -0.01904147 0.00510215 -0.00960074
v -0.01959562 0.00525063 -0.00576044
v -0.02014976 0.00539911 -0.00192015
v -0.02070390 0.00554759 0.00192015
v -0.02125804 0.00569607 0.00576044
v -0.02181218 0.00584456 0.00960074
v -0.02236632 0.00599304 0.01344103
v -0.02292046 0.00614152 0.01728132
v -0.02347460 0.00629000 0.02112162
v -0.02402874 0.00643848 0.02496191
v -0.00345388 0.00045471 -0.02493769
v -0.00690777 0.00090942 -0.02494374
v -0.01036165 0.00136414 -0.02494980
v -0.01381553 0.00181885 -0.02495586
v -0.01726941 0.00227356 -0.02496191
v -0.01783819 0.00234844 -0.02112162
v -0.01840697 0.00242332 -0.01728132
v -0.01897576 0.00249821 -0.01344103
v -0.01954454 0.00257309 -0.00960074
v -0.02011332 0.00264797 -0.00576044
v -0.02068210 0.00272285 -0.00192015
v -0.02125088 0.00279773 0.00192015
v -0.02181966 0.00287261 0.00576044
v -0.02238844 0.00294749 0.00960074
v -0.02295722 0.00302238 0.01344103
v -0.02352600 0.00309726 0.01728132
v -0.02409478 0.00317214 0.02112162
v -0.02466356 0.00324702 0.02496191
v -0.00348369 0.00000000 -0.02493769
v -0.00696737 0.00000000 -0.02494374
v -0.01045106 0.00000000 -0.02494980
v -0.01393474 0.00000000 -0.02495586
v -0.01741843 0.00000000 -0.02496191
v -0.01799212 0.00000000 -0.02112162
v -0.01856581 0.00000000 -0.01728132
v -0.01913950 0.00000000 -0.01344103
v -0.01971319 0.00000000 -0.00960074
v -0.02028687 0.00000000 -0.00576044
v -0.02086056 0.00000000 -0.00192015
v -0.02143425 0.00000000 0.00192015
v -0.02200794 0.00000000 0.00576044
v -0.02258163 0.00000000 0.00960074
v -0.02315532 0.00000000 0.01344103
v -0.02372901 0.00000000 0.01728132
v -0.02430269 0.00000000 0.02112162
v -0.02487638 0.00000000 0.02496191
v -0.00345388 -0.00045471 -0.02493769
v -0.00690777 -0.00090942 -0.02494374
v -0.01036165 -0.00136414 -0.02494980
v -0.01381553 -0.00181885 -0.02495586
v -0.01726941 -0.00227356 -0.02496191
v -0.01783819 -0.00234844 -0.02112162
v -0.01840697 -0.00242332 -0.01728132
v -0.01897576 -0.00249821 -0.01344103
v -0.01954454 -0.00257309 -0.00960074
v -0.02011332 -0.00264797 -0.00576044
v -0.02068210 -0.00272285 -0.00192015
v -0.02125088 -0.00279773 0.00192015
v -0.02181966 -0.00287261 0.00576044
v -0.02238844 -0.00294749 0.00960074
v -0.02295722 -0.00302238 0.01344103
v -0.02352600 -0.00309726 0.01728132
v -0.02409478 -0.00317214 0.02112162
v -0.02466356 -0.00324702 0.02496191
v -0.00336498 -0.00090164 -0.02493769
v -0.00672996 -0.00180329 -0.02494374
v -0.01009495 -0.00270493 -0.02494980
v -0.01345993 -0.00360658 -0.02495586
v -0.01682491 -0.00450822 -0.02496191
v -0.01737905 -0.00465670 -0.02112162
v -0.01793319 -0.00480518 -0.01728132
v -0.01848733 -0.00495367 -0.01344103
v -0.01904147 -0.00510215 -0.00960074
v -0.01959562 -0.00525063 -0.00576044
v -0.02014976 -0.00539911 -0.00192015
v -0.02070390 -0.00554759 0.00192015
v -0.02125804 -0.00569607 0.00576044
v -0.02181218 -0.00584456 0.00960074
v -0.02236632 -0.00599304 0.01344103
v -0.02292046 -0.00614152 0.01728132
v -0.02347460 -0.00629000 0.02112162
v -0.02402874 -0.00643848 0.02496191
v -0.00321851 -0.00133315 -0.02493769
v -0.00643701 -0.00266630 -0.02494374
v -0.00965552 -0.00399945 -0.02494980
v -0.01287403 -0.00533260 -0.02495586
v -0.01609253 -0.00666574 -0.02496191
v -0.01662255 -0.00688529 -0.02112162
v -0.01715257 -0.00710483 -0.01728132
v -0.01768259 -0.00732437 -0.01344103
v -0.01821261 -0.00754391 -0.00960074
v -0.01874263 -0.00776345 -0.00576044
v -0.01927265 -0.00798299 -0.00192015
v -0.01980267 -0.00820253 0.00192015
v -0.02033269 -0.00842207 0.00576044
v -0.02086270 -0.00864162 0.00960074
v -0.02139272 -0.00886116 0.01344103
v -0.02192274 -0.00908070 0.01728132
v -0.02245276 -0.00930024 0.02112162
v -0.02298278 -0.00951978 0.02496191
v -0.00301696 -0.00174184 -0.02493769
v -0.00603392 -0.00348369 -0.02494374
v -0.00905088 -0.00522553 -0.02494980
v -0.01206784 -0.00696737 -0.02495586
v -0.01508480 -0.00870922 -0.02496191
v -0.01558163 -0.00899606 -0.02112162
v -0.01607846 -0.00928290 -0.01728132
v -0.01657529 -0.00956975 -0.01344103
v -0.01707212 -0.00985659 -0.00960074
v -0.01756895 -0.01014344 -0.00576044
v -0.01806578 -0.01043028 -0.00192015
v -0.01856261 -0.01071713 0.00192015
v -0.01905943 -0.01100397 0.00576044
v -0.01955626 -0.01129081 0.00960074
v -0.02005309 -0.01157766 0.01344103
v -0.02054992 -0.01186450 0.01728132
v -0.02104675 -0.01215135 0.02112162
v -0.02154358 -0.01243819 0.02496191
v -0.00276379 -0.00212073 -0.02493769
v -0.00552759 -0.00424147 -0.02494374
v -0.00829138 -0.00636220 -0.02494980
v -0.01105518 -0.00848293 -0.02495586
v -0.01381897 -0.01060367 -0.02496191
v -0.01427411 -0.01095291 -0.02112162
v -0.01472925 -0.01130215 -0.01728132
v -0.01518438 -0.01165139 -0.01344103
v -0.01563952 -0.01200063 -0.00960074
v -0.01609466 -0.01234987 -0.00576044
v -0.01654980 -0.01269911 -0.00192015
v -0.01700493 -0.01304835 0.00192015
v -0.01746007 -0.01339758 0.00576044
v -0.01791521 -0.01374682 0.00960074
v -0.01837035 -0.01409606 0.01344103
v -0.01882549 -0.01444530 0.01728132
v -0.01928062 -0.01479454 0.02112162
v -0.01973576 -0.01514378 0.02496191
v -0.00246334 -0.00246334 -0.02493769
v -0.00492668 -0.00492668 -0.02494374
v -0.00739001 -0.00739001 -0.02494980
v -0.00985335 -0.00985335 -0.02495586
v -0.01231669 -0.01231669 -0.02496191
v -0.01272235 -0.01272235 -0.02112162
v -0.01312801 -0.01312801 -0.01728132
v -0.01353367 -0.01353367 -0.01344103
v -0.01393933 -0.01393933 -0.00960074
v -0.01434499 -0.01434499 -0.00576044
v -0.01475065 -0.01475065 -0.00192015
v -0.01515630 -0.01515630 0.00192015
v -0.01556196 -0.01556196 0.00576044
v -0.01596762 -0.01596762 0.00960074
v -0.01637328 -0.01637328 0.01344103
v -0.01677894 -0.01677894 0.01728132
v -0.01718460 -0.01718460 0.02112162
v -0.01759026 -0.01759026 0.02496191
v -0.00212073 -0.00276379 -0.02493769
v -0.00424147 -0.00552759 -0.02494374
v -0.00636220 -0.00829138 -0.02494980
v -0.00848293 -0.01105518 -0.02495586
v -0.01060367 -0.01381897 -0.02496191
v -0.01095291 -0.01427411 -0.02112162
v -0.01130215 -0.01472925 -0.01728132
v -0.01165139 -0.01518438 -0.01344103
v -0.01200063 -0.01563952 -0.00960074
v -0.01234987 -0.01609466 -0.00576044
v -0.01269911 -0.01654980 -0.00192015
v -0.01304835 -0.01700493 0.00192015
v -0.01339758 -0.01746007 0.00576044
v -0.01374682 -0.01791521 0.00960074
v -0.01409606 -0.01837035 0.01344103
v -0.01444530 -0.01882549 0.01728132
v -0.01479454 -0.01928062 0.02112162
v -0.01514378 -0.01973576 0.02496191
v -0.00174184 -0.00301696 -0.02493769
v -0.00348369 -0.00603392 -0.02494374
v -0.00522553 -0.00905088 -0.02494980
v -0.00696737 -0.01206784 -0.02495586
v -0.00870922 -0.01508480 -0.02496191
v -0.00899606 -0.01558163 -0.02112162
v -0.00928290 -0.01607846 -0.01728132
v -0.00956975 -0.01657529 -0.01344103
v -0.00985659 -0.01707212 -0.00960074
v -0.01014344 -0.01756895 -0.00576044
v -0.01043028 -0.01806578 -0.00192015
v -0.01071713 -0.01856261 0.00192015
v -0.01100397 -0.01905943 0.00576044
v -0.01129081 -0.01955626 0.00960074
v -0.01157766 -0.02005309 0.01344103
v -0.01186450 -0.02054992 0.01728132
v -0.01215135 -0.02104675 0.02112162
v -0.01243819 -0.02154358 0.02496191
v -0.00133315 -0.00321851 -0.02493769
v -0.00266630 -0.00643701 -0.02494374
v -0.00399945 -0.00965552 -0.02494980
v -0.00533260 -0.01287403 -0.02495586
v -0.00666574 -0.01609253 -0.02496191
v -0.00688529 -0.01662255 -0.02112162
v -0.00710483 -0.01715257 -0.01728132
v -0.00732437 -0.01768259 -0.01344103
v -0.00754391 -0.01821261 -0.00960074
v -0.00776345 -0.01874263 -0.00576044
v -0.00798299 -0.01927265 -0.00192015
v -0.00820253 -0.01980267 0.00192015
v -0.00842207 -0.02033269 0.00576044
v -0.00864162 -0.02086270 0.00960074
v -0.00886116 -0.02139272 0.01344103
v -0.00908070 -0.02192274 0.01728132
v -0.00930024 -0.02245276 0.02112162
v -0.00951978 -0.02298278 0.02496191
v -0.00090164 -0.00336498 -0.02493769
v -0.00180329 -0.00672996 -0.02494374
v -0.00270493 -0.01009495 -0.02494980
v -0.00360658 -0.01345993 -0.02495586
v -0.00450822 -0.01682491 -0.02496191
v -0.00465670 -0.01737905 -0.02112162
v -0.00480518 -0.01793319 -0.01728132
v -0.00495367 -0.01848733 -0.01344103
v -0.00510215 -0.01904147 -0.00960074
v -0.00525063 -0.01959562 -0.00576044
v -0.00539911 -0.02014976 -0.00192015
v -0.00554759 -0.02070390 0.00192015
v -0.00569607 -0.02125804 0.00576044
v -0.00584456 -0.02181218 0.00960074
v -0.00599304 -0.02236632 0.01344103
v -0.00614152 -0.02292046 0.01728132
v -0.00629000 -0.02347460 0.02112162
v -0.00643848 -0.02402874 0.02496191
v -0.00045471 -0.00345388 -0.02493769
v -0.00090942 -0.00690777 -0.02494374
v -0.00136414 -0.01036165 -0.02494980
v -0.00181885 -0.01381553 -0.02495586
v -0.00227356 -0.01726941 -0.02496191
v -0.00234844 -0.01783819 -0.02112162
v -0.00242332 -0.01840697 -0.01728132
v -0.00249821 -0.01897576 -0.01344103
v -0.00257309 -0.01954454 -0.00960074
v -0.00264797 -0.02011332 -0.00576044
v -0.00272285 -0.02068210 -0.00192015
v -0.00279773 -0.02125088 0.00192015
v -0.00287261 -0.02181966 0.00576044
v -0.00294749 -0.02238844 0.00960074
v -0.00302238 -0.02295722 0.01344103
v -0.00309726 -0.02352600 0.01728132
v -0.00317214 -0.02409478 0.02112162
v -0.00324702 -0.02466356 0.02496191
v -0.00000000 -0.00348369 -0.02493769
v -0.00000000 -0.00696737 -0.02494374
v -0.00000000 -0.01045106 -0.02494980
v -0.00000000 -0.01393474 -0.02495586
v -0.00000000 -0.01741843 -0.02496191
v -0.00000000 -0.01799212 -0.02112162
v -0.00000000 -0.01856581 -0.01728132
v -0.00000000 -0.01913950 -0.01344103
v -0.00000000 -0.01971319 -0.00960074
v -0.00000000 -0.02028687 -0.00576044
v -0.00000000 -0.02086056 -0.00192015
v -0.00000000 -0.02143425 0.00192015
v -0.00000000 -0.02200794 0.00576044
v -0.00000000 -0.02258163 0.00960074
v -0.00000000 -0.02315532 0.01344103
v -0.00000000 -0.02372901 0.01728132
v -0.00000000 -0.02430269 0.02112162
v -0.00000000 -0.02487638 0.02496191
v 0.00045471 -0.00345388 -0.02493769
v 0.00090942 -0.00690777 -0.02494374
v 0.00136414 -0.01036165 -0.02494980
v 0.00181885 -0.01381553 -0.02495586
v 0.00227356 -0.01726941 -0.02496191
v 0.00234844 -0.01783819 -0.02112162
v 0.00242332 -0.01840697 -0.01728132
v 0.00249821 -0.01897576 -0.01344103
v 0.00257309 -0.01954454 -0.00960074
v 0.00264797 -0.02011332 -0.00576044
v 0.00272285 -0.02068210 -0.00192015
v 0.00279773 -0.02125088 0.00192015
v 0.00287261 -0.02181966 0.00576044
v 0.00294749 -0.02238844 0.00960074
v 0.00302238 -0.02295722 0.01344103
v 0.00309726 -0.02352600 0.01728132
v 0.00317214 -0.02409478 0.02112162
v 0.00324702 -0.02466356 0.02496191
v 0.00090164 -0.00336498 -0.02493769
v 0.00180329 -0.00672996 -0.02494374
v 0.00270493 -0.01009495 -0.02494980
v 0.00360658 -0.01345993 -0.02495586
v 0.00450822 -0.01682491 -0.02496191
v 0.00465670 -0.01737905 -0.02112162
v 0.00480518 -0.01793319 -0.01728132
v 0.00495367 -0.01848733 -0.01344103
v 0.00510215 -0.01904147 -0.00960074
v 0.00525063 -0.01959562 -0.00576044
v 0.00539911 -0.02014976 -0.00192015
v 0.00554759 -0.02070390 0.00192015
v 0.00569607 -0.02125804 0.00576044
v 0.00584456 -0.02181218 0.00960074
v 0.00599304 -0.02236632 0.01344103
v 0.00614152 -0.02292046 0.01728132
v 0.00629000 -0.02347460 0.02112162
v 0.00643848 -0.02402874 0.02496191
v 0.00133315 -0.00321851 -0.02493769
v 0.00266630 -0.00643701 -0.02494374
v 0.00399945 -0.00965552 -0.02494980
v 0.00533260 -0.01287403 -0.02495586
v 0.00666574 -0.01609253 -0.02496191
v 0.00688529 -0.01662255 -0.02112162
v 0.00710483 -0.01715257 -0.01728132
v 0.00732437 -0.01768259 -0.01344103
v 0.00754391 -0.01821261 -0.00960074
v 0.00776345 -0.01874263 -0.00576044
v 0.00798299 -0.01927265 -0.00192015
v 0.00820253 -0.01980267 0.00192015
v 0.00842207 -0.02033269 0.00576044
v 0.00864162 -0.02086270 0.00960074
v 0.00886116 -0.02139272 0.01344103
v 0.00908070 -0.02192274 0.01728132
v 0.00930024 -0.02245276 0.02112162
v 0.00951978 -0.02298278 0.02496191
v 0.00174184 -0.00301696 -0.02493769
v 0.00348369 -0.00603392 -0.02494374
v 0.00522553 -0.00905088 -0.02494980
v 0.00696737 -0.01206784 -0.02495586
v 0.00870922 -0.01508480 -0.02496191
v 0.00899606 -0.01558163 -0.02112162
v 0.00928290 -0.01607846 -0.01728132
v 0.00956975 -0.01657529 -0.01344103
v 0.00985659 -0.01707212 -0.00960074
v 0.01014344 -0.01756895 -0.00576044
v 0.01043028 -0.01806578 -0.00192015
v 0.01071713 -0.01856261 0.00192015
v 0.01100397 -0.01905943 0.00576044
v 0.01129081 -0.01955626 0.00960074
v 0.01157766 -0.02005309 0.01344103
v 0.01186450 -0.02054992 0.01728132
v 0.01215135 -0.02104675 0.02112162
v 0.01243819 -0.02154358 0.02496191
v 0.00212073 -0.00276379 -0.02493769
v 0.00424147 -0.00552759 -0.02494374
v 0.00636220 -0.00829138 -0.02494980
v 0.00848293 -0.01105518 -0.02495586
v 0.01060367 -0.01381897 -0.02496191
v 0.01095291 -0.01427411 -0.02112162
v 0.01130215 -0.01472925 -0.01728132
v 0.01165139 -0.01518438 -0.01344103
v 0.01200063 -0.01563952 -0.00960074
v 0.01234987 -0.01609466 -0.00576044
v 0.01269911 -0.01654980 -0.00192015
v 0.01304835 -0.01700493 0.00192015
v 0.01339758 -0.01746007 0.00576044
v 0.01374682 -0.01791521 0.00960074
v 0.01409606 -0.01837035 0.01344103
v 0.01444530 -0.01882549 0.01728132
v 0.01479454 -0.01928062 0.02112162
v 0.01514378 -0.01973576 0.02496191
v 0.00246334 -0.00246334 -0.02493769
v 0.00492668 -0.00492668 -0.02494374
v 0.00739001 -0.00739001 -0.02494980
v 0.00985335 -0.00985335 -0.02495586
v 0.01231669 -0.01231669 -0.02496191
v 0.01272235 -0.01272235 -0.02112162
v 0.01312801 -0.01312801 -0.01728132
v 0.01353367 -0.01353367 -0.01344103
v 0.01393933 -0.01393933 -0.00960074
v 0.01434499 -0.01434499 -0.00576044
v 0.01475065 -0.01475065 -0.00192015
v 0.01515630 -0.01515630 0.00192015
v 0.01556196 -0.01556196 0.00576044
v 0.01596762 -0.01596762 0.00960074
v 0.01637328 -0.01637328 0.01344103
v 0.01677894 -0.01677894 0.01728132
v 0.01718460 -0.01718460 0.02112162
v 0.01759026 -0.01759026 0.02496191
v 0.00276379 -0.00212073 -0.02493769
v 0.00552759 -0.00424147 -0.02494374
v 0.00829138 -0.00636220 -0.02494980
v 0.01105518 -0.00848293 -0.02495586
v 0.01381897 -0.01060367 -0.02496191
v 0.01427411 -0.01095291 -0.02112162
v 0.01472925 -0.01130215 -0.01728132
v 0.01518438 -0.01165139 -0.01344103
v 0.01563952 -0.01200063 -0.00960074
v 0.01609466 -0.01234987 -0.00576044
v 0.01654980 -0.01269911 -0.00192015
v 0.01700493 -0.01304835 0.00192015
v 0.01746007 -0.01339758 0.00576044
v 0.01791521 -0.01374682 0.00960074
v 0.01837035 -0.01409606 0.01344103
v 0.01882549 -0.01444530 0.01728132
v 0.01928062 -0.01479454 0.02112162
v 0.01973576 -0.01514378 0.02496191
v 0.00301696 -0.00174184 -0.02493769
v 0.00603392 -0.00348369 -0.02494374
v 0.00905088 -0.00522553 -0.02494980
v 0.01206784 -0.00696737 -0.02495586
v 0.01508480 -0.00870922 -0.02496191
v 0.01558163 -0.00899606 -0.02112162
v 0.01607846 -0.00928290 -0.01728132
v 0.01657529 -0.00956975 -0.01344103
v 0.01707212 -0.00985659 -0.00960074
v 0.01756895 -0.01014344 -0.00576044
v 0.01806578 -0.01043028 -0.00192015
v 0.01856261 -0.01071713 0.00192015
v 0.01905943 -0.01100397 0.00576044
v 0.01955626 -0.01129081 0.00960074
v 0.02005309 -0.01157766 0.01344103
v 0.02054992 -0.01186450 0.01728132
v 0.02104675 -0.01215135 0.02112162
v 0.02154358 -0.01243819 0.02496191
v 0.00321851 -0.00133315 -0.02493769
v 0.00643701 -0.00266630 -0.02494374
v 0.00965552 -0.00399945 -0.02494980
v 0.01287403 -0.00533260 -0.02495586
v 0.01609253 -0.00666574 -0.02496191
v 0.01662255 -0.00688529 -0.02112162
v 0.01715257 -0.00710483 -0.01728132
v 0.01768259 -0.00732437 -0.01344103
v 0.01821261 -0.00754391 -0.00960074
v 0.01874263 -0.00776345 -0.00576044
v 0.01927265 -0.00798299 -0.00192015
v 0.01980267 -0.00820253 0.00192015
v 0.02033269 -0.00842207 0.00576044
v 0.02086270 -0.00864162 0.00960074
v 0.02139272 -0.00886116 0.01344103
v 0.02192274 -0.00908070 0.01728132
v 0.02245276 -0.00930024 0.02112162
v 0.02298278 -0.00951978 0.02496191
v 0.00336498 -0.00090164 -0.02493769
v 0.00672996 -0.00180329 -0.02494374
v 0.01009495 -0.00270493 -0.02494980
v 0.01345993 -0.00360658 -0.02495586
v 0.01682491 -0.00450822 -0.02496191
v 0.01737905 -0.00465670 -0.02112162
v 0.01793319 -0.00480518 -0.01728132
v 0.01848733 -0.00495367 -0.01344103
v 0.01904147 -0.00510215 -0.00960074
v 0.01959562 -0.00525063 -0.00576044
v 0.02014976 -0.00539911 -0.00192015
v 0.02070390 -0.00554759 0.00192015
v 0.02125804 -0.00569607 0.00576044
v 0.02181218 -0.00584456 0.00960074
v 0.02236632 -0.00599304 0.01344103
v 0.02292046 -0.00614152 0.01728132
v 0.02347460 -0.00629000 0.02112162
v 0.02402874 -0.00643848 0.02496191
v 0.00345388 -0.00045471 -0.02493769
v 0.00690777 -0.00090942 -0.02494374
v 0.01036165 -0.00136414 -0.02494980
v 0.01381553 -0.00181885 -0.02495586
v 0.01726941 -0.00227356 -0.02496191
v 0.01783819 -0.00234844 -0.02112162
v 0.01840697 -0.00242332 -0.01728132
v 0.01897576 -0.00249821 -0.01344103
v 0.01954454 -0.00257309 -0.00960074
v 0.02011332 -0.00264797 -0.00576044
v 0.02068210 -0.00272285 -0.00192015
v 0.02125088 -0.00279773 0.00192015
v 0.02181966 -0.00287261 0.00576044
v 0.02238844 -0.00294749 0.00960074
v 0.02295722 -0.00302238 0.01344103
v 0.02352600 -0.00309726 0.01728132
v 0.02409478 -0.00317214 0.02112162
v 0.02466356 -0.00324702 0.02496191
f 2 1 20
f 2 20 3
f 3 20 21
f 3 21 4
f 4 21 22
f 4 22 5
f 5 22 23
f 5 23 6
f 6 23 24
f 6 24 7
f 7 24 25
f 7 25 8
f 8 25 26
f 8 26 9
f 9 26 27
f 9 27 10
f 10 27 28
f 10 28 11
f 11 28 29
f 11 29 12
f 12 29 30
f 12 30 13
f 13 30 31
f 13 31 14
f 14 31 32
f 14 32 15
f 15 32 33
f 15 33 16
f 16 33 34
f 16 34 17
f 17 34 35
f 17 35 18
f 18 35 36
f 18 36 19
f 19 36 37
f 20 1 38
f 20 38 21
f 21 38 39
f 21 39 22
f 22 39 40
f 22 40 23
f 23 40 41
f 23 41 24
f 24 41 42
f 24 42 25
f 25 42 43
f 25 43 26
f 26 43 44
f 26 44 27
f 27 44 45
f 27 45 28
f 28 45 46
f 28 46 29
f 29 46 47
f 29 47 30
f 30 47 48
f 30 48 31
f 31 48 49
f 31 49 32
f 32 49 50
f 32 50 33
f 33 50 51
f 33 51 34
f 34 51 52
f 34 52 35
f 35 52 53
f 35 53 36
f 36 53 54
f 36 54 37
f 37 54 55
f 38 1 56
f 38 56 39
f 39 56 57
f 39 57 40
f 40 57 58
f 40 58 41
f 41 58 59
f 41 59 42
f 42 59 60
f 42 60 43
f 43 60 61
f 43 61 44
f 44 61 62
f 44 62 45
f 45 62 63
f 45 63 46
f 46 63 64
f 46 64 47
f 47 64 65
f 47 65 48
f 48 65 66
f 48 66 49
f 49 66 67
f 49 67 50
f 50 67 68
f 50 68 51
f 51 68 69
f 51 69 52
f 52 69 70
f 52 70 53
f 53 70 71
f 53 71 54
f 54 71 72
f 54 72 55
f 55 72 73
f 56 1 74
f 56 74 57
f 57 74 75
f 57 75 58
f 58 75 76
f 58 76 59
f 59 76 77
f 59 77 60
f 60 77 78
f 60 78 61
f 61 78 79
f 61 79 62
f 62 79 80
f 62 80 63
f 63 80 81
f 63 81 64
f 64 81 82
f 64 82 65
f 65 82 83
f 65 83 66
f 66 83 84
f 66 84 67
f 67 84 85
f 67 85 68
f 68 85 86
f 68 86 69
f 69 86 87
f 69 87 70
f 70 87 88
f 70 88 71
f 71 88 89
f 71 89 72
f 72 89 90
f 72 90 73
f 73 90 91
f 74 1 92
f 74 92 75
f 75 92 93
f 75 93 76
f 76 93 94
f 76 94 77
f 77 94 95
f 77 95 78
f 78 95 96
f 78 96 79
f 79 96 97
f 79 97 80
f 80 97 98
f 80 98 81
f 81 98 99
f 81 99 82
f 82 99 100
f 82 100 83
f 83 100 101
f 83 101 84
f 84 101 102
f 84 102 85
f 85 102 103
f 85 103 86
f 86 103 104
f 86 104 87
f 87 104 105
f 87 105 88
f 88 105 106
f 88 106 89
f 89 106 107
f 89 107 90
f 90 107 108
f 90 108 91
f 91 108 109
f 92 1 110
f 92 110 93
f 93 110 111
f 93 111 94
f 94 111 112
f 94 112 95
f 95 112 113
f 95 113 96
f 96 113 114
f 96 114 97
f 97 114 115
f 97 115 98
f 98 115 116
f 98 116 99
f 99 116 117
f 99 117 100
f 100 117 118
f 100 118 101
f 101 118 119
f 101 119 102
f 102 119 120
f 102 120 103
f 103 120 121
f 103 121 104
f 104 121 122
f 104 122 105
f 105 122 123
f 105 123 106
f 106 123 124
f 106 124 107
f 107 124 125
f 107 125 108
f 108 125 126
f 108 126 109
f 109 126 127
f 110 1 128
f 110 128 111
f 111 128 129
f 111 129 112
f 112 129 130
f 112 130 113
f 113 130 131
f 113 131 114
f 114 131 132
f 114 132 115
f 115 132 133
f 115 133 116
f 116 133 134
f 116 134 117
f 117 134 135
f 117 135 118
f 118 135 136
f 118 136 119
f 119 136 137
f 119 137 120
f 120 137 138
f 120 138 121
f 121 138 139
f 121 139 122
f 122 139 140
f 122 140 123
f 123 140 141
f 123 141 124
f 124 141 142
f 124 142 125
f 125 142 143
f 125 143 126
f 126 143 144
f 126 144 127
f 127 144 145
f 128 1 146
f 128 146 129
f 129 146 147
f 129 147 130
f 130 147 148
f 130 148 131
f 131 148 149
f 131 149 132
f 132 149 150
f 132 150 133
f 133 150 151
f 133 151 134
f 134 151 152
f 134 152 135
f 135 152 153
f 135 153 136
f 136 153 154
f 136 154 137
f 137 154 155
f 137 155 138
f 138 155 156
f 138 156 139
f 139 156 157
f 139 157 140
f 140 157 158
f 140 158 141
f 141 158 159
f 141 159 142
f 142 159 160
f 142 160 143
f 143 160 161
f 143 161 144
f 144 161 162
f 144 162 145
f 145 162 163
f 146 1 164
f 146 164 147
f 147 164 165
f 147 165 148
f 148 165 166
f 148 166 149
f 149 166 167
f 149 167 150
f 150 167 168
f 150 168 151
f 151 168 169
f 151 169 152
f 152 169 170
f 152 170 153
f 153 170 171
f 153 171 154
f 154 171 172
f 154 172 155
f 155 172 173
f 155 173 156
f 156 173 174
f 156 174 157
f 157 174 175
f 157 175 158
f 158 175 176
f 158 176 159
f 159 176 177
f 159 177 160
f 160 177 178
f 160 178 161
f 161 178 179
f 161 179 162
f 162 179 180
f 162 180 163
f 163 180 181
f 164 1 182
f 164 182 165
f 165 182 183
f 165 183 166
f 166 183 184
f 166 184 167
f 167 184 185
f 167 185 168
f 168 185 186
f 168 186 169
f 169 186 187
f 169 187 170
f 170 187 188
f 170 188 171
f 171 188 189
f 171 189 172
f 172 189 190
f 172 190 173
f 173 190 191
f 173 191 174
f 174 191 192
f 174 192 175
f 175 192 193
f 175 193 176
f 176 193 194
f 176 194 177
f 177 194 195
f 177 195 178
f 178 195 196
f 178 196 179
f 179 196 197
f 179 197 180
f 180 197 198
f 180 198 181
f 181 198 199
f 182 1 200
f 182 200 183
f 183 200 201
f 183 201 184
f 184 201 202
f 184 202 185
f 185 202 203
f 185 203 186
f 186 203 204
f 186 204 187
f 187 204 205
f 187 205 188
f 188 205 206
f 188 206 189
f 189 206 207
f 189 207 190
f 190 207 208
f 190 208 191
f 191 208 209
f 191 209 192
f 192 209 210
f 192 210 193
f 193 210 211
f 193 211 194
f 194 211 212
f 194 212 195
f 195 212 213
f 195 213 196
f 196 213 214
f 196 214 197
f 197 214 215
f 197 215 198
f 198 215 216
f 198 216 199
f 199 216 217
f 200 1 218
f 200 218 201
f 201 218 219
f 201 219 202
f 202 219 220
f 202 220 203
f 203 220 221
f 203 221 204
f 204 221 222
f 204 222 205
f 205 222 223
f 205 223 206
f 206 223 224
f 206 224 207
f 207 224 225
f 207 225 208
f 208 225 226
f 208 226 209
f 209 226 227
f 209 227 210
f 210 227 228
f 210 228 211
f 211 228 229
f 211 229 212
f 212 229 230
f 212 230 213
f 213 230 231
f 213 231 214
f 214 231 232
f 214 232 215
f 215 232 233
f 215 233 216
f 216 233 234
f 216 234 217
f 217 234 235
f 218 1 236
f 218 236 219
f 219 236 237
f 219 237 220
f 220 237 238
f 220 238 221
f 221 238 239
f 221 239 222
f 222 239 240
f 222 240 223
f 223 240 241
f 223 241 224
f 224 241 242
f 224 242 225
f 225 242 243
f 225 243 226
f 226 243 244
f 226 244 227
f 227 244 245
f 227 245 228
f 228 245 246
f 228 246 229
f 229 246 247
f 229 247 230
f 230 247 248
f 230 248 231
f 231 248 249
f 231 249 232
f 232 249 250
f 232 250 233
f 233 250 251
f 233 251 234
f 234 251 252
f 234 252 235
f 235 252 253
f 236 1 254
f 236 254 237
f 237 254 255
f 237 255 238
f 238 255 256
f 238 256 239
f 239 256 257
f 239 257 240
f 240 257 258
f 240 258 241
f 241 258 259
f 241 259 242
f 242 259 260
f 242 260 243
f 243 260 261
f 243 261 244
f 244 261 262
f 244 262 245
f 245 262 263
f 245 263 246
f 246 263 264
f 246 264 247
f 247 264 265
f 247 265 248
f 248 265 266
f 248 266 249
f 249 266 267
f 249 267 250
f 250 267 268
f 250 268 251
f 251 268 269
f 251 269 252
f 252 269 270
f 252 270 253
f 253 270 271
f 254 1 272
f 254 272 255
f 255 272 273
f 255 273 256
f 256 273 274
f 256 274 257
f 257 274 275
f 257 275 258
f 258 275 276
f 258 276 259
f 259 276 277
f 259 277 260
f 260 277 278
f 260 278 261
f 261 278 279
f 261 279 262
f 262 279 280
f 262 280 263
f 263 280 281
f 263 281 264
f 264 281 282
f 264 282 265
f 265 282 283
f 265 283 266
f 266 283 284
f 266 284 267
f 267 284 285
f 267 285 268
f 268 285 286
f 268 286 269
f 269 286 287
f 269 287 270
f 270 287 288
f 270 288 271
f 271 288 289
f 272 1 290
f 272 290 273
f 273 290 291
f 273 291 274
f 274 291 292
f 274 292 275
f 275 292 293
f 275 293 276
f 276 293 294
f 276 294 277
f 277 294 295
f 277 295 278
f 278 295 296
f 278 296 279
f 279 296 297
f 279 297 280
f 280 297 298
f 280 298 281
f 281 298 299
f 281 299 282
f 282 299 300
f 282 300 283
f 283 300 301
f 283 301 284
f 284 301 302
f 284 302 285
f 285 302 303
f 285 303 286
f 286 303 304
f 286 304 287
f 287 304 305
f 287 305 288
f 288 305 306
f 288 306 289
f 289 306 307
f 290 1 308
f 290 308 291
f 291 308 309
f 291 309 292
f 292 309 310
f 292 310 293
f 293 310 311
f 293 311 294
f 294 311 312
f 294 312 295
f 295 312 313
f 295 313 296
f 296 313 314
f 296 314 297
f 297 314 315
f 297 315 298
f 298 315 316
f 298 316 299
f 299 316 317
f 299 317 300
f 300 317 318
f 300 318 301
f 301 318 319
f 301 319 302
f 302 319 320
f 302 320 303
f 303 320 321
f 303 321 304
f 304 321 322
f 304 322 305
f 305 322 323
f 305 323 306
f 306 323 324
f 306 324 307
f 307 324 325
f 308 1 326
f 308 326 309
f 309 326 327
f 309 327 310
f 310 327 328
f 310 328 311
f 311 328 329
f 311 329 312
f 312 329 330
f 312 330 313
f 313 330 331
f 313 331 314
f 314 331 332
f 314 332 315
f 315 332 333
f 315 333 316
f 316 333 334
f 316 334 317
f 317 334 335
f 317 335 318
f 318 335 336
f 318 336 319
f 319 336 337
f 319 337 320
f 320 337 338
f 320 338 321
f 321 338 339
f 321 339 322
f 322 339 340
f 322 340 323
f 323 340 341
f 323 341 324
f 324 341 342
f 324 342 325
f 325 342 343
f 326 1 344
f 326 344 327
f 327 344 345
f 327 345 328
f 328 345 346
f 328 346 329
f 329 346 347
f 329 347 330
f 330 347 348
f 330 348 331
f 331 348 349
f 331 349 332
f 332 349 350
f 332 350 333
f 333 350 351
f 333 351 334
f 334 351 352
f 334 352 335
f 335 352 353
f 335 353 336
f 336 353 354
f 336 354 337
f 337 354 355
f 337 355 338
f 338 355 356
f 338 356 339
f 339 356 357
f 339 357 340
f 340 357 358
f 340 358 341
f 341 358 359
f 341 359 342
f 342 359 360
f 342 360 343
f 343 360 361
f 344 1 362
f 344 362 345
f 345 362 363
f 345 363 346
f 346 363 364
f 346 364 347
f 347 364 365
f 347 365 348
f 348 365 366
f 348 366 349
f 349 366 367
f 349 367 350
f 350 367 368
f 350 368 351
f 351 368 369
f 351 369 352
f 352 369 370
f 352 370 353
f 353 370 371
f 353 371 354
f 354 371 372
f 354 372 355
f 355 372 373
f 355 373 356
f 356 373 374
f 356 374 357
f 357 374 375
f 357 375 358
f 358 375 376
f 358 376 359
f 359 376 377
f 359 377 360
f 360 377 378
f 360 378 361
f 361 378 379
f 362 1 380
f 362 380 363
f 363 380 381
f 363 381 364
f 364 381 382
f 364 382 365
f 365 382 383
f 365 383 366
f 366 383 384
f 366 384 367
f 367 384 385
f 367 385 368
f 368 385 386
f 368 386 369
f 369 386 387
f 369 387 370
f 370 387 388
f 370 388 371
f 371 388 389
f 371 389 372
f 372 389 390
f 372 390 373
f 373 390 391
f 373 391 374
f 374 391 392
f 374 392 375
f 375 392 393
f 375 393 376
f 376 393 394
f 376 394 377
f 377 394 395
f 377 395 378
f 378 395 396
f 378 396 379
f 379 396 397
f 380 1 398
f 380 398 381
f 381 398 399
f 381 399 382
f 382 399 400
f 382 400 383
f 383 400 401
f 383 401 384
f 384 401 402
f 384 402 385
f 385 402 403
f 385 403 386
f 386 403 404
f 386 404 387
f 387 404 405
f 387 405 388
f 388 405 406
f 388 406 389
f 389 406 407
f 389 407 390
f 390 407 408
f 390 408 391
f 391 408 409
f 391 409 392
f 392 409 410
f 392 410 393
f 393 410 411
f 393 411 394
f 394 411 412
f 394 412 395
f 395 412 413
f 395 413 396
f 396 413 414
f 396 414 397
f 397 414 415
f 398 1 416
f 398 416 399
f 399 416 417
f 399 417 400
f 400 417 418
f 400 418 401
f 401 418 419
f 401 419 402
f 402 419 420
f 402 420 403
f 403 420 421
f 403 421 404
f 404 421 422
f 404 422 405
f 405 422 423
f 405 423 406
f 406 423 424
f 406 424 407
f 407 424 425
f 407 425 408
f 408 425 426
f 408 426 409
f 409 426 427
f 409 427 410
f 410 427 428
f 410 428 411
f 411 428 429
f 411 429 412
f 412 429 430
f 412 430 413
f 413 430 431
f 413 431 414
f 414 431 432
f 414 432 415
f 415 432 433
f 416 1 434
f 416 434 417
f 417 434 435
f 417 435 418
f 418 435 436
f 418 436 419
f 419 436 437
f 419 437 420
f 420 437 438
f 420 438 421
f 421 438 439
f 421 439 422
f 422 439 440
f 422 440 423
f 423 440 441
f 423 441 424
f 424 441 442
f 424 442 425
f 425 442 443
f 425 443 426
f 426 443 444
f 426 444 427
f 427 444 445
f 427 445 428
f 428 445 446
f 428 446 429
f 429 446 447
f 429 447 430
f 430 447 448
f 430 448 431
f 431 448 449
f 431 449 432
f 432 449 450
f 432 450 433
f 433 450 451
f 434 1 452
f 434 452 435
f 435 452 453
f 435 453 436
f 436 453 454
f 436 454 437
f 437 454 455
f 437 455 438
f 438 455 456
f 438 456 439
f 439 456 457
f 439 457 440
f 440 457 458
f 440 458 441
f 441 458 459
f 441 459 442
f 442 459 460
f 442 460 443
f 443 460 461
f 443 461 444
f 444 461 462
f 444 462 445
f 445 462 463
f 445 463 446
f 446 463 464
f 446 464 447
f 447 464 465
f 447 465 448
f 448 465 466
f 448 466 449
f 449 466 467
f 449 467 450
f 450 467 468
f 450 468 451
f 451 468 469
f 452 1 470
f 452 470 453
f 453 470 471
f 453 471 454
f 454 471 472
f 454 472 455
f 455 472 473
f 455 473 456
f 456 473 474
f 456 474 457
f 457 474 475
f 457 475 458
f 458 475 476
f 458 476 459
f 459 476 477
f 459 477 460
f 460 477 478
f 460 478 461
f 461 478 479
f 461 479 462
f 462 479 480
f 462 480 463
f 463 480 481
f 463 481 464
f 464 481 482
f 464 482 465
f 465 482 483
f 465 483 466
f 466 483 484
f 466 484 467
f 467 484 485
f 467 485 468
f 468 485 486
f 468 486 469
f 469 486 487
f 470 1 488
f 470 488 471
f 471 488 489
f 471 489 472
f 472 489 490
f 472 490 473
f 473 490 491
f 473 491 474
f 474 491 492
f 474 492 475
f 475 492 493
f 475 493 476
f 476 493 494
f 476 494 477
f 477 494 495
f 477 495 478
f 478 495 496
f 478 496 479
f 479 496 497
f 479 497 480
f 480 497 498
f 480 498 481
f 481 498 499
f 481 499 482
f 482 499 500
f 482 500 483
f 483 500 501
f 483 501 484
f 484 501 502
f 484 502 485
f 485 502 503
f 485 503 486
f 486 503 504
f 486 504 487
f 487 504 505
f 488 1 506
f 488 506 489
f 489 506 507
f 489 507 490
f 490 507 508
f 490 508 491
f 491 508 509
f 491 509 492
f 492 509 510
f 492 510 493
f 493 510 511
f 493 511 494
f 494 511 512
f 494 512 495
f 495 512 513
f 495 513 496
f 496 513 514
f 496 514 497
f 497 514 515
f 497 515 498
f 498 515 516
f 498 516 499
f 499 516 517
f 499 517 500
f 500 517 518
f 500 518 501
f 501 518 519
f 501 519 502
f 502 519 520
f 502 520 503
f 503 520 521
f 503 521 504
f 504 521 522
f 504 522 505
f 505 522 523
f 506 1 524
f 506 524 507
f 507 524 525
f 507 525 508
f 508 525 526
f 508 526 509
f 509 526 527
f 509 527 510
f 510 527 528
f 510 528 511
f 511 528 529
f 511 529 512
f 512 529 530
f 512 530 513
f 513 530 531
f 513 531 514
f 514 531 532
f 514 532 515
f 515 532 533
f 515 533 516
f 516 533 534
f 516 534 517
f 517 534 535
f 517 535 518
f 518 535 536
f 518 536 519
f 519 536 537
f 519 537 520
f 520 537 538
f 520 538 521
f 521 538 539
f 521 539 522
f 522 539 540
f 522 540 523
f 523 540 541
f 524 1 542
f 524 542 525
f 525 542 543
f 525 543 526
f 526 543 544
f 526 544 527
f 527 544 545
f 527 545 528
f 528 545 546
f 528 546 529
f 529 546 547
f 529 547 530
f 530 547 548
f 530 548 531
f 531 548 549
f 531 549 532
f 532 549 550
f 532 550 533
f 533 550 551
f 533 551 534
f 534 551 552
f 534 552 535
f 535 552 553
f 535 553 536
f 536 553 554
f 536 554 537
f 537 554 555
f 537 555 538
f 538 555 556
f 538 556 539
f 539 556 557
f 539 557 540
f 540 557 558
f 540 558 541
f 541 558 559
f 542 1 560
f 542 560 543
f 543 560 561
f 543 561 544
f 544 561 562
f 544 562 545
f 545 562 563
f 545 563 546
f 546 563 564
f 546 564 547
f 547 564 565
f 547 565 548
f 548 565 566
f 548 566 549
f 549 566 567
f 549 567 550
f 550 567 568
f 550 568 551
f 551 568 569
f 551 569 552
f 552 569 570
f 552 570 553
f 553 570 571
f 553 571 554
f 554 571 572
f 554 572 555
f 555 572 573
f 555 573 556
f 556 573 574
f 556 574 557
f 557 574 575
f 557 575 558
f 558 575 576
f 558 576 559
f 559 576 577
f 560 1 578
f 560 578 561
f 561 578 579
f 561 579 562
f 562 579 580
f 562 580 563
f 563 580 581
f 563 581 564
f 564 581 582
f 564 582 565
f 565 582 583
f 565 583 566
f 566 583 584
f 566 584 567
f 567 584 585
f 567 585 568
f 568 585 586
f 568 586 569
f 569 586 587
f 569 587 570
f 570 587 588
f 570 588 571
f 571 588 589
f 571 589 572
f 572 589 590
f 572 590 573
f 573 590 591
f 573 591 574
f 574 591 592
f 574 592 575
f 575 592 593
f 575 593 576
f 576 593 594
f 576 594 577
f 577 594 595
f 578 1 596
f 578 596 579
f 579 596 597
f 579 597 580
f 580 597 598
f 580 598 581
f 581 598 599
f 581 599 582
f 582 599 600
f 582 600 583
f 583 600 601
f 583 601 584
f 584 601 602
f 584 602 585
f 585 602 603
f 585 603 586
f 586 603 604
f 586 604 587
f 587 604 605
f 587 605 588
f 588 605 606
f 588 606 589
f 589 606 607
f 589 607 590
f 590 607 608
f 590 608 591
f 591 608 609
f 591 609 592
f 592 609 610
f 592 610 593
f 593 610 611
f 593 611 594
f 594 611 612
f 594 612 595
f 595 612 613
f 596 1 614
f 596 614 597
f 597 614 615
f 597 615 598
f 598 615 616
f 598 616 599
f 599 616 617
f 599 617 600
f 600 617 618
f 600 618 601
f 601 618 619
f 601 619 602
f 602 619 620
f 602 620 603
f 603 620 621
f 603 621 604
f 604 621 622
f 604 622 605
f 605 622 623
f 605 623 606
f 606 623 624
f 606 624 607
f 607 624 625
f 607 625 608
f 608 625 626
f 608 626 609
f 609 626 627
f 609 627 610
f 610 627 628
f 610 628 611
f 611 628 629
f 611 629 612
f 612 629 630
f 612 630 613
f 613 630 631
f 614 1 632
f 614 632 615
f 615 632 633
f 615 633 616
f 616 633 634
f 616 634 617
f 617 634 635
f 617 635 618
f 618 635 636
f 618 636 619
f 619 636 637
f 619 637 620
f 620 637 638
f 620 638 621
f 621 638 639
f 621 639 622
f 622 639 640
f 622 640 623
f 623 640 641
f 623 641 624
f 624 641 642
f 624 642 625
f 625 642 643
f 625 643 626
f 626 643 644
f 626 644 627
f 627 644 645
f 627 645 628
f 628 645 646
f 628 646 629
f 629 646 647
f 629 647 630
f 630 647 648
f 630 648 631
f 631 648 649
f 632 1 650
f 632 650 633
f 633 650 651
f 633 651 634
f 634 651 652
f 634 652 635
f 635 652 653
f 635 653 636
f 636 653 654
f 636 654 637
f 637 654 655
f 637 655 638
f 638 655 656
f 638 656 639
f 639 656 657
f 639 657 640
f 640 657 658
f 640 658 641
f 641 658 659
f 641 659 642
f 642 659 660
f 642 660 643
f 643 660 661
f 643 661 644
f 644 661 662
f 644 662 645
f 645 662 663
f 645 663 646
f 646 663 664
f 646 664 647
f 647 664 665
f 647 665 648
f 648 665 666
f 648 666 649
f 649 666 667
f 650 1 668
f 650 668 651
f 651 668 669
f 651 669 652
f 652 669 670
f 652 670 653
f 653 670 671
f 653 671 654
f 654 671 672
f 654 672 655
f 655 672 673
f 655 673 656
f 656 673 674
f 656 674 657
f 657 674 675
f 657 675 658
f 658 675 676
f 658 676 659
f 659 676 677
f 659 677 660
f 660 677 678
f 660 678 661
f 661 678 679
f 661 679 662
f 662 679 680
f 662 680 663
f 663 680 681
f 663 681 664
f 664 681 682
f 664 682 665
f 665 682 683
f 665 683 666
f 666 683 684
f 666 684 667
f 667 684 685
f 668 1 686
f 668 686 669
f 669 686 687
f 669 687 670
f 670 687 688
f 670 688 671
f 671 688 689
f 671 689 672
f 672 689 690
f 672 690 673
f 673 690 691
f 673 691 674
f 674 691 692
f 674 692 675
f 675 692 693
f 675 693 676
f 676 693 694
f 676 694 677
f 677 694 695
f 677 695 678
f 678 695 696
f 678 696 679
f 679 696 697
f 679 697 680
f 680 697 698
f 680 698 681
f 681 698 699
f 681 699 682
f 682 699 700
f 682 700 683
f 683 700 701
f 683 701 684
f 684 701 702
f 684 702 685
f 685 702 703
f 686 1 704
f 686 704 687
f 687 704 705
f 687 705 688
f 688 705 706
f 688 706 689
f 689 706 707
f 689 707 690
f 690 707 708
f 690 708 691
f 691 708 709
f 691 709 692
f 692 709 710
f 692 710 693
f 693 710 711
f 693 711 694
f 694 711 712
f 694 712 695
f 695 712 713
f 695 713 696
f 696 713 714
f 696 714 697
f 697 714 715
f 697 715 698
f 698 715 716
f 698 716 699
f 699 716 717
f 699 717 700
f 700 717 718
f 700 718 701
f 701 718 719
f 701 719 702
f 702 719 720
f 702 720 703
f 703 720 721
f 704 1 722
f 704 722 705
f 705 722 723
f 705 723 706
f 706 723 724
f 706 724 707
f 707 724 725
f 707 725 708
f 708 725 726
f 708 726 709
f 709 726 727
f 709 727 710
f 710 727 728
f 710 728 711
f 711 728 729
f 711 729 712
f 712 729 730
f 712 730 713
f 713 730 731
f 713 731 714
f 714 731 732
f 714 732 715
f 715 732 733
f 715 733 716
f 716 733 734
f 716 734 717
f 717 734 735
f 717 735 718
f 718 735 736
f 718 736 719
f 719 736 737
f 719 737 720
f 720 737 738
f 720 738 721
f 721 738 739
f 722 1 740
f 722 740 723
f 723 740 741
f 723 741 724
f 724 741 742
f 724 742 725
f 725 742 743
f 725 743 726
f 726 743 744
f 726 744 727
f 727 744 745
f 727 745 728
f 728 745 746
f 728 746 729
f 729 746 747
f 729 747 730
f 730 747 748
f 730 748 731
f 731 748 749
f 731 749 732
f 732 749 750
f 732 750 733
f 733 750 751
f 733 751 734
f 734 751 752
f 734 752 735
f 735 752 753
f 735 753 736
f 736 753 754
f 736 754 737
f 737 754 755
f 737 755 738
f 738 755 756
f 738 756 739
f 739 756 757
f 740 1 758
f 740 758 741
f 741 758 759
f 741 759 742
f 742 759 760
f 742 760 743
f 743 760 761
f 743 761 744
f 744 761 762
f 744 762 745
f 745 762 763
f 745 763 746
f 746 763 764
f 746 764 747
f 747 764 765
f 747 765 748
f 748 765 766
f 748 766 749
f 749 766 767
f 749 767 750
f 750 767 768
f 750 768 751
f 751 768 769
f 751 769 752
f 752 769 770
f 752 770 753
f 753 770 771
f 753 771 754
f 754 771 772
f 754 772 755
f 755 772 773
f 755 773 756
f 756 773 774
f 756 774 757
f 757 774 775
f 758 1 776
f 758 776 759
f 759 776 777
f 759 777 760
f 760 777 778
f 760 778 761
f 761 778 779
f 761 779 762
f 762 779 780
f 762 780 763
f 763 780 781
f 763 781 764
f 764 781 782
f 764 782 765
f 765 782 783
f 765 783 766
f 766 783 784
f 766 784 767
f 767 784 785
f 767 785 768
f 768 785 786
f 768 786 769
f 769 786 787
f 769 787 770
f 770 787 788
f 770 788 771
f 771 788 789
f 771 789 772
f 772 789 790
f 772 790 773
f 773 790 791
f 773 791 774
f 774 791 792
f 774 792 775
f 775 792 793
f 776 1 794
f 776 794 777
f 777 794 795
f 777 795 778
f 778 795 796
f 778 796 779
f 779 796 797
f 779 797 780
f 780 797 798
f 780 798 781
f 781 798 799
f 781 799 782
f 782 799 800
f 782 800 783
f 783 800 801
f 783 801 784
f 784 801 802
f 784 802 785
f 785 802 803
f 785 803 786
f 786 803 804
f 786 804 787
f 787 804 805
f 787 805 788
f 788 805 806
f 788 806 789
f 789 806 807
f 789 807 790
f 790 807 808
f 790 808 791
f 791 808 809
f 791 809 792
f 792 809 810
f 792 810 793
f 793 810 811
f 794 1 812
f 794 812 795
f 795 812 813
f 795 813 796
f 796 813 814
f 796 814 797
f 797 814 815
f 797 815 798
f 798 815 816
f 798 816 799
f 799 816 817
f 799 817 800
f 800 817 818
f 800 818 801
f 801 818 819
f 801 819 802
f 802 819 820
f 802 820 803
f 803 820 821
f 803 821 804
f 804 821 822
f 804 822 805
f 805 822 823
f 805 823 806
f 806 823 824
f 806 824 807
f 807 824 825
f 807 825 808
f 808 825 826
f 808 826 809
f 809 826 827
f 809 827 810
f 810 827 828
f 810 828 811
f 811 828 829
f 812 1 830
f 812 830 813
f 813 830 831
f 813 831 814
f 814 831 832
f 814 832 815
f 815 832 833
f 815 833 816
f 816 833 834
f 816 834 817
f 817 834 835
f 817 835 818
f 818 835 836
f 818 836 819
f 819 836 837
f 819 837 820
f 820 837 838
f 820 838 821
f 821 838 839
f 821 839 822
f 822 839 840
f 822 840 823
f 823 840 841
f 823 841 824
f 824 841 842
f 824 842 825
f 825 842 843
f 825 843 826
f 826 843 844
f 826 844 827
f 827 844 845
f 827 845 828
f 828 845 846
f 828 846 829
f 829 846 847
f 830 1 848
f 830 848 831
f 831 848 849
f 831 849 832
f 832 849 850
f 832 850 833
f 833 850 851
f 833 851 834
f 834 851 852
f 834 852 835
f 835 852 853
f 835 853 836
f 836 853 854
f 836 854 837
f 837 854 855
f 837 855 838
f 838 855 856
f 838 856 839
f 839 856 857
f 839 857 840
f 840 857 858
f 840 858 841
f 841 858 859
f 841 859 842
f 842 859 860
f 842 860 843
f 843 860 861
f 843 861 844
f 844 861 862
f 844 862 845
f 845 862 863
f 845 863 846
f 846 863 864
f 846 864 847
f 847 864 865
f 848 1 2
f 848 2 849
f 849 2 3
f 849 3 850
f 850 3 4
f 850 4 851
f 851 4 5
f 851 5 852
f 852 5 6
f 852 6 853
f 853 6 7
f 853 7 854
f 854 7 8
f 854 8 855
f 855 8 9
f 855 9 856
f 856 9 10
f 856 10 857
f 857 10 11
f 857 11 858
f 858 11 12
f 858 12 859
f 859 12 13
f 859 13 860
f 860 13 14
f 860 14 861
f 861 14 15
f 861 15 862
f 862 15 16
f 862 16 863
f 863 16 17
f 863 17 864
f 864 17 18
f 864 18 865
f 865 18 19

