v -0.01215312 0.00277471 -0.01260460
v -0.01046855 0.00239013 -0.01494328
v -0.01074121 0.00000000 -0.01494328
v -0.01246969 0.00000000 -0.01260460
v -0.01385824 0.00000000 -0.00979986
v -0.01350640 0.00308369 -0.00979986
v -0.01248583 0.00601478 -0.00974009
v -0.01123480 0.00541218 -0.01221748
v -0.00967753 0.00466200 -0.01464731
v -0.01433567 0.00327300 -0.00033297
v -0.01461931 0.00333778 -0.00358297
v -0.01500000 -0.00000000 -0.00358297
v -0.01470899 -0.00000000 -0.00033297
v -0.01385824 -0.00000000 0.00294783
v -0.01350640 0.00308369 0.00294783
v -0.01248583 0.00601478 0.00310997
v -0.01325239 0.00638414 -0.00033297
v -0.01351456 0.00651039 -0.00358297
v -0.01033732 0.00236017 0.00880940
v -0.01060668 -0.00000000 0.00880960
v -0.00955618 0.00460350 0.00935725
v -0.00864505 0.00197387 -0.01659071
v -0.00655987 0.00149769 -0.01778493
v -0.00673078 0.00000000 -0.01778493
v -0.00887036 0.00000000 -0.01659071
v -0.00799186 0.00384988 -0.01658704
v -0.00606425 0.00292136 -0.01778493
v -0.01433567 0.00327300 -0.00675403
v -0.01470899 0.00000000 -0.00675403
v -0.01325239 0.00638414 -0.00675403
v -0.01215312 0.00277471 0.00609481
v -0.01246969 -0.00000000 0.00609481
v -0.01123480 0.00541218 0.00679931
v -0.00095142 0.00021722 -0.01977319
v -0.00076687 0.00036936 -0.01980766
v 0.00000000 0.00000000 -0.02000000
v -0.00085106 0.00000000 -0.01980766
v -0.00199409 0.00000000 -0.01946030
v -0.00197386 0.00045061 -0.01945174
v -0.00179652 0.00086546 -0.01946030
v -0.00693288 0.00553060 -0.01639898
v -0.00526069 0.00419649 -0.01778493
v -0.00839513 0.00669704 -0.01392283
v -0.00669707 0.00840051 -0.01391958
v -0.00553054 0.00693732 -0.01639777
v -0.00419654 0.00526397 -0.01778493
v -0.01149632 0.00917092 -0.00675036
v -0.01083137 0.00864048 -0.00909292
v -0.01172366 0.00935240 -0.00358297
v -0.00935234 0.01173123 -0.00358297
v -0.00917094 0.01150381 -0.00675015
v -0.00864050 0.01083832 -0.00909046
v -0.00974605 0.00777472 0.00742142
v -0.01083137 0.00864048 0.00395358
v -0.00777470 0.00975234 0.00742590
v -0.00864050 0.01083832 0.00395663
v -0.00076295 0.00060871 -0.01977319
v -0.00053058 0.00066564 -0.01980766
v -0.00158298 0.00126275 -0.01945174
v -0.00124320 0.00155949 -0.01946030
v -0.01149632 0.00917092 -0.00030646
v -0.00917094 0.01150381 -0.00030605
v -0.00540870 0.01123482 0.00679687
v -0.00601094 0.01248581 0.00310915
v -0.00460060 0.00955630 0.00935501
v -0.00236020 0.01034411 0.00880960
v -0.00308378 0.01351517 0.00294783
v -0.00042349 0.00087957 -0.01977319
v -0.00087851 0.00182471 -0.01945174
v -0.00044372 0.00194470 -0.01946030
v -0.00540870 0.01123482 -0.01221910
v -0.00465893 0.00967754 -0.01464875
v -0.00601094 0.01248581 -0.00974070
v -0.00308378 0.01351517 -0.00979986
v -0.00277475 0.01216098 -0.01260460
v -0.00239014 0.01047523 -0.01494328
v -0.00638003 0.01325245 -0.00033297
v -0.00650626 0.01351454 -0.00358297
v -0.00384737 0.00799194 -0.01658724
v -0.00291947 0.00606418 -0.01778493
v -0.00197386 0.00865067 -0.01659071
v -0.00149768 0.00656419 -0.01778493
v -0.00638003 0.01325245 -0.00675403
v 0.00000000 0.00097619 -0.01977319
v 0.00018941 0.00083001 -0.01980766
v -0.00018941 0.00083001 -0.01980766
v 0.00000000 0.00202532 -0.01945174
v 0.00044372 0.00194470 -0.01946030
v 0.00000000 0.01246981 -0.01260460
v 0.00000000 0.01074124 -0.01494328
v 0.00000000 0.01385818 -0.00979986
v 0.00308378 0.01351517 -0.00979986
v 0.00277475 0.01216098 -0.01260460
v 0.00239014 0.01047523 -0.01494328
v 0.00000000 0.01470906 -0.00033297
v 0.00000000 0.01500000 -0.00358297
v -0.00333779 0.01462876 -0.00358297
v -0.00327304 0.01434486 -0.00033297
v 0.00000000 0.01385818 0.00294783
v 0.00308378 0.01351517 0.00294783
v 0.00327304 0.01434486 -0.00033297
v 0.00333779 0.01462876 -0.00358297
v 0.00000000 0.01060667 0.00880940
v 0.00236020 0.01034411 0.00880960
v 0.00000000 0.00887026 -0.01659071
v 0.00000000 0.00673076 -0.01778493
v 0.00197386 0.00865067 -0.01659071
v 0.00149768 0.00656419 -0.01778493
v 0.00000000 0.01470906 -0.00675403
v -0.00327304 0.01434486 -0.00675403
v 0.00327304 0.01434486 -0.00675403
v 0.00000000 0.01246981 0.00609481
v -0.00277475 0.01216098 0.00609481
v 0.00277475 0.01216098 0.00609481
v 0.00460060 0.00955630 0.00935501
v 0.00384737 0.00799194 -0.01658724
v 0.00291947 0.00606418 -0.01778493
v 0.00465893 0.00967754 -0.01464875
v 0.00669707 0.00840051 -0.01391958
v 0.00553054 0.00693732 -0.01639777
v 0.00419654 0.00526397 -0.01778493
v 0.00638003 0.01325245 -0.00675403
v 0.00601094 0.01248581 -0.00974070
v 0.00650626 0.01351454 -0.00358297
v 0.00935234 0.01173123 -0.00358297
v 0.00917094 0.01150365 -0.00675015
v 0.00864050 0.01083832 -0.00909046
v 0.00540870 0.01123482 0.00679687
v 0.00601094 0.01248581 0.00310915
v 0.00777470 0.00975234 0.00742590
v 0.00864050 0.01083832 0.00395663
v 0.00042349 0.00087957 -0.01977319
v 0.00053058 0.00066564 -0.01980766
v 0.00087851 0.00182471 -0.01945174
v 0.00124320 0.00155949 -0.01946030
v 0.00540870 0.01123482 -0.01221910
v 0.00638003 0.01325245 -0.00033297
v 0.00917094 0.01150365 -0.00030605
v 0.00693288 0.00553060 -0.01639898
v 0.00526069 0.00419649 -0.01778493
v 0.00839513 0.00669704 -0.01392283
v 0.00967753 0.00466200 -0.01464731
v 0.00799186 0.00384988 -0.01658704
v 0.00606425 0.00292136 -0.01778493
v 0.01149632 0.00917092 -0.00675036
v 0.01083137 0.00864048 -0.00909292
v 0.01172366 0.00935240 -0.00358297
v 0.01351456 0.00651039 -0.00358297
v 0.01325239 0.00638414 -0.00675403
v 0.01248583 0.00601478 -0.00974009
v 0.00974605 0.00777472 0.00742142
v 0.01083137 0.00864048 0.00395358
v 0.00955618 0.00460350 0.00935725
v 0.01123480 0.00541218 0.00679931
v 0.01248583 0.00601478 0.00310997
v 0.00076295 0.00060871 -0.01977319
v 0.00076687 0.00036936 -0.01980766
v 0.00158298 0.00126275 -0.01945174
v 0.00179652 0.00086546 -0.01946030
v 0.01123480 0.00541218 -0.01221748
v 0.01149632 0.00917092 -0.00030646
v 0.01325239 0.00638414 -0.00033297
v 0.00095142 0.00021722 -0.01977319
v 0.00085106 0.00000000 -0.01980766
v 0.00197386 0.00045061 -0.01945174
v 0.00199393 0.00000000 -0.01946030
v 0.01215312 0.00277471 -0.01260460
v 0.01046855 0.00239013 -0.01494328
v 0.01350640 0.00308369 -0.00979986
v 0.01385824 0.00000000 -0.00979986
v 0.01246969 0.00000000 -0.01260460
v 0.01074121 0.00000000 -0.01494328
v 0.01433567 0.00327300 -0.00033297
v 0.01461931 0.00333778 -0.00358297
v 0.01350640 0.00308369 0.00294783
v 0.01385824 -0.00000000 0.00294783
v 0.01470899 -0.00000000 -0.00033297
v 0.01500000 -0.00000000 -0.00358297
v 0.01033732 0.00236017 0.00880940
v 0.01060668 -0.00000000 0.00880960
v 0.00864505 0.00197387 -0.01659071
v 0.00655987 0.00149769 -0.01778493
v 0.00887036 0.00000000 -0.01659071
v 0.00673078 0.00000000 -0.01778493
v 0.01433567 0.00327300 -0.00675403
v 0.01470899 0.00000000 -0.00675403
v 0.01215312 0.00277471 0.00609481
v 0.01246969 -0.00000000 0.00609481
v 0.01215312 -0.00277471 -0.01260460
v 0.01046855 -0.00239013 -0.01494328
v 0.01350640 -0.00308369 -0.00979986
v 0.01248583 -0.00601478 -0.00974009
v 0.01123480 -0.00541218 -0.01221748
v 0.00967753 -0.00466200 -0.01464731
v 0.01433567 -0.00327316 -0.00033297
v 0.01461931 -0.00333778 -0.00358297
v 0.01350640 -0.00308369 0.00294783
v 0.01248583 -0.00601478 0.00310997
v 0.01325239 -0.00638414 -0.00033297
v 0.01351456 -0.00651039 -0.00358297
v 0.00864505 -0.00197387 -0.01659071
v 0.00655987 -0.00149769 -0.01778493
v 0.00799186 -0.00384988 -0.01658704
v 0.00606425 -0.00292136 -0.01778493
v 0.01433567 -0.00327316 -0.00675403
v 0.01325239 -0.00638414 -0.00675403
v 0.01215312 -0.00277471 0.00609481
v 0.01123480 -0.00541218 0.00679931
v 0.00095142 -0.00021722 -0.01977319
v 0.00076687 -0.00036936 -0.01980766
v 0.00197386 -0.00045061 -0.01945174
v 0.00179652 -0.00086546 -0.01946030
v 0.00693288 -0.00553060 -0.01639898
v 0.00526069 -0.00419649 -0.01778493
v 0.00839513 -0.00669704 -0.01392283
v 0.00669707 -0.00840051 -0.01391958
v 0.00553054 -0.00693732 -0.01639777
v 0.00419654 -0.00526397 -0.01778493
v 0.01149632 -0.00917092 -0.00675036
v 0.01083137 -0.00864048 -0.00909292
v 0.01172366 -0.00935240 -0.00358297
v 0.00935234 -0.01173139 -0.00358297
v 0.00917094 -0.01150381 -0.00675015
v 0.00864050 -0.01083832 -0.00909046
v 0.00974605 -0.00777472 0.00742142
v 0.01083137 -0.00864048 0.00395358
v 0.00777470 -0.00975234 0.00742590
v 0.00864050 -0.01083832 0.00395663
v 0.00076295 -0.00060871 -0.01977319
v 0.00053058 -0.00066564 -0.01980766
v 0.00158298 -0.00126275 -0.01945174
v 0.00124320 -0.00155949 -0.01946030
v 0.01149632 -0.00917092 -0.00030646
v 0.00917094 -0.01150381 -0.00030605
v 0.00638003 -0.01325245 -0.00675403
v 0.00601094 -0.01248581 -0.00974070
v 0.00650626 -0.01351454 -0.00358297
v 0.00327304 -0.01434486 -0.00675403
v 0.00308378 -0.01351517 -0.00979986
v 0.00540870 -0.01123482 0.00679687
v 0.00601094 -0.01248581 0.00310915
v 0.00042349 -0.00087957 -0.01977319
v 0.00087851 -0.00182471 -0.01945174
v 0.00540870 -0.01123482 -0.01221910
v 0.00465893 -0.00967754 -0.01464875
v 0.00277475 -0.01216098 -0.01260460
v 0.00638003 -0.01325245 -0.00033297
v 0.00327304 -0.01434486 -0.00033297
v 0.00384737 -0.00799194 -0.01658724
v 0.00291947 -0.00606418 -0.01778493
v 0.00197386 -0.00865067 -0.01659071
v 0.00000000 -0.00097619 -0.01977319
v -0.00018941 -0.00083001 -0.01980766
v 0.00018941 -0.00083001 -0.01980766
v 0.00044372 -0.00194470 -0.01946030
v 0.00000000 -0.00202532 -0.01945174
v -0.00044372 -0.00194470 -0.01946030
v 0.00000000 -0.01246981 -0.01260460
v 0.00000000 -0.01074124 -0.01494328
v 0.00239014 -0.01047523 -0.01494328
v 0.00000000 -0.01385818 -0.00979986
v -0.00308378 -0.01351517 -0.00979986
v -0.00277475 -0.01216098 -0.01260460
v -0.00239014 -0.01047523 -0.01494328
v 0.00000000 -0.01470906 -0.00033297
v 0.00000000 -0.01500000 -0.00358297
v 0.00333779 -0.01462876 -0.00358297
v 0.00308378 -0.01351517 0.00294783
v 0.00000000 -0.01385818 0.00294783
v -0.00308378 -0.01351517 0.00294783
v -0.00327304 -0.01434486 -0.00033297
v -0.00333779 -0.01462876 -0.00358297
v 0.00000000 -0.00887026 -0.01659071
v 0.00000000 -0.00673076 -0.01778493
v 0.00149768 -0.00656419 -0.01778493
v -0.00197386 -0.00865067 -0.01659071
v -0.00149768 -0.00656419 -0.01778493
v 0.00000000 -0.01470906 -0.00675403
v -0.00327304 -0.01434486 -0.00675403
v 0.00000000 -0.01246981 0.00609481
v 0.00277475 -0.01216098 0.00609481
v -0.00277475 -0.01216098 0.00609481
v -0.00638003 -0.01325245 -0.00033297
v -0.00650626 -0.01351454 -0.00358297
v -0.00601094 -0.01248581 0.00310915
v -0.00864050 -0.01083832 0.00395663
v -0.00917094 -0.01150365 -0.00030605
v -0.00935234 -0.01173123 -0.00358297
v -0.00460060 -0.00955630 0.00935501
v -0.00638317 -0.00800683 0.00969175
v -0.00384752 -0.00799194 -0.01658724
v -0.00291947 -0.00606418 -0.01778493
v -0.00465893 -0.00967754 -0.01464875
v -0.00669707 -0.00840051 -0.01391958
v -0.00553054 -0.00693732 -0.01639777
v -0.00419654 -0.00526397 -0.01778493
v -0.00638003 -0.01325245 -0.00675403
v -0.00601094 -0.01248581 -0.00974070
v -0.00917094 -0.01150365 -0.00675015
v -0.00864050 -0.01083832 -0.00909046
v -0.00540870 -0.01123482 0.00679687
v -0.00777470 -0.00975234 0.00742590
v -0.00042349 -0.00087957 -0.01977319
v -0.00053058 -0.00066564 -0.01980766
v -0.00087851 -0.00182471 -0.01945174
v -0.00124320 -0.00155949 -0.01946030
v -0.00540870 -0.01123482 -0.01221910
v -0.00693288 -0.00553060 -0.01639898
v -0.00526069 -0.00419649 -0.01778493
v -0.00839513 -0.00669704 -0.01392283
v -0.00967753 -0.00466200 -0.01464731
v -0.00799186 -0.00384988 -0.01658704
v -0.00606425 -0.00292136 -0.01778493
v -0.01149632 -0.00917092 -0.00675036
v -0.01083137 -0.00864048 -0.00909292
v -0.01172366 -0.00935240 -0.00358297
v -0.01351456 -0.00651039 -0.00358297
v -0.01325239 -0.00638414 -0.00675403
v -0.01248583 -0.00601478 -0.00974009
v -0.00974605 -0.00777472 0.00742142
v -0.01083137 -0.00864048 0.00395358
v -0.00800173 -0.00638320 0.00968808
v -0.00955633 -0.00460350 0.00935725
v -0.01123480 -0.00541218 0.00679931
v -0.01248583 -0.00601478 0.00310997
v -0.00076295 -0.00060871 -0.01977319
v -0.00076687 -0.00036936 -0.01980766
v -0.00158298 -0.00126275 -0.01945174
v -0.00179652 -0.00086546 -0.01946030
v -0.01123480 -0.00541218 -0.01221748
v -0.01149632 -0.00917092 -0.00030646
v -0.01325239 -0.00638414 -0.00033297
v -0.01215312 -0.00277471 0.00609481
v -0.01350640 -0.00308369 0.00294783
v -0.01033732 -0.00236017 0.00880940
v -0.00095142 -0.00021722 -0.01977319
v -0.00197386 -0.00045061 -0.01945174
v -0.01215312 -0.00277471 -0.01260460
v -0.01046855 -0.00239013 -0.01494328
v -0.01350640 -0.00308369 -0.00979986
v -0.01433567 -0.00327300 -0.00033297
v -0.01461931 -0.00333778 -0.00358297
v -0.00864505 -0.00197387 -0.01659071
v -0.00655987 -0.00149769 -0.01778493
v -0.01433567 -0.00327300 -0.00675403
v -0.00408977 -0.00093369 -0.01876377
v -0.00378073 -0.00182127 -0.01876377
v -0.00419623 0.00000000 -0.01876377
v -0.00327978 -0.00261630 -0.01876377
v -0.00261640 -0.00328178 -0.01876377
v -0.00182004 -0.00378070 -0.01876377
v -0.00093370 -0.00409235 -0.01876377
v 0.00000000 -0.00419633 -0.01876377
v 0.00182004 -0.00378070 -0.01876377
v 0.00261640 -0.00328178 -0.01876377
v 0.00093370 -0.00409235 -0.01876377
v 0.00327978 -0.00261630 -0.01876377
v 0.00378073 -0.00182127 -0.01876377
v 0.00408977 -0.00093369 -0.01876377
v 0.00419623 0.00000000 -0.01876377
v 0.00408977 0.00093369 -0.01876377
v 0.00378073 0.00182127 -0.01876377
v 0.00327978 0.00261630 -0.01876377
v 0.00261640 0.00328178 -0.01876377
v 0.00182004 0.00378070 -0.01876377
v 0.00093370 0.00409235 -0.01876377
v 0.00000000 0.00419633 -0.01876377
v -0.00093370 0.00409235 -0.01876377
v -0.00182004 0.00378070 -0.01876377
v -0.00261640 0.00328178 -0.01876377
v -0.00327978 0.00261630 -0.01876377
v -0.00378073 0.00182127 -0.01876377
v -0.00408977 0.00093369 -0.01876377
v 0.00000000 0.00024594 0.02000000
v 0.00016918 0.00026036 0.01999041
v -0.00032612 0.00028154 0.01991005
v 0.00032612 0.00028154 0.01991005
v -0.00019254 0.00044560 0.01985009
v -0.00016918 0.00026036 0.01999041
v 0.00121514 0.00417280 0.01726767
v 0.00125951 0.00415273 0.01729562
v 0.00126736 0.00416168 0.01728154
v 0.00146412 0.00407540 0.01729664
v 0.00151180 0.00404091 0.01728133
v 0.00120307 0.00415964 0.01727644
v -0.00474469 0.00157846 0.01605347
v -0.00475896 0.00156310 0.01605244
v -0.00466770 0.00169437 0.01602980
v 0.00414778 -0.00521363 0.01800909
v 0.00413774 -0.00519716 0.01801622
v 0.00410936 -0.00522287 0.01803153
v 0.00411611 -0.00523370 0.01802011
v 0.00392372 -0.00528734 0.01801337
v 0.00389346 -0.00527762 0.01802011
v 0.00394897 -0.00527729 0.01803235
v 0.00416644 -0.00518539 0.01798604
v 0.00397030 -0.00528091 0.01802112
f 283 272 271
f 320 321 302
f 376 387 323
f 265 272 266
f 271 272 265
f 318 342 345
f 65 380 66
f 287 316 288
f 272 283 284
f 284 287 288
f 283 287 284
f 271 265 270
f 302 301 289
f 286 301 302
f 286 287 283
f 302 321 286
f 332 342 317
f 317 342 318
f 318 316 317
f 341 342 332
f 331 321 332
f 332 317 331
f 331 317 316
f 316 287 331
f 331 286 321
f 287 286 331
f 288 316 314
f 314 316 318
f 333 20 32
f 32 14 333
f 13 341 14
f 12 342 13
f 342 341 13
f 55 54 53
f 53 54 33
f 323 320 322
f 322 376 323
f 322 320 302
f 388 376 55
f 55 53 388
f 323 387 335
f 387 20 335
f 20 333 335
f 32 20 31
f 33 15 31
f 31 14 32
f 31 15 14
f 387 53 21
f 21 53 33
f 199 226 233
f 225 389 227
f 227 226 225
f 268 265 248
f 227 240 228
f 247 234 228
f 228 226 227
f 228 233 226
f 228 234 233
f 235 238 239
f 55 65 63
f 63 65 66
f 55 376 378
f 378 65 55
f 381 382 115
f 288 314 299
f 299 314 315
f 282 270 280
f 301 270 282
f 285 270 301
f 285 286 283
f 301 286 285
f 285 283 271
f 271 270 285
f 319 330 315
f 319 314 318
f 315 314 319
f 321 320 324
f 324 320 323
f 323 335 324
f 324 335 333
f 17 54 61
f 56 61 54
f 56 54 55
f 55 63 56
f 16 54 17
f 33 54 16
f 16 15 33
f 10 16 17
f 15 16 10
f 10 13 14
f 14 15 10
f 290 322 302
f 376 322 290
f 387 376 386
f 376 388 386
f 386 53 387
f 386 388 53
f 19 20 387
f 387 21 19
f 19 31 20
f 33 31 19
f 19 21 33
f 221 234 222
f 233 234 221
f 389 225 208
f 208 225 226
f 280 268 281
f 281 268 240
f 240 397 281
f 269 268 280
f 265 268 269
f 280 270 269
f 269 270 265
f 240 268 241
f 247 228 241
f 241 228 240
f 248 247 241
f 241 268 248
f 392 397 240
f 227 389 392
f 392 240 227
f 149 185 169
f 169 185 170
f 177 196 178
f 200 196 199
f 206 196 200
f 200 221 206
f 199 233 200
f 233 221 200
f 205 196 206
f 267 247 248
f 238 235 267
f 267 265 266
f 248 265 267
f 188 180 396
f 383 375 377
f 377 384 383
f 381 375 383
f 383 382 381
f 130 115 383
f 383 115 382
f 74 91 89
f 312 339 343
f 312 343 313
f 26 22 2
f 184 359 360
f 99 95 67
f 95 98 67
f 67 112 99
f 97 95 96
f 97 98 95
f 77 98 97
f 109 91 74
f 74 110 109
f 109 97 96
f 110 97 109
f 100 95 99
f 100 101 95
f 99 112 100
f 100 112 114
f 96 95 102
f 95 101 102
f 102 109 96
f 102 101 137
f 137 131 138
f 381 380 385
f 385 378 381
f 380 65 385
f 65 378 385
f 114 112 104
f 381 115 104
f 66 380 103
f 103 112 66
f 103 380 381
f 381 104 103
f 103 104 112
f 266 272 278
f 278 267 266
f 238 267 278
f 239 238 278
f 298 262 297
f 297 299 298
f 272 284 297
f 297 284 288
f 288 299 297
f 300 299 315
f 298 299 300
f 300 307 298
f 315 330 300
f 330 307 300
f 301 282 394
f 394 289 301
f 302 289 394
f 394 290 302
f 318 345 340
f 340 319 318
f 345 5 340
f 332 321 325
f 321 324 325
f 325 341 332
f 17 61 18
f 62 56 77
f 61 56 62
f 389 208 207
f 188 396 207
f 207 396 389
f 207 176 188
f 391 392 389
f 377 375 391
f 170 185 186
f 186 205 170
f 178 196 186
f 196 205 186
f 149 148 174
f 174 185 149
f 174 177 178
f 178 186 174
f 174 186 185
f 152 131 130
f 170 205 191
f 206 192 191
f 191 205 206
f 247 267 237
f 237 267 235
f 237 235 222
f 222 234 237
f 237 234 247
f 236 235 239
f 389 396 390
f 390 396 377
f 390 391 389
f 377 391 390
f 153 384 377
f 377 396 153
f 109 102 111
f 88 366 134
f 344 313 343
f 291 295 296
f 346 344 24
f 347 313 346
f 313 344 346
f 29 5 345
f 29 342 12
f 29 345 342
f 75 73 74
f 75 89 76
f 74 89 75
f 83 73 51
f 83 51 50
f 83 110 74
f 74 73 83
f 83 97 110
f 27 26 42
f 22 26 27
f 24 344 25
f 25 344 343
f 25 339 3
f 25 343 339
f 3 2 25
f 2 22 25
f 45 79 46
f 46 79 80
f 46 370 42
f 80 370 46
f 71 44 8
f 73 75 71
f 9 26 2
f 361 184 360
f 113 67 63
f 112 67 113
f 113 63 66
f 66 112 113
f 63 67 64
f 77 56 64
f 64 56 63
f 64 98 77
f 64 67 98
f 137 101 129
f 101 100 129
f 129 131 137
f 124 102 137
f 124 138 125
f 137 138 124
f 125 138 147
f 147 148 149
f 272 297 279
f 279 297 262
f 279 278 272
f 262 278 279
f 264 258 263
f 263 258 262
f 263 262 298
f 298 307 263
f 261 278 262
f 262 258 261
f 239 278 261
f 261 258 239
f 393 282 280
f 393 394 282
f 376 290 379
f 290 394 379
f 379 378 376
f 381 378 379
f 374 375 379
f 379 375 381
f 330 319 338
f 319 340 338
f 338 340 5
f 308 296 295
f 294 307 330
f 341 325 334
f 14 341 334
f 334 333 14
f 334 324 333
f 334 325 324
f 11 10 17
f 17 18 11
f 12 13 11
f 13 10 11
f 11 18 30
f 11 29 12
f 49 18 61
f 49 62 50
f 61 62 49
f 30 18 49
f 50 51 49
f 176 207 197
f 197 207 208
f 176 177 173
f 173 175 176
f 177 174 173
f 155 175 173
f 161 138 131
f 131 152 161
f 161 147 138
f 148 147 161
f 239 258 246
f 246 236 239
f 222 235 223
f 235 236 223
f 189 171 170
f 170 191 189
f 189 191 192
f 192 193 189
f 264 291 276
f 277 273 276
f 259 258 264
f 264 276 259
f 259 276 273
f 358 359 204
f 179 396 180
f 179 153 396
f 151 152 130
f 384 153 151
f 130 383 151
f 151 383 384
f 125 147 145
f 145 147 149
f 38 39 34
f 326 306 328
f 305 306 303
f 277 352 353
f 291 296 292
f 277 276 292
f 292 276 291
f 312 313 309
f 309 308 312
f 296 308 309
f 347 328 349
f 349 313 347
f 349 309 313
f 370 69 60
f 8 9 1
f 1 9 2
f 5 6 1
f 7 48 8
f 7 6 30
f 8 1 7
f 7 1 6
f 51 48 47
f 30 49 47
f 47 49 51
f 47 7 30
f 48 7 47
f 51 73 52
f 52 48 51
f 73 71 52
f 8 48 52
f 52 71 8
f 77 97 78
f 97 83 78
f 78 83 50
f 50 62 78
f 78 62 77
f 22 27 23
f 24 25 23
f 23 25 22
f 42 370 371
f 371 27 42
f 44 71 72
f 45 9 72
f 72 9 44
f 72 79 45
f 76 79 72
f 72 75 76
f 72 71 75
f 8 44 43
f 43 9 8
f 44 9 43
f 41 9 45
f 26 9 41
f 42 26 41
f 41 46 42
f 45 46 41
f 231 212 358
f 165 361 360
f 362 361 165
f 212 209 211
f 358 212 211
f 211 359 358
f 360 359 211
f 128 100 114
f 128 129 100
f 128 115 130
f 130 131 128
f 131 129 128
f 114 104 128
f 128 104 115
f 395 393 280
f 280 281 395
f 395 281 397
f 394 393 395
f 374 379 395
f 395 379 394
f 395 375 374
f 395 391 375
f 397 392 395
f 392 391 395
f 307 294 293
f 293 295 291
f 293 291 264
f 264 263 293
f 293 263 307
f 312 308 311
f 311 293 294
f 311 339 312
f 311 308 295
f 295 293 311
f 330 338 311
f 311 338 339
f 30 6 28
f 28 11 30
f 29 11 28
f 5 29 28
f 28 6 5
f 198 197 208
f 198 226 199
f 198 208 226
f 199 196 195
f 195 198 199
f 197 198 195
f 196 177 195
f 195 177 176
f 176 197 195
f 155 173 162
f 148 161 162
f 162 174 148
f 162 173 174
f 162 152 155
f 162 161 152
f 219 192 206
f 206 221 219
f 219 221 222
f 222 223 219
f 193 216 215
f 224 223 236
f 236 246 244
f 244 224 236
f 244 216 193
f 193 224 244
f 260 246 258
f 258 259 260
f 275 353 356
f 359 184 202
f 202 204 359
f 194 189 193
f 193 215 194
f 194 215 216
f 153 179 154
f 154 151 153
f 154 175 155
f 155 152 154
f 152 151 154
f 167 169 170
f 170 171 167
f 184 361 182
f 76 89 90
f 92 89 91
f 91 109 92
f 109 111 92
f 125 145 126
f 68 60 69
f 367 368 82
f 369 69 370
f 369 368 69
f 369 370 80
f 80 82 369
f 82 368 369
f 159 158 362
f 362 165 159
f 159 165 163
f 304 306 326
f 304 303 306
f 253 304 36
f 303 304 253
f 256 353 352
f 356 353 256
f 350 292 296
f 296 309 350
f 309 349 350
f 350 306 305
f 350 328 306
f 350 349 328
f 38 336 337
f 347 346 337
f 38 34 37
f 37 336 38
f 37 35 36
f 34 35 37
f 36 304 327
f 327 304 326
f 327 37 36
f 336 37 327
f 5 1 4
f 4 338 5
f 4 2 3
f 4 1 2
f 3 339 4
f 339 338 4
f 373 23 27
f 24 23 373
f 212 231 229
f 229 231 232
f 255 243 356
f 356 256 255
f 255 256 252
f 163 165 166
f 166 164 163
f 166 165 360
f 360 211 166
f 166 211 209
f 209 164 166
f 310 294 330
f 330 311 310
f 310 311 294
f 220 193 192
f 220 224 193
f 192 219 220
f 220 219 223
f 223 224 220
f 273 275 251
f 251 275 250
f 251 259 273
f 251 260 259
f 216 244 245
f 245 244 246
f 246 260 245
f 217 194 245
f 245 194 216
f 214 218 355
f 232 231 355
f 355 243 232
f 355 218 250
f 274 273 277
f 274 275 273
f 277 353 274
f 353 275 274
f 183 202 184
f 184 182 183
f 183 182 181
f 213 194 217
f 217 218 213
f 213 218 214
f 187 154 179
f 187 180 188
f 187 179 180
f 175 154 187
f 188 176 187
f 176 175 187
f 172 183 168
f 168 183 181
f 168 171 172
f 168 167 171
f 146 126 145
f 144 361 362
f 144 182 361
f 181 182 144
f 94 118 116
f 94 90 89
f 122 124 125
f 125 126 122
f 122 126 123
f 122 111 102
f 102 124 122
f 122 92 111
f 123 92 122
f 36 35 58
f 58 35 57
f 57 60 58
f 60 68 58
f 36 58 86
f 86 58 68
f 368 367 87
f 88 84 87
f 87 366 88
f 87 367 366
f 158 159 156
f 88 134 132
f 40 34 39
f 40 35 34
f 57 35 40
f 257 256 352
f 257 352 305
f 257 253 252
f 252 256 257
f 305 303 257
f 303 253 257
f 292 350 351
f 351 352 277
f 277 292 351
f 305 352 351
f 351 350 305
f 329 337 336
f 336 327 329
f 347 337 329
f 329 328 347
f 326 328 329
f 329 327 326
f 27 371 372
f 372 373 27
f 39 373 372
f 372 40 39
f 348 346 24
f 24 373 348
f 38 337 348
f 348 337 346
f 348 39 38
f 348 373 39
f 210 209 212
f 212 229 210
f 36 164 210
f 210 164 209
f 36 210 230
f 230 210 229
f 230 229 232
f 243 255 242
f 232 243 242
f 242 230 232
f 249 251 250
f 249 218 217
f 250 218 249
f 217 245 249
f 260 251 249
f 249 245 260
f 214 355 357
f 358 204 357
f 357 204 214
f 357 231 358
f 357 355 231
f 354 355 250
f 354 275 356
f 250 275 354
f 356 243 354
f 243 355 354
f 194 213 203
f 214 204 203
f 203 213 214
f 123 126 127
f 126 146 127
f 127 136 123
f 146 160 127
f 127 160 136
f 117 364 365
f 365 134 366
f 365 364 134
f 134 364 135
f 135 132 134
f 133 132 135
f 135 364 158
f 158 156 135
f 135 156 133
f 363 144 362
f 362 158 363
f 158 364 363
f 121 364 117
f 121 117 116
f 81 105 82
f 80 79 81
f 81 82 80
f 81 79 76
f 76 90 81
f 90 105 81
f 82 105 106
f 106 367 82
f 108 106 105
f 108 365 366
f 117 365 108
f 366 367 108
f 367 106 108
f 107 105 90
f 90 94 107
f 107 94 116
f 107 108 105
f 116 117 107
f 117 108 107
f 89 92 93
f 93 94 89
f 93 92 123
f 123 136 93
f 93 136 118
f 118 94 93
f 368 87 70
f 69 368 70
f 84 86 70
f 70 87 84
f 70 68 69
f 70 86 68
f 157 159 163
f 157 156 159
f 157 164 36
f 163 164 157
f 36 133 157
f 133 156 157
f 85 84 88
f 88 132 85
f 36 86 85
f 85 86 84
f 85 133 36
f 85 132 133
f 57 40 59
f 59 60 57
f 59 372 371
f 40 372 59
f 370 60 59
f 59 371 370
f 254 255 252
f 254 242 255
f 254 253 36
f 252 253 254
f 36 230 254
f 230 242 254
f 194 203 190
f 189 194 190
f 190 183 172
f 172 171 190
f 171 189 190
f 143 168 181
f 181 144 143
f 169 167 150
f 167 160 150
f 149 169 150
f 150 160 146
f 150 145 149
f 150 146 145
f 140 363 364
f 364 121 140
f 144 363 140
f 140 143 144
f 140 121 139
f 139 143 140
f 120 121 116
f 139 121 120
f 116 118 120
f 183 190 201
f 201 190 203
f 202 183 201
f 204 202 201
f 201 203 204
f 168 143 142
f 167 168 142
f 142 160 167
f 142 143 139
f 142 141 160
f 142 120 118
f 139 120 142
f 118 136 119
f 119 142 118
f 141 142 119
f 136 160 119
f 160 141 119

